<svg width="30" height="30" viewBox="0 0 30 30" xmlns="http://www.w3.org/2000/svg"><path d="M15 3.29622C8.37346 3.29622 3 8.66874 3 15.2963C3 20.5983 6.43837 25.0964 11.2064 26.6832C11.8061 26.7942 12.0263 26.4228 12.0263 26.1059C12.0263 25.8198 12.0151 24.8744 12.01 23.8717C8.67152 24.5976 7.96707 22.4558 7.96707 22.4558C7.42121 21.0688 6.6347 20.7 6.6347 20.7C5.54598 19.9552 6.71676 19.9705 6.71676 19.9705C7.9218 20.0552 8.55632 21.2071 8.55632 21.2071C9.62659 23.0417 11.3636 22.5113 12.0483 22.2047C12.156 21.429 12.4671 20.8997 12.8102 20.6001C10.1449 20.2966 7.34291 19.2676 7.34291 14.6696C7.34291 13.3595 7.81169 12.2889 8.57938 11.4486C8.45477 11.1463 8.04406 9.92583 8.69561 8.2729C8.69561 8.2729 9.70329 7.95037 11.9965 9.50297C12.9536 9.237 13.9802 9.10374 15 9.09922C16.0199 9.10374 17.0472 9.237 18.0062 9.50297C20.2967 7.95037 21.303 8.2729 21.303 8.2729C21.9561 9.92583 21.5452 11.1463 21.4206 11.4486C22.19 12.2889 22.6556 13.3594 22.6556 14.6696C22.6556 19.2785 19.8483 20.2935 17.1763 20.5905C17.6066 20.9629 17.9902 21.6932 17.9902 22.8127C17.9902 24.4183 17.9762 25.7106 17.9762 26.1059C17.9762 26.4252 18.1922 26.7994 18.8006 26.6816C23.566 25.093 27 20.5965 27 15.2963C27 8.66874 21.6273 3.29622 15 3.29622Z"/><path d="M7.49444 20.3906C7.46809 20.4502 7.37416 20.468 7.2888 20.4272C7.20174 20.388 7.1528 20.3067 7.18104 20.2469C7.20692 20.1855 7.30085 20.1684 7.38771 20.2096C7.47496 20.2487 7.52465 20.3307 7.49444 20.3906M8.08473 20.9172C8.0275 20.9703 7.9156 20.9457 7.83965 20.8618C7.76116 20.7781 7.74648 20.6663 7.80455 20.6124C7.86356 20.5594 7.97207 20.5842 8.05075 20.6679C8.12924 20.7525 8.14449 20.8637 8.08463 20.9173M8.4897 21.5911C8.4161 21.6422 8.29582 21.5943 8.22157 21.4876C8.14806 21.381 8.14806 21.253 8.22317 21.2017C8.29771 21.1504 8.4161 21.1965 8.49139 21.3024C8.5648 21.4109 8.5648 21.5389 8.4896 21.5912M9.17448 22.3716C9.10869 22.4441 8.96865 22.4247 8.86606 22.3257C8.76122 22.2289 8.73195 22.0916 8.79792 22.019C8.86446 21.9464 9.00535 21.9668 9.10869 22.065C9.21287 22.1615 9.24468 22.2999 9.17457 22.3716M10.0595 22.6351C10.0306 22.729 9.89567 22.7718 9.75977 22.7319C9.62406 22.6907 9.53522 22.5806 9.5626 22.4857C9.59084 22.3911 9.72636 22.3466 9.8633 22.3893C9.99882 22.4302 10.0879 22.5395 10.0596 22.6351M11.0669 22.7468C11.0703 22.8458 10.955 22.9279 10.8123 22.9297C10.6688 22.9328 10.5528 22.8527 10.5513 22.7554C10.5513 22.6554 10.6639 22.5741 10.8074 22.5718C10.95 22.569 11.0669 22.6485 11.0669 22.7468M12.0564 22.7089C12.0736 22.8055 11.9744 22.9047 11.8327 22.931C11.6934 22.9564 11.5645 22.8969 11.5467 22.8011C11.5294 22.7021 11.6305 22.603 11.7695 22.5773C11.9114 22.5527 12.0384 22.6107 12.0564 22.7089"/></svg>