<svg width="32" height="32" viewBox="0 0 32 32" xmlns="http://www.w3.org/2000/svg">
<path d="M13.4347 14.667C14.2347 14.667 14.8827 15.267 14.868 16.0003C14.868 16.7337 14.236 17.3337 13.4347 17.3337C12.648 17.3337 12 16.7337 12 16.0003C12 15.267 12.6333 14.667 13.4347 14.667ZM18.5653 14.667C19.3667 14.667 20 15.267 20 16.0003C20 16.7337 19.3667 17.3337 18.5653 17.3337C17.7787 17.3337 17.132 16.7337 17.132 16.0003C17.132 15.267 17.764 14.667 18.5653 14.667ZM25.188 2.66699C26.7387 2.66699 28 3.95499 28 5.55099V30.667L25.052 28.007L23.392 26.439L21.636 24.7723L22.364 27.363H6.812C5.26133 27.363 4 26.075 4 24.479V5.55099C4 3.95499 5.26133 2.66699 6.812 2.66699H25.1867H25.188ZM19.8947 20.951C22.9253 20.8537 24.092 18.823 24.092 18.823C24.092 14.315 22.116 10.6603 22.116 10.6603C20.1427 9.14966 18.2627 9.19099 18.2627 9.19099L18.0707 9.41499C20.4027 10.143 21.4853 11.1937 21.4853 11.1937C20.2121 10.4763 18.8089 10.0194 17.3573 9.84966C16.4366 9.74566 15.5066 9.75462 14.588 9.87633C14.5053 9.87633 14.436 9.89099 14.3547 9.90433C13.8747 9.94699 12.708 10.1283 11.2413 10.787C10.7347 11.0243 10.432 11.1937 10.432 11.1937C10.432 11.1937 11.5707 10.087 14.0387 9.35899L13.9013 9.19099C13.9013 9.19099 12.0227 9.14966 10.048 10.6617C10.048 10.6617 8.07333 14.315 8.07333 18.823C8.07333 18.823 9.22533 20.8523 12.256 20.951C12.256 20.951 12.7627 20.3217 13.176 19.7897C11.4333 19.2563 10.776 18.1363 10.776 18.1363C10.776 18.1363 10.912 18.235 11.1587 18.375C11.172 18.3883 11.1853 18.403 11.2133 18.4163C11.2547 18.4457 11.296 18.459 11.3373 18.487C11.68 18.683 12.0227 18.8363 12.3373 18.963C12.9 19.187 13.572 19.411 14.3547 19.5657C15.5271 19.7955 16.7325 19.8 17.9067 19.579C18.5906 19.4569 19.2578 19.2551 19.8947 18.9777C20.3747 18.795 20.9093 18.5283 21.472 18.151C21.472 18.151 20.7867 19.299 18.9893 19.8177C19.4013 20.3497 19.896 20.951 19.896 20.951H19.8947Z"/>
</svg>
