<svg width="32" height="32" viewBox="0 0 32 32" xmlns="http://www.w3.org/2000/svg">
<path d="M15.9993 29.3337C8.63535 29.3337 2.66602 23.3643 2.66602 16.0003C2.66602 8.63633 8.63535 2.66699 15.9993 2.66699C23.3633 2.66699 29.3327 8.63633 29.3327 16.0003C29.3327 23.3643 23.3633 29.3337 15.9993 29.3337ZM11.8527 17.5603L11.87 17.551L13.03 21.3777C13.1793 21.7923 13.3847 21.867 13.634 21.8323C13.8847 21.799 14.0167 21.6643 14.1807 21.507L15.7647 19.9763L19.1647 22.4937C19.786 22.8363 20.2327 22.659 20.3873 21.9177L22.5967 11.4883C22.8407 10.5177 22.414 10.1283 21.6607 10.4377L8.68335 15.451C7.79802 15.8057 7.80335 16.3017 8.52335 16.5217L11.8527 17.5617V17.5603Z"/>
</svg>
