<svg width="30" height="30" viewBox="0 0 30 30" xmlns="http://www.w3.org/2000/svg"><path d="M26.5468 4.38318C26.1374 4.03602 25.4944 3.98634 24.8295 4.25326H24.8285C24.1292 4.53383 5.03537 12.7238 4.25808 13.0584C4.11671 13.1075 2.88199 13.5682 3.00918 14.5944C3.12271 15.5196 4.11507 15.9028 4.23625 15.947L9.09049 17.6091C9.41255 18.6812 10.5998 22.6364 10.8623 23.4814C11.0261 24.0081 11.293 24.7003 11.7608 24.8427C12.1713 25.001 12.5796 24.8564 12.8438 24.649L15.8116 21.8962L20.6025 25.6326L20.7166 25.7008C21.0419 25.8449 21.3536 25.917 21.6511 25.917C21.8809 25.917 22.1014 25.8739 22.3121 25.7876C23.0299 25.4929 23.317 24.8089 23.347 24.7314L26.9256 6.13044C27.144 5.137 26.8405 4.63154 26.5468 4.38318ZM13.3716 18.274L11.734 22.6408L10.0965 17.1823L22.6511 7.90282L13.3716 18.274Z"/></svg>