<svg width="30" height="30" viewBox="0 0 30 30" xmlns="http://www.w3.org/2000/svg"><path d="M28 6.937C27.043 7.362 26.015 7.648 24.936 7.777C26.038 7.117 26.883 6.072 27.281 4.826C26.251 5.437 25.109 5.881 23.893 6.121C22.92 5.084 21.534 4.436 20 4.436C17.054 4.436 14.666 6.825 14.666 9.77C14.666 10.188 14.714 10.596 14.804 10.985C10.371 10.763 6.441 8.639 3.809 5.411C3.351 6.199 3.088 7.115 3.088 8.094C3.088 9.944 4.029 11.577 5.46 12.533C4.586 12.505 3.763 12.265 3.044 11.866C3.044 11.889 3.044 11.91 3.044 11.933C3.044 14.518 4.882 16.674 7.323 17.163C6.876 17.285 6.404 17.35 5.917 17.35C5.574 17.35 5.239 17.316 4.914 17.255C5.593 19.374 7.563 20.917 9.897 20.96C8.072 22.391 5.772 23.244 3.272 23.244C2.842 23.244 2.417 23.219 1.999 23.169C4.36 24.682 7.163 25.565 10.176 25.565C19.988 25.565 25.352 17.437 25.352 10.388C25.352 10.157 25.347 9.927 25.337 9.698C26.38 8.945 27.285 8.006 28 6.937Z"/></svg>