<?xml version="1.0" standalone="no"?>
<!DOCTYPE svg PUBLIC "-//W3C//DTD SVG 1.1//EN" "http://www.w3.org/Graphics/SVG/1.1/DTD/svg11.dtd" >
<svg xmlns="http://www.w3.org/2000/svg" xmlns:xlink="http://www.w3.org/1999/xlink" version="1.1">
<metadata>
Created by FontForge 20170731 at Wed Sep 25 16:43:24 2019
 By Aleksey,,,
Copyright 2018 The Kulim Park Project Authors (https://github.com/noponies/Kulim-Park)
</metadata>
<defs>
<font id="KulimPark-Regular" horiz-adv-x="0" >
  <font-face 
    font-family="Kulim Park"
    font-weight="400"
    font-stretch="normal"
    units-per-em="1000"
    panose-1="0 0 0 0 0 0 0 0 0 0"
    ascent="800"
    descent="-200"
    x-height="500"
    cap-height="700"
    bbox="-80 -219.496 1204 918"
    underline-thickness="50"
    underline-position="-175"
    unicode-range="U+000D-FB02"
  />
<missing-glyph horiz-adv-x="364" 
d="M33 0v666h265v-666h-265zM66 33h199v600h-199v-600z" />
    <glyph glyph-name="fi" unicode="fi" horiz-adv-x="564" 
d="M338 628q-59 3 -86.5 -10.5t-36 -43t-8.5 -75.5h93v-69h-93v-431h-78v431h-89v69h89q0 67 17.5 114.5t63 71.5t128.5 19v-76zM461 566q-22 0 -37.5 15.5t-15.5 37.5t15.5 37.5t37.5 15.5t37.5 -15.5t15.5 -37.5t-15.5 -37.5t-37.5 -15.5zM499 0h-75v500h75v-500z" />
    <glyph glyph-name="fl" unicode="fl" horiz-adv-x="538" 
d="M338 628q-59 3 -86.5 -10.5t-36 -43t-8.5 -75.5h93v-69h-93v-431h-78v431h-89v69h89q0 67 17.5 114.5t63 71.5t128.5 19v-76zM487 0h-79v700h79v-700z" />
    <glyph glyph-name=".notdef" horiz-adv-x="364" 
d="M33 0v666h265v-666h-265zM66 33h199v600h-199v-600z" />
    <glyph glyph-name=".null" 
 />
    <glyph glyph-name="nonmarkingreturn" horiz-adv-x="333" 
 />
    <glyph glyph-name="NULL" 
 />
    <glyph glyph-name="NULL" 
 />
    <glyph glyph-name="CR" unicode="&#xd;" horiz-adv-x="380" 
 />
    <glyph glyph-name="space" unicode=" " horiz-adv-x="380" 
 />
    <glyph glyph-name="exclam" unicode="!" horiz-adv-x="204" 
d="M139 700l-3 -520h-67l-5 520h75zM102 -10q-21 0 -36.5 15.5t-15.5 36.5t15.5 36t36.5 16q21 0 36 -15.5t16 -36.5q0 -21 -15.5 -36.5t-36.5 -15.5z" />
    <glyph glyph-name="quotedbl" unicode="&#x22;" horiz-adv-x="294" 
d="M254 700l-8 -237h-59l-8 237h75zM115 700l-8 -237h-59l-8 237h75z" />
    <glyph glyph-name="numbersign" unicode="#" horiz-adv-x="779" 
d="M739 509l-1 -75h-159l-45 -169h146v-74h-166l-52 -190h-85l53 190l-175 1l-52 -191h-78l50 191h-135v75h156l46 168h-143v76l163 -1l51 187h77l-49 -187h177l52 187h79l-49 -188h139zM498 434l-178 1l-45 -169h176z" />
    <glyph glyph-name="dollar" unicode="$" horiz-adv-x="544" 
d="M239 752h66v-48q44 -2 90 -14t88 -35l-53 -64q-30 13 -61.5 22t-63.5 12v-224q65 -18 109.5 -41t67 -60.5t22.5 -100.5q0 -54 -26.5 -98t-72 -72.5t-100.5 -35.5v-47h-66v47q-57 6 -110 30.5t-89 57.5l61 56q30 -24 66.5 -40.5t71.5 -21.5v260q-59 18 -102 44.5t-65 64.5
t-18 93q6 72 55 114.5t130 51.5v49zM136 528q0 -45 28.5 -68.5t74.5 -39.5v203q-42 -7 -72 -29.5t-31 -65.5zM424 199q0 44 -29 72t-90 46v-242q50 9 84 42t35 82z" />
    <glyph glyph-name="percent" unicode="%" horiz-adv-x="846" 
d="M203 399q-43 0 -78 20.5t-55 55t-20 75.5q0 43 20.5 77.5t55 54.5t77.5 20q42 0 76 -20t54 -54.5t20 -77.5q0 -44 -20.5 -78.5t-55 -53.5t-74.5 -19zM222 -1l309 702h82l-310 -702h-81zM203 468q35 0 58 24.5t23 57.5q0 34 -24 58t-57 24q-36 0 -59.5 -23.5t-23.5 -58.5
q0 -34 24 -58t59 -24zM645 -4q-43 0 -77.5 21t-54.5 55.5t-20 74.5q0 43 20 77.5t54.5 54.5t77.5 20t77 -20t54 -54.5t20 -77.5q0 -44 -21 -78t-55 -53.5t-75 -19.5zM645 66q36 0 59 24.5t23 56.5q0 35 -24 59t-58 24q-36 0 -59.5 -23.5t-23.5 -59.5q0 -33 24.5 -57
t58.5 -24z" />
    <glyph glyph-name="ampersand" unicode="&#x26;" horiz-adv-x="696" 
d="M558 0l-78 83q-65 -57 -130 -76t-122.5 -8.5t-101 42.5t-67.5 78t-21 98t38.5 103t111.5 91l-45 56q-28 37 -29 79.5t20 80t59.5 61.5t90.5 24q73 0 114 -30.5t65 -92.5l-69 -26q-15 40 -40.5 58.5t-69.5 16.5q-36 -2 -60.5 -24.5t-28 -53.5t21.5 -60l261 -301
q11 22 16 45t7 52.5t1 73.5h72q1 -73 -6 -126.5t-40 -104.5l128 -139h-98zM431 136l-198 225q-66 -36 -93 -78.5t-22.5 -84.5t32.5 -74t72.5 -46t99 -1.5t109.5 59.5z" />
    <glyph glyph-name="quotesingle" unicode="'" horiz-adv-x="155" 
d="M115 700l-8 -237h-59l-8 237h75z" />
    <glyph glyph-name="parenleft" unicode="(" horiz-adv-x="300" 
d="M260 -90h-75q-67 80 -101 182.5t-34 222.5q0 130 36.5 224.5t97.5 165.5h74q-44 -48 -74.5 -112t-46.5 -136t-16 -142q0 -73 15.5 -147.5t46.5 -141t77 -116.5z" />
    <glyph glyph-name="parenright" unicode=")" horiz-adv-x="302" 
d="M42 -90h75q67 80 101 182.5t34 222.5q0 130 -36.5 224.5t-97.5 165.5h-74q44 -48 74.5 -112t46.5 -136t16 -142q0 -73 -15.5 -147.5t-46.5 -141t-77 -116.5z" />
    <glyph glyph-name="asterisk" unicode="*" horiz-adv-x="404" 
d="M354 502l-25 -50l-98 50v-111h-57v110l-93 -55l-30 48l93 51l-94 47l24 51l100 -51v112h57v-109l92 54l29 -48l-93 -53z" />
    <glyph glyph-name="plus" unicode="+" horiz-adv-x="595" 
d="M545 265h-495v70h495v-70zM333 548v-495h-70v495h70z" />
    <glyph glyph-name="comma" unicode="," horiz-adv-x="167" 
d="M20 56q0 22 16 37.5t39 16.5q22 0 38 -17.5t14 -39.5q0 -12 -7 -34.5t-16.5 -48.5t-19 -48.5t-14.5 -34.5l-30 13q7 13 17 44.5t15 58.5q-23 0 -37.5 15.5t-14.5 37.5z" />
    <glyph glyph-name="hyphen" unicode="-" horiz-adv-x="450" 
d="M400 265h-350v70h350v-70z" />
    <glyph glyph-name="period" unicode="." horiz-adv-x="164" 
d="M62 -5q-21 1 -36.5 16t-15.5 36q0 22 15.5 37t36.5 15t36 -15t16 -37q0 -21 -15.5 -36.5t-36.5 -15.5z" />
    <glyph glyph-name="slash" unicode="/" horiz-adv-x="505" 
d="M470 700l-360 -804h-75l360 804h75z" />
    <glyph glyph-name="zero" unicode="0" horiz-adv-x="672" 
d="M560 102q-37 -49 -93 -78t-131 -29q-77 0 -132 29t-92 78q-36 49 -54 113t-18 135t18 135.5t55 113.5q36 48 92 77t131 29t131 -29.5t93 -78.5t54.5 -113t17.5 -134q0 -71 -18 -134.5t-54 -113.5zM500 544q-26 37 -67 58t-97 21q-57 0 -98 -21t-67 -58q-27 -38 -39 -88
t-12 -106t12 -106t38 -88q27 -37 68 -59t98 -22q56 0 97 22t67 59q27 38 39 88t12 106q1 56 -11.5 106t-39.5 88z" />
    <glyph glyph-name="one" unicode="1" horiz-adv-x="290" 
d="M250 0h-79v611l-78 -78l-53 53l116 114h94v-700z" />
    <glyph glyph-name="two" unicode="2" horiz-adv-x="557" 
d="M56 0v61q0 53 21.5 86t57 56t79.5 46q87 43 149.5 94t76.5 114q9 43 -12 81.5t-61.5 63.5t-90.5 25q-61 0 -98 -25t-42 -83h-85q5 85 62 136t171 50q72 0 125.5 -32.5t83.5 -84.5t30 -111q0 -69 -35.5 -119.5t-95.5 -91.5t-131 -79q-40 -22 -65.5 -36.5t-38 -31
t-12.5 -42.5h372v-77h-461z" />
    <glyph glyph-name="three" unicode="3" horiz-adv-x="532" 
d="M266 -8q-80 0 -135 39.5t-87 107.5l78 23q23 -40 62.5 -64.5t81.5 -24.5q40 0 73 17t53 45t20 62q0 35 -18.5 65t-51 48.5t-76.5 18.5h-69v63h72q62 0 95.5 36.5t33.5 83.5q0 33 -18 58t-46.5 39t-61.5 14q-46 0 -80.5 -25.5t-47.5 -73.5l-81 19q21 76 79 118.5t130 42.5
q56 0 103 -24.5t75.5 -68t28.5 -99.5q0 -42 -19.5 -79.5t-66.5 -71.5q51 -29 75 -73.5t24 -90.5q0 -58 -31.5 -104.5t-82.5 -73.5t-112 -27z" />
    <glyph glyph-name="four" unicode="4" horiz-adv-x="588" 
d="M548 190h-106v-190h-78v190h-324v75l271 436h131v-437h106v-74zM364 264v346h-24l-217 -346h241z" />
    <glyph glyph-name="five" unicode="5" horiz-adv-x="527" 
d="M254 -6q-68 0 -117.5 22.5t-96.5 72.5l57 58q37 -38 71.5 -55.5t85.5 -17.5q42 0 78 21t58.5 56t22.5 78q0 55 -26 93t-66 54.5t-83 7.5t-78 -49l-75 29l32 336h358v-79h-282l-22 -180q66 28 124 23.5t102 -36t69 -83t25 -116.5q0 -66 -33.5 -119.5t-87 -84.5t-116.5 -31
z" />
    <glyph glyph-name="six" unicode="6" horiz-adv-x="552" 
d="M275 -6q-64 0 -117.5 31.5t-85.5 84.5t-32 117q0 85 35 169.5t117 182.5q24 31 54 62.5t58 58.5h101q-69 -70 -127.5 -137t-100.5 -140q42 29 88 33.5t90 -11t79.5 -47t56.5 -75t21 -96.5q0 -65 -32.5 -118t-86 -84t-118.5 -31zM277 75q42 0 77 20.5t56.5 55t21.5 76.5
q0 43 -21 77.5t-56 55t-78 20.5q-42 0 -77 -20t-56.5 -54.5t-21.5 -78.5q0 -42 22 -76.5t57.5 -55t75.5 -20.5z" />
    <glyph glyph-name="seven" unicode="7" horiz-adv-x="459" 
d="M419 701l-1 -67l-198 -634h-85l196 620h-291v81h379z" />
    <glyph glyph-name="eight" unicode="8" horiz-adv-x="543" 
d="M271 -5q-64 0 -116.5 27t-83.5 74t-31 108q0 48 29 96t82 75q-40 26 -61 66t-21 77q0 53 28 95t74 67t100 25q57 0 103 -25t73 -67.5t27 -94.5q0 -37 -20 -76.5t-61 -66.5q54 -28 82 -75t28 -96q0 -61 -32 -108.5t-84.5 -74t-115.5 -26.5zM271 408q56 0 89.5 29.5
t33.5 80.5t-34 80t-89 29t-88 -29.5t-33 -79.5q0 -52 34 -81t87 -29zM271 71q65 0 108.5 35t43.5 98q0 62 -44 95t-108 33q-66 0 -108 -35t-42 -93q0 -62 42 -97.5t108 -35.5z" />
    <glyph glyph-name="nine" unicode="9" horiz-adv-x="552" 
d="M277 706q64 0 117.5 -31.5t85.5 -84.5t32 -117q0 -85 -35 -169.5t-117 -182.5q-24 -31 -54 -62.5t-58 -58.5h-101q69 70 127.5 137t100.5 140q-42 -29 -88 -33.5t-90 11t-79.5 47t-56.5 75t-21 96.5q0 65 32.5 118t86 84t118.5 31zM275 625q-42 0 -77 -20.5t-56.5 -55
t-21.5 -76.5q0 -43 21 -77.5t56 -55t78 -20.5q42 0 77 20t56.5 54.5t21.5 78.5q0 42 -22 76.5t-57.5 55t-75.5 20.5z" />
    <glyph glyph-name="colon" unicode=":" horiz-adv-x="204" 
d="M102 -10q-21 1 -36.5 16t-15.5 36q0 22 15.5 37t36.5 15t36 -15t16 -37q0 -21 -15.5 -36.5t-36.5 -15.5zM102 320q-21 1 -36.5 16t-15.5 36q0 22 15.5 37t36.5 15t36 -15t16 -37q0 -21 -15.5 -36.5t-36.5 -15.5z" />
    <glyph glyph-name="semicolon" unicode=";" horiz-adv-x="168" 
d="M73 321q-21 1 -36.5 16t-15.5 36q0 22 15.5 37t36.5 15t36 -15t16 -37q0 -21 -15.5 -36.5t-36.5 -15.5zM21 36q0 22 16 37.5t39 16.5q22 0 38 -17.5t14 -39.5q0 -12 -7 -34.5t-16.5 -48.5t-19 -48.5t-14.5 -34.5l-30 13q7 13 17 44.5t15 58.5q-23 0 -37.5 15.5
t-14.5 37.5z" />
    <glyph glyph-name="less" unicode="&#x3c;" horiz-adv-x="507" 
d="M40 233l427 -217v88l-343 167l343 165v88l-427 -215v-76z" />
    <glyph glyph-name="equal" unicode="=" horiz-adv-x="571" 
d="M520.757 180h-470.256v70h470.256v-70zM520.757 350h-470.256v70h470.256v-70z" />
    <glyph glyph-name="greater" unicode="&#x3e;" horiz-adv-x="507" 
d="M467 233l-427 -217v88l343 167l-343 165v88l427 -215v-76z" />
    <glyph glyph-name="question" unicode="?" horiz-adv-x="570" 
d="M222 175l1 65q0 25 10 39q12 27 41.5 40.5t67.5 30.5q49 18 76 51.5t27 92.5q0 66 -44 103.5t-114 37.5q-69 0 -113.5 -28t-44.5 -90h-79q0 91 63.5 140.5t174.5 49.5q71 0 123.5 -28t81.5 -77t27 -110q-1 -80 -38 -128.5t-109 -78.5q-31 -14 -47 -22t-22 -17.5
t-6.5 -25.5t-0.5 -45h-75zM259 -10q-21 0 -36.5 15.5t-15.5 36.5q0 22 15.5 37t36.5 15t36 -15t16 -37q0 -21 -15.5 -36.5t-36.5 -15.5z" />
    <glyph glyph-name="at" unicode="@" horiz-adv-x="859" 
d="M474 -117q-92 -10 -171 12.5t-138 73t-92 123.5t-33 164q0 83 32 156t88.5 129t129.5 87.5t155 31.5q77 0 143.5 -28.5t117.5 -80t81 -120t32 -148.5q4 -137 -42 -218t-142 -81q-55 0 -83.5 29.5t-30.5 92.5q-42 -34 -87 -46.5t-84.5 -4t-64 37t-24.5 77.5q0 58 36.5 88
t96 41.5t127.5 11.5v31q0 30 -18.5 47t-52.5 17t-73.5 -16t-65.5 -39l-41 45q38 34 86 55t95 21q62 0 103 -33t41 -94v-250q0 -30 25.5 -37t53.5 10q42 15 59.5 73.5t14.5 138.5q-3 64 -27.5 119.5t-65.5 97t-95.5 64.5t-116.5 23q-69 0 -128.5 -26t-104.5 -72t-70 -106.5
t-25 -127.5q0 -100 47 -170t128 -103.5t184 -22.5v-73zM419 126q25 5 53 17.5t50 27.5v81q-87 0 -139.5 -19t-52.5 -63q0 -37 25.5 -45t63.5 1z" />
    <glyph glyph-name="A" unicode="A" horiz-adv-x="650" 
d="M40 0l234 700h101l235 -700h-85l-59 178h-283l-59 -178h-84zM325 604l-120 -359h239z" />
    <glyph glyph-name="B" unicode="B" horiz-adv-x="563" 
d="M50 0v700h262q52 0 91.5 -25t62 -67.5t22.5 -94.5q0 -41 -14 -74t-44 -70q48 -32 70.5 -74.5t22.5 -91.5q0 -37 -14 -73.5t-39 -65.5t-57.5 -46.5t-68.5 -17.5h-294zM130 388h179q27 0 49 18.5t35.5 47t13.5 59.5q0 44 -25.5 75.5t-69.5 31.5h-182v-232zM130 80h214
q28 0 50 19t35 47t13 57q0 44 -26 76.5t-69 32.5h-217v-232z" />
    <glyph glyph-name="C" unicode="C" horiz-adv-x="684" 
d="M386 -10q-73 0 -135.5 28t-109.5 76q-48 48 -74.5 112.5t-26.5 143.5q0 76 27 142t74 114t109.5 76t135.5 28t138.5 -30t119.5 -91l-63 -52q-86 94 -195 94q-56 0 -103 -22t-84 -60q-36 -38 -56.5 -88.5t-20.5 -110.5q0 -61 20.5 -111.5t56.5 -87.5q37 -38 84 -60
t103 -22q109 0 195 94l63 -52q-54 -61 -119.5 -91t-138.5 -30z" />
    <glyph glyph-name="D" unicode="D" horiz-adv-x="637" 
d="M597 352q0 -73 -26.5 -136.5t-73.5 -112t-109 -76t-134 -27.5h-204v703h204q72 0 134.5 -27.5t109.5 -76t73 -112t26 -135.5zM516 352q0 76 -34.5 138t-93.5 99t-134 37h-124v-548h124q75 0 134 37.5t93.5 100t34.5 136.5z" />
    <glyph glyph-name="E" unicode="E" horiz-adv-x="468" 
d="M428 0h-378v700h378v-72h-299v-251h242v-68h-242v-237h299v-72z" />
    <glyph glyph-name="F" unicode="F" horiz-adv-x="465" 
d="M425 624h-296v-244h239v-72h-239v-308h-79v700h375v-76z" />
    <glyph glyph-name="G" unicode="G" horiz-adv-x="717" 
d="M384 -10q-71 0 -133 27.5t-109.5 76.5t-74.5 113t-27 138q0 75 26.5 141t74 116t110 78.5t133.5 28.5q85 0 158 -38.5t125 -112.5l-69 -45q-41 56 -96 84.5t-118 28.5q-56 0 -103.5 -22.5t-83 -61.5t-55 -89.5t-19.5 -107.5q0 -55 20 -104.5t56 -87.5t83.5 -60t101.5 -22
q75 0 124.5 22t85.5 78v85h-123v78h206v-183q-42 -84 -113.5 -122.5t-179.5 -38.5z" />
    <glyph glyph-name="H" unicode="H" horiz-adv-x="602" 
d="M552 0h-79v305h-344v-305h-79v700h79v-327h344v327h79v-700z" />
    <glyph glyph-name="I" unicode="I" horiz-adv-x="179" 
d="M129 0h-79v700h79v-700z" />
    <glyph glyph-name="J" unicode="J" horiz-adv-x="386" 
d="M291 55q-30 -42 -75 -53.5t-94 -4t-92 23.5l22 74q47 -14 91 -18.5t73 19.5q26 16 34 58t8 115v431h78v-431q0 -152 -45 -214z" />
    <glyph glyph-name="K" unicode="K" horiz-adv-x="549" 
d="M508 0h-93l-250 289l-36 -19v-270h-79v701h79v-328l281 329h99l-288 -347z" />
    <glyph glyph-name="L" unicode="L" horiz-adv-x="418" 
d="M378 0h-326v700h79v-624h247v-76z" />
    <glyph glyph-name="M" unicode="M" horiz-adv-x="822" 
d="M50 0v700h165l196 -497l196 497h165v-700h-80v610h-34l-203 -501h-87l-204 501h-35v-610h-79z" />
    <glyph glyph-name="N" unicode="N" horiz-adv-x="624" 
d="M574 0h-110l-335 609v-608h-79v700h116l329 -602v602h79v-701z" />
    <glyph glyph-name="O" unicode="O" horiz-adv-x="765" 
d="M725 350q0 -76 -26.5 -141.5t-73.5 -114.5t-109 -76.5t-133 -27.5q-72 0 -134 28t-109 77.5t-73.5 114.5t-26.5 140q0 74 27 139.5t75 115t110 77.5t131 28q71 0 133 -28.5t109 -78.5t73.5 -115t26.5 -138zM644 350q0 58 -20.5 109.5t-56 91t-83 62t-101.5 22.5
q-55 0 -102.5 -22.5t-83 -62t-56 -91t-20.5 -109.5t20.5 -110t56 -91.5t83 -62t102.5 -22.5t102 22.5t83 62t56 91t20 110.5z" />
    <glyph glyph-name="P" unicode="P" horiz-adv-x="535" 
d="M50 0l1 700h267q51 0 91 -28.5t63 -75t23 -99.5q0 -37 -14.5 -72.5t-39 -65t-57 -47t-69.5 -17.5h-186v-295h-79zM129 372h184q28 0 51.5 18.5t38 47.5t14.5 59q0 34 -13.5 62.5t-36.5 45.5t-51 17h-187v-250z" />
    <glyph glyph-name="Q" unicode="Q" horiz-adv-x="765" 
d="M383 -5q-72 0 -134 27.5t-109 76.5t-73.5 113t-26.5 136q0 74 27 138.5t74.5 114t109.5 77.5t132 28q72 0 134 -28.5t108.5 -78t73 -114t26.5 -137.5q0 -76 -28 -141t-77 -113q16 -16 36.5 -22t54.5 -4v-73q-64 -2 -97.5 7.5t-59.5 39.5q-38 -23 -81 -35t-90 -12zM383 70
q36 0 69 10t62 29q-17 33 -29 52.5t-32 31.5t-59 23v84q71 -14 112.5 -44.5t70.5 -88.5q31 36 48.5 82.5t17.5 98.5q0 57 -20 107.5t-55.5 90t-82.5 62t-102 22.5t-102.5 -22.5t-83 -62t-55.5 -90.5t-20 -107q0 -55 20 -105t55.5 -89t83 -61.5t102.5 -22.5z" />
    <glyph glyph-name="R" unicode="R" horiz-adv-x="555" 
d="M515 0h-94l-180 295h-112v-295h-79l1 700h267q49 0 88.5 -28.5t63.5 -74.5t24 -100q0 -46 -21.5 -89t-57.5 -73t-82 -36zM414 497q0 30 -13 58.5t-35 47t-51 18.5h-186v-245h184q28 0 50.5 19t36.5 47t14 55z" />
    <glyph glyph-name="S" unicode="S" horiz-adv-x="544" 
d="M273 -9q-66 0 -128.5 26t-104.5 64l61 56q37 -30 83 -47.5t87 -17.5t75.5 16t55.5 44.5t22 66.5q1 48 -34 77t-108 47q-71 18 -124 44.5t-81 67.5t-23 102q7 81 67.5 124.5t159.5 43.5q48 0 101.5 -11.5t100.5 -38.5l-53 -64q-35 15 -72 24.5t-75 10.5q-37 0 -70.5 -9.5
t-54.5 -31t-22 -57.5q0 -37 20 -59.5t54 -36.5t76 -26q71 -19 119.5 -42t73.5 -61t25 -104q0 -59 -31.5 -106t-84 -74.5t-115.5 -27.5z" />
    <glyph glyph-name="T" unicode="T" horiz-adv-x="596" 
d="M556 627h-218v-627h-80v627h-218v73h516v-73z" />
    <glyph glyph-name="U" unicode="U" horiz-adv-x="609" 
d="M480 700h79v-700h-79v79q-34 -38 -80.5 -61t-100.5 -23q-72 0 -130.5 33.5t-93.5 90t-35 126.5v455h79l1 -455q0 -47 24 -85.5t65 -61.5t90 -23q52 0 93 22.5t64.5 61.5t23.5 86v455z" />
    <glyph glyph-name="V" unicode="V" horiz-adv-x="600" 
d="M560 700l-218 -700h-84l-218 700h82l178 -598l178 598h82z" />
    <glyph glyph-name="W" unicode="W" horiz-adv-x="1074" 
d="M1034 700l-218 -700h-98l-181 477l-179 -477h-98l-220 700h84l186 -598l185 479h85l185 -480l184 599h85z" />
    <glyph glyph-name="X" unicode="X" horiz-adv-x="620" 
d="M40 0l221 355l-215 345h95l169 -283l170 283h94l-216 -345l222 -355h-95l-175 291l-175 -291h-95z" />
    <glyph glyph-name="Y" unicode="Y" horiz-adv-x="632" 
d="M592 700l-236 -464v-236h-80v236l-236 464h83l193 -382l193 382h83z" />
    <glyph glyph-name="Z" unicode="Z" horiz-adv-x="561" 
d="M521 0h-481v71l380 553h-375v76h471v-72l-380 -553h385v-75z" />
    <glyph glyph-name="bracketleft" unicode="[" horiz-adv-x="277" 
d="M237 -146h-187v846h187v-71h-119v-704h119v-71z" />
    <glyph glyph-name="backslash" unicode="\" horiz-adv-x="505" 
d="M470 -104h-74l-361 804h76z" />
    <glyph glyph-name="bracketright" unicode="]" horiz-adv-x="277" 
d="M40 -146h187v846h-187v-71h119v-704h-119v-71z" />
    <glyph glyph-name="asciicircum" unicode="^" horiz-adv-x="504" 
d="M464 370h-88l-124 248l-125 -248h-87l174 330h74z" />
    <glyph glyph-name="underscore" unicode="_" horiz-adv-x="595" 
d="M545 -120h-495v56h495v-56z" />
    <glyph glyph-name="grave" unicode="`" horiz-adv-x="168" 
d="M128 605h-48l-40 134h63z" />
    <glyph glyph-name="a" unicode="a" horiz-adv-x="505" 
d="M204 -5q-70 2 -117 39.5t-47 109.5q0 75 44 117.5t120 54.5t170 -5v36q0 35 -22 55.5t-56.5 27.5t-72 1.5t-70.5 -23t-51 -45.5l-49 52q31 38 75.5 59t92.5 27t93 -3t79 -33q33 -20 45.5 -51.5t14.5 -72.5t2 -88v-253h-80v47q-37 -27 -82 -40t-89 -12zM373 118v131
q-119 15 -189 -8t-70 -96q0 -32 18.5 -50t48 -24t64.5 -2t69 17t59 32z" />
    <glyph glyph-name="b" unicode="b" horiz-adv-x="524" 
d="M484 255q0 -68 -21 -122.5t-62 -89.5t-102 -42q-50 -8 -96 7t-74 39v-47h-79v700h79v-221q37 19 69 23t60 4q72 0 122.5 -32.5t77 -89t26.5 -129.5zM404 255q0 78 -38.5 121.5t-101.5 50.5t-135 -23v-290q51 -35 100 -41t88.5 14t63 62.5t23.5 105.5z" />
    <glyph glyph-name="c" unicode="c" horiz-adv-x="493" 
d="M452 65q-52 -47 -109 -63t-110.5 -5.5t-97 45t-69.5 88t-26 123.5t25.5 122.5t69 84.5t97.5 41t111.5 -7.5t109.5 -61.5l-50 -57q-44 38 -93.5 46.5t-92.5 -10t-70 -59t-27 -99.5q0 -63 27.5 -106.5t71.5 -63t93.5 -10.5t92.5 52z" />
    <glyph glyph-name="d" unicode="d" horiz-adv-x="524" 
d="M225 1q-60 7 -101.5 42t-62.5 89.5t-21 122.5q0 73 26.5 129.5t77 89t122.5 32.5q29 0 60.5 -4t68.5 -23v221h79v-700h-79v47q-28 -24 -74 -39t-96 -7zM395 114v290q-72 30 -134.5 23t-101.5 -50.5t-39 -121.5q0 -63 23.5 -105.5t63.5 -62.5t88.5 -14t99.5 41z" />
    <glyph glyph-name="e" unicode="e" horiz-adv-x="562" 
d="M512 226h-389q2 -65 35 -103t84 -50t109 2t110 53l42 -62q-49 -38 -102 -56t-106 -19q-125 -3 -191 69.5t-66 202.5q0 111 62.5 177t181.5 65q78 0 133 -32t81 -95q13 -31 16.5 -69t-0.5 -83zM286 431q-68 0 -115.5 -35.5t-47.5 -105.5h318q0 66 -41.5 103.5t-113.5 37.5
z" />
    <glyph glyph-name="f" unicode="f" horiz-adv-x="358" 
d="M338 628q-59 3 -86.5 -10.5t-36 -43t-8.5 -75.5h93v-69h-93v-431h-78v431h-89v69h89q0 67 17.5 114.5t63 71.5t128.5 19v-76z" />
    <glyph glyph-name="g" unicode="g" horiz-adv-x="529" 
d="M274 -204q-45 0 -89.5 17.5t-74.5 45.5l50 56q35 -26 79.5 -36.5t83 0t56.5 45.5q11 23 15 47t4 60q-63 -36 -125.5 -34t-114.5 33.5t-84 86t-34 124.5q-2 83 27 141t80 89t116.5 32.5t135.5 -29.5v26h80v-489q0 -99 -51 -157t-154 -58zM119 241q1 -54 26 -90.5t66 -54.5
t90 -15.5t98 27.5v287q-82 37 -145.5 31.5t-99.5 -52t-35 -133.5z" />
    <glyph glyph-name="h" unicode="h" horiz-adv-x="522" 
d="M482 0h-79v298q0 68 -38 99.5t-100 31.5q-35 0 -65.5 -14.5t-49.5 -37.5t-19 -46v-331h-79v700h79v-249q27 30 68 42t77 11q97 -4 151.5 -57t54.5 -149v-298z" />
    <glyph glyph-name="i" unicode="i" horiz-adv-x="206" 
d="M103 566q-22 0 -37.5 15.5t-15.5 37.5t15.5 37.5t37.5 15.5t37.5 -15.5t15.5 -37.5t-15.5 -37.5t-37.5 -15.5zM141 0h-75v500h75v-500z" />
    <glyph glyph-name="j" unicode="j" horiz-adv-x="243" 
d="M141 572q-22 1 -37.5 16t-15.5 38q0 21 15.5 36.5t37.5 15.5t37 -15.5t15 -36.5q0 -23 -15 -38.5t-37 -15.5zM-30 -176v77q50 2 78.5 15t40.5 42.5t12 83.5v458h78v-458q0 -112 -52.5 -164.5t-156.5 -53.5z" />
    <glyph glyph-name="k" unicode="k" horiz-adv-x="456" 
d="M50 0v700h80v-367l166 160h110l-206 -204l216 -289h-92l-185 235l-9 -16v-219h-80z" />
    <glyph glyph-name="l" unicode="l" horiz-adv-x="179" 
d="M129 0h-79v700h79v-700z" />
    <glyph glyph-name="m" unicode="m" horiz-adv-x="851" 
d="M811 0h-78v295q0 68 -35.5 101t-91.5 33q-58 0 -96 -33t-38 -101v-295h-77v295q0 70 -38 102t-95 32q-30 0 -61 -14t-51.5 -43.5t-20.5 -76.5v-295h-79v500h79v-51q25 28 60 42t73 15q49 0 96.5 -19.5t79.5 -61.5q27 41 74 60.5t98 19.5q53 0 99 -24.5t74 -71.5t28 -114
v-295z" />
    <glyph glyph-name="n" unicode="n" horiz-adv-x="528" 
d="M488 0h-79v297q0 48 -20.5 77t-52 41.5t-65.5 12.5q-33 0 -65.5 -14t-54.5 -43t-22 -74v-297h-79v500h79v-54q23 31 63 45.5t83 14.5q58 0 106.5 -24t77.5 -70.5t29 -114.5v-297z" />
    <glyph glyph-name="o" unicode="o" horiz-adv-x="564" 
d="M282 -12q-72 0 -126.5 31t-85 87.5t-30.5 132.5q0 88 32 147t86.5 89t123.5 30q71 0 125.5 -30t85.5 -89t31 -147q0 -76 -31 -132.5t-85.5 -87.5t-125.5 -31zM282 64q53 0 90 23.5t56 63.5t19 88q0 82 -42.5 135.5t-122.5 53.5q-81 0 -123 -54t-42 -135q0 -49 18.5 -88.5
t55.5 -63t91 -23.5z" />
    <glyph glyph-name="p" unicode="p" horiz-adv-x="532" 
d="M129 -200h-79v700h79v-29q69 34 134 33t116.5 -32.5t82 -89.5t30.5 -137q0 -72 -28.5 -129t-80.5 -89t-121 -33q-28 0 -64 6t-69 27v-227zM129 107q53 -30 103.5 -34.5t91 14.5t64.5 59t24 99q0 62 -24.5 104t-65.5 61.5t-91.5 14t-101.5 -38.5v-279z" />
    <glyph glyph-name="q" unicode="q" horiz-adv-x="532" 
d="M403 -200v227q-32 -21 -68 -27t-65 -6q-69 1 -120.5 33t-80.5 89t-29 129q0 79 30.5 137t82.5 89.5t116.5 32.5t133.5 -33v29h79v-700h-79zM120 245q0 -59 24.5 -99t65 -59t91 -14.5t102.5 34.5v279q-51 33 -101 38.5t-91.5 -14t-66 -61.5t-24.5 -104z" />
    <glyph glyph-name="r" unicode="r" horiz-adv-x="363" 
d="M50 0v494h79v-46q33 37 81.5 45t122.5 -13l-37 -70q-45 16 -83.5 5.5t-61.5 -36.5t-22 -56v-323h-79z" />
    <glyph glyph-name="s" unicode="s" horiz-adv-x="420" 
d="M40 58l47 51q31 -23 62 -35.5t63 -11.5q19 0 36 5t32 17q19 14 25.5 36t-0.5 42q-8 22 -29 35t-49.5 22.5t-59 20t-56.5 26.5q-45 30 -58 68.5t0.5 76t49 63.5t88.5 30q51 3 99 -12t75 -42l-50 -48q-25 17 -54 25t-56 8q-32 -1 -54.5 -15t-25.5 -45q-2 -29 19 -45.5
t58 -29t80 -28.5q50 -20 77.5 -57.5t16.5 -95.5q-7 -54 -43.5 -85t-88.5 -39t-106.5 7.5t-97.5 55.5z" />
    <glyph glyph-name="t" unicode="t" horiz-adv-x="344" 
d="M127 216v210h-87v74h87v200h79v-200h88v-74h-88v-210q0 -64 4.5 -93.5t18.5 -37.5t41 -9h25v-79h-22q-46 0 -75 8.5t-44.5 31.5t-21 66t-5.5 113z" />
    <glyph glyph-name="u" unicode="u" horiz-adv-x="527" 
d="M477 0h-79v52q-20 -30 -57 -45t-81 -16.5t-86 11t-71 38.5q-30 26 -46.5 66t-16.5 92v302h80v-302q0 -69 39.5 -101t101.5 -32q31 0 62.5 14t53 43.5t21.5 75.5v302h79v-500z" />
    <glyph glyph-name="v" unicode="v" horiz-adv-x="549" 
d="M509 500l-185 -500h-99l-185 500h83l152 -419l151 419h83z" />
    <glyph glyph-name="w" unicode="w" horiz-adv-x="890" 
d="M850 500l-169 -500h-105l-131 407l-131 -407h-104l-170 500h84l138 -418l137 418h93l137 -417l137 417h84z" />
    <glyph glyph-name="x" unicode="x" horiz-adv-x="498" 
d="M458 0h-93l-117 195l-114 -195h-94l156 254l-153 246h95l110 -188l110 188h93l-151 -246z" />
    <glyph glyph-name="y" unicode="y" horiz-adv-x="546" 
d="M113 -172v78q29 0 54 12.5t42 33t20 45.5l-189 503h87l150 -407l141 407h88l-176 -471q-22 -62 -49 -106.5t-66.5 -69t-101.5 -25.5z" />
    <glyph glyph-name="z" unicode="z" horiz-adv-x="470" 
d="M430 0h-390v64l290 361h-283v75h383v-69l-289 -356h289v-75z" />
    <glyph glyph-name="braceleft" unicode="{" horiz-adv-x="321" 
d="M209 -141q-35 0 -58.5 23t-34.5 60t-11 78v138q0 40 -1.5 62.5t-13 31.5t-40.5 10v53q30 1 41 10t12.5 31.5t1.5 62.5v137q0 42 11 79t34 60t59 23h72v-56h-71q-13 0 -21 -9t-12 -22q-8 -24 -8 -57.5t3.5 -71t6 -72.5t0.5 -63q-2 -24 -13 -46.5t-31 -32.5q20 -9 31 -31.5
t13 -46.5q3 -28 0 -63t-6 -72t-3 -70.5t7 -57.5q4 -14 12 -23t21 -9h71v-56h-72z" />
    <glyph glyph-name="bar" unicode="|" horiz-adv-x="174" 
d="M124 -58h-74v756h74v-756z" />
    <glyph glyph-name="braceright" unicode="}" horiz-adv-x="321" 
d="M112 -141q35 0 58.5 23t34.5 60t11 78v138q0 40 1.5 62.5t13 31.5t40.5 10v53q-30 1 -41 10t-12.5 31.5t-1.5 62.5v137q0 42 -11 79t-34 60t-59 23h-72v-56h71q13 0 21 -9t12 -22q8 -24 8 -57.5t-3.5 -71t-6 -72.5t-0.5 -63q2 -24 13 -46.5t31 -32.5q-20 -9 -31 -31.5
t-13 -46.5q-3 -28 0 -63t6 -72t3 -70.5t-7 -57.5q-4 -14 -12 -23t-21 -9h-71v-56h72z" />
    <glyph glyph-name="asciitilde" unicode="~" horiz-adv-x="616" 
d="M420 192q-45 0 -73.5 13t-49.5 30t-42 29.5t-50 12.5q-36 0 -60 -22.5t-24 -67.5h-81q0 74 39.5 121.5t124.5 47.5q41 0 70.5 -13t52.5 -30.5t44 -30.5t45 -13q38 0 58.5 23.5t20.5 66.5h81q0 -41 -15 -79t-49 -62.5t-92 -25.5z" />
    <glyph glyph-name="uni00A0" unicode="&#xa0;" horiz-adv-x="380" 
 />
    <glyph glyph-name="exclamdown" unicode="&#xa1;" horiz-adv-x="204" 
d="M139 -190l-3 520h-67l-5 -520h75zM102 520q-21 0 -36.5 -15.5t-15.5 -36.5t15.5 -36t36.5 -16q21 0 36 15.5t16 36.5q0 21 -15.5 36.5t-36.5 15.5z" />
    <glyph glyph-name="cent" unicode="&#xa2;" horiz-adv-x="493" 
d="M452 158q-34 -31 -70.5 -48.5t-72.5 -22.5v-38h-60v38q-57 7 -104.5 40.5t-76 89.5t-28.5 129t28.5 127.5t76 86t104.5 36.5v41h60v-43q36 -6 73 -23t71 -46l-50 -57q-44 38 -93.5 46t-92.5 -10t-70 -58.5t-27 -99.5q0 -63 27.5 -106.5t71.5 -63t93.5 -10.5t92.5 51z" />
    <glyph glyph-name="sterling" unicode="&#xa3;" horiz-adv-x="473" 
d="M40 0v72q47 68 70 125t29 117h-81v65h77q-17 71 -23.5 122t16.5 92q17 41 51 68q45 35 112 41t135 -4v-70q-61 9 -112 4.5t-83 -25.5q-26 -16 -35.5 -39.5t-9.5 -49.5q-1 -23 7.5 -62.5t17.5 -76.5h136v-65h-136q-6 -64 -29.5 -126t-58.5 -113h302v-75h-385z" />
    <glyph glyph-name="currency" unicode="&#xa4;" horiz-adv-x="622" 
d="M582 112l-44 -44l-93 91q-66 -46 -134 -46q-67 0 -135 45l-91 -91l-45 45l91 91q-44 67 -44 134t45 136l-92 92l45 45l92 -93q68 45 134 45t134 -45l93 92l44 -44l-92 -92q45 -69 45 -136t-44 -134zM419 445q-43 45 -108 45t-108 -45q-21 -20 -33 -48t-12 -60t12 -59.5
t33 -48.5t48.5 -33t59.5 -12t60 12t48 33q44 43 44 108t-44 108z" />
    <glyph glyph-name="yen" unicode="&#xa5;" horiz-adv-x="632" 
d="M592 700l-236 -464v-236h-80v236l-236 464h83l193 -382l193 382h83zM543 93h-453v70h453v-70zM543 213h-453v70h453v-70z" />
    <glyph glyph-name="brokenbar" unicode="&#xa6;" horiz-adv-x="174" 
d="M124 360h-74v340h74v-340zM124 -137h-74v340h74v-340z" />
    <glyph glyph-name="section" unicode="&#xa7;" horiz-adv-x="422" 
d="M211 -8q-40 0 -83 16.5t-76 44.5l53 53q54 -42 103 -42q42 0 68.5 20t26.5 54q0 25 -22.5 39t-53.5 23t-58 18q-55 14 -92 47t-37 81q0 33 15 60.5t49 47.5q-24 21 -41.5 45t-17.5 58q0 42 23 76t61 53.5t83 19.5q40 0 82 -16.5t76 -44.5l-53 -53q-27 21 -51.5 30.5
t-46.5 10.5q-36 2 -58.5 -11.5t-29 -35t8.5 -43.5q6 -16 24 -28t42.5 -20t47.5 -15q56 -15 92 -47.5t36 -80.5q0 -33 -16 -61.5t-48 -46.5q28 -20 43.5 -44.5t15.5 -56.5q0 -43 -23 -77.5t-60.5 -54t-82.5 -19.5zM223 276q43 0 71 18.5t25 47.5q-2 35 -40.5 56.5t-91.5 21.5
q-33 0 -56.5 -18.5t-23.5 -43.5q0 -28 17.5 -46t44 -27t54.5 -9z" />
    <glyph glyph-name="dieresis" unicode="&#xa8;" horiz-adv-x="348" 
d="M84 612q-18 0 -31 13t-13 32q0 17 13 30.5t31 13.5t31.5 -13.5t13.5 -30.5q0 -19 -13.5 -32t-31.5 -13zM264 612q-18 0 -31.5 13t-13.5 32q0 17 13.5 30.5t31.5 13.5t31 -13.5t13 -30.5q0 -19 -13 -32t-31 -13z" />
    <glyph glyph-name="copyright" unicode="&#xa9;" horiz-adv-x="761" 
d="M40 348q0 73 26.5 137t74 113t109 77t131.5 28q71 0 133 -28t108.5 -77t72.5 -113t26 -137t-26 -137t-73 -112t-108.5 -75t-132.5 -27t-133 27.5t-108.5 76t-73 112t-26.5 135.5zM115 348q0 -57 20.5 -107.5t56.5 -90t84.5 -62t104.5 -22.5t104.5 22.5t84.5 61.5t56 90
t20 108q0 58 -20 109.5t-56.5 91t-84.5 62.5t-104 23t-104.5 -23t-84.5 -63t-56.5 -91t-20.5 -109zM191 347q0 69 31.5 117.5t82 70.5t108 13.5t109.5 -54.5l-39 -49q-36 30 -75.5 36.5t-73.5 -8t-55 -47t-21 -79.5q0 -49 22 -83.5t57 -49.5t74 -8t73 40l38 -50
q-41 -38 -87 -51t-89.5 -4t-78.5 36.5t-55.5 70.5t-20.5 99z" />
    <glyph glyph-name="ordfeminine" unicode="&#xaa;" horiz-adv-x="314" 
d="M132 421q-39 1 -65.5 22t-26.5 63q0 63 52 85.5t132 7.5v22q0 23 -18 33.5t-43.5 10.5t-50 -9.5t-36.5 -27.5l-30 31q23 28 59 40t72.5 9t61.5 -22q28 -16 31.5 -47.5t3.5 -71.5v-143h-50v27q-39 -31 -92 -30zM223 491v70q-63 8 -100.5 -4.5t-37.5 -50.5q0 -22 15 -31.5
t37.5 -10t45.5 6.5t40 20z" />
    <glyph glyph-name="guillemotleft" unicode="&#xab;" horiz-adv-x="535" 
d="M495 50l-254 222l254 218v-88l-154 -133l154 -132v-87zM284 50l-254 222l254 218v-88l-152 -133l152 -132v-87z" />
    <glyph glyph-name="logicalnot" unicode="&#xac;" horiz-adv-x="518" 
d="M468 85h-69v165h-359v70h428v-235z" />
    <glyph glyph-name="uni00AD" unicode="&#xad;" horiz-adv-x="450" 
d="M400 265h-350v70h350v-70z" />
    <glyph glyph-name="registered" unicode="&#xae;" horiz-adv-x="446" 
d="M224 322q-51 0 -93 26.5t-66.5 69.5t-24.5 93q0 51 24.5 94t66.5 69t93 26t92.5 -26t65.5 -69t24 -94q0 -52 -25 -95t-66 -68.5t-91 -25.5zM224 369q36 0 67 19.5t49.5 52t18.5 70.5q0 39 -18.5 71t-49 51t-67.5 19q-39 0 -69.5 -19.5t-48.5 -52t-18 -69.5
q0 -40 19.5 -72t50.5 -51t66 -19zM161 422v181h72q22 0 37.5 -17t15.5 -40q0 -31 -31 -51l44 -73h-45l-43 66h-10v-66h-40zM200 525h32q6 0 11 5.5t5 15.5q0 9 -5 14.5t-10 5.5h-33v-41z" />
    <glyph glyph-name="macron" unicode="&#xaf;" horiz-adv-x="330" 
d="M290 648h-250v53h250v-53z" />
    <glyph glyph-name="degree" unicode="&#xb0;" horiz-adv-x="367" 
d="M327 556q0 -41 -19.5 -73.5t-52 -51t-71.5 -18.5q-40 0 -73 20t-52 53t-19 70q0 40 19.5 72.5t52 52t72.5 19.5q41 0 73 -19t51 -51.5t19 -73.5zM184 641q-36 0 -60.5 -24.5t-24.5 -60.5q0 -37 25.5 -60.5t59.5 -23.5q36 0 60 24t24 60t-24 60.5t-60 24.5z" />
    <glyph glyph-name="plusminus" unicode="&#xb1;" horiz-adv-x="580" 
d="M530 282h-202v-87h-74v87h-204v73h204v86h74v-86h202v-73zM530 38h-480v73h480v-73z" />
    <glyph glyph-name="uni00B2" unicode="&#xb2;" horiz-adv-x="386" 
d="M43 247v40q0 35 13.5 56.5t37 36.5t52.5 29q56 29 96.5 62t49.5 74q6 27 -7.5 52.5t-39.5 41.5t-59 16q-39 0 -63.5 -16t-28.5 -54h-54q3 55 40 88t111 33q47 0 82 -21.5t54 -55t19 -72.5q1 -44 -22.5 -77t-62 -59.5t-84.5 -51.5q-40 -21 -58 -33.5t-19 -37.5h243v-51
h-300z" />
    <glyph glyph-name="uni00B3" unicode="&#xb3;" horiz-adv-x="372" 
d="M184 242q-51 0 -87.5 26t-56.5 69l51 16q15 -26 40.5 -42t52.5 -16q40 0 67.5 23.5t27.5 57.5t-26 60t-69 26h-44v40h46q41 0 62.5 24t21.5 55q0 32 -25 51.5t-57 19.5q-30 0 -52 -16.5t-31 -47.5l-52 13q13 49 50.5 76.5t84.5 27.5q37 0 67.5 -16t49 -44t18.5 -64
q0 -27 -12.5 -52t-43.5 -46q33 -20 49 -48.5t16 -58.5q0 -38 -20.5 -68.5t-54 -48t-73.5 -17.5z" />
    <glyph glyph-name="acute" unicode="&#xb4;" horiz-adv-x="166" 
d="M38 605h48l40 134h-63z" />
    <glyph glyph-name="mu" unicode="&#xb5;" horiz-adv-x="537" 
d="M487 0h-79v52q-18 -28 -52 -43t-74.5 -18t-80.5 6t-72 30v-227h-79v700h80v-302q0 -69 39.5 -101t101.5 -32q31 0 62.5 14t53 43.5t21.5 75.5v302h79v-500z" />
    <glyph glyph-name="paragraph" unicode="&#xb6;" horiz-adv-x="506" 
d="M265 -56v476q-18 -10 -36.5 -15t-37.5 -5q-41 0 -75.5 20t-55 53.5t-20.5 75.5q0 40 20.5 74.5t55 55.5t75.5 21h146v-756h-72zM395 -56v756h71v-756h-71z" />
    <glyph glyph-name="periodcentered" unicode="&#xb7;" horiz-adv-x="223" 
d="M102 261q-21 1 -36.5 16t-15.5 36q0 22 15.5 37t36.5 15t36 -15t16 -37q0 -21 -15.5 -36.5t-36.5 -15.5z" />
    <glyph glyph-name="cedilla" unicode="&#xb8;" horiz-adv-x="253" 
d="M117 -189q-22 0 -43 11t-34 33l32 23q12 -21 35.5 -24.5t42.5 8t17 35.5q-1 23 -18.5 33.5t-40 8t-37.5 -17.5l-7 41l49 73l44 -15l-29 -42q36 0 56.5 -17t26 -42t-3.5 -49.5t-31.5 -41.5t-58.5 -17z" />
    <glyph glyph-name="uni00B9" unicode="&#xb9;" horiz-adv-x="229" 
d="M177 247h-52v397l-51 -50l-34 35l75 74h62v-456z" />
    <glyph glyph-name="ordmasculine" unicode="&#xba;" horiz-adv-x="353" 
d="M176 418q-61 0 -98.5 39t-37.5 103q0 74 39 111.5t97 37.5q60 0 98.5 -37.5t38.5 -111.5q0 -64 -38.5 -103t-98.5 -39zM176 469q42 0 64 26.5t22 64.5q1 43 -21.5 70.5t-64.5 27.5t-64 -27.5t-22 -70.5q0 -38 22 -64.5t64 -26.5z" />
    <glyph glyph-name="guillemotright" unicode="&#xbb;" horiz-adv-x="535" 
d="M40 50l254 222l-254 218v-88l154 -133l-154 -132v-87zM251 50l254 222l-254 218v-88l152 -133l-152 -132v-87z" />
    <glyph glyph-name="onequarter" unicode="&#xbc;" horiz-adv-x="920" 
d="M177 247h-52v397l-51 -50l-34 35l75 74h62v-456zM610 700l-398 -706h-55l398 706h55zM880 121h-69v-124h-51v124h-210v49l176 284h85v-285h69v-48zM760 169v225h-15l-141 -225h156z" />
    <glyph glyph-name="onehalf" unicode="&#xbd;" horiz-adv-x="896" 
d="M177 247h-52v397l-51 -50l-34 35l75 74h62v-456zM610 700l-398 -706h-55l398 706h55zM553 -3v40q0 35 13.5 56.5t37 36.5t52.5 29q56 29 96.5 62t49.5 74q6 27 -7.5 52.5t-39.5 41.5t-59 16q-39 0 -63.5 -16t-28.5 -54h-54q3 55 40 88t111 33q47 0 82 -21.5t54 -55
t19 -72.5q1 -44 -22.5 -77t-62 -59.5t-84.5 -51.5q-40 -21 -58 -33.5t-19 -37.5h243v-51h-300z" />
    <glyph glyph-name="threequarters" unicode="&#xbe;" horiz-adv-x="1055" 
d="M184 242q-51 0 -87.5 26t-56.5 69l51 16q15 -26 40.5 -42t52.5 -16q40 0 67.5 23.5t27.5 57.5t-26 60t-69 26h-44v40h46q41 0 62.5 24t21.5 55q0 32 -25 51.5t-57 19.5q-30 0 -52 -16.5t-31 -47.5l-52 13q13 49 50.5 76.5t84.5 27.5q37 0 67.5 -16t49 -44t18.5 -64
q0 -27 -12.5 -52t-43.5 -46q33 -20 49 -48.5t16 -58.5q0 -38 -20.5 -68.5t-54 -48t-73.5 -17.5zM745 700l-398 -706h-55l398 706h55zM1015 121h-69v-124h-51v124h-210v49l176 284h85v-285h69v-48zM895 169v225h-15l-141 -225h156z" />
    <glyph glyph-name="questiondown" unicode="&#xbf;" horiz-adv-x="570" 
d="M222 335l1 -65q0 -25 10 -39q12 -27 41.5 -40.5t67.5 -30.5q49 -18 76 -51.5t27 -92.5q0 -66 -44 -103.5t-114 -37.5q-69 0 -113.5 28t-44.5 90h-79q0 -91 63.5 -140.5t174.5 -49.5q71 0 123.5 28t81.5 77t27 110q-1 80 -38 128.5t-109 78.5q-31 14 -47 22t-22 17.5
t-6.5 25.5t-0.5 45h-75zM259 520q-21 0 -36.5 -15.5t-15.5 -36.5q0 -22 15.5 -37t36.5 -15t36 15t16 37q0 21 -15.5 36.5t-36.5 15.5z" />
    <glyph glyph-name="Agrave" unicode="&#xc0;" horiz-adv-x="650" 
d="M40 0l234 700h101l235 -700h-85l-59 178h-283l-59 -178h-84zM325 604l-120 -359h239zM357 769h-48l-40 134h63z" />
    <glyph glyph-name="Aacute" unicode="&#xc1;" horiz-adv-x="650" 
d="M40 0l234 700h101l235 -700h-85l-59 178h-283l-59 -178h-84zM325 604l-120 -359h239zM294 769h48l40 134h-63z" />
    <glyph glyph-name="Acircumflex" unicode="&#xc2;" horiz-adv-x="650" 
d="M40 0l234 700h101l235 -700h-85l-59 178h-283l-59 -178h-84zM325 604l-120 -359h239zM201 769l101 111h46l101 -111h-68l-56 64l-56 -64h-68z" />
    <glyph glyph-name="Atilde" unicode="&#xc3;" horiz-adv-x="650" 
d="M40 0l234 700h101l235 -700h-85l-59 178h-283l-59 -178h-84zM325 604l-120 -359h239zM372 778q-22 0 -36 13.5t-25.5 27t-25.5 14.5q-20 0 -28.5 -16.5t-8.5 -37.5h-53q0 45 26 74t64 29q21 0 33.5 -8t20 -19t15 -19t18.5 -8q16 0 23.5 14.5t7.5 37.5h52
q0 -43 -18.5 -72.5t-64.5 -29.5z" />
    <glyph glyph-name="Adieresis" unicode="&#xc4;" horiz-adv-x="650" 
d="M40 0l234 700h101l235 -700h-85l-59 178h-283l-59 -178h-84zM325 604l-120 -359h239zM238 776q-18 0 -31 13t-13 32q0 17 13 30.5t31 13.5t31.5 -13.5t13.5 -30.5q0 -19 -13.5 -32t-31.5 -13zM418 776q-18 0 -31.5 13t-13.5 32q0 17 13.5 30.5t31.5 13.5t31 -13.5
t13 -30.5q0 -19 -13 -32t-31 -13z" />
    <glyph glyph-name="Aring" unicode="&#xc5;" horiz-adv-x="650" 
d="M40 0l234 700h101l235 -700h-85l-59 178h-283l-59 -178h-84zM325 604l-120 -359h239zM325 758q-32 0 -56 23.5t-24 56.5q0 32 24 56t56 24q33 0 56.5 -24t23.5 -56q0 -33 -23.5 -56.5t-56.5 -23.5zM325 878q-17 0 -28.5 -11.5t-11.5 -27.5q0 -18 11.5 -29.5t28.5 -11.5
q16 0 27.5 11.5t11.5 29.5q0 16 -11.5 27.5t-27.5 11.5z" />
    <glyph glyph-name="AE" unicode="&#xc6;" horiz-adv-x="835" 
d="M40 0l232 700h513v-76h-385l83 -245h245v-72h-221l78 -231h200v-76h-260l-58 172h-285l-57 -172h-85zM206 248h236l-119 355z" />
    <glyph glyph-name="Ccedilla" unicode="&#xc7;" horiz-adv-x="684" 
d="M386 -10q-73 0 -135.5 28t-109.5 76q-48 48 -74.5 112.5t-26.5 143.5q0 76 27 142t74 114t109.5 76t135.5 28t138.5 -30t119.5 -91l-63 -52q-86 94 -195 94q-56 0 -103 -22t-84 -60q-36 -38 -56.5 -88.5t-20.5 -110.5q0 -61 20.5 -111.5t56.5 -87.5q37 -38 84 -60
t103 -22q109 0 195 94l63 -52q-54 -61 -119.5 -91t-138.5 -30zM367 -189q-22 0 -43 11t-34 33l32 23q12 -21 35.5 -24.5t42.5 8t17 35.5q-1 23 -18.5 33.5t-40 8t-37.5 -17.5l-7 41l49 73l44 -15l-29 -42q36 0 56.5 -17t26 -42t-3.5 -49.5t-31.5 -41.5t-58.5 -17z" />
    <glyph glyph-name="Egrave" unicode="&#xc8;" horiz-adv-x="468" 
d="M428 0h-378v700h378v-72h-299v-251h242v-68h-242v-237h299v-72zM267 769h-48l-40 134h63z" />
    <glyph glyph-name="Eacute" unicode="&#xc9;" horiz-adv-x="468" 
d="M428 0h-378v700h378v-72h-299v-251h242v-68h-242v-237h299v-72zM204 769h48l40 134h-63z" />
    <glyph glyph-name="Ecircumflex" unicode="&#xca;" horiz-adv-x="468" 
d="M428 0h-378v700h378v-72h-299v-251h242v-68h-242v-237h299v-72zM111 769l101 111h46l101 -111h-68l-56 64l-56 -64h-68z" />
    <glyph glyph-name="Edieresis" unicode="&#xcb;" horiz-adv-x="468" 
d="M428 0h-378v700h378v-72h-299v-251h242v-68h-242v-237h299v-72zM148 776q-18 0 -31 13t-13 32q0 17 13 30.5t31 13.5t31.5 -13.5t13.5 -30.5q0 -19 -13.5 -32t-31.5 -13zM328 776q-18 0 -31.5 13t-13.5 32q0 17 13.5 30.5t31.5 13.5t31 -13.5t13 -30.5q0 -19 -13 -32
t-31 -13z" />
    <glyph glyph-name="Igrave" unicode="&#xcc;" horiz-adv-x="202" 
d="M151 0h-79v700h79v-700zM138 769h-48l-40 134h63z" />
    <glyph glyph-name="Iacute" unicode="&#xcd;" horiz-adv-x="200" 
d="M129 0h-79v700h79v-700zM61 769h48l40 134h-63z" />
    <glyph glyph-name="Icircumflex" unicode="&#xce;" horiz-adv-x="348" 
d="M213 0h-79v700h79v-700zM50 769l101 111h46l101 -111h-68l-56 64l-56 -64h-68z" />
    <glyph glyph-name="Idieresis" unicode="&#xcf;" horiz-adv-x="368" 
d="M224 0h-79v700h79v-700zM94 776q-18 0 -31 13t-13 32q0 17 13 30.5t31 13.5t31.5 -13.5t13.5 -30.5q0 -19 -13.5 -32t-31.5 -13zM274 776q-18 0 -31.5 13t-13.5 32q0 17 13.5 30.5t31.5 13.5t31 -13.5t13 -30.5q0 -19 -13 -32t-31 -13z" />
    <glyph glyph-name="Eth" unicode="&#xd0;" horiz-adv-x="681" 
d="M641 352q0 -73 -26.5 -136.5t-73.5 -112t-109 -76t-134 -27.5h-204v703h204q72 0 134.5 -27.5t109.5 -76t73 -112t26 -135.5zM560 352q0 76 -34.5 138t-93.5 99t-134 37h-124v-548h124q75 0 134 37.5t93.5 100t34.5 136.5zM447 322h-420v55h420v-55z" />
    <glyph glyph-name="Ntilde" unicode="&#xd1;" horiz-adv-x="624" 
d="M574 0h-110l-335 609v-608h-79v700h116l329 -602v602h79v-701zM359 778q-22 0 -36 13.5t-25.5 27t-25.5 14.5q-20 0 -28.5 -16.5t-8.5 -37.5h-53q0 45 26 74t64 29q21 0 33.5 -8t20 -19t15 -19t18.5 -8q16 0 23.5 14.5t7.5 37.5h52q0 -43 -18.5 -72.5t-64.5 -29.5z" />
    <glyph glyph-name="Ograve" unicode="&#xd2;" horiz-adv-x="765" 
d="M725 350q0 -76 -26.5 -141.5t-73.5 -114.5t-109 -76.5t-133 -27.5q-72 0 -134 28t-109 77.5t-73.5 114.5t-26.5 140q0 74 27 139.5t75 115t110 77.5t131 28q71 0 133 -28.5t109 -78.5t73.5 -115t26.5 -138zM644 350q0 58 -20.5 109.5t-56 91t-83 62t-101.5 22.5
q-55 0 -102.5 -22.5t-83 -62t-56 -91t-20.5 -109.5t20.5 -110t56 -91.5t83 -62t102.5 -22.5t102 22.5t83 62t56 91t20 110.5zM414 769h-48l-40 134h63z" />
    <glyph glyph-name="Oacute" unicode="&#xd3;" horiz-adv-x="765" 
d="M725 350q0 -76 -26.5 -141.5t-73.5 -114.5t-109 -76.5t-133 -27.5q-72 0 -134 28t-109 77.5t-73.5 114.5t-26.5 140q0 74 27 139.5t75 115t110 77.5t131 28q71 0 133 -28.5t109 -78.5t73.5 -115t26.5 -138zM644 350q0 58 -20.5 109.5t-56 91t-83 62t-101.5 22.5
q-55 0 -102.5 -22.5t-83 -62t-56 -91t-20.5 -109.5t20.5 -110t56 -91.5t83 -62t102.5 -22.5t102 22.5t83 62t56 91t20 110.5zM352 769h48l40 134h-63z" />
    <glyph glyph-name="Ocircumflex" unicode="&#xd4;" horiz-adv-x="765" 
d="M725 350q0 -76 -26.5 -141.5t-73.5 -114.5t-109 -76.5t-133 -27.5q-72 0 -134 28t-109 77.5t-73.5 114.5t-26.5 140q0 74 27 139.5t75 115t110 77.5t131 28q71 0 133 -28.5t109 -78.5t73.5 -115t26.5 -138zM644 350q0 58 -20.5 109.5t-56 91t-83 62t-101.5 22.5
q-55 0 -102.5 -22.5t-83 -62t-56 -91t-20.5 -109.5t20.5 -110t56 -91.5t83 -62t102.5 -22.5t102 22.5t83 62t56 91t20 110.5zM259 769l101 111h46l101 -111h-68l-56 64l-56 -64h-68z" />
    <glyph glyph-name="Otilde" unicode="&#xd5;" horiz-adv-x="765" 
d="M725 350q0 -76 -26.5 -141.5t-73.5 -114.5t-109 -76.5t-133 -27.5q-72 0 -134 28t-109 77.5t-73.5 114.5t-26.5 140q0 74 27 139.5t75 115t110 77.5t131 28q71 0 133 -28.5t109 -78.5t73.5 -115t26.5 -138zM644 350q0 58 -20.5 109.5t-56 91t-83 62t-101.5 22.5
q-55 0 -102.5 -22.5t-83 -62t-56 -91t-20.5 -109.5t20.5 -110t56 -91.5t83 -62t102.5 -22.5t102 22.5t83 62t56 91t20 110.5zM430 778q-22 0 -36 13.5t-25.5 27t-25.5 14.5q-20 0 -28.5 -16.5t-8.5 -37.5h-53q0 45 26 74t64 29q21 0 33.5 -8t20 -19t15 -19t18.5 -8
q16 0 23.5 14.5t7.5 37.5h52q0 -43 -18.5 -72.5t-64.5 -29.5z" />
    <glyph glyph-name="Odieresis" unicode="&#xd6;" horiz-adv-x="765" 
d="M725 350q0 -76 -26.5 -141.5t-73.5 -114.5t-109 -76.5t-133 -27.5q-72 0 -134 28t-109 77.5t-73.5 114.5t-26.5 140q0 74 27 139.5t75 115t110 77.5t131 28q71 0 133 -28.5t109 -78.5t73.5 -115t26.5 -138zM644 350q0 58 -20.5 109.5t-56 91t-83 62t-101.5 22.5
q-55 0 -102.5 -22.5t-83 -62t-56 -91t-20.5 -109.5t20.5 -110t56 -91.5t83 -62t102.5 -22.5t102 22.5t83 62t56 91t20 110.5zM295 776q-18 0 -31 13t-13 32q0 17 13 30.5t31 13.5t31.5 -13.5t13.5 -30.5q0 -19 -13.5 -32t-31.5 -13zM475 776q-18 0 -31.5 13t-13.5 32
q0 17 13.5 30.5t31.5 13.5t31 -13.5t13 -30.5q0 -19 -13 -32t-31 -13z" />
    <glyph glyph-name="multiply" unicode="&#xd7;" horiz-adv-x="482" 
d="M382.484 105.274l-332.518 332.518l49.4971 49.4961l332.518 -332.518zM50.2744 154.516l332.518 332.518l49.4961 -49.4971l-332.518 -332.518z" />
    <glyph glyph-name="Oslash" unicode="&#xd8;" horiz-adv-x="765" 
d="M725 350q0 -76 -26.5 -141.5t-73.5 -114.5t-109 -76.5t-133 -27.5q-72 0 -134 28t-109 77.5t-73.5 114.5t-26.5 140q0 74 27 139.5t75 115t110 77.5t131 28q71 0 133 -28.5t109 -78.5t73.5 -115t26.5 -138zM644 350q0 58 -20.5 109.5t-56 91t-83 62t-101.5 22.5
q-55 0 -102.5 -22.5t-83 -62t-56 -91t-20.5 -109.5t20.5 -110t56 -91.5t83 -62t102.5 -22.5t102 22.5t83 62t56 91t20 110.5zM656 773l-474 -847h-72l473 847h73z" />
    <glyph glyph-name="Ugrave" unicode="&#xd9;" horiz-adv-x="609" 
d="M480 700h79v-700h-79v79q-34 -38 -80.5 -61t-100.5 -23q-72 0 -130.5 33.5t-93.5 90t-35 126.5v455h79l1 -455q0 -47 24 -85.5t65 -61.5t90 -23q52 0 93 22.5t64.5 61.5t23.5 86v455zM327 769h-48l-40 134h63z" />
    <glyph glyph-name="Uacute" unicode="&#xda;" horiz-adv-x="609" 
d="M480 700h79v-700h-79v79q-34 -38 -80.5 -61t-100.5 -23q-72 0 -130.5 33.5t-93.5 90t-35 126.5v455h79l1 -455q0 -47 24 -85.5t65 -61.5t90 -23q52 0 93 22.5t64.5 61.5t23.5 86v455zM265 769h48l40 134h-63z" />
    <glyph glyph-name="Ucircumflex" unicode="&#xdb;" horiz-adv-x="609" 
d="M480 700h79v-700h-79v79q-34 -38 -80.5 -61t-100.5 -23q-72 0 -130.5 33.5t-93.5 90t-35 126.5v455h79l1 -455q0 -47 24 -85.5t65 -61.5t90 -23q52 0 93 22.5t64.5 61.5t23.5 86v455zM172 769l101 111h46l101 -111h-68l-56 64l-56 -64h-68z" />
    <glyph glyph-name="Udieresis" unicode="&#xdc;" horiz-adv-x="609" 
d="M480 700h79v-700h-79v79q-34 -38 -80.5 -61t-100.5 -23q-72 0 -130.5 33.5t-93.5 90t-35 126.5v455h79l1 -455q0 -47 24 -85.5t65 -61.5t90 -23q52 0 93 22.5t64.5 61.5t23.5 86v455zM208 776q-18 0 -31 13t-13 32q0 17 13 30.5t31 13.5t31.5 -13.5t13.5 -30.5
q0 -19 -13.5 -32t-31.5 -13zM388 776q-18 0 -31.5 13t-13.5 32q0 17 13.5 30.5t31.5 13.5t31 -13.5t13 -30.5q0 -19 -13 -32t-31 -13z" />
    <glyph glyph-name="Yacute" unicode="&#xdd;" horiz-adv-x="632" 
d="M592 700l-236 -464v-236h-80v236l-236 464h83l193 -382l193 382h83zM285 769h48l40 134h-63z" />
    <glyph glyph-name="Thorn" unicode="&#xde;" horiz-adv-x="524" 
d="M50 0l1 700h80v-146h177q50 0 90 -28.5t63 -75t23 -99.5q0 -37 -14 -73t-39 -65.5t-57.5 -47.5t-68.5 -18h-174v-147h-81zM131 229h174q27 0 50.5 19t37.5 47t14 56q0 50 -28 86.5t-73 36.5h-175v-245z" />
    <glyph glyph-name="germandbls" unicode="&#xdf;" horiz-adv-x="564" 
d="M524 199q0 -50 -24.5 -95.5t-65.5 -74.5t-89 -29h-123v78h123q27 0 49.5 18.5t35.5 46t13 56.5t-12 55t-33.5 42t-49.5 16h-218v-312h-80v700h263q51 0 91 -25.5t62 -68.5t22 -97q0 -41 -13.5 -72t-44.5 -68q48 -32 71 -76.5t23 -93.5zM408 509q0 44 -25.5 77.5
t-69.5 33.5h-183v-232h179q27 0 49.5 17.5t36 45t13.5 58.5z" />
    <glyph glyph-name="agrave" unicode="&#xe0;" horiz-adv-x="505" 
d="M204 -5q-70 2 -117 39.5t-47 109.5q0 75 44 117.5t120 54.5t170 -5v36q0 35 -22 55.5t-56.5 27.5t-72 1.5t-70.5 -23t-51 -45.5l-49 52q31 38 75.5 59t92.5 27t93 -3t79 -33q33 -20 45.5 -51.5t14.5 -72.5t2 -88v-253h-80v47q-37 -27 -82 -40t-89 -12zM373 118v131
q-119 15 -189 -8t-70 -96q0 -32 18.5 -50t48 -24t64.5 -2t69 17t59 32zM283 573h-48l-40 134h63z" />
    <glyph glyph-name="aacute" unicode="&#xe1;" horiz-adv-x="505" 
d="M204 -5q-70 2 -117 39.5t-47 109.5q0 75 44 117.5t120 54.5t170 -5v36q0 35 -22 55.5t-56.5 27.5t-72 1.5t-70.5 -23t-51 -45.5l-49 52q31 38 75.5 59t92.5 27t93 -3t79 -33q33 -20 45.5 -51.5t14.5 -72.5t2 -88v-253h-80v47q-37 -27 -82 -40t-89 -12zM373 118v131
q-119 15 -189 -8t-70 -96q0 -32 18.5 -50t48 -24t64.5 -2t69 17t59 32zM221 573h48l40 134h-63z" />
    <glyph glyph-name="acircumflex" unicode="&#xe2;" horiz-adv-x="505" 
d="M204 -5q-70 2 -117 39.5t-47 109.5q0 75 44 117.5t120 54.5t170 -5v36q0 35 -22 55.5t-56.5 27.5t-72 1.5t-70.5 -23t-51 -45.5l-49 52q31 38 75.5 59t92.5 27t93 -3t79 -33q33 -20 45.5 -51.5t14.5 -72.5t2 -88v-253h-80v47q-37 -27 -82 -40t-89 -12zM373 118v131
q-119 15 -189 -8t-70 -96q0 -32 18.5 -50t48 -24t64.5 -2t69 17t59 32zM128 573l101 111h46l101 -111h-68l-56 64l-56 -64h-68z" />
    <glyph glyph-name="atilde" unicode="&#xe3;" horiz-adv-x="505" 
d="M204 -5q-70 2 -117 39.5t-47 109.5q0 75 44 117.5t120 54.5t170 -5v36q0 35 -22 55.5t-56.5 27.5t-72 1.5t-70.5 -23t-51 -45.5l-49 52q31 38 75.5 59t92.5 27t93 -3t79 -33q33 -20 45.5 -51.5t14.5 -72.5t2 -88v-253h-80v47q-37 -27 -82 -40t-89 -12zM373 118v131
q-119 15 -189 -8t-70 -96q0 -32 18.5 -50t48 -24t64.5 -2t69 17t59 32zM298 582q-22 0 -36 13.5t-25.5 27t-25.5 14.5q-20 0 -28.5 -16.5t-8.5 -37.5h-53q0 45 26 74t64 29q21 0 33.5 -8t20 -19t15 -19t18.5 -8q16 0 23.5 14.5t7.5 37.5h52q0 -43 -18.5 -72.5t-64.5 -29.5z
" />
    <glyph glyph-name="adieresis" unicode="&#xe4;" horiz-adv-x="505" 
d="M204 -5q-70 2 -117 39.5t-47 109.5q0 75 44 117.5t120 54.5t170 -5v36q0 35 -22 55.5t-56.5 27.5t-72 1.5t-70.5 -23t-51 -45.5l-49 52q31 38 75.5 59t92.5 27t93 -3t79 -33q33 -20 45.5 -51.5t14.5 -72.5t2 -88v-253h-80v47q-37 -27 -82 -40t-89 -12zM373 118v131
q-119 15 -189 -8t-70 -96q0 -32 18.5 -50t48 -24t64.5 -2t69 17t59 32zM164 580q-18 0 -31 13t-13 32q0 17 13 30.5t31 13.5t31.5 -13.5t13.5 -30.5q0 -19 -13.5 -32t-31.5 -13zM344 580q-18 0 -31.5 13t-13.5 32q0 17 13.5 30.5t31.5 13.5t31 -13.5t13 -30.5q0 -19 -13 -32
t-31 -13z" />
    <glyph glyph-name="aring" unicode="&#xe5;" horiz-adv-x="505" 
d="M204 -5q-70 2 -117 39.5t-47 109.5q0 75 44 117.5t120 54.5t170 -5v36q0 35 -22 55.5t-56.5 27.5t-72 1.5t-70.5 -23t-51 -45.5l-49 52q31 38 75.5 59t92.5 27t93 -3t79 -33q33 -20 45.5 -51.5t14.5 -72.5t2 -88v-253h-80v47q-37 -27 -82 -40t-89 -12zM373 118v131
q-119 15 -189 -8t-70 -96q0 -32 18.5 -50t48 -24t64.5 -2t69 17t59 32zM252 562q-32 0 -56 23.5t-24 56.5q0 32 24 56t56 24q33 0 56.5 -24t23.5 -56q0 -33 -23.5 -56.5t-56.5 -23.5zM252 682q-17 0 -28.5 -11.5t-11.5 -27.5q0 -18 11.5 -29.5t28.5 -11.5q16 0 27.5 11.5
t11.5 29.5q0 16 -11.5 27.5t-27.5 11.5z" />
    <glyph glyph-name="ae" unicode="&#xe6;" horiz-adv-x="888" 
d="M204 -5q-70 2 -117 39.5t-47 109.5q0 75 44 117.5t120 54.5t170 -5v36q0 35 -22 55.5t-56.5 27.5t-72 1.5t-70.5 -23t-51 -45.5l-49 52q31 38 75.5 59t92.5 27t93 -3t79 -33q33 -20 45.5 -51.5t14.5 -72.5t2 -88v-253h-80v47q-37 -27 -82 -40t-89 -12zM373 118v131
q-119 15 -189 -8t-70 -96q0 -32 18.5 -50t48 -24t64.5 -2t69 17t59 32zM845 226h-389q2 -65 35 -103t84 -50t109 2t110 53l42 -62q-49 -38 -102 -56t-106 -19q-125 -3 -191 69.5t-66 202.5q0 111 62.5 177t181.5 65q78 0 133 -32t81 -95q13 -31 16.5 -69t-0.5 -83zM619 431
q-68 0 -115.5 -35.5t-47.5 -105.5h318q0 66 -41.5 103.5t-113.5 37.5z" />
    <glyph glyph-name="ccedilla" unicode="&#xe7;" horiz-adv-x="493" 
d="M452 65q-52 -47 -109 -63t-110.5 -5.5t-97 45t-69.5 88t-26 123.5t25.5 122.5t69 84.5t97.5 41t111.5 -7.5t109.5 -61.5l-50 -57q-44 38 -93.5 46.5t-92.5 -10t-70 -59t-27 -99.5q0 -63 27.5 -106.5t71.5 -63t93.5 -10.5t92.5 52zM248 -189q-22 0 -43 11t-34 33l32 23
q12 -21 35.5 -24.5t42.5 8t17 35.5q-1 23 -18.5 33.5t-40 8t-37.5 -17.5l-7 41l49 73l44 -15l-29 -42q36 0 56.5 -17t26 -42t-3.5 -49.5t-31.5 -41.5t-58.5 -17z" />
    <glyph glyph-name="egrave" unicode="&#xe8;" horiz-adv-x="562" 
d="M512 226h-389q2 -65 35 -103t84 -50t109 2t110 53l42 -62q-49 -38 -102 -56t-106 -19q-125 -3 -191 69.5t-66 202.5q0 111 62.5 177t181.5 65q78 0 133 -32t81 -95q13 -31 16.5 -69t-0.5 -83zM286 431q-68 0 -115.5 -35.5t-47.5 -105.5h318q0 66 -41.5 103.5t-113.5 37.5
zM312 573h-48l-40 134h63z" />
    <glyph glyph-name="eacute" unicode="&#xe9;" horiz-adv-x="562" 
d="M512 226h-389q2 -65 35 -103t84 -50t109 2t110 53l42 -62q-49 -38 -102 -56t-106 -19q-125 -3 -191 69.5t-66 202.5q0 111 62.5 177t181.5 65q78 0 133 -32t81 -95q13 -31 16.5 -69t-0.5 -83zM286 431q-68 0 -115.5 -35.5t-47.5 -105.5h318q0 66 -41.5 103.5t-113.5 37.5
zM250 573h48l40 134h-63z" />
    <glyph glyph-name="ecircumflex" unicode="&#xea;" horiz-adv-x="562" 
d="M512 226h-389q2 -65 35 -103t84 -50t109 2t110 53l42 -62q-49 -38 -102 -56t-106 -19q-125 -3 -191 69.5t-66 202.5q0 111 62.5 177t181.5 65q78 0 133 -32t81 -95q13 -31 16.5 -69t-0.5 -83zM286 431q-68 0 -115.5 -35.5t-47.5 -105.5h318q0 66 -41.5 103.5t-113.5 37.5
zM157 573l101 111h46l101 -111h-68l-56 64l-56 -64h-68z" />
    <glyph glyph-name="edieresis" unicode="&#xeb;" horiz-adv-x="562" 
d="M512 226h-389q2 -65 35 -103t84 -50t109 2t110 53l42 -62q-49 -38 -102 -56t-106 -19q-125 -3 -191 69.5t-66 202.5q0 111 62.5 177t181.5 65q78 0 133 -32t81 -95q13 -31 16.5 -69t-0.5 -83zM286 431q-68 0 -115.5 -35.5t-47.5 -105.5h318q0 66 -41.5 103.5t-113.5 37.5
zM193 580q-18 0 -31 13t-13 32q0 17 13 30.5t31 13.5t31.5 -13.5t13.5 -30.5q0 -19 -13.5 -32t-31.5 -13zM373 580q-18 0 -31.5 13t-13.5 32q0 17 13.5 30.5t31.5 13.5t31 -13.5t13 -30.5q0 -19 -13 -32t-31 -13z" />
    <glyph glyph-name="igrave" unicode="&#xec;" horiz-adv-x="200" 
d="M150 0h-75v500h75v-500zM162 569h-48l-40 134h63z" />
    <glyph glyph-name="iacute" unicode="&#xed;" horiz-adv-x="202" 
d="M125 0h-75v500h75v-500zM64 569h48l40 134h-63z" />
    <glyph glyph-name="icircumflex" unicode="&#xee;" horiz-adv-x="348" 
d="M211 0h-75v500h75v-500zM50 569l101 111h46l101 -111h-68l-56 64l-56 -64h-68z" />
    <glyph glyph-name="idieresis" unicode="&#xef;" horiz-adv-x="368" 
d="M222 0h-75v500h75v-500zM94 576q-18 0 -31 13t-13 32q0 17 13 30.5t31 13.5t31.5 -13.5t13.5 -30.5q0 -19 -13.5 -32t-31.5 -13zM274 576q-18 0 -31.5 13t-13.5 32q0 17 13.5 30.5t31.5 13.5t31 -13.5t13 -30.5q0 -19 -13 -32t-31 -13z" />
    <glyph glyph-name="eth" unicode="&#xf0;" horiz-adv-x="553" 
d="M266 -4q-66 3 -118 37.5t-81 89t-26 118.5q2 53 25 96t59.5 73t81 43t91 6.5t87.5 -36.5q-22 37 -46.5 72.5t-50.5 67.5l-113 -40l-20 57l95 34q-13 14 -32.5 37.5t-41.5 48.5l99 4l51 -62l108 38l20 -58l-91 -32q84 -112 118.5 -202t30.5 -171q-4 -65 -38.5 -116
t-89 -79.5t-118.5 -25.5zM270 77q41 -1 77 18t59 53t24 76t-19 77.5t-54.5 56.5t-76.5 23q-43 2 -79 -17.5t-57.5 -53.5t-22.5 -75q-2 -42 18 -77.5t54.5 -57.5t76.5 -23z" />
    <glyph glyph-name="ntilde" unicode="&#xf1;" horiz-adv-x="528" 
d="M488 0h-79v297q0 48 -20.5 77t-52 41.5t-65.5 12.5q-33 0 -65.5 -14t-54.5 -43t-22 -74v-297h-79v500h79v-54q23 31 63 45.5t83 14.5q58 0 106.5 -24t77.5 -70.5t29 -114.5v-297zM316 582q-22 0 -36 13.5t-25.5 27t-25.5 14.5q-20 0 -28.5 -16.5t-8.5 -37.5h-53
q0 45 26 74t64 29q21 0 33.5 -8t20 -19t15 -19t18.5 -8q16 0 23.5 14.5t7.5 37.5h52q0 -43 -18.5 -72.5t-64.5 -29.5z" />
    <glyph glyph-name="ograve" unicode="&#xf2;" horiz-adv-x="564" 
d="M282 -12q-72 0 -126.5 31t-85 87.5t-30.5 132.5q0 88 32 147t86.5 89t123.5 30q71 0 125.5 -30t85.5 -89t31 -147q0 -76 -31 -132.5t-85.5 -87.5t-125.5 -31zM282 64q53 0 90 23.5t56 63.5t19 88q0 82 -42.5 135.5t-122.5 53.5q-81 0 -123 -54t-42 -135q0 -49 18.5 -88.5
t55.5 -63t91 -23.5zM313 573h-48l-40 134h63z" />
    <glyph glyph-name="oacute" unicode="&#xf3;" horiz-adv-x="564" 
d="M282 -12q-72 0 -126.5 31t-85 87.5t-30.5 132.5q0 88 32 147t86.5 89t123.5 30q71 0 125.5 -30t85.5 -89t31 -147q0 -76 -31 -132.5t-85.5 -87.5t-125.5 -31zM282 64q53 0 90 23.5t56 63.5t19 88q0 82 -42.5 135.5t-122.5 53.5q-81 0 -123 -54t-42 -135q0 -49 18.5 -88.5
t55.5 -63t91 -23.5zM251 573h48l40 134h-63z" />
    <glyph glyph-name="ocircumflex" unicode="&#xf4;" horiz-adv-x="564" 
d="M282 -12q-72 0 -126.5 31t-85 87.5t-30.5 132.5q0 88 32 147t86.5 89t123.5 30q71 0 125.5 -30t85.5 -89t31 -147q0 -76 -31 -132.5t-85.5 -87.5t-125.5 -31zM282 64q53 0 90 23.5t56 63.5t19 88q0 82 -42.5 135.5t-122.5 53.5q-81 0 -123 -54t-42 -135q0 -49 18.5 -88.5
t55.5 -63t91 -23.5zM158 573l101 111h46l101 -111h-68l-56 64l-56 -64h-68z" />
    <glyph glyph-name="otilde" unicode="&#xf5;" horiz-adv-x="564" 
d="M282 -12q-72 0 -126.5 31t-85 87.5t-30.5 132.5q0 88 32 147t86.5 89t123.5 30q71 0 125.5 -30t85.5 -89t31 -147q0 -76 -31 -132.5t-85.5 -87.5t-125.5 -31zM282 64q53 0 90 23.5t56 63.5t19 88q0 82 -42.5 135.5t-122.5 53.5q-81 0 -123 -54t-42 -135q0 -49 18.5 -88.5
t55.5 -63t91 -23.5zM329 582q-22 0 -36 13.5t-25.5 27t-25.5 14.5q-20 0 -28.5 -16.5t-8.5 -37.5h-53q0 45 26 74t64 29q21 0 33.5 -8t20 -19t15 -19t18.5 -8q16 0 23.5 14.5t7.5 37.5h52q0 -43 -18.5 -72.5t-64.5 -29.5z" />
    <glyph glyph-name="odieresis" unicode="&#xf6;" horiz-adv-x="564" 
d="M282 -12q-72 0 -126.5 31t-85 87.5t-30.5 132.5q0 88 32 147t86.5 89t123.5 30q71 0 125.5 -30t85.5 -89t31 -147q0 -76 -31 -132.5t-85.5 -87.5t-125.5 -31zM282 64q53 0 90 23.5t56 63.5t19 88q0 82 -42.5 135.5t-122.5 53.5q-81 0 -123 -54t-42 -135q0 -49 18.5 -88.5
t55.5 -63t91 -23.5zM194 580q-18 0 -31 13t-13 32q0 17 13 30.5t31 13.5t31.5 -13.5t13.5 -30.5q0 -19 -13.5 -32t-31.5 -13zM374 580q-18 0 -31.5 13t-13.5 32q0 17 13.5 30.5t31.5 13.5t31 -13.5t13 -30.5q0 -19 -13 -32t-31 -13z" />
    <glyph glyph-name="divide" unicode="&#xf7;" horiz-adv-x="571" 
d="M520.757 265h-470.256v70h470.256v-70zM286 426q-21 1 -36.5 16t-15.5 36q0 22 15.5 37t36.5 15t36 -15t16 -37q0 -21 -15.5 -36.5t-36.5 -15.5zM286 67q-21 1 -36.5 16t-15.5 36q0 22 15.5 37t36.5 15t36 -15t16 -37q0 -21 -15.5 -36.5t-36.5 -15.5z" />
    <glyph glyph-name="oslash" unicode="&#xf8;" horiz-adv-x="564" 
d="M282 -12q-72 0 -126.5 31t-85 87.5t-30.5 132.5q0 88 32 147t86.5 89t123.5 30q71 0 125.5 -30t85.5 -89t31 -147q0 -76 -31 -132.5t-85.5 -87.5t-125.5 -31zM282 64q53 0 90 23.5t56 63.5t19 88q0 82 -42.5 135.5t-122.5 53.5q-81 0 -123 -54t-42 -135q0 -49 18.5 -88.5
t55.5 -63t91 -23.5zM477 536l-319 -574h-72l318 574h73z" />
    <glyph glyph-name="ugrave" unicode="&#xf9;" horiz-adv-x="527" 
d="M477 0h-79v52q-20 -30 -57 -45t-81 -16.5t-86 11t-71 38.5q-30 26 -46.5 66t-16.5 92v302h80v-302q0 -69 39.5 -101t101.5 -32q31 0 62.5 14t53 43.5t21.5 75.5v302h79v-500zM299 573h-48l-40 134h63z" />
    <glyph glyph-name="uacute" unicode="&#xfa;" horiz-adv-x="527" 
d="M477 0h-79v52q-20 -30 -57 -45t-81 -16.5t-86 11t-71 38.5q-30 26 -46.5 66t-16.5 92v302h80v-302q0 -69 39.5 -101t101.5 -32q31 0 62.5 14t53 43.5t21.5 75.5v302h79v-500zM237 573h48l40 134h-63z" />
    <glyph glyph-name="ucircumflex" unicode="&#xfb;" horiz-adv-x="527" 
d="M477 0h-79v52q-20 -30 -57 -45t-81 -16.5t-86 11t-71 38.5q-30 26 -46.5 66t-16.5 92v302h80v-302q0 -69 39.5 -101t101.5 -32q31 0 62.5 14t53 43.5t21.5 75.5v302h79v-500zM144 573l101 111h46l101 -111h-68l-56 64l-56 -64h-68z" />
    <glyph glyph-name="udieresis" unicode="&#xfc;" horiz-adv-x="527" 
d="M477 0h-79v52q-20 -30 -57 -45t-81 -16.5t-86 11t-71 38.5q-30 26 -46.5 66t-16.5 92v302h80v-302q0 -69 39.5 -101t101.5 -32q31 0 62.5 14t53 43.5t21.5 75.5v302h79v-500zM180 580q-18 0 -31 13t-13 32q0 17 13 30.5t31 13.5t31.5 -13.5t13.5 -30.5q0 -19 -13.5 -32
t-31.5 -13zM360 580q-18 0 -31.5 13t-13.5 32q0 17 13.5 30.5t31.5 13.5t31 -13.5t13 -30.5q0 -19 -13 -32t-31 -13z" />
    <glyph glyph-name="yacute" unicode="&#xfd;" horiz-adv-x="546" 
d="M113 -172v78q29 0 54 12.5t42 33t20 45.5l-189 503h87l150 -407l141 407h88l-176 -471q-22 -62 -49 -106.5t-66.5 -69t-101.5 -25.5zM243 573h48l40 134h-63z" />
    <glyph glyph-name="thorn" unicode="&#xfe;" horiz-adv-x="532" 
d="M50 -170v870h79v-222q44 28 97.5 35t95.5 -4q85 -22 127.5 -84t42.5 -170q0 -87 -45 -149.5t-123 -82.5q-45 -12 -97 -9t-98 26v-210h-79zM302 101q53 13 81.5 53t28.5 101q0 74 -25 116.5t-85 57.5q-41 11 -90 -1t-83 -35v-274q40 -18 88 -23t85 5z" />
    <glyph glyph-name="ydieresis" unicode="&#xff;" horiz-adv-x="546" 
d="M113 -172v78q29 0 54 12.5t42 33t20 45.5l-189 503h87l150 -407l141 407h88l-176 -471q-22 -62 -49 -106.5t-66.5 -69t-101.5 -25.5zM186 580q-18 0 -31 13t-13 32q0 17 13 30.5t31 13.5t31.5 -13.5t13.5 -30.5q0 -19 -13.5 -32t-31.5 -13zM366 580q-18 0 -31.5 13
t-13.5 32q0 17 13.5 30.5t31.5 13.5t31 -13.5t13 -30.5q0 -19 -13 -32t-31 -13z" />
    <glyph glyph-name="Amacron" unicode="&#x100;" horiz-adv-x="650" 
d="M40 0l234 700h101l235 -700h-85l-59 178h-283l-59 -178h-84zM325 604l-120 -359h239zM450 788h-250v53h250v-53z" />
    <glyph glyph-name="amacron" unicode="&#x101;" horiz-adv-x="505" 
d="M204 -5q-70 2 -117 39.5t-47 109.5q0 75 44 117.5t120 54.5t170 -5v36q0 35 -22 55.5t-56.5 27.5t-72 1.5t-70.5 -23t-51 -45.5l-49 52q31 38 75.5 59t92.5 27t93 -3t79 -33q33 -20 45.5 -51.5t14.5 -72.5t2 -88v-253h-80v47q-37 -27 -82 -40t-89 -12zM373 118v131
q-119 15 -189 -8t-70 -96q0 -32 18.5 -50t48 -24t64.5 -2t69 17t59 32zM377 592h-250v53h250v-53z" />
    <glyph glyph-name="Abreve" unicode="&#x102;" horiz-adv-x="650" 
d="M40 0l234 700h101l235 -700h-85l-59 178h-283l-59 -178h-84zM325 604l-120 -359h239zM324 765q-46 0 -78.5 32.5t-34.5 82.5h53q3 -30 19 -48.5t41 -18.5q26 0 42 18t20 49h53q-3 -52 -36 -83.5t-79 -31.5z" />
    <glyph glyph-name="abreve" unicode="&#x103;" horiz-adv-x="505" 
d="M204 -5q-70 2 -117 39.5t-47 109.5q0 75 44 117.5t120 54.5t170 -5v36q0 35 -22 55.5t-56.5 27.5t-72 1.5t-70.5 -23t-51 -45.5l-49 52q31 38 75.5 59t92.5 27t93 -3t79 -33q33 -20 45.5 -51.5t14.5 -72.5t2 -88v-253h-80v47q-37 -27 -82 -40t-89 -12zM373 118v131
q-119 15 -189 -8t-70 -96q0 -32 18.5 -50t48 -24t64.5 -2t69 17t59 32zM250 569q-46 0 -78.5 32.5t-34.5 82.5h53q3 -30 19 -48.5t41 -18.5q26 0 42 18t20 49h53q-3 -52 -36 -83.5t-79 -31.5z" />
    <glyph glyph-name="Aogonek" unicode="&#x104;" horiz-adv-x="650" 
d="M40 0l234 700h101l235 -700h-85l-59 178h-283l-59 -178h-84zM325 604l-120 -359h239zM657 -149q-29 -20 -61 -25t-59 3.5t-42 26.5q-16 23 -8.5 63t36.5 85h59q-13 -15 -24.5 -36.5t-15.5 -41.5t6 -32q14 -16 37.5 -15.5t41.5 12.5z" />
    <glyph glyph-name="aogonek" unicode="&#x105;" horiz-adv-x="505" 
d="M204 -5q-70 2 -117 39.5t-47 109.5q0 75 44 117.5t120 54.5t170 -5v36q0 35 -22 55.5t-56.5 27.5t-72 1.5t-70.5 -23t-51 -45.5l-49 52q31 38 75.5 59t92.5 27t93 -3t79 -33q33 -20 45.5 -51.5t14.5 -72.5t2 -88v-253h-80v47q-37 -27 -82 -40t-89 -12zM373 118v131
q-119 15 -189 -8t-70 -96q0 -32 18.5 -50t48 -24t64.5 -2t69 17t59 32zM527 -145q-29 -20 -61 -25t-59 3.5t-42 26.5q-16 23 -8.5 63t36.5 85h59q-13 -15 -24.5 -36.5t-15.5 -41.5t6 -32q14 -16 37.5 -15.5t41.5 12.5z" />
    <glyph glyph-name="Cacute" unicode="&#x106;" horiz-adv-x="684" 
d="M386 -10q-73 0 -135.5 28t-109.5 76q-48 48 -74.5 112.5t-26.5 143.5q0 76 27 142t74 114t109.5 76t135.5 28t138.5 -30t119.5 -91l-63 -52q-86 94 -195 94q-56 0 -103 -22t-84 -60q-36 -38 -56.5 -88.5t-20.5 -110.5q0 -61 20.5 -111.5t56.5 -87.5q37 -38 84 -60
t103 -22q109 0 195 94l63 -52q-54 -61 -119.5 -91t-138.5 -30zM345 769h48l40 134h-63z" />
    <glyph glyph-name="cacute" unicode="&#x107;" horiz-adv-x="493" 
d="M452 65q-52 -47 -109 -63t-110.5 -5.5t-97 45t-69.5 88t-26 123.5t25.5 122.5t69 84.5t97.5 41t111.5 -7.5t109.5 -61.5l-50 -57q-44 38 -93.5 46.5t-92.5 -10t-70 -59t-27 -99.5q0 -63 27.5 -106.5t71.5 -63t93.5 -10.5t92.5 52zM227 569h48l40 134h-63z" />
    <glyph glyph-name="Cdotaccent" unicode="&#x10a;" horiz-adv-x="684" 
d="M386 -10q-73 0 -135.5 28t-109.5 76q-48 48 -74.5 112.5t-26.5 143.5q0 76 27 142t74 114t109.5 76t135.5 28t138.5 -30t119.5 -91l-63 -52q-86 94 -195 94q-56 0 -103 -22t-84 -60q-36 -38 -56.5 -88.5t-20.5 -110.5q0 -61 20.5 -111.5t56.5 -87.5q37 -38 84 -60
t103 -22q109 0 195 94l63 -52q-54 -61 -119.5 -91t-138.5 -30zM375 776q-18 0 -31 13t-13 32q0 17 13 30.5t31 13.5t31.5 -13.5t13.5 -30.5q0 -19 -13.5 -32t-31.5 -13z" />
    <glyph glyph-name="cdotaccent" unicode="&#x10b;" horiz-adv-x="493" 
d="M452 65q-52 -47 -109 -63t-110.5 -5.5t-97 45t-69.5 88t-26 123.5t25.5 122.5t69 84.5t97.5 41t111.5 -7.5t109.5 -61.5l-50 -57q-44 38 -93.5 46.5t-92.5 -10t-70 -59t-27 -99.5q0 -63 27.5 -106.5t71.5 -63t93.5 -10.5t92.5 52zM257 576q-18 0 -31 13t-13 32
q0 17 13 30.5t31 13.5t31.5 -13.5t13.5 -30.5q0 -19 -13.5 -32t-31.5 -13z" />
    <glyph glyph-name="Ccaron" unicode="&#x10c;" horiz-adv-x="684" 
d="M386 -10q-73 0 -135.5 28t-109.5 76q-48 48 -74.5 112.5t-26.5 143.5q0 76 27 142t74 114t109.5 76t135.5 28t138.5 -30t119.5 -91l-63 -52q-86 94 -195 94q-56 0 -103 -22t-84 -60q-36 -38 -56.5 -88.5t-20.5 -110.5q0 -61 20.5 -111.5t56.5 -87.5q37 -38 84 -60
t103 -22q109 0 195 94l63 -52q-54 -61 -119.5 -91t-138.5 -30zM353 769l-101 111h68l56 -64l56 64h68l-101 -111h-46z" />
    <glyph glyph-name="ccaron" unicode="&#x10d;" horiz-adv-x="493" 
d="M452 65q-52 -47 -109 -63t-110.5 -5.5t-97 45t-69.5 88t-26 123.5t25.5 122.5t69 84.5t97.5 41t111.5 -7.5t109.5 -61.5l-50 -57q-44 38 -93.5 46.5t-92.5 -10t-70 -59t-27 -99.5q0 -63 27.5 -106.5t71.5 -63t93.5 -10.5t92.5 52zM235 569l-101 111h68l56 -64l56 64h68
l-101 -111h-46z" />
    <glyph glyph-name="Dcaron" unicode="&#x10e;" horiz-adv-x="585" 
d="M567 352q0 -73 -26.5 -136.5t-73.5 -112t-109 -76t-134 -27.5h-204v703h204q72 0 134.5 -27.5t109.5 -76t73 -112t26 -135.5zM486 352q0 76 -34.5 138t-93.5 99t-134 37h-124v-548h124q75 0 134 37.5t93.5 100t34.5 136.5zM290 769l-101 111h68l56 -64l56 64h68
l-101 -111h-46z" />
    <glyph glyph-name="dcaron" unicode="&#x10f;" horiz-adv-x="524" 
d="M225 1q-60 7 -101.5 42t-62.5 89.5t-21 122.5q0 73 26.5 129.5t77 89t122.5 32.5q29 0 60.5 -4t68.5 -23v221h79v-700h-79v47q-28 -24 -74 -39t-96 -7zM395 114v290q-72 30 -134.5 23t-101.5 -50.5t-39 -121.5q0 -63 23.5 -105.5t63.5 -62.5t88.5 -14t99.5 41zM227 768
l-101 111h68l56 -64l56 64h68l-101 -111h-46z" />
    <glyph glyph-name="Dcroat" unicode="&#x110;" horiz-adv-x="681" 
d="M641 352q0 -73 -26.5 -136.5t-73.5 -112t-109 -76t-134 -27.5h-204v703h204q72 0 134.5 -27.5t109.5 -76t73 -112t26 -135.5zM560 352q0 76 -34.5 138t-93.5 99t-134 37h-124v-548h124q75 0 134 37.5t93.5 100t34.5 136.5zM447 322h-420v55h420v-55z" />
    <glyph glyph-name="dcroat" unicode="&#x111;" horiz-adv-x="539" 
d="M225 1q-60 7 -101.5 42t-62.5 89.5t-21 122.5q0 73 26.5 129.5t77 89t122.5 32.5q29 0 60.5 -4t68.5 -23v221h79v-700h-79v47q-28 -24 -74 -39t-96 -7zM395 114v290q-72 30 -134.5 23t-101.5 -50.5t-39 -121.5q0 -63 23.5 -105.5t63.5 -62.5t88.5 -14t99.5 41zM516 567
h-420v55h420v-55z" />
    <glyph glyph-name="Emacron" unicode="&#x112;" horiz-adv-x="468" 
d="M428 0h-378v700h378v-72h-299v-251h242v-68h-242v-237h299v-72zM360 788h-250v53h250v-53z" />
    <glyph glyph-name="emacron" unicode="&#x113;" horiz-adv-x="562" 
d="M512 226h-389q2 -65 35 -103t84 -50t109 2t110 53l42 -62q-49 -38 -102 -56t-106 -19q-125 -3 -191 69.5t-66 202.5q0 111 62.5 177t181.5 65q78 0 133 -32t81 -95q13 -31 16.5 -69t-0.5 -83zM286 431q-68 0 -115.5 -35.5t-47.5 -105.5h318q0 66 -41.5 103.5t-113.5 37.5
zM406 592h-250v53h250v-53z" />
    <glyph glyph-name="Edotaccent" unicode="&#x116;" horiz-adv-x="468" 
d="M428 0h-378v700h378v-72h-299v-251h242v-68h-242v-237h299v-72zM235 776q-18 0 -31 13t-13 32q0 17 13 30.5t31 13.5t31.5 -13.5t13.5 -30.5q0 -19 -13.5 -32t-31.5 -13z" />
    <glyph glyph-name="edotaccent" unicode="&#x117;" horiz-adv-x="562" 
d="M512 226h-389q2 -65 35 -103t84 -50t109 2t110 53l42 -62q-49 -38 -102 -56t-106 -19q-125 -3 -191 69.5t-66 202.5q0 111 62.5 177t181.5 65q78 0 133 -32t81 -95q13 -31 16.5 -69t-0.5 -83zM286 431q-68 0 -115.5 -35.5t-47.5 -105.5h318q0 66 -41.5 103.5t-113.5 37.5
zM280 580q-18 0 -31 13t-13 32q0 17 13 30.5t31 13.5t31.5 -13.5t13.5 -30.5q0 -19 -13.5 -32t-31.5 -13z" />
    <glyph glyph-name="Eogonek" unicode="&#x118;" horiz-adv-x="468" 
d="M428 0h-378v700h378v-72h-299v-251h242v-68h-242v-237h299v-72zM493 -145q-29 -20 -61 -25t-59 3.5t-42 26.5q-16 23 -8.5 63t36.5 85h59q-13 -15 -24.5 -36.5t-15.5 -41.5t6 -32q14 -16 37.5 -15.5t41.5 12.5z" />
    <glyph glyph-name="eogonek" unicode="&#x119;" horiz-adv-x="562" 
d="M512 226h-389q2 -65 35 -103t84 -50t109 2t110 53l42 -62q-49 -38 -102 -56t-106 -19q-125 -3 -191 69.5t-66 202.5q0 111 62.5 177t181.5 65q78 0 133 -32t81 -95q13 -31 16.5 -69t-0.5 -83zM286 431q-68 0 -115.5 -35.5t-47.5 -105.5h318q0 66 -41.5 103.5t-113.5 37.5
zM534 -145q-29 -20 -61 -25t-59 3.5t-42 26.5q-16 23 -8.5 63t36.5 85h59q-13 -15 -24.5 -36.5t-15.5 -41.5t6 -32q14 -16 37.5 -15.5t41.5 12.5z" />
    <glyph glyph-name="Ecaron" unicode="&#x11a;" horiz-adv-x="468" 
d="M428 0h-378v700h378v-72h-299v-251h242v-68h-242v-237h299v-72zM212 769l-101 111h68l56 -64l56 64h68l-101 -111h-46z" />
    <glyph glyph-name="ecaron" unicode="&#x11b;" horiz-adv-x="562" 
d="M512 226h-389q2 -65 35 -103t84 -50t109 2t110 53l42 -62q-49 -38 -102 -56t-106 -19q-125 -3 -191 69.5t-66 202.5q0 111 62.5 177t181.5 65q78 0 133 -32t81 -95q13 -31 16.5 -69t-0.5 -83zM286 431q-68 0 -115.5 -35.5t-47.5 -105.5h318q0 66 -41.5 103.5t-113.5 37.5
zM258 573l-101 111h68l56 -64l56 64h68l-101 -111h-46z" />
    <glyph glyph-name="Gbreve" unicode="&#x11e;" horiz-adv-x="717" 
d="M384 -10q-71 0 -133 27.5t-109.5 76.5t-74.5 113t-27 138q0 75 26.5 141t74 116t110 78.5t133.5 28.5q85 0 158 -38.5t125 -112.5l-69 -45q-41 56 -96 84.5t-118 28.5q-56 0 -103.5 -22.5t-83 -61.5t-55 -89.5t-19.5 -107.5q0 -55 20 -104.5t56 -87.5t83.5 -60t101.5 -22
q75 0 124.5 22t85.5 78v85h-123v78h206v-183q-42 -84 -113.5 -122.5t-179.5 -38.5zM374 765q-46 0 -78.5 32.5t-34.5 82.5h53q3 -30 19 -48.5t41 -18.5q26 0 42 18t20 49h53q-3 -52 -36 -83.5t-79 -31.5z" />
    <glyph glyph-name="gbreve" unicode="&#x11f;" horiz-adv-x="529" 
d="M274 -204q-45 0 -89.5 17.5t-74.5 45.5l50 56q35 -26 79.5 -36.5t83 0t56.5 45.5q11 23 15 47t4 60q-63 -36 -125.5 -34t-114.5 33.5t-84 86t-34 124.5q-2 83 27 141t80 89t116.5 32.5t135.5 -29.5v26h80v-489q0 -99 -51 -157t-154 -58zM119 241q1 -54 26 -90.5t66 -54.5
t90 -15.5t98 27.5v287q-82 37 -145.5 31.5t-99.5 -52t-35 -133.5zM266 569q-46 0 -78.5 32.5t-34.5 82.5h53q3 -30 19 -48.5t41 -18.5q26 0 42 18t20 49h53q-3 -52 -36 -83.5t-79 -31.5z" />
    <glyph glyph-name="Gdotaccent" unicode="&#x120;" horiz-adv-x="717" 
d="M384 -10q-71 0 -133 27.5t-109.5 76.5t-74.5 113t-27 138q0 75 26.5 141t74 116t110 78.5t133.5 28.5q85 0 158 -38.5t125 -112.5l-69 -45q-41 56 -96 84.5t-118 28.5q-56 0 -103.5 -22.5t-83 -61.5t-55 -89.5t-19.5 -107.5q0 -55 20 -104.5t56 -87.5t83.5 -60t101.5 -22
q75 0 124.5 22t85.5 78v85h-123v78h206v-183q-42 -84 -113.5 -122.5t-179.5 -38.5zM375 776q-18 0 -31 13t-13 32q0 17 13 30.5t31 13.5t31.5 -13.5t13.5 -30.5q0 -19 -13.5 -32t-31.5 -13z" />
    <glyph glyph-name="gdotaccent" unicode="&#x121;" horiz-adv-x="529" 
d="M274 -204q-45 0 -89.5 17.5t-74.5 45.5l50 56q35 -26 79.5 -36.5t83 0t56.5 45.5q11 23 15 47t4 60q-63 -36 -125.5 -34t-114.5 33.5t-84 86t-34 124.5q-2 83 27 141t80 89t116.5 32.5t135.5 -29.5v26h80v-489q0 -99 -51 -157t-154 -58zM119 241q1 -54 26 -90.5t66 -54.5
t90 -15.5t98 27.5v287q-82 37 -145.5 31.5t-99.5 -52t-35 -133.5zM266 580q-18 0 -31 13t-13 32q0 17 13 30.5t31 13.5t31.5 -13.5t13.5 -30.5q0 -19 -13.5 -32t-31.5 -13z" />
    <glyph glyph-name="uni0122" unicode="&#x122;" horiz-adv-x="717" 
d="M384 -10q-71 0 -133 27.5t-109.5 76.5t-74.5 113t-27 138q0 75 26.5 141t74 116t110 78.5t133.5 28.5q85 0 158 -38.5t125 -112.5l-69 -45q-41 56 -96 84.5t-118 28.5q-56 0 -103.5 -22.5t-83 -61.5t-55 -89.5t-19.5 -107.5q0 -55 20 -104.5t56 -87.5t83.5 -60t101.5 -22
q75 0 124.5 22t85.5 78v85h-123v78h206v-183q-42 -84 -113.5 -122.5t-179.5 -38.5zM320.256 -73.6836q0 18.9814 13.8047 32.3545q13.8047 13.374 33.6484 14.2363q18.9824 0 32.7871 -15.0986q13.8047 -15.0996 12.0781 -34.0801q0 -10.3535 -6.03906 -29.7666
t-14.2363 -41.8457q-8.19629 -22.4326 -16.3926 -41.8457q-8.19727 -19.4131 -12.5107 -29.7666l-25.8838 11.2168q6.03906 11.2168 14.668 38.3945q8.62695 27.1777 12.9414 50.4727q-19.8438 0 -32.3545 13.374q-12.5107 13.373 -12.5107 32.3545z" />
    <glyph glyph-name="uni0123" unicode="&#x123;" horiz-adv-x="529" 
d="M274 -204q-45 0 -89.5 17.5t-74.5 45.5l50 56q35 -26 79.5 -36.5t83 0t56.5 45.5q11 23 15 47t4 60q-63 -36 -125.5 -34t-114.5 33.5t-84 86t-34 124.5q-2 83 27 141t80 89t116.5 32.5t135.5 -29.5v26h80v-489q0 -99 -51 -157t-154 -58zM119 241q1 -54 26 -90.5t66 -54.5
t90 -15.5t98 27.5v287q-82 37 -145.5 31.5t-99.5 -52t-35 -133.5zM314.744 629.684q0 -18.9814 -13.8047 -32.3545q-13.8047 -13.374 -33.6484 -14.2363q-18.9824 0 -32.7871 15.0986q-13.8047 15.0996 -12.0781 34.0801q0 10.3535 6.03906 29.7666t14.2363 41.8457
q8.19629 22.4326 16.3926 41.8457q8.19727 19.4131 12.5107 29.7666l25.8838 -11.2168q-6.03906 -11.2168 -14.668 -38.3945q-8.62695 -27.1777 -12.9414 -50.4727q19.8438 0 32.3545 -13.374q12.5107 -13.373 12.5107 -32.3545z" />
    <glyph glyph-name="Hbar" unicode="&#x126;" horiz-adv-x="701" 
d="M602 0h-79v305h-344v-305h-79v700h79v-327h344v327h79v-700zM651 546h-601v55h601v-55z" />
    <glyph glyph-name="hbar" unicode="&#x127;" horiz-adv-x="574" 
d="M534 0h-79v298q0 68 -38 99.5t-100 31.5q-35 0 -65.5 -14.5t-49.5 -37.5t-19 -46v-331h-79v700h79v-249q27 30 68 42t77 11q97 -4 151.5 -57t54.5 -149v-298zM460 567h-420v55h420v-55z" />
    <glyph glyph-name="Imacron" unicode="&#x12a;" horiz-adv-x="310" 
d="M194 0h-79v700h79v-700zM259.607 788h-210.006v53h210.006v-53z" />
    <glyph glyph-name="imacron" unicode="&#x12b;" horiz-adv-x="310" 
d="M192 0h-75v500h75v-500zM259.607 588h-210.006v53h210.006v-53z" />
    <glyph glyph-name="Iogonek" unicode="&#x12e;" horiz-adv-x="179" 
d="M129 0h-79v700h79v-700zM192 -145q-29 -20 -61 -25t-59 3.5t-42 26.5q-16 23 -8.5 63t36.5 85h59q-13 -15 -24.5 -36.5t-15.5 -41.5t6 -32q14 -16 37.5 -15.5t41.5 12.5z" />
    <glyph glyph-name="iogonek" unicode="&#x12f;" horiz-adv-x="284" 
d="M152 0h-75v500h75v-500zM132 576q-18 0 -31 13t-13 32q0 17 13 30.5t31 13.5t31.5 -13.5t13.5 -30.5q0 -19 -13.5 -32t-31.5 -13zM274 -145q-29 -20 -61 -25t-59 3.5t-42 26.5q-16 23 -8.5 63t36.5 85h59q-13 -15 -24.5 -36.5t-15.5 -41.5t6 -32q14 -16 37.5 -15.5
t41.5 12.5z" />
    <glyph glyph-name="Idotaccent" unicode="&#x130;" horiz-adv-x="195" 
d="M137 0h-79v700h79v-700zM121 776q-18 0 -31 13t-13 32q0 17 13 30.5t31 13.5t31.5 -13.5t13.5 -30.5q0 -19 -13.5 -32t-31.5 -13z" />
    <glyph glyph-name="dotlessi" unicode="&#x131;" horiz-adv-x="175" 
d="M125 0h-75v500h75v-500z" />
    <glyph glyph-name="uni0136" unicode="&#x136;" horiz-adv-x="549" 
d="M508 0h-93l-250 289l-36 -19v-270h-79v701h79v-328l281 329h99l-288 -347zM234.256 -73.6836q0 18.9814 13.8047 32.3545q13.8047 13.374 33.6484 14.2363q18.9824 0 32.7871 -15.0986q13.8047 -15.0996 12.0781 -34.0801q0 -10.3535 -6.03906 -29.7666
t-14.2363 -41.8457q-8.19629 -22.4326 -16.3926 -41.8457q-8.19727 -19.4131 -12.5107 -29.7666l-25.8838 11.2168q6.03906 11.2168 14.668 38.3945q8.62695 27.1777 12.9414 50.4727q-19.8438 0 -32.3545 13.374q-12.5107 13.373 -12.5107 32.3545z" />
    <glyph glyph-name="uni0137" unicode="&#x137;" horiz-adv-x="456" 
d="M50 0v700h80v-367l166 160h110l-206 -204l216 -289h-92l-185 235l-9 -16v-219h-80zM168.256 -73.6836q0 18.9814 13.8047 32.3545q13.8047 13.374 33.6484 14.2363q18.9824 0 32.7871 -15.0986q13.8047 -15.0996 12.0781 -34.0801q0 -10.3535 -6.03906 -29.7666
t-14.2363 -41.8457q-8.19629 -22.4326 -16.3926 -41.8457q-8.19727 -19.4131 -12.5107 -29.7666l-25.8838 11.2168q6.03906 11.2168 14.668 38.3945q8.62695 27.1777 12.9414 50.4727q-19.8438 0 -32.3545 13.374q-12.5107 13.373 -12.5107 32.3545z" />
    <glyph glyph-name="Lacute" unicode="&#x139;" horiz-adv-x="418" 
d="M378 0h-326v700h79v-624h247v-76zM179 769h48l40 134h-63z" />
    <glyph glyph-name="lacute" unicode="&#x13a;" horiz-adv-x="179" 
d="M129 0h-79v700h79v-700zM59 769h48l40 134h-63z" />
    <glyph glyph-name="uni013B" unicode="&#x13b;" horiz-adv-x="418" 
d="M378 0h-326v700h79v-624h247v-76zM155.256 -73.6836q0 18.9814 13.8047 32.3545q13.8047 13.374 33.6484 14.2363q18.9824 0 32.7871 -15.0986q13.8047 -15.0996 12.0781 -34.0801q0 -10.3535 -6.03906 -29.7666t-14.2363 -41.8457q-8.19629 -22.4326 -16.3926 -41.8457
q-8.19727 -19.4131 -12.5107 -29.7666l-25.8838 11.2168q6.03906 11.2168 14.668 38.3945q8.62695 27.1777 12.9414 50.4727q-19.8438 0 -32.3545 13.374q-12.5107 13.373 -12.5107 32.3545z" />
    <glyph glyph-name="uni013C" unicode="&#x13c;" horiz-adv-x="196" 
d="M139 0h-79v700h79v-700zM52.2559 -73.6836q0 18.9814 13.8047 32.3545q13.8047 13.374 33.6484 14.2363q18.9824 0 32.7871 -15.0986q13.8047 -15.0996 12.0781 -34.0801q0 -10.3535 -6.03906 -29.7666t-14.2363 -41.8457q-8.19629 -22.4326 -16.3926 -41.8457
q-8.19727 -19.4131 -12.5107 -29.7666l-25.8838 11.2168q6.03906 11.2168 14.668 38.3945q8.62695 27.1777 12.9414 50.4727q-19.8438 0 -32.3545 13.374q-12.5107 13.373 -12.5107 32.3545z" />
    <glyph glyph-name="Lcaron" unicode="&#x13d;" horiz-adv-x="418" 
d="M378 0h-326v700h79v-624h247v-76zM187 769l-101 111h68l56 -64l56 64h68l-101 -111h-46z" />
    <glyph glyph-name="lcaron" unicode="&#x13e;" horiz-adv-x="348" 
d="M213 0h-79v700h79v-700zM151 769l-101 111h68l56 -64l56 64h68l-101 -111h-46z" />
    <glyph glyph-name="Lslash" unicode="&#x141;" horiz-adv-x="550" 
d="M510 0h-326v276l-61 -78h-71l132 170v332h80v-231l59 77h73l-132 -169v-301h246v-76z" />
    <glyph glyph-name="lslash" unicode="&#x142;" horiz-adv-x="427" 
d="M254 0h-79v284l-54 -68h-71l125 160v324h79v-222l51 65h72l-123 -157v-386z" />
    <glyph glyph-name="Nacute" unicode="&#x143;" horiz-adv-x="624" 
d="M574 0h-110l-335 609v-608h-79v700h116l329 -602v602h79v-701zM281 769h48l40 134h-63z" />
    <glyph glyph-name="nacute" unicode="&#x144;" horiz-adv-x="528" 
d="M488 0h-79v297q0 48 -20.5 77t-52 41.5t-65.5 12.5q-33 0 -65.5 -14t-54.5 -43t-22 -74v-297h-79v500h79v-54q23 31 63 45.5t83 14.5q58 0 106.5 -24t77.5 -70.5t29 -114.5v-297zM238 573h48l40 134h-63z" />
    <glyph glyph-name="uni0145" unicode="&#x145;" horiz-adv-x="624" 
d="M574 0h-110l-335 609v-608h-79v700h116l329 -602v602h79v-701zM257.256 -73.6836q0 18.9814 13.8047 32.3545q13.8047 13.374 33.6484 14.2363q18.9824 0 32.7871 -15.0986q13.8047 -15.0996 12.0781 -34.0801q0 -10.3535 -6.03906 -29.7666t-14.2363 -41.8457
q-8.19629 -22.4326 -16.3926 -41.8457q-8.19727 -19.4131 -12.5107 -29.7666l-25.8838 11.2168q6.03906 11.2168 14.668 38.3945q8.62695 27.1777 12.9414 50.4727q-19.8438 0 -32.3545 13.374q-12.5107 13.373 -12.5107 32.3545z" />
    <glyph glyph-name="uni0146" unicode="&#x146;" horiz-adv-x="528" 
d="M488 0h-79v297q0 48 -20.5 77t-52 41.5t-65.5 12.5q-33 0 -65.5 -14t-54.5 -43t-22 -74v-297h-79v500h79v-54q23 31 63 45.5t83 14.5q58 0 106.5 -24t77.5 -70.5t29 -114.5v-297zM214.256 -73.6836q0 18.9814 13.8047 32.3545q13.8047 13.374 33.6484 14.2363
q18.9824 0 32.7871 -15.0986q13.8047 -15.0996 12.0781 -34.0801q0 -10.3535 -6.03906 -29.7666t-14.2363 -41.8457q-8.19629 -22.4326 -16.3926 -41.8457q-8.19727 -19.4131 -12.5107 -29.7666l-25.8838 11.2168q6.03906 11.2168 14.668 38.3945
q8.62695 27.1777 12.9414 50.4727q-19.8438 0 -32.3545 13.374q-12.5107 13.373 -12.5107 32.3545z" />
    <glyph glyph-name="Ncaron" unicode="&#x147;" horiz-adv-x="624" 
d="M574 0h-110l-335 609v-608h-79v700h116l329 -602v602h79v-701zM289 769l-101 111h68l56 -64l56 64h68l-101 -111h-46z" />
    <glyph glyph-name="ncaron" unicode="&#x148;" horiz-adv-x="528" 
d="M488 0h-79v297q0 48 -20.5 77t-52 41.5t-65.5 12.5q-33 0 -65.5 -14t-54.5 -43t-22 -74v-297h-79v500h79v-54q23 31 63 45.5t83 14.5q58 0 106.5 -24t77.5 -70.5t29 -114.5v-297zM246 573l-101 111h68l56 -64l56 64h68l-101 -111h-46z" />
    <glyph glyph-name="Eng" unicode="&#x14a;" horiz-adv-x="625" 
d="M388 -155v70q41 0 64.5 3t33.5 20.5t9 60.5v1h-31l-335 609v-608h-79v700h116l329 -602v602h79v-609h1v-93q1 -64 -16 -97.5t-58.5 -46t-112.5 -10.5z" />
    <glyph glyph-name="eng" unicode="&#x14b;" horiz-adv-x="532" 
d="M316 -153v72q51 5 72 22t21 57v299q0 48 -20.5 77t-52 41.5t-65.5 12.5q-33 0 -65.5 -14t-54.5 -43t-22 -74v-297h-79v500h79v-54q23 31 63 45.5t83 14.5q58 0 106.5 -24t77.5 -70.5t29 -114.5v-298q0 -71 -42.5 -108.5t-129.5 -43.5z" />
    <glyph glyph-name="Omacron" unicode="&#x14c;" horiz-adv-x="765" 
d="M725 350q0 -76 -26.5 -141.5t-73.5 -114.5t-109 -76.5t-133 -27.5q-72 0 -134 28t-109 77.5t-73.5 114.5t-26.5 140q0 74 27 139.5t75 115t110 77.5t131 28q71 0 133 -28.5t109 -78.5t73.5 -115t26.5 -138zM644 350q0 58 -20.5 109.5t-56 91t-83 62t-101.5 22.5
q-55 0 -102.5 -22.5t-83 -62t-56 -91t-20.5 -109.5t20.5 -110t56 -91.5t83 -62t102.5 -22.5t102 22.5t83 62t56 91t20 110.5zM508 788h-250v53h250v-53z" />
    <glyph glyph-name="omacron" unicode="&#x14d;" horiz-adv-x="564" 
d="M282 -12q-72 0 -126.5 31t-85 87.5t-30.5 132.5q0 88 32 147t86.5 89t123.5 30q71 0 125.5 -30t85.5 -89t31 -147q0 -76 -31 -132.5t-85.5 -87.5t-125.5 -31zM282 64q53 0 90 23.5t56 63.5t19 88q0 82 -42.5 135.5t-122.5 53.5q-81 0 -123 -54t-42 -135q0 -49 18.5 -88.5
t55.5 -63t91 -23.5zM407 592h-250v53h250v-53z" />
    <glyph glyph-name="Ohungarumlaut" unicode="&#x150;" horiz-adv-x="765" 
d="M725 350q0 -76 -26.5 -141.5t-73.5 -114.5t-109 -76.5t-133 -27.5q-72 0 -134 28t-109 77.5t-73.5 114.5t-26.5 140q0 74 27 139.5t75 115t110 77.5t131 28q71 0 133 -28.5t109 -78.5t73.5 -115t26.5 -138zM644 350q0 58 -20.5 109.5t-56 91t-83 62t-101.5 22.5
q-55 0 -102.5 -22.5t-83 -62t-56 -91t-20.5 -109.5t20.5 -110t56 -91.5t83 -62t102.5 -22.5t102 22.5t83 62t56 91t20 110.5zM288 769h48l40 134h-63zM390 770h48l40 134h-63z" />
    <glyph glyph-name="ohungarumlaut" unicode="&#x151;" horiz-adv-x="564" 
d="M282 -12q-72 0 -126.5 31t-85 87.5t-30.5 132.5q0 88 32 147t86.5 89t123.5 30q71 0 125.5 -30t85.5 -89t31 -147q0 -76 -31 -132.5t-85.5 -87.5t-125.5 -31zM282 64q53 0 90 23.5t56 63.5t19 88q0 82 -42.5 135.5t-122.5 53.5q-81 0 -123 -54t-42 -135q0 -49 18.5 -88.5
t55.5 -63t91 -23.5zM187 573h48l40 134h-63zM289 574h48l40 134h-63z" />
    <glyph glyph-name="OE" unicode="&#x152;" horiz-adv-x="1062" 
d="M725 350q0 -76 -26.5 -141.5t-73.5 -114.5t-109 -76.5t-133 -27.5q-72 0 -134 28t-109 77.5t-73.5 114.5t-26.5 140q0 74 27 139.5t75 115t110 77.5t131 28q71 0 133 -28.5t109 -78.5t73.5 -115t26.5 -138zM644 350q0 58 -20.5 109.5t-56 91t-83 62t-101.5 22.5
q-55 0 -102.5 -22.5t-83 -62t-56 -91t-20.5 -109.5t20.5 -110t56 -91.5t83 -62t102.5 -22.5t102 22.5t83 62t56 91t20 110.5zM1022 0h-378v700h378v-72h-299v-251h242v-68h-242v-237h299v-72z" />
    <glyph glyph-name="oe" unicode="&#x153;" horiz-adv-x="962" 
d="M282 -12q-72 0 -126.5 31t-85 87.5t-30.5 132.5q0 88 32 147t86.5 89t123.5 30q71 0 125.5 -30t85.5 -89t31 -147q0 -76 -31 -132.5t-85.5 -87.5t-125.5 -31zM282 64q53 0 90 23.5t56 63.5t19 88q0 82 -42.5 135.5t-122.5 53.5q-81 0 -123 -54t-42 -135q0 -49 18.5 -88.5
t55.5 -63t91 -23.5zM920 226h-389q2 -65 35 -103t84 -50t109 2t110 53l42 -62q-49 -38 -102 -56t-106 -19q-125 -3 -191 69.5t-66 202.5q0 111 62.5 177t181.5 65q78 0 133 -32t81 -95q13 -31 16.5 -69t-0.5 -83zM694 431q-68 0 -115.5 -35.5t-47.5 -105.5h318
q0 66 -41.5 103.5t-113.5 37.5z" />
    <glyph glyph-name="Racute" unicode="&#x154;" horiz-adv-x="555" 
d="M515 0h-94l-180 295h-112v-295h-79l1 700h267q49 0 88.5 -28.5t63.5 -74.5t24 -100q0 -46 -21.5 -89t-57.5 -73t-82 -36zM414 497q0 30 -13 58.5t-35 47t-51 18.5h-186v-245h184q28 0 50.5 19t36.5 47t14 55zM247 769h48l40 134h-63z" />
    <glyph glyph-name="racute" unicode="&#x155;" horiz-adv-x="363" 
d="M50 0v494h79v-46q33 37 81.5 45t122.5 -13l-37 -70q-45 16 -83.5 5.5t-61.5 -36.5t-22 -56v-323h-79zM170 569h48l40 134h-63z" />
    <glyph glyph-name="uni0156" unicode="&#x156;" horiz-adv-x="555" 
d="M515 0h-94l-180 295h-112v-295h-79l1 700h267q49 0 88.5 -28.5t63.5 -74.5t24 -100q0 -46 -21.5 -89t-57.5 -73t-82 -36zM414 497q0 30 -13 58.5t-35 47t-51 18.5h-186v-245h184q28 0 50.5 19t36.5 47t14 55zM222.256 -73.6836q0 18.9814 13.8047 32.3545
q13.8047 13.374 33.6484 14.2363q18.9824 0 32.7871 -15.0986q13.8047 -15.0996 12.0781 -34.0801q0 -10.3535 -6.03906 -29.7666t-14.2363 -41.8457q-8.19629 -22.4326 -16.3926 -41.8457q-8.19727 -19.4131 -12.5107 -29.7666l-25.8838 11.2168
q6.03906 11.2168 14.668 38.3945q8.62695 27.1777 12.9414 50.4727q-19.8438 0 -32.3545 13.374q-12.5107 13.373 -12.5107 32.3545z" />
    <glyph glyph-name="uni0157" unicode="&#x157;" horiz-adv-x="363" 
d="M50 0v494h79v-46q33 37 81.5 45t122.5 -13l-37 -70q-45 16 -83.5 5.5t-61.5 -36.5t-22 -56v-323h-79zM145.256 -73.6836q0 18.9814 13.8047 32.3545q13.8047 13.374 33.6484 14.2363q18.9824 0 32.7871 -15.0986q13.8047 -15.0996 12.0781 -34.0801
q0 -10.3535 -6.03906 -29.7666t-14.2363 -41.8457q-8.19629 -22.4326 -16.3926 -41.8457q-8.19727 -19.4131 -12.5107 -29.7666l-25.8838 11.2168q6.03906 11.2168 14.668 38.3945q8.62695 27.1777 12.9414 50.4727q-19.8438 0 -32.3545 13.374
q-12.5107 13.373 -12.5107 32.3545z" />
    <glyph glyph-name="Rcaron" unicode="&#x158;" horiz-adv-x="555" 
d="M515 0h-94l-180 295h-112v-295h-79l1 700h267q49 0 88.5 -28.5t63.5 -74.5t24 -100q0 -46 -21.5 -89t-57.5 -73t-82 -36zM414 497q0 30 -13 58.5t-35 47t-51 18.5h-186v-245h184q28 0 50.5 19t36.5 47t14 55zM255 769l-101 111h68l56 -64l56 64h68l-101 -111h-46z" />
    <glyph glyph-name="rcaron" unicode="&#x159;" horiz-adv-x="363" 
d="M50 0v494h79v-46q33 37 81.5 45t122.5 -13l-37 -70q-45 16 -83.5 5.5t-61.5 -36.5t-22 -56v-323h-79zM178 569l-101 111h68l56 -64l56 64h68l-101 -111h-46z" />
    <glyph glyph-name="Sacute" unicode="&#x15a;" horiz-adv-x="544" 
d="M273 -9q-66 0 -128.5 26t-104.5 64l61 56q37 -30 83 -47.5t87 -17.5t75.5 16t55.5 44.5t22 66.5q1 48 -34 77t-108 47q-71 18 -124 44.5t-81 67.5t-23 102q7 81 67.5 124.5t159.5 43.5q48 0 101.5 -11.5t100.5 -38.5l-53 -64q-35 15 -72 24.5t-75 10.5q-37 0 -70.5 -9.5
t-54.5 -31t-22 -57.5q0 -37 20 -59.5t54 -36.5t76 -26q71 -19 119.5 -42t73.5 -61t25 -104q0 -59 -31.5 -106t-84 -74.5t-115.5 -27.5zM238 769h48l40 134h-63z" />
    <glyph glyph-name="sacute" unicode="&#x15b;" horiz-adv-x="420" 
d="M40 58l47 51q31 -23 62 -35.5t63 -11.5q19 0 36 5t32 17q19 14 25.5 36t-0.5 42q-8 22 -29 35t-49.5 22.5t-59 20t-56.5 26.5q-45 30 -58 68.5t0.5 76t49 63.5t88.5 30q51 3 99 -12t75 -42l-50 -48q-25 17 -54 25t-56 8q-32 -1 -54.5 -15t-25.5 -45q-2 -29 19 -45.5
t58 -29t80 -28.5q50 -20 77.5 -57.5t16.5 -95.5q-7 -54 -43.5 -85t-88.5 -39t-106.5 7.5t-97.5 55.5zM172 569h48l40 134h-63z" />
    <glyph glyph-name="Scedilla" unicode="&#x15e;" horiz-adv-x="544" 
d="M273 -9q-66 0 -128.5 26t-104.5 64l61 56q37 -30 83 -47.5t87 -17.5t75.5 16t55.5 44.5t22 66.5q1 48 -34 77t-108 47q-71 18 -124 44.5t-81 67.5t-23 102q7 81 67.5 124.5t159.5 43.5q48 0 101.5 -11.5t100.5 -38.5l-53 -64q-35 15 -72 24.5t-75 10.5q-37 0 -70.5 -9.5
t-54.5 -31t-22 -57.5q0 -37 20 -59.5t54 -36.5t76 -26q71 -19 119.5 -42t73.5 -61t25 -104q0 -59 -31.5 -106t-84 -74.5t-115.5 -27.5zM260 -189q-22 0 -43 11t-34 33l32 23q12 -21 35.5 -24.5t42.5 8t17 35.5q-1 23 -18.5 33.5t-40 8t-37.5 -17.5l-7 41l49 73l44 -15
l-29 -42q36 0 56.5 -17t26 -42t-3.5 -49.5t-31.5 -41.5t-58.5 -17z" />
    <glyph glyph-name="scedilla" unicode="&#x15f;" horiz-adv-x="420" 
d="M40 58l47 51q31 -23 62 -35.5t63 -11.5q19 0 36 5t32 17q19 14 25.5 36t-0.5 42q-8 22 -29 35t-49.5 22.5t-59 20t-56.5 26.5q-45 30 -58 68.5t0.5 76t49 63.5t88.5 30q51 3 99 -12t75 -42l-50 -48q-25 17 -54 25t-56 8q-32 -1 -54.5 -15t-25.5 -45q-2 -29 19 -45.5
t58 -29t80 -28.5q50 -20 77.5 -57.5t16.5 -95.5q-7 -54 -43.5 -85t-88.5 -39t-106.5 7.5t-97.5 55.5zM194 -189q-22 0 -43 11t-34 33l32 23q12 -21 35.5 -24.5t42.5 8t17 35.5q-1 23 -18.5 33.5t-40 8t-37.5 -17.5l-7 41l49 73l44 -15l-29 -42q36 0 56.5 -17t26 -42
t-3.5 -49.5t-31.5 -41.5t-58.5 -17z" />
    <glyph glyph-name="Scaron" unicode="&#x160;" horiz-adv-x="544" 
d="M273 -9q-66 0 -128.5 26t-104.5 64l61 56q37 -30 83 -47.5t87 -17.5t75.5 16t55.5 44.5t22 66.5q1 48 -34 77t-108 47q-71 18 -124 44.5t-81 67.5t-23 102q7 81 67.5 124.5t159.5 43.5q48 0 101.5 -11.5t100.5 -38.5l-53 -64q-35 15 -72 24.5t-75 10.5q-37 0 -70.5 -9.5
t-54.5 -31t-22 -57.5q0 -37 20 -59.5t54 -36.5t76 -26q71 -19 119.5 -42t73.5 -61t25 -104q0 -59 -31.5 -106t-84 -74.5t-115.5 -27.5zM246 769l-101 111h68l56 -64l56 64h68l-101 -111h-46z" />
    <glyph glyph-name="scaron" unicode="&#x161;" horiz-adv-x="420" 
d="M40 58l47 51q31 -23 62 -35.5t63 -11.5q19 0 36 5t32 17q19 14 25.5 36t-0.5 42q-8 22 -29 35t-49.5 22.5t-59 20t-56.5 26.5q-45 30 -58 68.5t0.5 76t49 63.5t88.5 30q51 3 99 -12t75 -42l-50 -48q-25 17 -54 25t-56 8q-32 -1 -54.5 -15t-25.5 -45q-2 -29 19 -45.5
t58 -29t80 -28.5q50 -20 77.5 -57.5t16.5 -95.5q-7 -54 -43.5 -85t-88.5 -39t-106.5 7.5t-97.5 55.5zM180 569l-101 111h68l56 -64l56 64h68l-101 -111h-46z" />
    <glyph glyph-name="uni0162" unicode="&#x162;" horiz-adv-x="596" 
d="M556 627h-218v-627h-80v627h-218v73h516v-73zM289 -189q-22 0 -43 11t-34 33l32 23q12 -21 35.5 -24.5t42.5 8t17 35.5q-1 23 -18.5 33.5t-40 8t-37.5 -17.5l-7 41l49 73l44 -15l-29 -42q36 0 56.5 -17t26 -42t-3.5 -49.5t-31.5 -41.5t-58.5 -17z" />
    <glyph glyph-name="uni0163" unicode="&#x163;" horiz-adv-x="344" 
d="M127 216v210h-87v74h87v200h79v-200h88v-74h-88v-210q0 -64 4.5 -93.5t18.5 -37.5t41 -9h25v-79h-22q-46 0 -75 8.5t-44.5 31.5t-21 66t-5.5 113zM183 -189q-22 0 -43 11t-34 33l32 23q12 -21 35.5 -24.5t42.5 8t17 35.5q-1 23 -18.5 33.5t-40 8t-37.5 -17.5l-7 41l49 73
l44 -15l-29 -42q36 0 56.5 -17t26 -42t-3.5 -49.5t-31.5 -41.5t-58.5 -17z" />
    <glyph glyph-name="Tcaron" unicode="&#x164;" horiz-adv-x="596" 
d="M556 627h-218v-627h-80v627h-218v73h516v-73zM275 769l-101 111h68l56 -64l56 64h68l-101 -111h-46z" />
    <glyph glyph-name="tcaron" unicode="&#x165;" horiz-adv-x="344" 
d="M127 216v210h-87v74h87v200h79v-200h88v-74h-88v-210q0 -64 4.5 -93.5t18.5 -37.5t41 -9h25v-79h-22q-46 0 -75 8.5t-44.5 31.5t-21 66t-5.5 113zM169 769l-101 111h68l56 -64l56 64h68l-101 -111h-46z" />
    <glyph glyph-name="Tbar" unicode="&#x166;" horiz-adv-x="596" 
d="M556 627h-218v-627h-80v627h-218v73h516v-73zM508 322h-420v55h420v-55z" />
    <glyph glyph-name="tbar" unicode="&#x167;" horiz-adv-x="366" 
d="M143 216v210h-87v74h87v200h79v-200h88v-74h-88v-210q0 -64 4.5 -93.5t18.5 -37.5t41 -9h25v-79h-22q-46 0 -75 8.5t-44.5 31.5t-21 66t-5.5 113zM325.597 272h-285.597v55h285.597v-55z" />
    <glyph glyph-name="Umacron" unicode="&#x16a;" horiz-adv-x="609" 
d="M480 700h79v-700h-79v79q-34 -38 -80.5 -61t-100.5 -23q-72 0 -130.5 33.5t-93.5 90t-35 126.5v455h79l1 -455q0 -47 24 -85.5t65 -61.5t90 -23q52 0 93 22.5t64.5 61.5t23.5 86v455zM421 788h-250v53h250v-53z" />
    <glyph glyph-name="umacron" unicode="&#x16b;" horiz-adv-x="527" 
d="M477 0h-79v52q-20 -30 -57 -45t-81 -16.5t-86 11t-71 38.5q-30 26 -46.5 66t-16.5 92v302h80v-302q0 -69 39.5 -101t101.5 -32q31 0 62.5 14t53 43.5t21.5 75.5v302h79v-500zM393 592h-250v53h250v-53z" />
    <glyph glyph-name="Uring" unicode="&#x16e;" horiz-adv-x="609" 
d="M480 700h79v-700h-79v79q-34 -38 -80.5 -61t-100.5 -23q-72 0 -130.5 33.5t-93.5 90t-35 126.5v455h79l1 -455q0 -47 24 -85.5t65 -61.5t90 -23q52 0 93 22.5t64.5 61.5t23.5 86v455zM296 758q-32 0 -56 23.5t-24 56.5q0 32 24 56t56 24q33 0 56.5 -24t23.5 -56
q0 -33 -23.5 -56.5t-56.5 -23.5zM296 878q-17 0 -28.5 -11.5t-11.5 -27.5q0 -18 11.5 -29.5t28.5 -11.5q16 0 27.5 11.5t11.5 29.5q0 16 -11.5 27.5t-27.5 11.5z" />
    <glyph glyph-name="uring" unicode="&#x16f;" horiz-adv-x="527" 
d="M477 0h-79v52q-20 -30 -57 -45t-81 -16.5t-86 11t-71 38.5q-30 26 -46.5 66t-16.5 92v302h80v-302q0 -69 39.5 -101t101.5 -32q31 0 62.5 14t53 43.5t21.5 75.5v302h79v-500zM268 562q-32 0 -56 23.5t-24 56.5q0 32 24 56t56 24q33 0 56.5 -24t23.5 -56
q0 -33 -23.5 -56.5t-56.5 -23.5zM268 682q-17 0 -28.5 -11.5t-11.5 -27.5q0 -18 11.5 -29.5t28.5 -11.5q16 0 27.5 11.5t11.5 29.5q0 16 -11.5 27.5t-27.5 11.5z" />
    <glyph glyph-name="Uhungarumlaut" unicode="&#x170;" horiz-adv-x="609" 
d="M480 700h79v-700h-79v79q-34 -38 -80.5 -61t-100.5 -23q-72 0 -130.5 33.5t-93.5 90t-35 126.5v455h79l1 -455q0 -47 24 -85.5t65 -61.5t90 -23q52 0 93 22.5t64.5 61.5t23.5 86v455zM201 769h48l40 134h-63zM303 770h48l40 134h-63z" />
    <glyph glyph-name="uhungarumlaut" unicode="&#x171;" horiz-adv-x="527" 
d="M477 0h-79v52q-20 -30 -57 -45t-81 -16.5t-86 11t-71 38.5q-30 26 -46.5 66t-16.5 92v302h80v-302q0 -69 39.5 -101t101.5 -32q31 0 62.5 14t53 43.5t21.5 75.5v302h79v-500zM173 573h48l40 134h-63zM275 574h48l40 134h-63z" />
    <glyph glyph-name="Uogonek" unicode="&#x172;" horiz-adv-x="609" 
d="M480 700h79v-700h-79v79q-34 -38 -80.5 -61t-100.5 -23q-72 0 -130.5 33.5t-93.5 90t-35 126.5v455h79l1 -455q0 -47 24 -85.5t65 -61.5t90 -23q52 0 93 22.5t64.5 61.5t23.5 86v455zM559 -143q-29 -20 -61 -25t-59 3.5t-42 26.5q-16 23 -8.5 63t36.5 85h59
q-13 -15 -24.5 -36.5t-15.5 -41.5t6 -32q14 -16 37.5 -15.5t41.5 12.5z" />
    <glyph glyph-name="uogonek" unicode="&#x173;" horiz-adv-x="527" 
d="M477 0h-79v52q-20 -30 -57 -45t-81 -16.5t-86 11t-71 38.5q-30 26 -46.5 66t-16.5 92v302h80v-302q0 -69 39.5 -101t101.5 -32q31 0 62.5 14t53 43.5t21.5 75.5v302h79v-500zM547 -145q-29 -20 -61 -25t-59 3.5t-42 26.5q-16 23 -8.5 63t36.5 85h59q-13 -15 -24.5 -36.5
t-15.5 -41.5t6 -32q14 -16 37.5 -15.5t41.5 12.5z" />
    <glyph glyph-name="Wcircumflex" unicode="&#x174;" horiz-adv-x="1074" 
d="M1034 700l-218 -700h-98l-181 477l-179 -477h-98l-220 700h84l186 -598l185 479h85l185 -480l184 599h85zM413 769l101 111h46l101 -111h-68l-56 64l-56 -64h-68z" />
    <glyph glyph-name="wcircumflex" unicode="&#x175;" horiz-adv-x="890" 
d="M850 500l-169 -500h-105l-131 407l-131 -407h-104l-170 500h84l138 -418l137 418h93l137 -417l137 417h84zM321 569l101 111h46l101 -111h-68l-56 64l-56 -64h-68z" />
    <glyph glyph-name="Ycircumflex" unicode="&#x176;" horiz-adv-x="632" 
d="M592 700l-236 -464v-236h-80v236l-236 464h83l193 -382l193 382h83zM192 769l101 111h46l101 -111h-68l-56 64l-56 -64h-68z" />
    <glyph glyph-name="ycircumflex" unicode="&#x177;" horiz-adv-x="546" 
d="M113 -172v78q29 0 54 12.5t42 33t20 45.5l-189 503h87l150 -407l141 407h88l-176 -471q-22 -62 -49 -106.5t-66.5 -69t-101.5 -25.5zM150 573l101 111h46l101 -111h-68l-56 64l-56 -64h-68z" />
    <glyph glyph-name="Ydieresis" unicode="&#x178;" horiz-adv-x="632" 
d="M592 700l-236 -464v-236h-80v236l-236 464h83l193 -382l193 382h83zM228 776q-18 0 -31 13t-13 32q0 17 13 30.5t31 13.5t31.5 -13.5t13.5 -30.5q0 -19 -13.5 -32t-31.5 -13zM408 776q-18 0 -31.5 13t-13.5 32q0 17 13.5 30.5t31.5 13.5t31 -13.5t13 -30.5q0 -19 -13 -32
t-31 -13z" />
    <glyph glyph-name="Zacute" unicode="&#x179;" horiz-adv-x="561" 
d="M521 0h-481v71l380 553h-375v76h471v-72l-380 -553h385v-75zM250 769h48l40 134h-63z" />
    <glyph glyph-name="zacute" unicode="&#x17a;" horiz-adv-x="470" 
d="M430 0h-390v64l290 361h-283v75h383v-69l-289 -356h289v-75zM204 573h48l40 134h-63z" />
    <glyph glyph-name="Zdotaccent" unicode="&#x17b;" horiz-adv-x="561" 
d="M521 0h-481v71l380 553h-375v76h471v-72l-380 -553h385v-75zM280 776q-18 0 -31 13t-13 32q0 17 13 30.5t31 13.5t31.5 -13.5t13.5 -30.5q0 -19 -13.5 -32t-31.5 -13z" />
    <glyph glyph-name="zdotaccent" unicode="&#x17c;" horiz-adv-x="470" 
d="M430 0h-390v64l290 361h-283v75h383v-69l-289 -356h289v-75zM234 580q-18 0 -31 13t-13 32q0 17 13 30.5t31 13.5t31.5 -13.5t13.5 -30.5q0 -19 -13.5 -32t-31.5 -13z" />
    <glyph glyph-name="Zcaron" unicode="&#x17d;" horiz-adv-x="561" 
d="M521 0h-481v71l380 553h-375v76h471v-72l-380 -553h385v-75zM258 769l-101 111h68l56 -64l56 64h68l-101 -111h-46z" />
    <glyph glyph-name="zcaron" unicode="&#x17e;" horiz-adv-x="470" 
d="M430 0h-390v64l290 361h-283v75h383v-69l-289 -356h289v-75zM212 573l-101 111h68l56 -64l56 64h68l-101 -111h-46z" />
    <glyph glyph-name="uni0218" unicode="&#x218;" horiz-adv-x="544" 
d="M273 -9q-66 0 -128.5 26t-104.5 64l61 56q37 -30 83 -47.5t87 -17.5t75.5 16t55.5 44.5t22 66.5q1 48 -34 77t-108 47q-71 18 -124 44.5t-81 67.5t-23 102q7 81 67.5 124.5t159.5 43.5q48 0 101.5 -11.5t100.5 -38.5l-53 -64q-35 15 -72 24.5t-75 10.5q-37 0 -70.5 -9.5
t-54.5 -31t-22 -57.5q0 -37 20 -59.5t54 -36.5t76 -26q71 -19 119.5 -42t73.5 -61t25 -104q0 -59 -31.5 -106t-84 -74.5t-115.5 -27.5zM214.256 -73.6836q0 18.9814 13.8047 32.3545q13.8047 13.374 33.6484 14.2363q18.9824 0 32.7871 -15.0986
q13.8047 -15.0996 12.0781 -34.0801q0 -10.3535 -6.03906 -29.7666t-14.2363 -41.8457q-8.19629 -22.4326 -16.3926 -41.8457q-8.19727 -19.4131 -12.5107 -29.7666l-25.8838 11.2168q6.03906 11.2168 14.668 38.3945q8.62695 27.1777 12.9414 50.4727
q-19.8438 0 -32.3545 13.374q-12.5107 13.373 -12.5107 32.3545z" />
    <glyph glyph-name="uni0219" unicode="&#x219;" horiz-adv-x="420" 
d="M40 58l47 51q31 -23 62 -35.5t63 -11.5q19 0 36 5t32 17q19 14 25.5 36t-0.5 42q-8 22 -29 35t-49.5 22.5t-59 20t-56.5 26.5q-45 30 -58 68.5t0.5 76t49 63.5t88.5 30q51 3 99 -12t75 -42l-50 -48q-25 17 -54 25t-56 8q-32 -1 -54.5 -15t-25.5 -45q-2 -29 19 -45.5
t58 -29t80 -28.5q50 -20 77.5 -57.5t16.5 -95.5q-7 -54 -43.5 -85t-88.5 -39t-106.5 7.5t-97.5 55.5zM148.256 -73.6836q0 18.9814 13.8047 32.3545q13.8047 13.374 33.6484 14.2363q18.9824 0 32.7871 -15.0986q13.8047 -15.0996 12.0781 -34.0801
q0 -10.3535 -6.03906 -29.7666t-14.2363 -41.8457q-8.19629 -22.4326 -16.3926 -41.8457q-8.19727 -19.4131 -12.5107 -29.7666l-25.8838 11.2168q6.03906 11.2168 14.668 38.3945q8.62695 27.1777 12.9414 50.4727q-19.8438 0 -32.3545 13.374
q-12.5107 13.373 -12.5107 32.3545z" />
    <glyph glyph-name="uni021A" unicode="&#x21a;" horiz-adv-x="596" 
d="M556 627h-218v-627h-80v627h-218v73h516v-73zM249.256 -73.6836q0 18.9814 13.8047 32.3545q13.8047 13.374 33.6484 14.2363q18.9824 0 32.7871 -15.0986q13.8047 -15.0996 12.0781 -34.0801q0 -10.3535 -6.03906 -29.7666t-14.2363 -41.8457
q-8.19629 -22.4326 -16.3926 -41.8457q-8.19727 -19.4131 -12.5107 -29.7666l-25.8838 11.2168q6.03906 11.2168 14.668 38.3945q8.62695 27.1777 12.9414 50.4727q-19.8438 0 -32.3545 13.374q-12.5107 13.373 -12.5107 32.3545z" />
    <glyph glyph-name="uni021B" unicode="&#x21b;" horiz-adv-x="344" 
d="M127 216v210h-87v74h87v200h79v-200h88v-74h-88v-210q0 -64 4.5 -93.5t18.5 -37.5t41 -9h25v-79h-22q-46 0 -75 8.5t-44.5 31.5t-21 66t-5.5 113zM149.256 -73.6836q0 18.9814 13.8047 32.3545q13.8047 13.374 33.6484 14.2363q18.9824 0 32.7871 -15.0986
q13.8047 -15.0996 12.0781 -34.0801q0 -10.3535 -6.03906 -29.7666t-14.2363 -41.8457q-8.19629 -22.4326 -16.3926 -41.8457q-8.19727 -19.4131 -12.5107 -29.7666l-25.8838 11.2168q6.03906 11.2168 14.668 38.3945q8.62695 27.1777 12.9414 50.4727
q-19.8438 0 -32.3545 13.374q-12.5107 13.373 -12.5107 32.3545z" />
    <glyph glyph-name="uni0237" unicode="&#x237;" horiz-adv-x="229" 
d="M-30 -176v77q50 2 78.5 15t40.5 42.5t12 83.5v458h78v-458q0 -112 -52.5 -164.5t-156.5 -53.5z" />
    <glyph glyph-name="circumflex" unicode="&#x2c6;" horiz-adv-x="328" 
d="M40 589l101 111h46l101 -111h-68l-56 64l-56 -64h-68z" />
    <glyph glyph-name="ring" unicode="&#x2da;" horiz-adv-x="240" 
d="M120 578q-32 0 -56 23.5t-24 56.5q0 32 24 56t56 24q33 0 56.5 -24t23.5 -56q0 -33 -23.5 -56.5t-56.5 -23.5zM120 698q-17 0 -28.5 -11.5t-11.5 -27.5q0 -18 11.5 -29.5t28.5 -11.5q16 0 27.5 11.5t11.5 29.5q0 16 -11.5 27.5t-27.5 11.5z" />
    <glyph glyph-name="tilde" unicode="&#x2dc;" horiz-adv-x="340" 
d="M217 598q-22 0 -36 13.5t-25.5 27t-25.5 14.5q-20 0 -28.5 -16.5t-8.5 -37.5h-53q0 45 26 74t64 29q21 0 33.5 -8t20 -19t15 -19t18.5 -8q16 0 23.5 14.5t7.5 37.5h52q0 -43 -18.5 -72.5t-64.5 -29.5z" />
    <glyph glyph-name="gravecomb" unicode="&#x300;" 
d="M128 605h-48l-40 134h63z" />
    <glyph glyph-name="acutecomb" unicode="&#x301;" 
d="M38 605h48l40 134h-63z" />
    <glyph glyph-name="uni0302" unicode="&#x302;" 
d="M40 589l101 111h46l101 -111h-68l-56 64l-56 -64h-68z" />
    <glyph glyph-name="tildecomb" unicode="&#x303;" 
d="M217 598q-22 0 -36 13.5t-25.5 27t-25.5 14.5q-20 0 -28.5 -16.5t-8.5 -37.5h-53q0 45 26 74t64 29q21 0 33.5 -8t20 -19t15 -19t18.5 -8q16 0 23.5 14.5t7.5 37.5h52q0 -43 -18.5 -72.5t-64.5 -29.5z" />
    <glyph glyph-name="uni0304" unicode="&#x304;" 
d="M290 648h-250v53h250v-53z" />
    <glyph glyph-name="uni0306" unicode="&#x306;" 
d="M153 585q-46 0 -78.5 32.5t-34.5 82.5h53q3 -30 19 -48.5t41 -18.5q26 0 42 18t20 49h53q-3 -52 -36 -83.5t-79 -31.5z" />
    <glyph glyph-name="uni0307" unicode="&#x307;" 
d="M84 612q-18 0 -31 13t-13 32q0 17 13 30.5t31 13.5t31.5 -13.5t13.5 -30.5q0 -19 -13.5 -32t-31.5 -13z" />
    <glyph glyph-name="uni0308" unicode="&#x308;" 
d="M84 612q-18 0 -31 13t-13 32q0 17 13 30.5t31 13.5t31.5 -13.5t13.5 -30.5q0 -19 -13.5 -32t-31.5 -13zM264 612q-18 0 -31.5 13t-13.5 32q0 17 13.5 30.5t31.5 13.5t31 -13.5t13 -30.5q0 -19 -13 -32t-31 -13z" />
    <glyph glyph-name="uni030A" unicode="&#x30a;" 
d="M120 578q-32 0 -56 23.5t-24 56.5q0 32 24 56t56 24q33 0 56.5 -24t23.5 -56q0 -33 -23.5 -56.5t-56.5 -23.5zM120 698q-17 0 -28.5 -11.5t-11.5 -27.5q0 -18 11.5 -29.5t28.5 -11.5q16 0 27.5 11.5t11.5 29.5q0 16 -11.5 27.5t-27.5 11.5z" />
    <glyph glyph-name="uni030B" unicode="&#x30b;" 
d="M38 605h48l40 134h-63zM140 606h48l40 134h-63z" />
    <glyph glyph-name="uni030C" unicode="&#x30c;" 
d="M141 589l-101 111h68l56 -64l56 64h68l-101 -111h-46z" />
    <glyph glyph-name="uni0312" unicode="&#x312;" 
d="M132.744 648.684q0 -18.9814 -13.8047 -32.3545q-13.8047 -13.374 -33.6484 -14.2363q-18.9824 0 -32.7871 15.0986q-13.8047 15.0996 -12.0781 34.0801q0 10.3535 6.03906 29.7666t14.2363 41.8457q8.19629 22.4326 16.3926 41.8457q8.19727 19.4131 12.5107 29.7666
l25.8838 -11.2168q-6.03906 -11.2168 -14.668 -38.3945q-8.62695 -27.1777 -12.9414 -50.4727q19.8438 0 32.3545 -13.374q12.5107 -13.373 12.5107 -32.3545z" />
    <glyph glyph-name="uni0326" unicode="&#x326;" 
d="M40.2559 -73.6836q0 18.9814 13.8047 32.3545q13.8047 13.374 33.6484 14.2363q18.9824 0 32.7871 -15.0986q13.8047 -15.0996 12.0781 -34.0801q0 -10.3535 -6.03906 -29.7666t-14.2363 -41.8457q-8.19629 -22.4326 -16.3926 -41.8457
q-8.19727 -19.4131 -12.5107 -29.7666l-25.8838 11.2168q6.03906 11.2168 14.668 38.3945q8.62695 27.1777 12.9414 50.4727q-19.8438 0 -32.3545 13.374q-12.5107 13.373 -12.5107 32.3545z" />
    <glyph glyph-name="uni0327" unicode="&#x327;" 
d="M117 -189q-22 0 -43 11t-34 33l32 23q12 -21 35.5 -24.5t42.5 8t17 35.5q-1 23 -18.5 33.5t-40 8t-37.5 -17.5l-7 41l49 73l44 -15l-29 -42q36 0 56.5 -17t26 -42t-3.5 -49.5t-31.5 -41.5t-58.5 -17z" />
    <glyph glyph-name="uni0328" unicode="&#x328;" 
d="M213 -145q-29 -20 -61 -25t-59 3.5t-42 26.5q-16 23 -8.5 63t36.5 85h59q-13 -15 -24.5 -36.5t-15.5 -41.5t6 -32q14 -16 37.5 -15.5t41.5 12.5z" />
    <glyph glyph-name="uni0335" unicode="&#x335;" 
d="M420 286h-420v55h420v-55z" />
    <glyph glyph-name="uni0336" unicode="&#x336;" 
d="M601 286h-601v55h601v-55z" />
    <glyph glyph-name="uni0337" unicode="&#x337;" 
d="M452 564l-381 -564h-71l380 564h72z" />
    <glyph glyph-name="uni0338" unicode="&#x338;" 
d="M431 548l-319 -574h-72l318 574h73z" />
    <glyph glyph-name="Wgrave" unicode="&#x1e80;" horiz-adv-x="1074" 
d="M1034 700l-218 -700h-98l-181 477l-179 -477h-98l-220 700h84l186 -598l185 479h85l185 -480l184 599h85zM568 769h-48l-40 134h63z" />
    <glyph glyph-name="wgrave" unicode="&#x1e81;" horiz-adv-x="890" 
d="M850 500l-169 -500h-105l-131 407l-131 -407h-104l-170 500h84l138 -418l137 418h93l137 -417l137 417h84zM476 569h-48l-40 134h63z" />
    <glyph glyph-name="Wacute" unicode="&#x1e82;" horiz-adv-x="1074" 
d="M1034 700l-218 -700h-98l-181 477l-179 -477h-98l-220 700h84l186 -598l185 479h85l185 -480l184 599h85zM506 769h48l40 134h-63z" />
    <glyph glyph-name="wacute" unicode="&#x1e83;" horiz-adv-x="890" 
d="M850 500l-169 -500h-105l-131 407l-131 -407h-104l-170 500h84l138 -418l137 418h93l137 -417l137 417h84zM414 569h48l40 134h-63z" />
    <glyph glyph-name="Wdieresis" unicode="&#x1e84;" horiz-adv-x="1074" 
d="M1034 700l-218 -700h-98l-181 477l-179 -477h-98l-220 700h84l186 -598l185 479h85l185 -480l184 599h85zM449 776q-18 0 -31 13t-13 32q0 17 13 30.5t31 13.5t31.5 -13.5t13.5 -30.5q0 -19 -13.5 -32t-31.5 -13zM629 776q-18 0 -31.5 13t-13.5 32q0 17 13.5 30.5
t31.5 13.5t31 -13.5t13 -30.5q0 -19 -13 -32t-31 -13z" />
    <glyph glyph-name="wdieresis" unicode="&#x1e85;" horiz-adv-x="890" 
d="M850 500l-169 -500h-105l-131 407l-131 -407h-104l-170 500h84l138 -418l137 418h93l137 -417l137 417h84zM357 576q-18 0 -31 13t-13 32q0 17 13 30.5t31 13.5t31.5 -13.5t13.5 -30.5q0 -19 -13.5 -32t-31.5 -13zM537 576q-18 0 -31.5 13t-13.5 32q0 17 13.5 30.5
t31.5 13.5t31 -13.5t13 -30.5q0 -19 -13 -32t-31 -13z" />
    <glyph glyph-name="Ygrave" unicode="&#x1ef2;" horiz-adv-x="632" 
d="M592 700l-236 -464v-236h-80v236l-236 464h83l193 -382l193 382h83zM347 769h-48l-40 134h63z" />
    <glyph glyph-name="ygrave" unicode="&#x1ef3;" horiz-adv-x="546" 
d="M113 -172v78q29 0 54 12.5t42 33t20 45.5l-189 503h87l150 -407l141 407h88l-176 -471q-22 -62 -49 -106.5t-66.5 -69t-101.5 -25.5zM305 573h-48l-40 134h63z" />
    <glyph glyph-name="endash" unicode="&#x2013;" horiz-adv-x="595" 
d="M545 265h-495v70h495v-70z" />
    <glyph glyph-name="emdash" unicode="&#x2014;" horiz-adv-x="946" 
d="M926 265h-906v70h906v-70z" />
    <glyph glyph-name="quoteleft" unicode="&#x2018;" horiz-adv-x="157" 
d="M137 534q0 -22 -16 -37.5t-39 -16.5q-22 0 -38 17.5t-14 39.5q0 12 7 34.5t16.5 48.5t19 48.5t14.5 34.5l30 -13q-7 -13 -17 -44.5t-15 -58.5q23 0 37.5 -15.5t14.5 -37.5z" />
    <glyph glyph-name="quoteright" unicode="&#x2019;" horiz-adv-x="157" 
d="M20 646q0 22 16 37.5t39 16.5q22 0 38 -17.5t14 -39.5q0 -12 -7 -34.5t-16.5 -48.5t-19 -48.5t-14.5 -34.5l-30 13q7 13 17 44.5t15 58.5q-23 0 -37.5 15.5t-14.5 37.5z" />
    <glyph glyph-name="quotesinglbase" unicode="&#x201a;" horiz-adv-x="147" 
d="M20 56q0 22 16 37.5t39 16.5q22 0 38 -17.5t14 -39.5q0 -12 -7 -34.5t-16.5 -48.5t-19 -48.5t-14.5 -34.5l-30 13q7 13 17 44.5t15 58.5q-23 0 -37.5 15.5t-14.5 37.5z" />
    <glyph glyph-name="quotedblleft" unicode="&#x201c;" horiz-adv-x="305" 
d="M285 534q0 -22 -16 -37.5t-39 -16.5q-22 0 -38 17.5t-14 39.5q0 12 7 34.5t16.5 48.5t19 48.5t14.5 34.5l30 -13q-7 -13 -17 -44.5t-15 -58.5q23 0 37.5 -15.5t14.5 -37.5zM137 534q0 -22 -16 -37.5t-39 -16.5q-22 0 -38 17.5t-14 39.5q0 12 7 34.5t16.5 48.5t19 48.5
t14.5 34.5l30 -13q-7 -13 -17 -44.5t-15 -58.5q23 0 37.5 -15.5t14.5 -37.5z" />
    <glyph glyph-name="quotedblright" unicode="&#x201d;" horiz-adv-x="309" 
d="M20 646q0 22 16 37.5t39 16.5q22 0 38 -17.5t14 -39.5q0 -12 -7 -34.5t-16.5 -48.5t-19 -48.5t-14.5 -34.5l-30 13q7 13 17 44.5t15 58.5q-23 0 -37.5 15.5t-14.5 37.5zM172 646q0 22 16 37.5t39 16.5q22 0 38 -17.5t14 -39.5q0 -12 -7 -34.5t-16.5 -48.5t-19 -48.5
t-14.5 -34.5l-30 13q7 13 17 44.5t15 58.5q-23 0 -37.5 15.5t-14.5 37.5z" />
    <glyph glyph-name="quotedblbase" unicode="&#x201e;" horiz-adv-x="299" 
d="M172 56q0 22 16 37.5t39 16.5q22 0 38 -17.5t14 -39.5q0 -12 -7 -34.5t-16.5 -48.5t-19 -48.5t-14.5 -34.5l-30 13q7 13 17 44.5t15 58.5q-23 0 -37.5 15.5t-14.5 37.5zM20 56q0 22 16 37.5t39 16.5q22 0 38 -17.5t14 -39.5q0 -12 -7 -34.5t-16.5 -48.5t-19 -48.5
t-14.5 -34.5l-30 13q7 13 17 44.5t15 58.5q-23 0 -37.5 15.5t-14.5 37.5z" />
    <glyph glyph-name="dagger" unicode="&#x2020;" horiz-adv-x="360" 
d="M310 528h-93v-323h-74v323h-93v65h93v107h74v-106h93v-66z" />
    <glyph glyph-name="daggerdbl" unicode="&#x2021;" horiz-adv-x="360" 
d="M310 339h-93v-133h-74v131h-93v74h93v76h-93v72h93v142h74v-140h93v-74h-93v-76h93v-72z" />
    <glyph glyph-name="bullet" unicode="&#x2022;" horiz-adv-x="307" 
d="M153.996 209q-41.999 2 -72.998 31.999t-30.999 71.998q0 43.999 30.999 73.998t72.998 29.999t71.998 -29.999t31.999 -73.998q0 -41.999 -30.999 -72.998t-72.998 -30.999z" />
    <glyph glyph-name="ellipsis" unicode="&#x2026;" horiz-adv-x="591" 
d="M92 -8q-21 1 -36.5 16t-15.5 36q0 22 15.5 37t36.5 15t36 -15t16 -37q0 -21 -15.5 -36.5t-36.5 -15.5zM299 -8q-21 1 -36.5 16t-15.5 36q0 22 15.5 37t36.5 15t36 -15t16 -37q0 -21 -15.5 -36.5t-36.5 -15.5zM499 -8q-21 1 -36.5 16t-15.5 36q0 22 15.5 37t36.5 15
t36 -15t16 -37q0 -21 -15.5 -36.5t-36.5 -15.5z" />
    <glyph glyph-name="perthousand" unicode="&#x2030;" horiz-adv-x="1254" 
d="M204 399q-44 0 -79 20.5t-55 55t-20 75.5q0 43 20 77.5t55 54.5t79 20q43 0 77.5 -20.5t54.5 -55t20 -76.5q0 -44 -21 -78.5t-56 -53.5t-75 -19zM242 -1l312 702h83l-312 -702h-83zM204 468q35 0 58.5 25t23.5 57q0 34 -24 58t-58 24q-37 0 -60.5 -23.5t-23.5 -58.5
q0 -34 24.5 -58t59.5 -24zM675 -4q-43 0 -78 21t-55.5 55.5t-20.5 74.5q0 43 20.5 77.5t55.5 54.5t78 20t77.5 -20t54.5 -54.5t20 -77.5t-21 -77t-55.5 -54t-75.5 -20zM1052 -4q-44 0 -78.5 21t-54.5 55.5t-20 74.5q0 43 20 77.5t55 54.5t78 20q44 0 78.5 -20t54 -54.5
t19.5 -77.5q0 -44 -21 -78t-55.5 -53.5t-75.5 -19.5zM675 65q33 0 57.5 24.5t24.5 57.5q0 34 -24 59t-58 25q-36 0 -60 -24t-24 -60q0 -32 25 -57t59 -25zM1052 65q34 0 58.5 24.5t24.5 57.5q0 34 -24 59t-59 25q-36 0 -60 -24t-24 -60q0 -32 24.5 -57t59.5 -25z" />
    <glyph glyph-name="guilsinglleft" unicode="&#x2039;" horiz-adv-x="318" 
d="M278 50l-248 222l248 218v-88l-151 -133l151 -132v-87z" />
    <glyph glyph-name="guilsinglright" unicode="&#x203a;" horiz-adv-x="318" 
d="M40 50l248 222l-248 218v-88l151 -133l-151 -132v-87z" />
    <glyph glyph-name="fraction" unicode="&#x2044;" horiz-adv-x="273" 
d="M373 700l-398 -706h-55l398 706h55z" />
    <glyph glyph-name="uni2070" unicode="&#x2070;" horiz-adv-x="465" 
d="M378 314q-24 -32 -60.5 -51t-85.5 -19t-85.5 19t-59.5 51q-24 32 -35.5 73.5t-11.5 87.5t11.5 88t35.5 74q24 31 60 50t85 19t85.5 -19.5t60.5 -50.5q24 -32 35.5 -73.5t11.5 -87.5t-11.5 -87.5t-35.5 -73.5zM339 601q-17 24 -44 38t-63 14q-37 0 -63.5 -14t-43.5 -38
q-18 -25 -25.5 -57.5t-7.5 -68.5t8 -68.5t25 -57.5q17 -24 43.5 -38.5t63.5 -14.5q36 0 63 14t44 39t25 57.5t8 68.5q0 37 -7.5 69.5t-25.5 56.5z" />
    <glyph glyph-name="uni2074" unicode="&#x2074;" horiz-adv-x="410" 
d="M370 371h-69v-124h-51v124h-210v49l176 284h85v-285h69v-48zM250 419v225h-15l-141 -225h156z" />
    <glyph glyph-name="uni2075" unicode="&#x2075;" horiz-adv-x="373" 
d="M179 244q-44 0 -76 14.5t-63 47.5l37 38q24 -25 46.5 -37t55.5 -12q27 0 50.5 14t38.5 37t15 50q0 36 -17 60.5t-43 35.5t-54 5t-51 -32l-48 19l20 219h233v-52h-183l-15 -117q57 25 104.5 12t75.5 -53t28 -97q0 -43 -21.5 -77.5t-56.5 -54.5t-76 -20z" />
    <glyph glyph-name="uni2076" unicode="&#x2076;" horiz-adv-x="387" 
d="M193 243q-42 0 -76.5 20.5t-55.5 55t-21 76.5q0 56 22.5 111t75.5 118q16 20 35.5 40.5t37.5 38.5h66q-44 -46 -82.5 -89.5t-65.5 -90.5q34 23 72 22t71 -20.5t54 -53t21 -76.5q0 -42 -21 -76.5t-56 -55t-77 -20.5zM194 296q41 0 71 29t30 70q0 42 -29.5 71t-71.5 29
q-41 0 -71 -29t-30 -71q0 -41 30.5 -70t70.5 -29z" />
    <glyph glyph-name="uni2077" unicode="&#x2077;" horiz-adv-x="327" 
d="M287 704l-1 -44l-129 -413h-55l127 404h-189v53h247z" />
    <glyph glyph-name="uni2078" unicode="&#x2078;" horiz-adv-x="381" 
d="M190 244q-42 0 -76 17.5t-54 48.5t-20 70q0 32 19 63t53 48q-26 17 -39.5 43t-13.5 50q0 34 18 62t48 44t65 16q37 0 67 -16.5t48 -44t18 -61.5q0 -24 -13.5 -49.5t-39.5 -43.5q35 -18 53 -48.5t18 -62.5q0 -39 -20.5 -70t-55 -48.5t-75.5 -17.5zM190 513q37 0 58.5 19
t21.5 52t-22 52t-58 19t-57 -19t-21 -52q0 -34 22 -52.5t56 -18.5zM190 294q43 0 71 22.5t28 63.5t-28.5 62t-70.5 21q-43 0 -70.5 -22.5t-27.5 -60.5q0 -40 28 -63t70 -23z" />
    <glyph glyph-name="uni2079" unicode="&#x2079;" horiz-adv-x="387" 
d="M194.243 706.9q41.6016 0 76.3779 -20.4756q34.7764 -20.4766 55.5771 -54.9277t20.8008 -76.0527q0 -55.252 -22.751 -110.179q-22.751 -54.9277 -76.0527 -118.63q-15.6006 -20.1504 -35.1016 -40.626q-19.5 -20.4766 -37.7012 -38.0273h-65.6523
q44.8516 45.502 82.8779 89.0537t65.3271 91.0039q-27.3008 -18.8506 -57.2021 -21.7764q-29.9004 -2.9248 -58.502 7.15039q-28.6006 10.0752 -51.6768 30.5508q-23.0762 20.4766 -36.7266 48.752q-13.6504 28.2764 -13.6504 62.7275q0 42.252 21.126 76.7031
t55.9023 54.6016q34.7764 20.1514 77.0273 20.1514zM192.943 654.248q-27.3008 0 -50.0518 -13.3252t-36.7266 -35.752q-13.9756 -22.4258 -13.9756 -49.7266q0 -27.9512 13.6504 -50.377t36.4014 -35.751q22.751 -13.3262 50.7021 -13.3262q27.3008 0 50.0518 13.001
t36.7266 35.4268t13.9756 51.0264q0 27.3008 -14.3008 49.7266q-14.3008 22.4268 -37.376 35.752q-23.0762 13.3252 -49.0771 13.3252z" />
    <glyph glyph-name="Euro" unicode="&#x20ac;" horiz-adv-x="548" 
d="M431 -5q-78 0 -145 31t-114.5 86t-68.5 129h-63v59h51q-4 27 -3.5 52.5t3.5 49.5h-51v59h64q21 74 69.5 129t114.5 85t143 30h67v-79h-67q-86 0 -149.5 -46.5t-92.5 -118.5h235v-59h-253q-5 -23 -5 -50.5t5 -51.5h253v-59h-236q28 -74 93 -120.5t150 -46.5h67v-79h-67z
" />
    <glyph glyph-name="trademark" unicode="&#x2122;" horiz-adv-x="686" 
d="M646 347h-66v266h-12l-77 -213h-58l-78 213h-11v-266h-65v292h-74v-292h-65v292h-100v61h345l77 -211l76 211h108v-353z" />
    <glyph glyph-name="uni2150" unicode="&#x2150;" horiz-adv-x="837" 
d="M177 247h-52v397l-51 -50l-34 35l75 74h62v-456zM610 700l-398 -706h-55l398 706h55zM797 454l-1 -44l-129 -413h-55l127 404h-189v53h247z" />
    <glyph glyph-name="uni2151" unicode="&#x2151;" horiz-adv-x="897" 
d="M177 247h-52v397l-51 -50l-34 35l75 74h62v-456zM610 700l-398 -706h-55l398 706h55zM704.243 456.9q41.6016 0 76.3779 -20.4756q34.7764 -20.4766 55.5771 -54.9277t20.8008 -76.0527q0 -55.252 -22.751 -110.179q-22.751 -54.9277 -76.0527 -118.63
q-15.6006 -20.1504 -35.1016 -40.626q-19.5 -20.4766 -37.7012 -38.0273h-65.6523q44.8516 45.502 82.8779 89.0537t65.3271 91.0039q-27.3008 -18.8506 -57.2021 -21.7764q-29.9004 -2.9248 -58.502 7.15039q-28.6006 10.0752 -51.6768 30.5508
q-23.0762 20.4766 -36.7266 48.752q-13.6504 28.2764 -13.6504 62.7275q0 42.252 21.126 76.7031t55.9023 54.6016q34.7764 20.1514 77.0273 20.1514zM702.943 404.248q-27.3008 0 -50.0518 -13.3252t-36.7266 -35.752q-13.9756 -22.4258 -13.9756 -49.7266
q0 -27.9512 13.6504 -50.377t36.4014 -35.751q22.751 -13.3262 50.7021 -13.3262q27.3008 0 50.0518 13.001t36.7266 35.4268t13.9756 51.0264q0 27.3008 -14.3008 49.7266q-14.3008 22.4268 -37.376 35.752q-23.0762 13.3252 -49.0771 13.3252z" />
    <glyph glyph-name="uni2152" unicode="&#x2152;" horiz-adv-x="1203" 
d="M177 247h-52v397l-51 -50l-34 35l75 74h62v-456zM610 700l-398 -706h-55l398 706h55zM687 -3h-52v397l-51 -50l-34 35l75 74h62v-456zM1116 64q-24 -32 -60.5 -51t-85.5 -19t-85.5 19t-59.5 51q-24 32 -35.5 73.5t-11.5 87.5t11.5 88t35.5 74q24 31 60 50t85 19
t85.5 -19.5t60.5 -50.5q24 -32 35.5 -73.5t11.5 -87.5t-11.5 -87.5t-35.5 -73.5zM1077 351q-17 24 -44 38t-63 14q-37 0 -63.5 -14t-43.5 -38q-18 -25 -25.5 -57.5t-7.5 -68.5t8 -68.5t25 -57.5q17 -24 43.5 -38.5t63.5 -14.5q36 0 63 14t44 39t25 57.5t8 68.5
q0 37 -7.5 69.5t-25.5 56.5z" />
    <glyph glyph-name="onethird" unicode="&#x2153;" horiz-adv-x="882" 
d="M177 247h-52v397l-51 -50l-34 35l75 74h62v-456zM610 700l-398 -706h-55l398 706h55zM694 -8q-51 0 -87.5 26t-56.5 69l51 16q15 -26 40.5 -42t52.5 -16q40 0 67.5 23.5t27.5 57.5t-26 60t-69 26h-44v40h46q41 0 62.5 24t21.5 55q0 32 -25 51.5t-57 19.5q-30 0 -52 -16.5
t-31 -47.5l-52 13q13 49 50.5 76.5t84.5 27.5q37 0 67.5 -16t49 -44t18.5 -64q0 -27 -12.5 -52t-43.5 -46q33 -20 49 -48.5t16 -58.5q0 -38 -20.5 -68.5t-54 -48t-73.5 -17.5z" />
    <glyph glyph-name="twothirds" unicode="&#x2154;" horiz-adv-x="1031" 
d="M43 247v40q0 35 13.5 56.5t37 36.5t52.5 29q56 29 96.5 62t49.5 74q6 27 -7.5 52.5t-39.5 41.5t-59 16q-39 0 -63.5 -16t-28.5 -54h-54q3 55 40 88t111 33q47 0 82 -21.5t54 -55t19 -72.5q1 -44 -22.5 -77t-62 -59.5t-84.5 -51.5q-40 -21 -58 -33.5t-19 -37.5h243v-51
h-300zM759 700l-398 -706h-55l398 706h55zM843 -8q-51 0 -87.5 26t-56.5 69l51 16q15 -26 40.5 -42t52.5 -16q40 0 67.5 23.5t27.5 57.5t-26 60t-69 26h-44v40h46q41 0 62.5 24t21.5 55q0 32 -25 51.5t-57 19.5q-30 0 -52 -16.5t-31 -47.5l-52 13q13 49 50.5 76.5t84.5 27.5
q37 0 67.5 -16t49 -44t18.5 -64q0 -27 -12.5 -52t-43.5 -46q33 -20 49 -48.5t16 -58.5q0 -38 -20.5 -68.5t-54 -48t-73.5 -17.5z" />
    <glyph glyph-name="uni2155" unicode="&#x2155;" horiz-adv-x="883" 
d="M177 247h-52v397l-51 -50l-34 35l75 74h62v-456zM610 700l-398 -706h-55l398 706h55zM689 -6q-44 0 -76 14.5t-63 47.5l37 38q24 -25 46.5 -37t55.5 -12q27 0 50.5 14t38.5 37t15 50q0 36 -17 60.5t-43 35.5t-54 5t-51 -32l-48 19l20 219h233v-52h-183l-15 -117
q57 25 104.5 12t75.5 -53t28 -97q0 -43 -21.5 -77.5t-56.5 -54.5t-76 -20z" />
    <glyph glyph-name="uni2156" unicode="&#x2156;" horiz-adv-x="1032" 
d="M43 247v40q0 35 13.5 56.5t37 36.5t52.5 29q56 29 96.5 62t49.5 74q6 27 -7.5 52.5t-39.5 41.5t-59 16q-39 0 -63.5 -16t-28.5 -54h-54q3 55 40 88t111 33q47 0 82 -21.5t54 -55t19 -72.5q1 -44 -22.5 -77t-62 -59.5t-84.5 -51.5q-40 -21 -58 -33.5t-19 -37.5h243v-51
h-300zM759 700l-398 -706h-55l398 706h55zM838 -6q-44 0 -76 14.5t-63 47.5l37 38q24 -25 46.5 -37t55.5 -12q27 0 50.5 14t38.5 37t15 50q0 36 -17 60.5t-43 35.5t-54 5t-51 -32l-48 19l20 219h233v-52h-183l-15 -117q57 25 104.5 12t75.5 -53t28 -97q0 -43 -21.5 -77.5
t-56.5 -54.5t-76 -20z" />
    <glyph glyph-name="uni2157" unicode="&#x2157;" horiz-adv-x="1018" 
d="M184 242q-51 0 -87.5 26t-56.5 69l51 16q15 -26 40.5 -42t52.5 -16q40 0 67.5 23.5t27.5 57.5t-26 60t-69 26h-44v40h46q41 0 62.5 24t21.5 55q0 32 -25 51.5t-57 19.5q-30 0 -52 -16.5t-31 -47.5l-52 13q13 49 50.5 76.5t84.5 27.5q37 0 67.5 -16t49 -44t18.5 -64
q0 -27 -12.5 -52t-43.5 -46q33 -20 49 -48.5t16 -58.5q0 -38 -20.5 -68.5t-54 -48t-73.5 -17.5zM745 700l-398 -706h-55l398 706h55zM824 -6q-44 0 -76 14.5t-63 47.5l37 38q24 -25 46.5 -37t55.5 -12q27 0 50.5 14t38.5 37t15 50q0 36 -17 60.5t-43 35.5t-54 5t-51 -32
l-48 19l20 219h233v-52h-183l-15 -117q57 25 104.5 12t75.5 -53t28 -97q0 -43 -21.5 -77.5t-56.5 -54.5t-76 -20z" />
    <glyph glyph-name="uni2158" unicode="&#x2158;" horiz-adv-x="1057" 
d="M370 371h-69v-124h-51v124h-210v49l176 284h85v-285h69v-48zM250 419v225h-15l-141 -225h156zM783 700l-398 -706h-55l398 706h55zM863 -6q-44 0 -76 14.5t-63 47.5l37 38q24 -25 46.5 -37t55.5 -12q27 0 50.5 14t38.5 37t15 50q0 36 -17 60.5t-43 35.5t-54 5t-51 -32
l-48 19l20 219h233v-52h-183l-15 -117q57 25 104.5 12t75.5 -53t28 -97q0 -43 -21.5 -77.5t-56.5 -54.5t-76 -20z" />
    <glyph glyph-name="uni2159" unicode="&#x2159;" horiz-adv-x="891" 
d="M177 247h-52v397l-51 -50l-34 35l75 74h62v-456zM610 700l-398 -706h-55l398 706h55zM697 -7q-42 0 -76.5 20.5t-55.5 55t-21 76.5q0 56 22.5 111t75.5 118q16 20 35.5 40.5t37.5 38.5h66q-44 -46 -82.5 -89.5t-65.5 -90.5q34 23 72 22t71 -20.5t54 -53t21 -76.5
q0 -42 -21 -76.5t-56 -55t-77 -20.5zM698 46q41 0 71 29t30 70q0 42 -29.5 71t-71.5 29q-41 0 -71 -29t-30 -71q0 -41 30.5 -70t70.5 -29z" />
    <glyph glyph-name="uni215A" unicode="&#x215a;" horiz-adv-x="1027" 
d="M179 244q-44 0 -76 14.5t-63 47.5l37 38q24 -25 46.5 -37t55.5 -12q27 0 50.5 14t38.5 37t15 50q0 36 -17 60.5t-43 35.5t-54 5t-51 -32l-48 19l20 219h233v-52h-183l-15 -117q57 25 104.5 12t75.5 -53t28 -97q0 -43 -21.5 -77.5t-56.5 -54.5t-76 -20zM746 700l-398 -706
h-55l398 706h55zM833 -7q-42 0 -76.5 20.5t-55.5 55t-21 76.5q0 56 22.5 111t75.5 118q16 20 35.5 40.5t37.5 38.5h66q-44 -46 -82.5 -89.5t-65.5 -90.5q34 23 72 22t71 -20.5t54 -53t21 -76.5q0 -42 -21 -76.5t-56 -55t-77 -20.5zM834 46q41 0 71 29t30 70q0 42 -29.5 71
t-71.5 29q-41 0 -71 -29t-30 -71q0 -41 30.5 -70t70.5 -29z" />
    <glyph glyph-name="oneeighth" unicode="&#x215b;" horiz-adv-x="891" 
d="M177 247h-52v397l-51 -50l-34 35l75 74h62v-456zM610 700l-398 -706h-55l398 706h55zM700 -6q-42 0 -76 17.5t-54 48.5t-20 70q0 32 19 63t53 48q-26 17 -39.5 43t-13.5 50q0 34 18 62t48 44t65 16q37 0 67 -16.5t48 -44t18 -61.5q0 -24 -13.5 -49.5t-39.5 -43.5
q35 -18 53 -48.5t18 -62.5q0 -39 -20.5 -70t-55 -48.5t-75.5 -17.5zM700 263q37 0 58.5 19t21.5 52t-22 52t-58 19t-57 -19t-21 -52q0 -34 22 -52.5t56 -18.5zM700 44q43 0 71 22.5t28 63.5t-28.5 62t-70.5 21q-43 0 -70.5 -22.5t-27.5 -60.5q0 -40 28 -63t70 -23z" />
    <glyph glyph-name="threeeighths" unicode="&#x215c;" horiz-adv-x="1026" 
d="M184 242q-51 0 -87.5 26t-56.5 69l51 16q15 -26 40.5 -42t52.5 -16q40 0 67.5 23.5t27.5 57.5t-26 60t-69 26h-44v40h46q41 0 62.5 24t21.5 55q0 32 -25 51.5t-57 19.5q-30 0 -52 -16.5t-31 -47.5l-52 13q13 49 50.5 76.5t84.5 27.5q37 0 67.5 -16t49 -44t18.5 -64
q0 -27 -12.5 -52t-43.5 -46q33 -20 49 -48.5t16 -58.5q0 -38 -20.5 -68.5t-54 -48t-73.5 -17.5zM745 700l-398 -706h-55l398 706h55zM835 -6q-42 0 -76 17.5t-54 48.5t-20 70q0 32 19 63t53 48q-26 17 -39.5 43t-13.5 50q0 34 18 62t48 44t65 16q37 0 67 -16.5t48 -44
t18 -61.5q0 -24 -13.5 -49.5t-39.5 -43.5q35 -18 53 -48.5t18 -62.5q0 -39 -20.5 -70t-55 -48.5t-75.5 -17.5zM835 263q37 0 58.5 19t21.5 52t-22 52t-58 19t-57 -19t-21 -52q0 -34 22 -52.5t56 -18.5zM835 44q43 0 71 22.5t28 63.5t-28.5 62t-70.5 21q-43 0 -70.5 -22.5
t-27.5 -60.5q0 -40 28 -63t70 -23z" />
    <glyph glyph-name="fiveeighths" unicode="&#x215d;" horiz-adv-x="1028" 
d="M179 244q-44 0 -76 14.5t-63 47.5l37 38q24 -25 46.5 -37t55.5 -12q27 0 50.5 14t38.5 37t15 50q0 36 -17 60.5t-43 35.5t-54 5t-51 -32l-48 19l20 219h233v-52h-183l-15 -117q57 25 104.5 12t75.5 -53t28 -97q0 -43 -21.5 -77.5t-56.5 -54.5t-76 -20zM746 700l-398 -706
h-55l398 706h55zM836 -6q-42 0 -76 17.5t-54 48.5t-20 70q0 32 19 63t53 48q-26 17 -39.5 43t-13.5 50q0 34 18 62t48 44t65 16q37 0 67 -16.5t48 -44t18 -61.5q0 -24 -13.5 -49.5t-39.5 -43.5q35 -18 53 -48.5t18 -62.5q0 -39 -20.5 -70t-55 -48.5t-75.5 -17.5zM836 263
q37 0 58.5 19t21.5 52t-22 52t-58 19t-57 -19t-21 -52q0 -34 22 -52.5t56 -18.5zM836 44q43 0 71 22.5t28 63.5t-28.5 62t-70.5 21q-43 0 -70.5 -22.5t-27.5 -60.5q0 -40 28 -63t70 -23z" />
    <glyph glyph-name="seveneighths" unicode="&#x215e;" horiz-adv-x="981" 
d="M287 704l-1 -44l-129 -413h-55l127 404h-189v53h247zM700 700l-398 -706h-55l398 706h55zM790 -6q-42 0 -76 17.5t-54 48.5t-20 70q0 32 19 63t53 48q-26 17 -39.5 43t-13.5 50q0 34 18 62t48 44t65 16q37 0 67 -16.5t48 -44t18 -61.5q0 -24 -13.5 -49.5t-39.5 -43.5
q35 -18 53 -48.5t18 -62.5q0 -39 -20.5 -70t-55 -48.5t-75.5 -17.5zM790 263q37 0 58.5 19t21.5 52t-22 52t-58 19t-57 -19t-21 -52q0 -34 22 -52.5t56 -18.5zM790 44q43 0 71 22.5t28 63.5t-28.5 62t-70.5 21q-43 0 -70.5 -22.5t-27.5 -60.5q0 -40 28 -63t70 -23z" />
    <glyph glyph-name="uni215F" unicode="&#x215f;" horiz-adv-x="510" 
d="M177 247h-52v397l-51 -50l-34 35l75 74h62v-456zM610 700l-398 -706h-55l398 706h55z" />
    <glyph glyph-name="uni2189" unicode="&#x2189;" horiz-adv-x="1110" 
d="M378 314q-24 -32 -60.5 -51t-85.5 -19t-85.5 19t-59.5 51q-24 32 -35.5 73.5t-11.5 87.5t11.5 88t35.5 74q24 31 60 50t85 19t85.5 -19.5t60.5 -50.5q24 -32 35.5 -73.5t11.5 -87.5t-11.5 -87.5t-35.5 -73.5zM339 601q-17 24 -44 38t-63 14q-37 0 -63.5 -14t-43.5 -38
q-18 -25 -25.5 -57.5t-7.5 -68.5t8 -68.5t25 -57.5q17 -24 43.5 -38.5t63.5 -14.5q36 0 63 14t44 39t25 57.5t8 68.5q0 37 -7.5 69.5t-25.5 56.5zM838 700l-398 -706h-55l398 706h55zM922 -8q-51 0 -87.5 26t-56.5 69l51 16q15 -26 40.5 -42t52.5 -16q40 0 67.5 23.5
t27.5 57.5t-26 60t-69 26h-44v40h46q41 0 62.5 24t21.5 55q0 32 -25 51.5t-57 19.5q-30 0 -52 -16.5t-31 -47.5l-52 13q13 49 50.5 76.5t84.5 27.5q37 0 67.5 -16t49 -44t18.5 -64q0 -27 -12.5 -52t-43.5 -46q33 -20 49 -48.5t16 -58.5q0 -38 -20.5 -68.5t-54 -48
t-73.5 -17.5z" />
    <glyph glyph-name="partialdiff" unicode="&#x2202;" horiz-adv-x="558" 
d="M250 -3q-65 8 -115 46.5t-75.5 95t-17.5 119.5q6 53 33.5 94t67.5 67.5t86 35.5t91.5 -1t82.5 -42q-43 96 -89.5 166t-86.5 122h89q61 -89 110 -171t74.5 -163t14.5 -166q-8 -65 -48 -113.5t-97.5 -72.5t-119.5 -17zM257 77q44 -5 82.5 11.5t64 48.5t29.5 73
q5 43 -12 80.5t-50.5 61.5t-76.5 28q-45 4 -82 -12.5t-61 -48t-29 -70.5q-5 -43 11.5 -80t49 -61.5t74.5 -30.5z" />
    <glyph glyph-name="emptyset" unicode="&#x2205;" horiz-adv-x="684" 
d="M342 38q-52 0 -99 17t-86 46l-52 -53l-53 52l53 54q-30 38 -47 85.5t-17 100.5q0 62 23.5 116.5t64.5 96t96 65t117 23.5q52 0 98.5 -16.5t84.5 -45.5l53 53l53 -52l-53 -53q31 -39 48.5 -86.5t17.5 -100.5q0 -63 -23.5 -117.5t-65 -96t-96.5 -65t-117 -23.5zM116 340
q0 -37 11 -70.5t31 -61.5l314 317q-28 19 -61 30t-69 11q-62 0 -113.5 -30.5t-82 -82t-30.5 -113.5zM342 113q62 0 113.5 31t82.5 82.5t31 113.5q0 37 -11.5 71t-32.5 62l-314 -318q28 -19 61 -30.5t70 -11.5z" />
    <glyph glyph-name="product" unicode="&#x220f;" horiz-adv-x="575" 
d="M535 631h-95v-732h-71v732h-152v-732h-70v732h-107v69h495v-69z" />
    <glyph glyph-name="summation" unicode="&#x2211;" horiz-adv-x="561" 
d="M516 -103h-471v72l232 330l-232 329v72h471v-73h-377l225 -328l-225 -329h377v-73z" />
    <glyph glyph-name="minus" unicode="&#x2212;" horiz-adv-x="571" 
d="M520.757 265h-470.256v70h470.256v-70z" />
    <glyph glyph-name="uni2215" unicode="&#x2215;" horiz-adv-x="505" 
d="M470 700l-360 -804h-75l360 804h75z" />
    <glyph glyph-name="radical" unicode="&#x221a;" horiz-adv-x="606" 
d="M561 628h-166l-158 -777h-101l-106 325h79l72 -227l149 751h231v-72z" />
    <glyph glyph-name="infinity" unicode="&#x221e;" horiz-adv-x="848" 
d="M808 284q0 -51 -25 -95.5t-69 -72t-101 -27.5q-33 0 -69.5 12t-68.5 35.5t-52 57.5q-18 -34 -50 -57.5t-69 -35.5t-69 -12q-57 0 -101 28t-69 72.5t-25 94.5q0 52 25 96.5t69 72t101 27.5q33 0 70 -12t68.5 -35.5t49.5 -58.5q19 35 51 58.5t69 35.5t70 12q58 0 102 -27.5
t68.5 -72.5t24.5 -96zM737 284q0 37 -17 65.5t-45.5 45t-61.5 16.5q-38 0 -73 -17.5t-57.5 -46.5t-22.5 -63q0 -33 23 -62t58.5 -47t71.5 -18q34 0 62 17t45 45.5t17 64.5zM388 284q0 34 -22.5 63t-57.5 46.5t-73 17.5q-35 0 -63 -17t-44.5 -46t-16.5 -64q0 -36 17.5 -64.5
t45.5 -45.5t61 -17q39 0 74 18t57 47t22 62z" />
    <glyph glyph-name="integral" unicode="&#x222b;" horiz-adv-x="557" 
d="M517 632h-74q-33 0 -51.5 -38t-33.5 -119.5t-39 -210.5q-16 -90 -31.5 -167t-36 -134t-51.5 -89t-79 -32h-81v75h74q28 0 47.5 32t34 86.5t27 123.5t25.5 144q14 82 27.5 155t33 129t49.5 88t78 32h81v-75z" />
    <glyph glyph-name="approxequal" unicode="&#x2248;" horiz-adv-x="594" 
d="M40 313q3 35 19 63.5t41 47.5q27 21 59.5 29.5t65.5 3.5q21 -3 50.5 -17.5t57 -29t43.5 -16.5q34 -5 58.5 13.5t28.5 58.5h70q-2 -39 -22 -71t-51 -51.5t-68 -19.5q-33 0 -65.5 15.5t-62.5 32t-55 18.5q-37 2 -64.5 -20t-33.5 -57h-71zM60 119q3 36 19 64t42 47
q26 21 58.5 29.5t65.5 3.5q21 -3 50.5 -17.5t57 -28.5t43.5 -17q34 -5 58.5 13.5t28.5 58.5h71q-3 -39 -22.5 -71t-50.5 -51.5t-68 -19.5q-33 0 -65.5 15.5t-62.5 32t-55 18.5q-37 2 -65 -19.5t-34 -57.5h-71z" />
    <glyph glyph-name="notequal" unicode="&#x2260;" horiz-adv-x="571" 
d="M153 107l40 83h-142v70h176l38 80h-214v70h248l46 96h73l-46 -96h149v-70h-182l-39 -80h221v-70h-254l-40 -83h-74z" />
    <glyph glyph-name="lessequal" unicode="&#x2264;" horiz-adv-x="506" 
d="M40 282l426 -136v84l-344 96l344 98v85l-426 -141v-86zM40 0h426v70h-426v-70z" />
    <glyph glyph-name="greaterequal" unicode="&#x2265;" horiz-adv-x="506" 
d="M466 282l-426 -136v84l344 96l-344 98v85l426 -141v-86zM466 0h-426v70h426v-70z" />
    <glyph glyph-name="lozenge" unicode="&#x25ca;" horiz-adv-x="537" 
d="M487 330l-178 -330h-82l-177 330l177 330h82zM403 330l-134 250l-135 -250l135 -250z" />
    <glyph glyph-name="slashlongcomb.case" horiz-adv-x="579" 
d="M50 -128v792h479v-792h-479zM473 -74v684h-367v-684h367z" />
    <glyph glyph-name="i.locl" horiz-adv-x="191" 
d="M133 0h-75v500h75v-500zM96 576q-18 0 -31 13t-13 32q0 17 13 30.5t31 13.5t31.5 -13.5t13.5 -30.5q0 -19 -13.5 -32t-31.5 -13z" />
    <glyph glyph-name="zero.tf" horiz-adv-x="672" 
d="M560 102q-37 -49 -93 -78t-131 -29q-77 0 -132 29t-92 78q-36 49 -54 113t-18 135t18 135.5t55 113.5q36 48 92 77t131 29t131 -29.5t93 -78.5t54.5 -113t17.5 -134q0 -71 -18 -134.5t-54 -113.5zM500 544q-26 37 -67 58t-97 21q-57 0 -98 -21t-67 -58q-27 -38 -39 -88
t-12 -106t12 -106t38 -88q27 -37 68 -59t98 -22q56 0 97 22t67 59q27 38 39 88t12 106q1 56 -11.5 106t-39.5 88z" />
    <glyph glyph-name="one.tf" horiz-adv-x="672" 
d="M409 0h-79v611l-78 -78l-53 53l116 114h94v-700z" />
    <glyph glyph-name="two.tf" horiz-adv-x="673" 
d="M107 0v61q0 53 21.5 86t57 56t79.5 46q87 43 149.5 94t76.5 114q9 43 -12 81.5t-61.5 63.5t-90.5 25q-61 0 -98 -25t-42 -83h-85q5 85 62 136t171 50q72 0 125.5 -32.5t83.5 -84.5t30 -111q0 -69 -35.5 -119.5t-95.5 -91.5t-131 -79q-40 -22 -65.5 -36.5t-38 -31
t-12.5 -42.5h372v-77h-461z" />
    <glyph glyph-name="three.tf" horiz-adv-x="672" 
d="M336 -8q-80 0 -135 39.5t-87 107.5l78 23q23 -40 62.5 -64.5t81.5 -24.5q40 0 73 17t53 45t20 62q0 35 -18.5 65t-51 48.5t-76.5 18.5h-69v63h72q62 0 95.5 36.5t33.5 83.5q0 33 -18 58t-46.5 39t-61.5 14q-46 0 -80.5 -25.5t-47.5 -73.5l-81 19q21 76 79 118.5t130 42.5
q56 0 103 -24.5t75.5 -68t28.5 -99.5q0 -42 -19.5 -79.5t-66.5 -71.5q51 -29 75 -73.5t24 -90.5q0 -58 -31.5 -104.5t-82.5 -73.5t-112 -27z" />
    <glyph glyph-name="four.tf" horiz-adv-x="672" 
d="M585 190h-106v-190h-78v190h-324v75l271 436h131v-437h106v-74zM401 264v346h-24l-217 -346h241z" />
    <glyph glyph-name="five.tf" horiz-adv-x="672" 
d="M335 -6q-68 0 -117.5 22.5t-96.5 72.5l57 58q37 -38 71.5 -55.5t85.5 -17.5q42 0 78 21t58.5 56t22.5 78q0 55 -26 93t-66 54.5t-83 7.5t-78 -49l-75 29l32 336h358v-79h-282l-22 -180q66 28 124 23.5t102 -36t69 -83t25 -116.5q0 -66 -33.5 -119.5t-87 -84.5t-116.5 -31
z" />
    <glyph glyph-name="six.tf" horiz-adv-x="672" 
d="M337 -6q-64 0 -117.5 31.5t-85.5 84.5t-32 117q0 85 35 169.5t117 182.5q24 31 54 62.5t58 58.5h101q-69 -70 -127.5 -137t-100.5 -140q42 29 88 33.5t90 -11t79.5 -47t56.5 -75t21 -96.5q0 -65 -32.5 -118t-86 -84t-118.5 -31zM339 75q42 0 77 20.5t56.5 55t21.5 76.5
q0 43 -21 77.5t-56 55t-78 20.5q-42 0 -77 -20t-56.5 -54.5t-21.5 -78.5q0 -42 22 -76.5t57.5 -55t75.5 -20.5z" />
    <glyph glyph-name="seven.tf" horiz-adv-x="672" 
d="M528 701l-1 -67l-198 -634h-85l196 620h-291v81h379z" />
    <glyph glyph-name="eight.tf" horiz-adv-x="672" 
d="M341 -5q-64 0 -116.5 27t-83.5 74t-31 108q0 48 29 96t82 75q-40 26 -61 66t-21 77q0 53 28 95t74 67t100 25q57 0 103 -25t73 -67.5t27 -94.5q0 -37 -20 -76.5t-61 -66.5q54 -28 82 -75t28 -96q0 -61 -32 -108.5t-84.5 -74t-115.5 -26.5zM341 408q56 0 89.5 29.5
t33.5 80.5t-34 80t-89 29t-88 -29.5t-33 -79.5q0 -52 34 -81t87 -29zM341 71q65 0 108.5 35t43.5 98q0 62 -44 95t-108 33q-66 0 -108 -35t-42 -93q0 -62 42 -97.5t108 -35.5z" />
    <glyph glyph-name="nine.tf" horiz-adv-x="672" 
d="M341 706q64 0 117.5 -31.5t85.5 -84.5t32 -117q0 -85 -35 -169.5t-117 -182.5q-24 -31 -54 -62.5t-58 -58.5h-101q69 70 127.5 137t100.5 140q-42 -29 -88 -33.5t-90 11t-79.5 47t-56.5 75t-21 96.5q0 65 32.5 118t86 84t118.5 31zM339 625q-42 0 -77 -20.5t-56.5 -55
t-21.5 -76.5q0 -43 21 -77.5t56 -55t78 -20.5q42 0 77 20t56.5 54.5t21.5 78.5q0 42 -22 76.5t-57.5 55t-75.5 20.5z" />
    <glyph glyph-name="zero.dnom" horiz-adv-x="465" 
d="M378 64q-24 -32 -60.5 -51t-85.5 -19t-85.5 19t-59.5 51q-24 32 -35.5 73.5t-11.5 87.5t11.5 88t35.5 74q24 31 60 50t85 19t85.5 -19.5t60.5 -50.5q24 -32 35.5 -73.5t11.5 -87.5t-11.5 -87.5t-35.5 -73.5zM339 351q-17 24 -44 38t-63 14q-37 0 -63.5 -14t-43.5 -38
q-18 -25 -25.5 -57.5t-7.5 -68.5t8 -68.5t25 -57.5q17 -24 43.5 -38.5t63.5 -14.5q36 0 63 14t44 39t25 57.5t8 68.5q0 37 -7.5 69.5t-25.5 56.5z" />
    <glyph glyph-name="one.dnom" horiz-adv-x="229" 
d="M177 -3h-52v397l-51 -50l-34 35l75 74h62v-456z" />
    <glyph glyph-name="two.dnom" horiz-adv-x="386" 
d="M43 -3v40q0 35 13.5 56.5t37 36.5t52.5 29q56 29 96.5 62t49.5 74q6 27 -7.5 52.5t-39.5 41.5t-59 16q-39 0 -63.5 -16t-28.5 -54h-54q3 55 40 88t111 33q47 0 82 -21.5t54 -55t19 -72.5q1 -44 -22.5 -77t-62 -59.5t-84.5 -51.5q-40 -21 -58 -33.5t-19 -37.5h243v-51
h-300z" />
    <glyph glyph-name="three.dnom" horiz-adv-x="372" 
d="M184 -8q-51 0 -87.5 26t-56.5 69l51 16q15 -26 40.5 -42t52.5 -16q40 0 67.5 23.5t27.5 57.5t-26 60t-69 26h-44v40h46q41 0 62.5 24t21.5 55q0 32 -25 51.5t-57 19.5q-30 0 -52 -16.5t-31 -47.5l-52 13q13 49 50.5 76.5t84.5 27.5q37 0 67.5 -16t49 -44t18.5 -64
q0 -27 -12.5 -52t-43.5 -46q33 -20 49 -48.5t16 -58.5q0 -38 -20.5 -68.5t-54 -48t-73.5 -17.5z" />
    <glyph glyph-name="four.dnom" horiz-adv-x="410" 
d="M370 121h-69v-124h-51v124h-210v49l176 284h85v-285h69v-48zM250 169v225h-15l-141 -225h156z" />
    <glyph glyph-name="five.dnom" horiz-adv-x="373" 
d="M179 -6q-44 0 -76 14.5t-63 47.5l37 38q24 -25 46.5 -37t55.5 -12q27 0 50.5 14t38.5 37t15 50q0 36 -17 60.5t-43 35.5t-54 5t-51 -32l-48 19l20 219h233v-52h-183l-15 -117q57 25 104.5 12t75.5 -53t28 -97q0 -43 -21.5 -77.5t-56.5 -54.5t-76 -20z" />
    <glyph glyph-name="six.dnom" horiz-adv-x="387" 
d="M193 -7q-42 0 -76.5 20.5t-55.5 55t-21 76.5q0 56 22.5 111t75.5 118q16 20 35.5 40.5t37.5 38.5h66q-44 -46 -82.5 -89.5t-65.5 -90.5q34 23 72 22t71 -20.5t54 -53t21 -76.5q0 -42 -21 -76.5t-56 -55t-77 -20.5zM194 46q41 0 71 29t30 70q0 42 -29.5 71t-71.5 29
q-41 0 -71 -29t-30 -71q0 -41 30.5 -70t70.5 -29z" />
    <glyph glyph-name="seven.dnom" horiz-adv-x="327" 
d="M287 454l-1 -44l-129 -413h-55l127 404h-189v53h247z" />
    <glyph glyph-name="eight.dnom" horiz-adv-x="381" 
d="M190 -6q-42 0 -76 17.5t-54 48.5t-20 70q0 32 19 63t53 48q-26 17 -39.5 43t-13.5 50q0 34 18 62t48 44t65 16q37 0 67 -16.5t48 -44t18 -61.5q0 -24 -13.5 -49.5t-39.5 -43.5q35 -18 53 -48.5t18 -62.5q0 -39 -20.5 -70t-55 -48.5t-75.5 -17.5zM190 263q37 0 58.5 19
t21.5 52t-22 52t-58 19t-57 -19t-21 -52q0 -34 22 -52.5t56 -18.5zM190 44q43 0 71 22.5t28 63.5t-28.5 62t-70.5 21q-43 0 -70.5 -22.5t-27.5 -60.5q0 -40 28 -63t70 -23z" />
    <glyph glyph-name="nine.dnom" horiz-adv-x="387" 
d="M194.243 456.9q41.6016 0 76.3779 -20.4756q34.7764 -20.4766 55.5771 -54.9277t20.8008 -76.0527q0 -55.252 -22.751 -110.179q-22.751 -54.9277 -76.0527 -118.63q-15.6006 -20.1504 -35.1016 -40.626q-19.5 -20.4766 -37.7012 -38.0273h-65.6523
q44.8516 45.502 82.8779 89.0537t65.3271 91.0039q-27.3008 -18.8506 -57.2021 -21.7764q-29.9004 -2.9248 -58.502 7.15039q-28.6006 10.0752 -51.6768 30.5508q-23.0762 20.4766 -36.7266 48.752q-13.6504 28.2764 -13.6504 62.7275q0 42.252 21.126 76.7031
t55.9023 54.6016q34.7764 20.1514 77.0273 20.1514zM192.943 404.248q-27.3008 0 -50.0518 -13.3252t-36.7266 -35.752q-13.9756 -22.4258 -13.9756 -49.7266q0 -27.9512 13.6504 -50.377t36.4014 -35.751q22.751 -13.3262 50.7021 -13.3262q27.3008 0 50.0518 13.001
t36.7266 35.4268t13.9756 51.0264q0 27.3008 -14.3008 49.7266q-14.3008 22.4268 -37.376 35.752q-23.0762 13.3252 -49.0771 13.3252z" />
    <glyph glyph-name="zero.numr" horiz-adv-x="465" 
d="M378 314q-24 -32 -60.5 -51t-85.5 -19t-85.5 19t-59.5 51q-24 32 -35.5 73.5t-11.5 87.5t11.5 88t35.5 74q24 31 60 50t85 19t85.5 -19.5t60.5 -50.5q24 -32 35.5 -73.5t11.5 -87.5t-11.5 -87.5t-35.5 -73.5zM339 601q-17 24 -44 38t-63 14q-37 0 -63.5 -14t-43.5 -38
q-18 -25 -25.5 -57.5t-7.5 -68.5t8 -68.5t25 -57.5q17 -24 43.5 -38.5t63.5 -14.5q36 0 63 14t44 39t25 57.5t8 68.5q0 37 -7.5 69.5t-25.5 56.5z" />
    <glyph glyph-name="one.numr" horiz-adv-x="229" 
d="M177 247h-52v397l-51 -50l-34 35l75 74h62v-456z" />
    <glyph glyph-name="two.numr" horiz-adv-x="386" 
d="M43 247v40q0 35 13.5 56.5t37 36.5t52.5 29q56 29 96.5 62t49.5 74q6 27 -7.5 52.5t-39.5 41.5t-59 16q-39 0 -63.5 -16t-28.5 -54h-54q3 55 40 88t111 33q47 0 82 -21.5t54 -55t19 -72.5q1 -44 -22.5 -77t-62 -59.5t-84.5 -51.5q-40 -21 -58 -33.5t-19 -37.5h243v-51
h-300z" />
    <glyph glyph-name="three.numr" horiz-adv-x="372" 
d="M184 242q-51 0 -87.5 26t-56.5 69l51 16q15 -26 40.5 -42t52.5 -16q40 0 67.5 23.5t27.5 57.5t-26 60t-69 26h-44v40h46q41 0 62.5 24t21.5 55q0 32 -25 51.5t-57 19.5q-30 0 -52 -16.5t-31 -47.5l-52 13q13 49 50.5 76.5t84.5 27.5q37 0 67.5 -16t49 -44t18.5 -64
q0 -27 -12.5 -52t-43.5 -46q33 -20 49 -48.5t16 -58.5q0 -38 -20.5 -68.5t-54 -48t-73.5 -17.5z" />
    <glyph glyph-name="four.numr" horiz-adv-x="410" 
d="M370 371h-69v-124h-51v124h-210v49l176 284h85v-285h69v-48zM250 419v225h-15l-141 -225h156z" />
    <glyph glyph-name="five.numr" horiz-adv-x="373" 
d="M179 244q-44 0 -76 14.5t-63 47.5l37 38q24 -25 46.5 -37t55.5 -12q27 0 50.5 14t38.5 37t15 50q0 36 -17 60.5t-43 35.5t-54 5t-51 -32l-48 19l20 219h233v-52h-183l-15 -117q57 25 104.5 12t75.5 -53t28 -97q0 -43 -21.5 -77.5t-56.5 -54.5t-76 -20z" />
    <glyph glyph-name="six.numr" horiz-adv-x="387" 
d="M193 243q-42 0 -76.5 20.5t-55.5 55t-21 76.5q0 56 22.5 111t75.5 118q16 20 35.5 40.5t37.5 38.5h66q-44 -46 -82.5 -89.5t-65.5 -90.5q34 23 72 22t71 -20.5t54 -53t21 -76.5q0 -42 -21 -76.5t-56 -55t-77 -20.5zM194 296q41 0 71 29t30 70q0 42 -29.5 71t-71.5 29
q-41 0 -71 -29t-30 -71q0 -41 30.5 -70t70.5 -29z" />
    <glyph glyph-name="seven.numr" horiz-adv-x="327" 
d="M287 704l-1 -44l-129 -413h-55l127 404h-189v53h247z" />
    <glyph glyph-name="eight.numr" horiz-adv-x="381" 
d="M190 244q-42 0 -76 17.5t-54 48.5t-20 70q0 32 19 63t53 48q-26 17 -39.5 43t-13.5 50q0 34 18 62t48 44t65 16q37 0 67 -16.5t48 -44t18 -61.5q0 -24 -13.5 -49.5t-39.5 -43.5q35 -18 53 -48.5t18 -62.5q0 -39 -20.5 -70t-55 -48.5t-75.5 -17.5zM190 513q37 0 58.5 19
t21.5 52t-22 52t-58 19t-57 -19t-21 -52q0 -34 22 -52.5t56 -18.5zM190 294q43 0 71 22.5t28 63.5t-28.5 62t-70.5 21q-43 0 -70.5 -22.5t-27.5 -60.5q0 -40 28 -63t70 -23z" />
    <glyph glyph-name="nine.numr" horiz-adv-x="387" 
d="M194.243 706.9q41.6016 0 76.3779 -20.4756q34.7764 -20.4766 55.5771 -54.9277t20.8008 -76.0527q0 -55.252 -22.751 -110.179q-22.751 -54.9277 -76.0527 -118.63q-15.6006 -20.1504 -35.1016 -40.626q-19.5 -20.4766 -37.7012 -38.0273h-65.6523
q44.8516 45.502 82.8779 89.0537t65.3271 91.0039q-27.3008 -18.8506 -57.2021 -21.7764q-29.9004 -2.9248 -58.502 7.15039q-28.6006 10.0752 -51.6768 30.5508q-23.0762 20.4766 -36.7266 48.752q-13.6504 28.2764 -13.6504 62.7275q0 42.252 21.126 76.7031
t55.9023 54.6016q34.7764 20.1514 77.0273 20.1514zM192.943 654.248q-27.3008 0 -50.0518 -13.3252t-36.7266 -35.752q-13.9756 -22.4258 -13.9756 -49.7266q0 -27.9512 13.6504 -50.377t36.4014 -35.751q22.751 -13.3262 50.7021 -13.3262q27.3008 0 50.0518 13.001
t36.7266 35.4268t13.9756 51.0264q0 27.3008 -14.3008 49.7266q-14.3008 22.4268 -37.376 35.752q-23.0762 13.3252 -49.0771 13.3252z" />
    <glyph glyph-name="uni0338.aalt" 
d="M546 764l-474 -847h-72l473 847h73z" />
    </font>
</defs>
</svg>
