<?xml version="1.0" standalone="no"?>
<!DOCTYPE svg PUBLIC "-//W3C//DTD SVG 1.1//EN" "http://www.w3.org/Graphics/SVG/1.1/DTD/svg11.dtd" >
<svg xmlns="http://www.w3.org/2000/svg" xmlns:xlink="http://www.w3.org/1999/xlink" version="1.1">
<metadata>
Created by FontForge 20170731 at Wed Sep 25 16:43:22 2019
 By Aleksey,,,
Copyright 2018 The Kulim Park Project Authors (https://github.com/noponies/Kulim-Park)
</metadata>
<defs>
<font id="KulimPark-Light" horiz-adv-x="0" >
  <font-face 
    font-family="Kulim Park Light"
    font-weight="300"
    font-stretch="normal"
    units-per-em="1000"
    panose-1="0 0 0 0 0 0 0 0 0 0"
    ascent="800"
    descent="-200"
    x-height="500"
    cap-height="700"
    bbox="-80 -215.182 1166 913"
    underline-thickness="50"
    underline-position="-175"
    unicode-range="U+000D-FB02"
  />
<missing-glyph horiz-adv-x="364" 
d="M33 0v666h265v-666h-265zM66 33h199v600h-199v-600z" />
    <glyph glyph-name="fi" unicode="fi" horiz-adv-x="549" 
d="M336 642q-65 3 -93.5 -12.5t-36 -48.5t-7.5 -81h100v-58h-100v-442h-65v442h-94v58h94q0 66 15.5 113.5t59 71.5t127.5 19v-62zM453 568q-20 0 -33.5 13.5t-13.5 32.5q0 20 13.5 33.5t33.5 13.5q19 0 32.5 -13.5t13.5 -33.5q0 -19 -13.5 -32.5t-32.5 -13.5zM484 0h-63
v500h63v-500z" />
    <glyph glyph-name="fl" unicode="fl" horiz-adv-x="522" 
d="M336 642q-65 3 -93.5 -12.5t-36 -48.5t-7.5 -81h100v-58h-100v-442h-65v442h-94v58h94q0 66 15.5 113.5t59 71.5t127.5 19v-62zM472 0h-66v700h66v-700z" />
    <glyph glyph-name=".notdef" horiz-adv-x="364" 
d="M33 0v666h265v-666h-265zM66 33h199v600h-199v-600z" />
    <glyph glyph-name=".null" 
 />
    <glyph glyph-name="nonmarkingreturn" horiz-adv-x="333" 
 />
    <glyph glyph-name="NULL" 
 />
    <glyph glyph-name="NULL" 
 />
    <glyph glyph-name="CR" unicode="&#xd;" horiz-adv-x="380" 
 />
    <glyph glyph-name="space" unicode=" " horiz-adv-x="380" 
 />
    <glyph glyph-name="exclam" unicode="!" horiz-adv-x="195" 
d="M129 700l-2 -520h-57l-4 520h63zM98 -8q-20 0 -34 14t-14 34q0 19 14 33t34 14q19 0 33 -14t14 -33q0 -20 -14 -34t-33 -14z" />
    <glyph glyph-name="quotedbl" unicode="&#x22;" horiz-adv-x="272" 
d="M233 700l-7 -237h-50l-7 237h64zM104 700l-7 -237h-50l-7 237h64z" />
    <glyph glyph-name="numbersign" unicode="#" horiz-adv-x="779" 
d="M739 505l-1 -61h-161l-51 -189h153v-60h-169l-52 -194h-71l55 194l-197 1l-53 -195h-63l52 195h-141v60h158l51 189h-149v62l166 -1l51 191h62l-50 -191h199l52 191h65l-51 -192h145zM511 445h-199l-51 -190h198z" />
    <glyph glyph-name="dollar" unicode="$" horiz-adv-x="541" 
d="M243 748h55v-44q44 -1 91.5 -11t87.5 -31l-42 -56q-33 13 -67.5 22t-69.5 10v-242q67 -18 112 -40.5t68 -59.5t23 -99q0 -54 -27.5 -98t-73.5 -72t-102 -34v-43h-55v43q-59 5 -112 28t-91 54l51 47q73 -53 152 -62v281q-86 25 -139 72t-47 126q4 71 53 113t133 50v46z
M126 531q0 -50 33 -76t84 -43v224q-48 -6 -82.5 -31t-34.5 -74zM434 197q1 49 -31.5 78.5t-104.5 50.5v-266q57 9 96 45t40 92z" />
    <glyph glyph-name="percent" unicode="%" horiz-adv-x="826" 
d="M195 412q-41 0 -74 20t-52 53t-19 71q0 41 19.5 74t52.5 52t73 19q41 0 73.5 -19t51.5 -52t19 -74q0 -42 -20 -74.5t-52.5 -51t-71.5 -18.5zM216 -1l309 702h69l-309 -702h-69zM195 470q38 0 62 26t24 60q0 37 -25 62.5t-61 25.5q-38 0 -62.5 -25t-24.5 -63
q0 -35 25.5 -60.5t61.5 -25.5zM632 -4q-41 0 -74 20t-52 53t-19 71q0 41 19 74t52 52t74 19t73.5 -19t51.5 -52t19 -74q0 -42 -20 -74.5t-52.5 -51t-71.5 -18.5zM632 54q38 0 62 26t24 60q0 37 -25 62.5t-61 25.5q-38 0 -62.5 -25t-24.5 -63q0 -35 25.5 -60.5t61.5 -25.5z
" />
    <glyph glyph-name="ampersand" unicode="&#x26;" horiz-adv-x="686" 
d="M564 0l-83 88q-65 -60 -130 -80t-123 -10t-102.5 42t-68 78.5t-20.5 99t40.5 103.5t115.5 91l-49 60q-29 35 -31 76.5t18.5 79t58.5 61t91 23.5q69 0 110 -29.5t64 -88.5l-56 -22q-16 41 -44 60.5t-75 17.5q-41 -3 -67.5 -27.5t-30 -58.5t25.5 -67l273 -311q12 24 18 47
t8 53.5t2 77.5h61q0 -48 -2.5 -86.5t-12.5 -73t-33 -69.5l124 -135h-82zM440 133l-207 235q-63 -31 -94 -69t-35.5 -77.5t13 -73.5t51 -57.5t78 -30t94.5 10t100 62.5z" />
    <glyph glyph-name="quotesingle" unicode="'" horiz-adv-x="144" 
d="M104 700l-7 -237h-50l-7 237h64z" />
    <glyph glyph-name="parenleft" unicode="(" horiz-adv-x="292" 
d="M252 -90h-63q-70 80 -104.5 183t-34.5 222q0 131 37 225.5t100 164.5h62q-65 -70 -101.5 -173.5t-36.5 -216.5q0 -118 36 -225t105 -180z" />
    <glyph glyph-name="parenright" unicode=")" horiz-adv-x="293" 
d="M41 -90h63q70 80 104.5 183t34.5 222q0 131 -37 225.5t-100 164.5h-62q65 -70 101.5 -173.5t36.5 -216.5q0 -118 -36 -225t-105 -180z" />
    <glyph glyph-name="asterisk" unicode="*" horiz-adv-x="402" 
d="M352 497l-20 -41l-108 56v-122h-45v121l-104 -61l-23 38l103 57l-105 52l19 42l110 -57v123h45v-120l102 60l23 -39l-104 -58z" />
    <glyph glyph-name="plus" unicode="+" horiz-adv-x="595" 
d="M545 270h-495v60h495v-60zM328 548v-495h-60v495h60z" />
    <glyph glyph-name="comma" unicode="," horiz-adv-x="160" 
d="M20 59q0 21 14.5 36t37.5 15q20 0 34.5 -16.5t13.5 -37.5q-1 -11 -8 -34t-17.5 -49.5t-19.5 -49t-14 -31.5l-25 11q4 7 11 25.5t13.5 40.5t9.5 41q-22 0 -36 14.5t-14 34.5z" />
    <glyph glyph-name="hyphen" unicode="-" horiz-adv-x="450" 
d="M400 270h-350v60h350v-60z" />
    <glyph glyph-name="period" unicode="." horiz-adv-x="155" 
d="M58 -4q-20 0 -34 14t-14 33t14 33t34 14q19 1 33 -13.5t14 -33.5t-14 -33.5t-33 -13.5z" />
    <glyph glyph-name="slash" unicode="/" horiz-adv-x="496" 
d="M461 700l-367 -804h-59l366 804h60z" />
    <glyph glyph-name="zero" unicode="0" horiz-adv-x="672" 
d="M559 101q-36 -49 -92 -77.5t-131 -28.5q-76 0 -131.5 28.5t-91.5 77.5t-54.5 113.5t-18.5 135.5q0 72 18 137t55 113q36 48 92 76.5t131 28.5t131 -29t92 -78q37 -49 55 -113t18 -135t-18 -135.5t-55 -113.5zM511 552q-27 40 -71.5 62.5t-103.5 22.5q-60 0 -104 -22.5
t-72 -62.5q-29 -40 -41.5 -92t-12.5 -110t12.5 -110t40.5 -92t72.5 -63.5t104.5 -23.5q59 0 103.5 23.5t71.5 63.5q29 40 41.5 92t12.5 110t-12.5 110.5t-41.5 91.5z" />
    <glyph glyph-name="one" unicode="1" horiz-adv-x="268" 
d="M228 0h-66v630l-78 -71l-44 44l106 97h82v-700z" />
    <glyph glyph-name="two" unicode="2" horiz-adv-x="557" 
d="M56 0v57q0 54 21.5 85.5t58 52.5t80.5 43q100 48 166.5 106.5t73.5 126.5q4 46 -20.5 84.5t-68 62t-95.5 23.5q-63 0 -102.5 -25t-46.5 -84h-71q4 50 29 89t74 62t126 23q73 0 127 -32t84 -82.5t30 -108.5q0 -71 -37 -123.5t-98.5 -94t-133.5 -80.5q-46 -24 -73 -39.5
t-39.5 -33t-12.5 -48.5h389v-64h-461z" />
    <glyph glyph-name="three" unicode="3" horiz-adv-x="528" 
d="M263 -8q-77 0 -131 35.5t-87 97.5l65 20q25 -39 67 -63t86 -24q43 0 79 18t58 49t22 69t-21.5 70t-57.5 51t-80 19h-64v55h65q65 0 104 37t39 90q0 37 -19.5 64t-51.5 42.5t-67 15.5q-48 0 -86 -26.5t-52 -74.5l-66 17q13 47 44 80.5t72.5 51.5t87.5 18q55 0 102 -23.5
t75 -66t28 -98.5q0 -41 -19.5 -80t-71.5 -74q58 -30 81.5 -76.5t23.5 -91.5q0 -58 -31.5 -103.5t-82.5 -72t-111 -26.5z" />
    <glyph glyph-name="four" unicode="4" horiz-adv-x="587" 
d="M547 194h-108v-194h-65v194h-334v67l277 441h122v-448h108v-60zM374 254v376h-32l-237 -376h269z" />
    <glyph glyph-name="five" unicode="5" horiz-adv-x="524" 
d="M251 -6q-68 0 -116.5 21t-94.5 68l48 48q37 -38 73 -55t90 -17q45 0 84 22.5t62.5 60.5t23.5 84q0 59 -26.5 99t-68.5 58t-89 9t-87 -48l-66 26l33 330h355v-63h-292l-25 -207q64 32 123.5 30t106.5 -32.5t74 -82.5t27 -119q0 -65 -33 -117.5t-86.5 -83.5t-115.5 -31z
" />
    <glyph glyph-name="six" unicode="6" horiz-adv-x="552" 
d="M275 -6q-64 0 -117.5 31t-85.5 83.5t-32 116.5q0 84 38.5 173.5t131.5 197.5q22 27 48.5 55t47.5 49h84q-75 -75 -132.5 -144t-101.5 -145q42 34 90.5 42t95.5 -6t85.5 -45.5t61.5 -76.5t23 -100q0 -65 -32 -117t-86 -83t-119 -31zM278 60q45 0 83.5 22.5t61.5 60
t23 82.5q0 46 -22.5 83.5t-61 59t-84.5 21.5t-84.5 -21.5t-62 -58.5t-23.5 -84q0 -46 24.5 -83.5t63 -59.5t82.5 -22z" />
    <glyph glyph-name="seven" unicode="7" horiz-adv-x="460" 
d="M420 702l-1 -60l-204 -642h-73l204 635h-306v67h380z" />
    <glyph glyph-name="eight" unicode="8" horiz-adv-x="543" 
d="M271 -5q-63 0 -115.5 26t-84 72.5t-31.5 106.5q0 48 30 98t88 77q-44 26 -66 68t-22 79q0 52 28 93.5t74 65.5t99 24q56 0 102 -24.5t73 -66t27 -92.5q0 -36 -20.5 -78t-66.5 -69q58 -28 87.5 -77t29.5 -98q0 -59 -32 -105.5t-84.5 -73t-115.5 -26.5zM271 402
q62 0 98.5 32.5t36.5 87.5q0 56 -37 87.5t-98 31.5t-97.5 -32.5t-36.5 -86.5q0 -57 38 -88.5t96 -31.5zM271 58q70 0 117.5 37t47.5 105q0 46 -22 77t-59.5 46.5t-83.5 15.5q-72 0 -118 -38t-46 -101q0 -66 46.5 -104t117.5 -38z" />
    <glyph glyph-name="nine" unicode="9" horiz-adv-x="552" 
d="M277 706q64 0 117.5 -31t85.5 -83.5t32 -116.5q0 -84 -38.5 -173.5t-131.5 -197.5q-22 -27 -48.5 -55t-47.5 -49h-84q75 75 132.5 144t101.5 145q-42 -34 -90.5 -42t-95.5 6t-85.5 45.5t-61.5 76.5t-23 100q0 65 32 117t86 83t119 31zM274 640q-45 0 -83.5 -22.5
t-61.5 -60t-23 -82.5q0 -46 22.5 -83.5t61 -59t84.5 -21.5t84.5 21.5t62 58.5t23.5 84q0 46 -24.5 83.5t-63 59.5t-82.5 22z" />
    <glyph glyph-name="colon" unicode=":" horiz-adv-x="195" 
d="M98 -9q-20 0 -34 14t-14 33t14 33t34 14q19 1 33 -13.5t14 -33.5t-14 -33.5t-33 -13.5zM98 327q-20 0 -34 14t-14 33t14 33t34 14q19 1 33 -13.5t14 -33.5t-14 -33.5t-33 -13.5z" />
    <glyph glyph-name="semicolon" unicode=";" horiz-adv-x="160" 
d="M69 326q-20 0 -34 14t-14 33t14 33t34 14q19 1 33 -13.5t14 -33.5t-14 -33.5t-33 -13.5zM21 35q0 21 14.5 36t37.5 15q20 0 34.5 -16.5t13.5 -37.5q-1 -11 -8 -34t-17.5 -49.5t-19.5 -49t-14 -31.5l-25 11q4 7 11 25.5t13.5 40.5t9.5 41q-22 0 -36 14.5t-14 34.5z" />
    <glyph glyph-name="less" unicode="&#x3c;" horiz-adv-x="507" 
d="M40 238l427 -215v71l-359 176l359 176v72l-427 -215v-65z" />
    <glyph glyph-name="equal" unicode="=" horiz-adv-x="571" 
d="M520.757 190h-470.256v60h470.256v-60zM520.757 350h-470.256v60h470.256v-60z" />
    <glyph glyph-name="greater" unicode="&#x3e;" horiz-adv-x="507" 
d="M467 238l-427 -215v71l359 176l-359 176v72l427 -215v-65z" />
    <glyph glyph-name="question" unicode="?" horiz-adv-x="570" 
d="M227 178l1 59q0 27 13 43q12 19 38 31.5t65 29.5q56 20 85.5 57t29.5 100q0 70 -47.5 110.5t-123.5 40.5q-49 0 -88 -12.5t-62 -38.5t-23 -68h-65q0 82 63.5 130t174.5 48q70 0 122.5 -27.5t81.5 -75t28 -108.5q0 -79 -38 -128t-107 -80q-36 -15 -53.5 -23t-24 -16.5
t-7 -24.5t-0.5 -47h-63zM258 -9q-20 0 -34 14t-14 33t14 33t34 14q19 1 33 -13.5t14 -33.5t-14 -33.5t-33 -13.5z" />
    <glyph glyph-name="at" unicode="@" horiz-adv-x="863" 
d="M470 -120q-91 -9 -169.5 13.5t-137 73t-91 123.5t-32.5 165q0 83 32.5 156.5t89.5 129.5t130 87.5t155 31.5q77 0 144 -28.5t118.5 -80t81.5 -120.5t32 -150q4 -142 -41 -222t-139 -80q-58 0 -84.5 32t-27.5 98q-44 -34 -90 -48t-86 -7t-64.5 35t-24.5 77q0 44 22.5 71.5
t60 42t85 20.5t97.5 6v35q0 68 -76 68q-36 0 -75.5 -16t-67.5 -38l-36 39q36 33 83.5 53.5t94.5 20.5q60 0 100 -32.5t40 -90.5v-256q0 -25 15.5 -37.5t38 -11t45.5 17.5q38 19 55 78.5t14 143.5q-3 68 -28 125.5t-68.5 100t-99.5 66.5t-120 24q-72 0 -134.5 -27.5
t-109 -75.5t-73 -110.5t-26.5 -132.5q0 -103 47.5 -175t130.5 -106.5t189 -26.5v-62zM429 119q54 13 103 48v87q-101 0 -153.5 -21t-52.5 -67q0 -43 29.5 -51.5t73.5 4.5z" />
    <glyph glyph-name="A" unicode="A" horiz-adv-x="645" 
d="M40 0l240 700h85l240 -700h-70l-61 180h-303l-61 -180h-70zM322 622l-132 -387h265z" />
    <glyph glyph-name="B" unicode="B" horiz-adv-x="561" 
d="M50 0v700h261q50 0 89.5 -24.5t61.5 -65.5t22 -93q0 -45 -15 -77.5t-49 -72.5q53 -33 77 -75.5t24 -92.5q0 -36 -14 -71.5t-39 -64.5t-57 -46t-67 -17h-294zM116 380h191q30 0 55 20t40.5 51.5t15.5 65.5q0 49 -28.5 83.5t-78.5 34.5h-195v-255zM116 65h228q31 0 56 20.5
t39.5 51.5t14.5 62q0 48 -29 84.5t-78 36.5h-231v-255z" />
    <glyph glyph-name="C" unicode="C" horiz-adv-x="681" 
d="M387 -10q-73 0 -135.5 28t-110.5 76t-74.5 112.5t-26.5 143.5q0 76 26.5 142t74.5 114t110.5 76t135.5 28t137.5 -29t116.5 -86l-53 -42q-41 44 -92.5 68.5t-108.5 24.5q-59 0 -109 -23t-89 -64q-38 -39 -60 -92.5t-22 -116.5q0 -64 22 -117t60 -93q39 -40 89 -63
t109 -23q57 0 108.5 24.5t92.5 68.5l53 -43q-52 -57 -116.5 -85.5t-137.5 -28.5z" />
    <glyph glyph-name="D" unicode="D" horiz-adv-x="637" 
d="M597 352q0 -73 -27 -137t-74.5 -112.5t-110 -75.5t-133.5 -27h-202v703h202q72 0 134.5 -27.5t110 -76t74 -112t26.5 -135.5zM530 352q0 59 -21 111.5t-58.5 92.5t-88 62.5t-110.5 22.5h-136v-578h136q60 0 110.5 23t88 63t58.5 92.5t21 110.5z" />
    <glyph glyph-name="E" unicode="E" horiz-adv-x="469" 
d="M429 0h-379v700h379v-59h-313v-270h253v-57h-253v-255h313v-59z" />
    <glyph glyph-name="F" unicode="F" horiz-adv-x="465" 
d="M425 639h-309v-266h249v-59h-249v-314h-66v700h375v-61z" />
    <glyph glyph-name="G" unicode="G" horiz-adv-x="717" 
d="M385 -11q-71 0 -133.5 28t-110 76.5t-74.5 113t-27 137.5q0 76 27 142.5t74.5 116.5t110 78.5t133.5 28.5q83 0 155.5 -37.5t123.5 -107.5l-58 -37q-41 56 -98 84.5t-123 28.5q-60 0 -110.5 -23.5t-87.5 -65t-57.5 -95t-20.5 -113.5q0 -58 21 -110t59 -92.5t88 -63.5
t108 -23q78 0 131 24t92 85v98h-126v65h195v-179q-42 -82 -113 -120.5t-179 -38.5z" />
    <glyph glyph-name="H" unicode="H" horiz-adv-x="603" 
d="M553 0h-66v312h-371v-312h-66v700h66v-334h371v334h66v-700z" />
    <glyph glyph-name="I" unicode="I" horiz-adv-x="166" 
d="M116 0h-66v700h66v-700z" />
    <glyph glyph-name="J" unicode="J" horiz-adv-x="382" 
d="M286 52q-23 -30 -54.5 -43t-67.5 -13.5t-70.5 6.5t-63.5 17l19 61q34 -10 67.5 -16t62 -2t48.5 25q23 20 31.5 62.5t8.5 116.5v434h65v-434q0 -79 -11.5 -130.5t-34.5 -83.5z" />
    <glyph glyph-name="K" unicode="K" horiz-adv-x="538" 
d="M498 0h-77l-264 302l-42 -35v-267h-65v701h65v-344l300 345h83l-295 -346z" />
    <glyph glyph-name="L" unicode="L" horiz-adv-x="417" 
d="M377 0h-325v700h66v-638h259v-62z" />
    <glyph glyph-name="M" unicode="M" horiz-adv-x="823" 
d="M50 0v700h155l206 -515l207 515h155v-700h-66v629h-46l-210 -517h-78l-211 517h-46v-629h-66z" />
    <glyph glyph-name="N" unicode="N" horiz-adv-x="625" 
d="M575 0h-96l-363 630v-629h-66v701h99l361 -625v625h65v-702z" />
    <glyph glyph-name="O" unicode="O" horiz-adv-x="765" 
d="M725 349q0 -76 -26.5 -141.5t-73.5 -114.5t-109 -76t-133 -27q-72 0 -134 27.5t-109 77t-73.5 114.5t-26.5 140t27 140.5t75 115t110 77.5t131 28q71 0 133.5 -28.5t109 -78.5t73 -115t26.5 -139zM658 349q0 61 -21 115.5t-59 96t-87.5 65.5t-107.5 24t-108 -23.5
t-87.5 -65.5t-59 -96.5t-21.5 -115.5t21 -115t59 -95.5t88 -65.5t108 -24t108 23.5t87.5 65t58.5 95.5t21 116z" />
    <glyph glyph-name="P" unicode="P" horiz-adv-x="535" 
d="M50 0l1 700h269q50 0 89.5 -28t62.5 -73.5t23 -97.5q0 -48 -24.5 -94t-65 -75.5t-88.5 -29.5h-201v-302h-66zM116 366h200q31 0 57 20t41.5 51t15.5 64q0 36 -14 66.5t-39.5 49t-57.5 18.5h-203v-269z" />
    <glyph glyph-name="Q" unicode="Q" horiz-adv-x="765" 
d="M383 -5q-72 0 -134 27.5t-109 76.5t-73.5 113t-26.5 136q0 74 27 138.5t74.5 113.5t109.5 77t132 28q72 0 134 -28t108.5 -77.5t73 -114.5t26.5 -137q0 -78 -30 -145.5t-81 -115.5q14 -17 34.5 -24.5t59.5 -5.5v-61q-61 -2 -92 9t-56 41q-38 -24 -83 -37.5t-94 -13.5z
M383 55q40 0 77 12t68 33q-18 37 -30 59t-32 35.5t-63 25.5v69q50 -11 81.5 -28.5t53.5 -45t42 -69.5q36 39 56.5 91.5t20.5 110.5q0 59 -21 113t-58.5 95t-87 65t-107.5 24t-108 -24t-87.5 -65t-58.5 -95t-21 -113q0 -58 20.5 -111t58 -94t88 -64.5t108.5 -23.5z" />
    <glyph glyph-name="R" unicode="R" horiz-adv-x="549" 
d="M509 0h-78l-186 302h-129v-302h-66l1 700h269q46 0 85.5 -27.5t63.5 -73t24 -98.5q0 -48 -23 -92t-61.5 -73t-87.5 -32zM427 501q0 33 -14 63.5t-38.5 50t-56.5 19.5h-202v-266h200q30 0 55 21t40.5 51.5t15.5 60.5z" />
    <glyph glyph-name="S" unicode="S" horiz-adv-x="541" 
d="M269 -8q-65 0 -126 24t-103 59l51 47q41 -29 88 -46.5t88 -17.5q45 0 82.5 17t60.5 48.5t24 73.5q1 53 -37.5 84t-125.5 52q-65 16 -114.5 42.5t-76.5 66.5t-23 97q5 79 65 122t161 43q47 0 99 -10t95 -32l-42 -56q-36 15 -74 24t-77 9q-40 0 -76 -10.5t-59 -34
t-23 -63.5q0 -39 21 -63.5t57 -40t80 -27.5q71 -19 119.5 -41.5t73 -60t24.5 -101.5q0 -59 -32 -105t-84.5 -73t-115.5 -27z" />
    <glyph glyph-name="T" unicode="T" horiz-adv-x="596" 
d="M556 640h-225v-640h-66v640h-225v60h516v-60z" />
    <glyph glyph-name="U" unicode="U" horiz-adv-x="607" 
d="M491 700h66v-700h-66v85q-35 -41 -85 -65.5t-108 -24.5q-71 0 -129.5 33t-93.5 89t-35 126v457h65l1 -457q0 -51 26 -92.5t69.5 -66t96.5 -24.5q55 0 98.5 24.5t69 66t25.5 92.5v457z" />
    <glyph glyph-name="V" unicode="V" horiz-adv-x="594" 
d="M554 700l-219 -700h-76l-219 700h67l190 -623l190 623h67z" />
    <glyph glyph-name="W" unicode="W" horiz-adv-x="1070" 
d="M1030 700l-218 -700h-87l-190 498l-188 -498h-87l-220 700h67l197 -624l195 502h73l195 -502l195 624h68z" />
    <glyph glyph-name="X" unicode="X" horiz-adv-x="606" 
d="M40 0l222 355l-215 345h77l179 -293l180 293h76l-216 -345l223 -355h-78l-185 301l-185 -301h-78z" />
    <glyph glyph-name="Y" unicode="Y" horiz-adv-x="627" 
d="M587 700l-241 -465v-235h-65v235l-241 465h71l202 -396l203 396h71z" />
    <glyph glyph-name="Z" unicode="Z" horiz-adv-x="561" 
d="M521 0h-481v62l396 574h-391v64h471v-63l-395 -574h400v-63z" />
    <glyph glyph-name="bracketleft" unicode="[" horiz-adv-x="277" 
d="M237 -145h-187v845h187v-58h-129v-729h129v-58z" />
    <glyph glyph-name="backslash" unicode="\" horiz-adv-x="496" 
d="M461 -104h-59l-367 804h60z" />
    <glyph glyph-name="bracketright" unicode="]" horiz-adv-x="277" 
d="M40 -145h187v845h-187v-58h129v-729h-129v-58z" />
    <glyph glyph-name="asciicircum" unicode="^" horiz-adv-x="490" 
d="M450 370h-72l-132 266l-134 -266h-72l172 330h65z" />
    <glyph glyph-name="underscore" unicode="_" horiz-adv-x="595" 
d="M545 -120h-495v48h495v-48z" />
    <glyph glyph-name="grave" unicode="`" horiz-adv-x="165" 
d="M125 606h-45l-40 133h59z" />
    <glyph glyph-name="a" unicode="a" horiz-adv-x="504" 
d="M208 -5q-46 1 -84 17t-61 49t-23 82q0 77 44 120t122 54t180 -7v38q0 39 -23.5 61.5t-60 30.5t-77 2t-75 -25t-52.5 -49l-43 45q30 37 71.5 59t87.5 28.5t89.5 -0.5t77.5 -27q39 -20 53.5 -53t16.5 -76.5t3 -94.5l-1 -249h-66v47q-38 -26 -85.5 -39t-93.5 -13zM386 111
v146q-82 11 -146.5 5t-101 -35t-36.5 -84q0 -35 20.5 -55t53 -26.5t71 -2.5t75.5 17.5t64 34.5z" />
    <glyph glyph-name="b" unicode="b" horiz-adv-x="522" 
d="M482 253q0 -109 -52.5 -179t-151.5 -76q-52 -4 -93 13t-69 38v-49h-66v700h66v-222q42 20 74.5 23.5t62.5 3.5q73 0 124 -32t78 -88.5t27 -131.5zM416 253q0 87 -42.5 134t-111 54t-146.5 -26v-310q54 -38 107.5 -45t97 13.5t69.5 66.5t26 113z" />
    <glyph glyph-name="c" unicode="c" horiz-adv-x="488" 
d="M447 63q-52 -46 -108.5 -61.5t-109.5 -4t-96 46t-68 88t-25 122.5q0 68 25 120t68 84t96 42t110 -5.5t109 -59.5l-40 -48q-49 39 -102 47t-98.5 -11.5t-73.5 -62.5t-28 -106q0 -67 29 -113.5t75.5 -68t99 -12.5t99.5 54z" />
    <glyph glyph-name="d" unicode="d" horiz-adv-x="522" 
d="M245 -2q-99 6 -152 76t-53 179q0 75 27 131.5t78.5 88.5t123.5 32q31 0 63 -3.5t75 -23.5v222h65v-700h-65v49q-29 -21 -69.5 -38t-92.5 -13zM407 105v310q-79 33 -147.5 26t-110.5 -54t-42 -134q0 -67 26 -113t69.5 -66.5t96.5 -13.5t108 45z" />
    <glyph glyph-name="e" unicode="e" horiz-adv-x="562" 
d="M510 233h-402q1 -71 35 -114t87.5 -57.5t115.5 -1.5t119 55l34 -52q-47 -36 -99 -53t-105 -19q-124 -4 -191 69t-67 203q0 112 62 177t183 65q77 0 132.5 -32t81.5 -95q12 -29 15 -66t-1 -79zM284 443q-47 0 -87 -16t-64.5 -49.5t-24.5 -87.5h342q0 76 -45 114.5
t-121 38.5z" />
    <glyph glyph-name="f" unicode="f" horiz-adv-x="356" 
d="M336 642q-65 3 -93.5 -12.5t-36 -48.5t-7.5 -81h100v-58h-100v-442h-65v442h-94v58h94q0 66 15.5 113.5t59 71.5t127.5 19v-62z" />
    <glyph glyph-name="g" unicode="g" horiz-adv-x="527" 
d="M272 -204q-43 0 -83.5 15.5t-73.5 40.5l41 48q29 -19 64 -29.5t69 -10t61 14.5t41 43q12 25 15.5 50t3.5 65q-63 -36 -127.5 -35.5t-118.5 30.5t-88 84.5t-36 126.5q-3 86 27 145t83 89.5t120.5 31t139.5 -31.5v27h67v-494q0 -98 -50 -154t-155 -56zM106 239
q1 -57 28.5 -96.5t72 -58.5t98 -15.5t105.5 31.5v306q-90 37 -159 31.5t-108 -55t-37 -143.5z" />
    <glyph glyph-name="h" unicode="h" horiz-adv-x="522" 
d="M482 0h-66v301q0 74 -42 108t-109 34q-37 0 -70.5 -15t-55 -39t-21.5 -49v-340h-66v700h66v-257q28 34 71 48t79 14q100 -3 157 -54t57 -150v-301z" />
    <glyph glyph-name="i" unicode="i" horiz-adv-x="193" 
d="M97 568q-20 0 -33.5 13.5t-13.5 32.5q0 20 13.5 33.5t33.5 13.5q19 0 32.5 -13.5t13.5 -33.5q0 -19 -13.5 -32.5t-32.5 -13.5zM128 0h-63v500h63v-500z" />
    <glyph glyph-name="j" unicode="j" horiz-adv-x="238" 
d="M142 576q-20 0 -33.5 13.5t-13.5 33.5q0 19 13.5 32.5t33.5 13.5q19 0 32 -13.5t14 -32.5q0 -20 -13.5 -33.5t-32.5 -13.5zM-30 -176v64q51 3 81.5 16.5t44 45.5t13.5 88v462h64v-462q0 -110 -50.5 -160.5t-152.5 -53.5z" />
    <glyph glyph-name="k" unicode="k" horiz-adv-x="439" 
d="M50 0v700h66v-378l182 168h93l-211 -202l219 -288h-77l-194 244l-12 -14v-230h-66z" />
    <glyph glyph-name="l" unicode="l" horiz-adv-x="166" 
d="M116 0h-66v700h66v-700z" />
    <glyph glyph-name="m" unicode="m" horiz-adv-x="850" 
d="M810 0h-65v298q0 72 -38.5 109t-99.5 37q-62 0 -102 -37t-40 -109v-298h-64v298q0 75 -41 110.5t-105 35.5q-30 0 -62.5 -15.5t-55 -48t-22.5 -82.5v-298h-65v500h65v-56q25 30 61.5 45.5t77.5 16.5q50 0 99 -20.5t83 -65.5q28 44 75 64.5t100 20.5q51 0 96.5 -23.5
t74 -70t28.5 -113.5v-298z" />
    <glyph glyph-name="n" unicode="n" horiz-adv-x="524" 
d="M484 0h-66v298q0 51 -21.5 82.5t-56 46.5t-73.5 15q-37 0 -72 -16.5t-57 -48.5t-22 -79v-298h-66v500h66v-60q25 34 66 50.5t87 15.5q57 0 106 -23t79 -69t30 -116v-298z" />
    <glyph glyph-name="o" unicode="o" horiz-adv-x="564" 
d="M282 -12q-71 0 -125.5 31.5t-85.5 88t-31 131.5q0 88 32.5 147t87.5 89t122 30q71 0 126 -30t85.5 -89t30.5 -147q0 -75 -30.5 -131.5t-85.5 -88t-126 -31.5zM282 52q57 0 97 25t60.5 67.5t20.5 94.5q0 88 -46 145t-132 57q-59 0 -98.5 -26.5t-59.5 -72t-20 -103.5
q0 -53 20 -95.5t59.5 -67t98.5 -24.5z" />
    <glyph glyph-name="p" unicode="p" horiz-adv-x="526" 
d="M116 -200h-66v700h66v-30q72 35 138.5 35t119 -31t82.5 -89t30 -138q0 -74 -28 -131t-80 -89t-123 -32q-30 0 -66 6t-73 29v-230zM116 99q55 -33 109 -38t98 15t70.5 63.5t26.5 107.5q0 66 -27 110.5t-71 65t-98 14.5t-108 -42v-296z" />
    <glyph glyph-name="q" unicode="q" horiz-adv-x="526" 
d="M411 -200v230q-38 -23 -73.5 -29t-66.5 -6q-71 0 -123 32t-80 89t-28 131q0 80 30 138t82.5 89t119 31t139.5 -35v30h65v-700h-65zM107 247q0 -64 26 -107.5t70 -63.5t98 -15t110 38v296q-55 36 -109 42t-98 -14.5t-70.5 -65t-26.5 -110.5z" />
    <glyph glyph-name="r" unicode="r" horiz-adv-x="346" 
d="M50 0v492h65v-49q32 36 78.5 47t122.5 -10l-29 -59q-48 17 -87 4.5t-62 -41.5t-23 -60v-324h-65z" />
    <glyph glyph-name="s" unicode="s" horiz-adv-x="415" 
d="M40 54l39 44q33 -24 65.5 -36.5t64.5 -11.5q20 0 38.5 6t35.5 18q21 16 29 40t-1 47q-8 23 -29.5 37t-50 24t-58.5 19.5t-57 24.5q-47 27 -62.5 65t-4.5 75.5t44.5 64.5t84.5 32t101 -9t78 -40l-41 -41q-28 16 -59.5 24.5t-59.5 8.5q-35 -1 -59.5 -17t-27.5 -49
q-4 -31 16.5 -49t58 -31t84.5 -29q56 -20 85.5 -61t15.5 -102q-9 -50 -45.5 -78.5t-87 -35t-103 8t-94.5 51.5z" />
    <glyph glyph-name="t" unicode="t" horiz-adv-x="334" 
d="M131 212v227h-91v61h91v200h66v-200h92v-61h-92v-227q0 -65 2.5 -96.5t14 -42t41.5 -10.5h27v-66h-25q-43 0 -68 8.5t-37.5 31t-16.5 65t-4 110.5z" />
    <glyph glyph-name="u" unicode="u" horiz-adv-x="523" 
d="M473 0h-65v57q-23 -32 -61 -48.5t-82.5 -18.5t-87.5 11t-74 40q-30 26 -46.5 65t-16.5 91v303h66v-303q0 -75 43 -110.5t110 -35.5q33 0 67.5 15.5t58 48t23.5 82.5v303h65v-500z" />
    <glyph glyph-name="v" unicode="v" horiz-adv-x="544" 
d="M504 500l-188 -500h-89l-187 500h69l163 -437l163 437h69z" />
    <glyph glyph-name="w" unicode="w" horiz-adv-x="879" 
d="M839 500l-169 -500h-90l-141 430l-139 -430h-91l-169 500h67l148 -434l144 434h82l145 -434l147 434h66z" />
    <glyph glyph-name="x" unicode="x" horiz-adv-x="483" 
d="M443 0h-77l-125 205l-124 -205h-77l157 254l-154 246h78l120 -197l118 197h77l-152 -246z" />
    <glyph glyph-name="y" unicode="y" horiz-adv-x="539" 
d="M112 -171v63q30 0 56.5 15t44.5 38.5t20 47.5l-193 507h72l161 -425l152 425h74l-183 -486q-20 -54 -47 -95.5t-65 -65t-92 -24.5z" />
    <glyph glyph-name="z" unicode="z" horiz-adv-x="470" 
d="M430 0h-390v55l306 383h-299v62h383v-59l-306 -379h306v-62z" />
    <glyph glyph-name="braceleft" unicode="{" horiz-adv-x="318" 
d="M210 -140q-35 0 -58 22.5t-34 58.5t-11 76l1 137q0 40 -2 65t-14 37t-42 12v42q31 1 43 13t13.5 36.5t1.5 64.5l-1 137q0 41 11 76.5t34 58t58 22.5h68v-42h-67q-16 0 -24.5 -9.5t-13.5 -22.5q-9 -25 -9.5 -59t3 -72.5t6 -74.5t-1.5 -65q-2 -25 -13.5 -50t-33.5 -34
q22 -9 33 -34t14 -50q4 -28 1.5 -64.5t-6 -74.5t-3 -72.5t9.5 -59.5q5 -12 13.5 -21.5t24.5 -9.5h67v-43h-68z" />
    <glyph glyph-name="bar" unicode="|" horiz-adv-x="162" 
d="M112 -58h-62v756h62v-756z" />
    <glyph glyph-name="braceright" unicode="}" horiz-adv-x="318" 
d="M108 -140q35 0 58 22.5t34 58.5t11 76l-1 137q0 40 2 65t14 37t42 12v42q-31 1 -43 13t-13.5 36.5t-1.5 64.5l1 137q0 41 -11 76.5t-34 58t-58 22.5h-68v-42h67q16 0 24.5 -9.5t13.5 -22.5q9 -25 9.5 -59t-3 -72.5t-6 -74.5t1.5 -65q2 -25 13.5 -50t33.5 -34
q-22 -9 -33 -34t-14 -50q-4 -28 -1.5 -64.5t6 -74.5t3 -72.5t-9.5 -59.5q-5 -12 -13.5 -21.5t-24.5 -9.5h-67v-43h68z" />
    <glyph glyph-name="asciitilde" unicode="~" horiz-adv-x="611" 
d="M420 197q-42 0 -70.5 13t-51 30.5t-45.5 30.5t-54 13q-39 0 -65 -25t-26 -72h-68q0 69 39.5 116.5t120.5 47.5q38 0 68 -13.5t55 -31t48.5 -30.5t47.5 -13q42 0 63 24.5t21 68.5h68q0 -37 -14 -73.5t-47 -61t-90 -24.5z" />
    <glyph glyph-name="uni00A0" unicode="&#xa0;" horiz-adv-x="380" 
 />
    <glyph glyph-name="exclamdown" unicode="&#xa1;" horiz-adv-x="195" 
d="M129 -190l-2 520h-57l-4 -520h63zM98 518q-20 0 -34 -14t-14 -34q0 -19 14 -33t34 -14q19 0 33 14t14 33q0 20 -14 34t-33 14z" />
    <glyph glyph-name="cent" unicode="&#xa2;" horiz-adv-x="488" 
d="M447 156q-34 -31 -71 -48t-74 -21v-38h-50v37q-57 6 -105.5 40t-77.5 90.5t-29 129.5q0 74 29 128t77.5 85.5t105.5 35.5v42h50v-43q37 -5 74 -21.5t72 -44.5l-40 -49q-49 39 -102 47t-98.5 -11.5t-73.5 -62.5t-28 -106q0 -66 29 -112.5t75.5 -68t99 -12.5t99.5 53z" />
    <glyph glyph-name="sterling" unicode="&#xa3;" horiz-adv-x="475" 
d="M40 0v63q51 71 75.5 129t31.5 123h-87v53h84q-20 82 -27 138.5t20 99.5q8 16 21 31.5t31 27.5q29 21 69.5 30t84.5 9t86 -6v-57q-59 7 -112 4t-89 -26q-31 -20 -41 -48t-9 -58q0 -16 5 -42t11.5 -53.5t11.5 -49.5h141v-53h-141q-7 -69 -33 -133t-64 -119h317v-63h-386z
" />
    <glyph glyph-name="currency" unicode="&#xa4;" horiz-adv-x="615" 
d="M575 105l-34 -34l-94 94q-36 -27 -70.5 -39t-69.5 -12t-68.5 11.5t-71.5 38.5l-93 -93l-34 34l93 92q-25 37 -36.5 71t-11.5 69t11.5 69t37.5 73l-94 93l34 34l94 -95q38 27 72 38.5t67 11.5q34 0 68 -11.5t72 -38.5l94 95l34 -34l-94 -93q26 -39 37.5 -73t11.5 -69
t-11.5 -69t-36.5 -71zM425 454q-47 48 -118 48q-70 0 -116 -48q-48 -47 -48 -117q0 -35 12.5 -64.5t35.5 -51.5q22 -23 52 -36t64 -13q70 0 118 49q47 46 47 116q0 71 -47 117z" />
    <glyph glyph-name="yen" unicode="&#xa5;" horiz-adv-x="627" 
d="M587 700l-241 -465v-235h-65v235l-241 465h71l202 -396l203 396h71zM540 91h-453v60h453v-60zM540 201h-453v60h453v-60z" />
    <glyph glyph-name="brokenbar" unicode="&#xa6;" horiz-adv-x="162" 
d="M112 360h-62v340h62v-340zM112 -137h-62v340h62v-340z" />
    <glyph glyph-name="section" unicode="&#xa7;" horiz-adv-x="419" 
d="M209 -7q-37 0 -79 15t-74 40l44 44q54 -39 104 -39q47 0 77.5 22t30.5 61q0 25 -21.5 41t-52 26t-56.5 16q-60 13 -101 44.5t-41 82.5q0 33 14.5 60.5t53.5 49.5q-28 22 -45.5 46t-17.5 58q0 42 23 74.5t60.5 51.5t81.5 19q37 0 78.5 -15t74.5 -40l-46 -43q-26 20 -51 29
t-48 9q-54 2 -82.5 -25.5t-17.5 -66.5q3 -20 22.5 -34.5t46 -24.5t50.5 -15q61 -13 101 -44.5t40 -82.5q0 -69 -67 -110q29 -21 45.5 -45.5t16.5 -58.5q0 -41 -22.5 -74t-60 -52t-81.5 -19zM220 270q49 0 78.5 20t28.5 52q-1 27 -21 46.5t-52.5 30t-68.5 10.5
q-34 0 -61.5 -20.5t-27.5 -49.5q0 -31 18.5 -50.5t47 -29t58.5 -9.5z" />
    <glyph glyph-name="dieresis" unicode="&#xa8;" horiz-adv-x="343" 
d="M82 616q-17 0 -29.5 12.5t-12.5 29.5t12.5 29t29.5 12t29 -12t12 -29t-12 -29.5t-29 -12.5zM261 616q-17 0 -29.5 12.5t-12.5 29.5t12.5 29t29.5 12t29.5 -12t12.5 -29t-12.5 -29.5t-29.5 -12.5z" />
    <glyph glyph-name="copyright" unicode="&#xa9;" horiz-adv-x="760" 
d="M40 348q0 73 27 137t74 113t108.5 77t131.5 28q71 0 132.5 -28t108 -77t72.5 -113.5t26 -136.5q0 -74 -26.5 -137.5t-73 -111.5t-108 -75t-131.5 -27q-71 0 -133 27.5t-108.5 76t-73 112t-26.5 135.5zM104 348q0 -60 21 -112.5t59 -93.5t88 -64.5t109 -23.5
q58 0 108 23.5t87.5 64t58.5 93.5t21 113q0 59 -21 113t-58.5 95.5t-87.5 65.5t-108 24q-59 0 -109 -24t-88 -65.5t-59 -95.5t-21 -113zM189 345q0 70 31.5 118.5t82 71t108.5 14t111 -53.5l-32 -41q-41 32 -84 38t-79.5 -9.5t-59.5 -50.5t-23 -87q0 -53 24 -90t61.5 -54.5
t80.5 -10.5t81 44l31 -42q-43 -39 -89 -51.5t-89.5 -3t-78.5 37.5t-55.5 71.5t-20.5 98.5z" />
    <glyph glyph-name="ordfeminine" unicode="&#xaa;" horiz-adv-x="313" 
d="M134 421q-38 1 -66 21.5t-28 62.5q0 65 52 87t137 7v24q0 24 -19 35t-46 11.5t-52 -10t-38 -29.5l-27 28q22 28 56 40.5t69 10t60 -17.5q33 -17 37.5 -50t3.5 -77v-140h-43v27q-42 -30 -96 -30zM229 487v77q-64 9 -106.5 -3.5t-42.5 -55.5q0 -23 16 -34t40.5 -11.5
t49.5 7t43 20.5z" />
    <glyph glyph-name="guillemotleft" unicode="&#xab;" horiz-adv-x="505" 
d="M465 60l-242 211l242 208v-73l-158 -138l158 -136v-72zM272 60l-242 211l242 208v-72l-157 -139l157 -136v-72z" />
    <glyph glyph-name="logicalnot" unicode="&#xac;" horiz-adv-x="518" 
d="M468 83h-56v178h-372v59h428v-237z" />
    <glyph glyph-name="uni00AD" unicode="&#xad;" horiz-adv-x="450" 
d="M400 270h-350v60h350v-60z" />
    <glyph glyph-name="registered" unicode="&#xae;" horiz-adv-x="446" 
d="M224 322q-51 0 -92.5 26t-66.5 69t-25 94t24.5 94t66.5 69t93 26t92.5 -26t65.5 -69t24 -94q0 -52 -25 -95t-66.5 -68.5t-90.5 -25.5zM224 364q38 0 69.5 20.5t51 54t19.5 72.5q0 40 -19 73t-50.5 53t-70.5 20q-40 0 -71.5 -20t-50.5 -53.5t-19 -72.5q0 -41 20 -74
t52 -53t69 -20zM161 420v186h73q22 0 37.5 -17t15.5 -41q0 -31 -33 -52l46 -76h-44l-44 70h-14v-70h-37zM198 526h35q6 0 11.5 6.5t5.5 16.5q0 8 -5 14.5t-11 6.5h-36v-44z" />
    <glyph glyph-name="macron" unicode="&#xaf;" horiz-adv-x="330" 
d="M290 652h-250v49h250v-49z" />
    <glyph glyph-name="degree" unicode="&#xb0;" horiz-adv-x="367" 
d="M327 556q0 -41 -19.5 -73.5t-52 -51t-71.5 -18.5q-40 0 -73 20t-52 53t-19 70q0 40 19.5 72.5t52 52t72.5 19.5q41 0 73 -19t51 -51.5t19 -73.5zM184 649q-39 0 -66 -27t-27 -66q0 -41 28 -66.5t65 -25.5q39 0 65.5 26.5t26.5 65.5t-26.5 66t-65.5 27z" />
    <glyph glyph-name="plusminus" unicode="&#xb1;" horiz-adv-x="575" 
d="M525 280h-206v-89h-62v89h-207v62h207v88h62v-88h206v-62zM525 38h-475v62h475v-62z" />
    <glyph glyph-name="uni00B2" unicode="&#xb2;" horiz-adv-x="386" 
d="M43 247v38q0 35 14 55.5t37.5 34t52.5 27.5q64 32 107.5 69.5t48.5 82.5q3 30 -13.5 55t-44.5 40t-62 15q-41 0 -67 -16t-30 -54h-46q4 48 39 80.5t110 31.5q47 0 82.5 -20.5t55 -53.5t19.5 -71q0 -46 -24 -80t-64 -61t-87 -52q-30 -15 -48 -25.5t-26 -22t-8 -30.5h253
v-43h-299z" />
    <glyph glyph-name="uni00B3" unicode="&#xb3;" horiz-adv-x="368" 
d="M181 242q-49 0 -84.5 23.5t-56.5 63.5l43 13q16 -25 43 -41t55 -16q43 0 73.5 25.5t30.5 62.5q0 38 -30 65t-74 27h-41v35h42q42 0 68 24.5t26 58.5q0 36 -28 57.5t-63 21.5q-31 0 -55.5 -17t-33.5 -49l-43 12q13 46 50.5 71.5t81.5 25.5q36 0 66.5 -15.5t49 -42.5
t18.5 -64q0 -27 -12.5 -52.5t-46.5 -47.5q37 -20 52.5 -50t15.5 -60q0 -37 -20.5 -67t-54 -47t-72.5 -17z" />
    <glyph glyph-name="acute" unicode="&#xb4;" horiz-adv-x="164" 
d="M39 606h45l40 133h-59z" />
    <glyph glyph-name="mu" unicode="&#xb5;" horiz-adv-x="533" 
d="M483 0h-65v57q-23 -32 -61 -48.5t-82.5 -18.5t-86.5 10t-72 38v-238h-66v700h66v-303q0 -75 43 -110.5t110 -35.5q33 0 67.5 15.5t58 48t23.5 82.5v303h65v-500z" />
    <glyph glyph-name="paragraph" unicode="&#xb6;" horiz-adv-x="480" 
d="M267 -56v488q-20 -10 -39 -16t-39 -6q-40 0 -74 19t-54.5 52t-20.5 73q0 39 20.5 72.5t54 53.5t74.5 20h138v-756h-60zM379 -56v756h61v-756h-61z" />
    <glyph glyph-name="periodcentered" unicode="&#xb7;" horiz-adv-x="221" 
d="M98 267q-20 0 -34 14t-14 33t14 33t34 14q19 1 33 -13.5t14 -33.5t-14 -33.5t-33 -13.5z" />
    <glyph glyph-name="cedilla" unicode="&#xb8;" horiz-adv-x="249" 
d="M114 -188q-22 0 -42.5 10.5t-31.5 30.5l29 22q14 -21 38 -24t43 9.5t17 35.5q-2 25 -20.5 35t-41.5 7.5t-40 -17.5l-3 40l48 69l38 -13l-30 -42q38 1 60 -15t28.5 -40.5t-2 -49t-31.5 -41.5t-59 -17z" />
    <glyph glyph-name="uni00B9" unicode="&#xb9;" horiz-adv-x="208" 
d="M162 247h-43v410l-51 -46l-28 29l68 63h54v-456z" />
    <glyph glyph-name="ordmasculine" unicode="&#xba;" horiz-adv-x="353" 
d="M176 418q-60 0 -98 39t-38 103q0 74 39.5 111.5t96.5 37.5q60 0 98.5 -37.5t38.5 -111.5q0 -64 -38.5 -103t-98.5 -39zM176 464q44 0 67.5 28t23.5 68q1 45 -23 74t-68 29q-45 0 -68 -29t-23 -74q0 -40 23 -68t68 -28z" />
    <glyph glyph-name="guillemotright" unicode="&#xbb;" horiz-adv-x="505" 
d="M40 60l242 211l-242 208v-73l158 -138l-158 -136v-72zM233 60l242 211l-242 208v-72l157 -139l-157 -136v-72z" />
    <glyph glyph-name="onequarter" unicode="&#xbc;" horiz-adv-x="892" 
d="M162 247h-43v410l-51 -46l-28 29l68 63h54v-456zM582 700l-403 -706h-47l402 706h48zM851 123h-71v-126h-42v126h-217v44l180 287h79v-291h71v-40zM738 163v244h-21l-154 -244h175z" />
    <glyph glyph-name="onehalf" unicode="&#xbd;" horiz-adv-x="867" 
d="M162 247h-43v410l-51 -46l-28 29l68 63h54v-456zM582 700l-403 -706h-47l402 706h48zM524 -3v38q0 35 14 55.5t37.5 34t52.5 27.5q64 32 107.5 69.5t48.5 82.5q3 30 -13.5 55t-44.5 40t-62 15q-41 0 -67 -16t-30 -54h-46q4 48 39 80.5t110 31.5q47 0 82.5 -20.5t55 -53.5
t19.5 -71q0 -46 -24 -80t-64 -61t-87 -52q-30 -15 -48 -25.5t-26 -22t-8 -30.5h253v-43h-299z" />
    <glyph glyph-name="threequarters" unicode="&#xbe;" horiz-adv-x="1048" 
d="M181 242q-49 0 -84.5 23.5t-56.5 63.5l43 13q16 -25 43 -41t55 -16q43 0 73.5 25.5t30.5 62.5q0 38 -30 65t-74 27h-41v35h42q42 0 68 24.5t26 58.5q0 36 -28 57.5t-63 21.5q-31 0 -55.5 -17t-33.5 -49l-43 12q13 46 50.5 71.5t81.5 25.5q36 0 66.5 -15.5t49 -42.5
t18.5 -64q0 -27 -12.5 -52.5t-46.5 -47.5q37 -20 52.5 -50t15.5 -60q0 -37 -20.5 -67t-54 -47t-72.5 -17zM738 700l-403 -706h-47l402 706h48zM1008 123h-71v-126h-42v126h-217v44l180 287h79v-291h71v-40zM895 163v244h-21l-154 -244h175z" />
    <glyph glyph-name="questiondown" unicode="&#xbf;" horiz-adv-x="570" 
d="M227 332l1 -59q0 -27 13 -43q12 -19 38 -31.5t65 -29.5q56 -20 85.5 -57t29.5 -100q0 -70 -47.5 -110.5t-123.5 -40.5q-49 0 -88 12.5t-62 38.5t-23 68h-65q0 -82 63.5 -130t174.5 -48q70 0 122.5 27.5t81.5 75t28 108.5q0 79 -38 128t-107 80q-36 15 -53.5 23t-24 16.5
t-7 24.5t-0.5 47h-63zM258 519q-20 0 -34 -14t-14 -33t14 -33t34 -14q19 -1 33 13.5t14 33.5t-14 33.5t-33 13.5z" />
    <glyph glyph-name="Agrave" unicode="&#xc0;" horiz-adv-x="645" 
d="M40 0l240 700h85l240 -700h-70l-61 180h-303l-61 -180h-70zM322 622l-132 -387h265zM351 768h-45l-40 133h59z" />
    <glyph glyph-name="Aacute" unicode="&#xc1;" horiz-adv-x="645" 
d="M40 0l240 700h85l240 -700h-70l-61 180h-303l-61 -180h-70zM322 622l-132 -387h265zM294 768h45l40 133h-59z" />
    <glyph glyph-name="Acircumflex" unicode="&#xc2;" horiz-adv-x="645" 
d="M40 0l240 700h85l240 -700h-70l-61 180h-303l-61 -180h-70zM322 622l-132 -387h265zM201 769l101 111h42l101 -111h-62l-60 68l-60 -68h-62z" />
    <glyph glyph-name="Atilde" unicode="&#xc3;" horiz-adv-x="645" 
d="M40 0l240 700h85l240 -700h-70l-61 180h-303l-61 -180h-70zM322 622l-132 -387h265zM372 778q-23 0 -38 15t-27 30t-27 16q-20 0 -30.5 -18.5t-10.5 -41.5h-45q0 47 25.5 75t61.5 28q22 0 34.5 -9t20.5 -21t15.5 -21t20.5 -9q16 0 24.5 17t8.5 41h45q0 -46 -19.5 -74
t-58.5 -28z" />
    <glyph glyph-name="Adieresis" unicode="&#xc4;" horiz-adv-x="645" 
d="M40 0l240 700h85l240 -700h-70l-61 180h-303l-61 -180h-70zM322 622l-132 -387h265zM237 778q-17 0 -29.5 12.5t-12.5 29.5t12.5 29t29.5 12t29 -12t12 -29t-12 -29.5t-29 -12.5zM416 778q-17 0 -29.5 12.5t-12.5 29.5t12.5 29t29.5 12t29.5 -12t12.5 -29t-12.5 -29.5
t-29.5 -12.5z" />
    <glyph glyph-name="Aring" unicode="&#xc5;" horiz-adv-x="645" 
d="M40 0l240 700h85l240 -700h-70l-61 180h-303l-61 -180h-70zM322 622l-132 -387h265zM322 761q-30 0 -53 22.5t-23 53.5t23 53.5t53 22.5q32 0 54.5 -22.5t22.5 -53.5t-22.5 -53.5t-54.5 -22.5zM322 878q-17 0 -28.5 -12t-11.5 -28q0 -19 11.5 -30.5t28.5 -11.5t29 12
t12 30q0 16 -11.5 28t-29.5 12z" />
    <glyph glyph-name="AE" unicode="&#xc6;" horiz-adv-x="823" 
d="M40 0l239 700h494v-61h-388l92 -267h237v-59h-217l87 -252h189v-61h-238l-61 177h-304l-60 -177h-70zM190 237h264l-132 385z" />
    <glyph glyph-name="Ccedilla" unicode="&#xc7;" horiz-adv-x="681" 
d="M387 -10q-73 0 -135.5 28t-110.5 76t-74.5 112.5t-26.5 143.5q0 76 26.5 142t74.5 114t110.5 76t135.5 28t137.5 -29t116.5 -86l-53 -42q-41 44 -92.5 68.5t-108.5 24.5q-59 0 -109 -23t-89 -64q-38 -39 -60 -92.5t-22 -116.5q0 -64 22 -117t60 -93q39 -40 89 -63
t109 -23q57 0 108.5 24.5t92.5 68.5l53 -43q-52 -57 -116.5 -85.5t-137.5 -28.5zM372 -188q-22 0 -42.5 10.5t-31.5 30.5l29 22q14 -21 38 -24t43 9.5t17 35.5q-2 25 -20.5 35t-41.5 7.5t-40 -17.5l-3 40l48 69l38 -13l-30 -42q38 1 60 -15t28.5 -40.5t-2 -49t-31.5 -41.5
t-59 -17z" />
    <glyph glyph-name="Egrave" unicode="&#xc8;" horiz-adv-x="469" 
d="M429 0h-379v700h379v-59h-313v-270h253v-57h-253v-255h313v-59zM264 768h-45l-40 133h59z" />
    <glyph glyph-name="Eacute" unicode="&#xc9;" horiz-adv-x="469" 
d="M429 0h-379v700h379v-59h-313v-270h253v-57h-253v-255h313v-59zM207 768h45l40 133h-59z" />
    <glyph glyph-name="Ecircumflex" unicode="&#xca;" horiz-adv-x="469" 
d="M429 0h-379v700h379v-59h-313v-270h253v-57h-253v-255h313v-59zM114 769l101 111h42l101 -111h-62l-60 68l-60 -68h-62z" />
    <glyph glyph-name="Edieresis" unicode="&#xcb;" horiz-adv-x="469" 
d="M429 0h-379v700h379v-59h-313v-270h253v-57h-253v-255h313v-59zM150 778q-17 0 -29.5 12.5t-12.5 29.5t12.5 29t29.5 12t29 -12t12 -29t-12 -29.5t-29 -12.5zM329 778q-17 0 -29.5 12.5t-12.5 29.5t12.5 29t29.5 12t29.5 -12t12.5 -29t-12.5 -29.5t-29.5 -12.5z" />
    <glyph glyph-name="Igrave" unicode="&#xcc;" horiz-adv-x="195" 
d="M145 0h-66v700h66v-700zM135 768h-45l-40 133h59z" />
    <glyph glyph-name="Iacute" unicode="&#xcd;" horiz-adv-x="191" 
d="M116 0h-66v700h66v-700zM56 768h45l40 133h-59z" />
    <glyph glyph-name="Icircumflex" unicode="&#xce;" horiz-adv-x="344" 
d="M205 0h-66v700h66v-700zM50 769l101 111h42l101 -111h-62l-60 68l-60 -68h-62z" />
    <glyph glyph-name="Idieresis" unicode="&#xcf;" horiz-adv-x="363" 
d="M215 0h-66v700h66v-700zM92 778q-17 0 -29.5 12.5t-12.5 29.5t12.5 29t29.5 12t29 -12t12 -29t-12 -29.5t-29 -12.5zM271 778q-17 0 -29.5 12.5t-12.5 29.5t12.5 29t29.5 12t29.5 -12t12.5 -29t-12.5 -29.5t-29.5 -12.5z" />
    <glyph glyph-name="Eth" unicode="&#xd0;" horiz-adv-x="682" 
d="M642 352q0 -73 -27 -137t-74.5 -112.5t-110 -75.5t-133.5 -27h-202v703h202q72 0 134.5 -27.5t110 -76t74 -112t26.5 -135.5zM575 352q0 59 -21 111.5t-58.5 92.5t-88 62.5t-110.5 22.5h-136v-578h136q60 0 110.5 23t88 63t58.5 92.5t21 110.5zM453 325h-420v50h420v-50z
" />
    <glyph glyph-name="Ntilde" unicode="&#xd1;" horiz-adv-x="625" 
d="M575 0h-96l-363 630v-629h-66v701h99l361 -625v625h65v-702zM362 778q-23 0 -38 15t-27 30t-27 16q-20 0 -30.5 -18.5t-10.5 -41.5h-45q0 47 25.5 75t61.5 28q22 0 34.5 -9t20.5 -21t15.5 -21t20.5 -9q16 0 24.5 17t8.5 41h45q0 -46 -19.5 -74t-58.5 -28z" />
    <glyph glyph-name="Ograve" unicode="&#xd2;" horiz-adv-x="765" 
d="M725 349q0 -76 -26.5 -141.5t-73.5 -114.5t-109 -76t-133 -27q-72 0 -134 27.5t-109 77t-73.5 114.5t-26.5 140t27 140.5t75 115t110 77.5t131 28q71 0 133.5 -28.5t109 -78.5t73 -115t26.5 -139zM658 349q0 61 -21 115.5t-59 96t-87.5 65.5t-107.5 24t-108 -23.5
t-87.5 -65.5t-59 -96.5t-21.5 -115.5t21 -115t59 -95.5t88 -65.5t108 -24t108 23.5t87.5 65t58.5 95.5t21 116zM411 768h-45l-40 133h59z" />
    <glyph glyph-name="Oacute" unicode="&#xd3;" horiz-adv-x="765" 
d="M725 349q0 -76 -26.5 -141.5t-73.5 -114.5t-109 -76t-133 -27q-72 0 -134 27.5t-109 77t-73.5 114.5t-26.5 140t27 140.5t75 115t110 77.5t131 28q71 0 133.5 -28.5t109 -78.5t73 -115t26.5 -139zM658 349q0 61 -21 115.5t-59 96t-87.5 65.5t-107.5 24t-108 -23.5
t-87.5 -65.5t-59 -96.5t-21.5 -115.5t21 -115t59 -95.5t88 -65.5t108 -24t108 23.5t87.5 65t58.5 95.5t21 116zM354 768h45l40 133h-59z" />
    <glyph glyph-name="Ocircumflex" unicode="&#xd4;" horiz-adv-x="765" 
d="M725 349q0 -76 -26.5 -141.5t-73.5 -114.5t-109 -76t-133 -27q-72 0 -134 27.5t-109 77t-73.5 114.5t-26.5 140t27 140.5t75 115t110 77.5t131 28q71 0 133.5 -28.5t109 -78.5t73 -115t26.5 -139zM658 349q0 61 -21 115.5t-59 96t-87.5 65.5t-107.5 24t-108 -23.5
t-87.5 -65.5t-59 -96.5t-21.5 -115.5t21 -115t59 -95.5t88 -65.5t108 -24t108 23.5t87.5 65t58.5 95.5t21 116zM261 769l101 111h42l101 -111h-62l-60 68l-60 -68h-62z" />
    <glyph glyph-name="Otilde" unicode="&#xd5;" horiz-adv-x="765" 
d="M725 349q0 -76 -26.5 -141.5t-73.5 -114.5t-109 -76t-133 -27q-72 0 -134 27.5t-109 77t-73.5 114.5t-26.5 140t27 140.5t75 115t110 77.5t131 28q71 0 133.5 -28.5t109 -78.5t73 -115t26.5 -139zM658 349q0 61 -21 115.5t-59 96t-87.5 65.5t-107.5 24t-108 -23.5
t-87.5 -65.5t-59 -96.5t-21.5 -115.5t21 -115t59 -95.5t88 -65.5t108 -24t108 23.5t87.5 65t58.5 95.5t21 116zM433 778q-23 0 -38 15t-27 30t-27 16q-20 0 -30.5 -18.5t-10.5 -41.5h-45q0 47 25.5 75t61.5 28q22 0 34.5 -9t20.5 -21t15.5 -21t20.5 -9q16 0 24.5 17t8.5 41
h45q0 -46 -19.5 -74t-58.5 -28z" />
    <glyph glyph-name="Odieresis" unicode="&#xd6;" horiz-adv-x="765" 
d="M725 349q0 -76 -26.5 -141.5t-73.5 -114.5t-109 -76t-133 -27q-72 0 -134 27.5t-109 77t-73.5 114.5t-26.5 140t27 140.5t75 115t110 77.5t131 28q71 0 133.5 -28.5t109 -78.5t73 -115t26.5 -139zM658 349q0 61 -21 115.5t-59 96t-87.5 65.5t-107.5 24t-108 -23.5
t-87.5 -65.5t-59 -96.5t-21.5 -115.5t21 -115t59 -95.5t88 -65.5t108 -24t108 23.5t87.5 65t58.5 95.5t21 116zM297 778q-17 0 -29.5 12.5t-12.5 29.5t12.5 29t29.5 12t29 -12t12 -29t-12 -29.5t-29 -12.5zM476 778q-17 0 -29.5 12.5t-12.5 29.5t12.5 29t29.5 12t29.5 -12
t12.5 -29t-12.5 -29.5t-29.5 -12.5z" />
    <glyph glyph-name="multiply" unicode="&#xd7;" horiz-adv-x="475" 
d="M383.021 108.81l-332.518 332.518l42.4248 42.4258l332.518 -332.518zM50.8096 150.979l332.518 332.518l42.4258 -42.4248l-332.518 -332.518z" />
    <glyph glyph-name="Oslash" unicode="&#xd8;" horiz-adv-x="765" 
d="M725 349q0 -76 -26.5 -141.5t-73.5 -114.5t-109 -76t-133 -27q-72 0 -134 27.5t-109 77t-73.5 114.5t-26.5 140t27 140.5t75 115t110 77.5t131 28q71 0 133.5 -28.5t109 -78.5t73 -115t26.5 -139zM658 349q0 61 -21 115.5t-59 96t-87.5 65.5t-107.5 24t-108 -23.5
t-87.5 -65.5t-59 -96.5t-21.5 -115.5t21 -115t59 -95.5t88 -65.5t108 -24t108 23.5t87.5 65t58.5 95.5t21 116zM651 773l-477 -847h-60l476 847h61z" />
    <glyph glyph-name="Ugrave" unicode="&#xd9;" horiz-adv-x="607" 
d="M491 700h66v-700h-66v85q-35 -41 -85 -65.5t-108 -24.5q-71 0 -129.5 33t-93.5 89t-35 126v457h65l1 -457q0 -51 26 -92.5t69.5 -66t96.5 -24.5q55 0 98.5 24.5t69 66t25.5 92.5v457zM321 768h-45l-40 133h59z" />
    <glyph glyph-name="Uacute" unicode="&#xda;" horiz-adv-x="607" 
d="M491 700h66v-700h-66v85q-35 -41 -85 -65.5t-108 -24.5q-71 0 -129.5 33t-93.5 89t-35 126v457h65l1 -457q0 -51 26 -92.5t69.5 -66t96.5 -24.5q55 0 98.5 24.5t69 66t25.5 92.5v457zM264 768h45l40 133h-59z" />
    <glyph glyph-name="Ucircumflex" unicode="&#xdb;" horiz-adv-x="607" 
d="M491 700h66v-700h-66v85q-35 -41 -85 -65.5t-108 -24.5q-71 0 -129.5 33t-93.5 89t-35 126v457h65l1 -457q0 -51 26 -92.5t69.5 -66t96.5 -24.5q55 0 98.5 24.5t69 66t25.5 92.5v457zM171 769l101 111h42l101 -111h-62l-60 68l-60 -68h-62z" />
    <glyph glyph-name="Udieresis" unicode="&#xdc;" horiz-adv-x="607" 
d="M491 700h66v-700h-66v85q-35 -41 -85 -65.5t-108 -24.5q-71 0 -129.5 33t-93.5 89t-35 126v457h65l1 -457q0 -51 26 -92.5t69.5 -66t96.5 -24.5q55 0 98.5 24.5t69 66t25.5 92.5v457zM207 778q-17 0 -29.5 12.5t-12.5 29.5t12.5 29t29.5 12t29 -12t12 -29t-12 -29.5
t-29 -12.5zM386 778q-17 0 -29.5 12.5t-12.5 29.5t12.5 29t29.5 12t29.5 -12t12.5 -29t-12.5 -29.5t-29.5 -12.5z" />
    <glyph glyph-name="Yacute" unicode="&#xdd;" horiz-adv-x="627" 
d="M587 700l-241 -465v-235h-65v235l-241 465h71l202 -396l203 396h71zM284 768h45l40 133h-59z" />
    <glyph glyph-name="Thorn" unicode="&#xde;" horiz-adv-x="521" 
d="M50 0l1 700h66v-150h189q49 0 88.5 -28t63 -73.5t23.5 -97.5q0 -36 -14.5 -71.5t-39 -64.5t-56.5 -46.5t-68 -17.5h-186v-151h-67zM117 218h186q30 0 56 20t42 51t16 62q0 36 -14 66t-39 48.5t-59 18.5h-188v-266z" />
    <glyph glyph-name="germandbls" unicode="&#xdf;" horiz-adv-x="562" 
d="M522 197q0 -48 -24.5 -93.5t-65 -74.5t-87.5 -29h-144v64h144q31 0 56 20.5t39.5 51t14.5 61.5q0 32 -13.5 60t-37.5 45.5t-56 17.5h-232v-320h-66v700h262q50 0 89 -24.5t61.5 -66t22.5 -94.5q0 -45 -15 -76.5t-49 -71.5q53 -33 77 -76.5t24 -93.5zM418 515
q0 49 -28.5 84.5t-77.5 35.5h-196v-255h192q30 0 55 19.5t40 50.5t15 65z" />
    <glyph glyph-name="agrave" unicode="&#xe0;" horiz-adv-x="504" 
d="M208 -5q-46 1 -84 17t-61 49t-23 82q0 77 44 120t122 54t180 -7v38q0 39 -23.5 61.5t-60 30.5t-77 2t-75 -25t-52.5 -49l-43 45q30 37 71.5 59t87.5 28.5t89.5 -0.5t77.5 -27q39 -20 53.5 -53t16.5 -76.5t3 -94.5l-1 -249h-66v47q-38 -26 -85.5 -39t-93.5 -13zM386 111
v146q-82 11 -146.5 5t-101 -35t-36.5 -84q0 -35 20.5 -55t53 -26.5t71 -2.5t75.5 17.5t64 34.5zM280 570h-45l-40 133h59z" />
    <glyph glyph-name="aacute" unicode="&#xe1;" horiz-adv-x="504" 
d="M208 -5q-46 1 -84 17t-61 49t-23 82q0 77 44 120t122 54t180 -7v38q0 39 -23.5 61.5t-60 30.5t-77 2t-75 -25t-52.5 -49l-43 45q30 37 71.5 59t87.5 28.5t89.5 -0.5t77.5 -27q39 -20 53.5 -53t16.5 -76.5t3 -94.5l-1 -249h-66v47q-38 -26 -85.5 -39t-93.5 -13zM386 111
v146q-82 11 -146.5 5t-101 -35t-36.5 -84q0 -35 20.5 -55t53 -26.5t71 -2.5t75.5 17.5t64 34.5zM222 570h45l40 133h-59z" />
    <glyph glyph-name="acircumflex" unicode="&#xe2;" horiz-adv-x="504" 
d="M208 -5q-46 1 -84 17t-61 49t-23 82q0 77 44 120t122 54t180 -7v38q0 39 -23.5 61.5t-60 30.5t-77 2t-75 -25t-52.5 -49l-43 45q30 37 71.5 59t87.5 28.5t89.5 -0.5t77.5 -27q39 -20 53.5 -53t16.5 -76.5t3 -94.5l-1 -249h-66v47q-38 -26 -85.5 -39t-93.5 -13zM386 111
v146q-82 11 -146.5 5t-101 -35t-36.5 -84q0 -35 20.5 -55t53 -26.5t71 -2.5t75.5 17.5t64 34.5zM129 571l101 111h42l101 -111h-62l-60 68l-60 -68h-62z" />
    <glyph glyph-name="atilde" unicode="&#xe3;" horiz-adv-x="504" 
d="M208 -5q-46 1 -84 17t-61 49t-23 82q0 77 44 120t122 54t180 -7v38q0 39 -23.5 61.5t-60 30.5t-77 2t-75 -25t-52.5 -49l-43 45q30 37 71.5 59t87.5 28.5t89.5 -0.5t77.5 -27q39 -20 53.5 -53t16.5 -76.5t3 -94.5l-1 -249h-66v47q-38 -26 -85.5 -39t-93.5 -13zM386 111
v146q-82 11 -146.5 5t-101 -35t-36.5 -84q0 -35 20.5 -55t53 -26.5t71 -2.5t75.5 17.5t64 34.5zM301 580q-23 0 -38 15t-27 30t-27 16q-20 0 -30.5 -18.5t-10.5 -41.5h-45q0 47 25.5 75t61.5 28q22 0 34.5 -9t20.5 -21t15.5 -21t20.5 -9q16 0 24.5 17t8.5 41h45
q0 -46 -19.5 -74t-58.5 -28z" />
    <glyph glyph-name="adieresis" unicode="&#xe4;" horiz-adv-x="504" 
d="M208 -5q-46 1 -84 17t-61 49t-23 82q0 77 44 120t122 54t180 -7v38q0 39 -23.5 61.5t-60 30.5t-77 2t-75 -25t-52.5 -49l-43 45q30 37 71.5 59t87.5 28.5t89.5 -0.5t77.5 -27q39 -20 53.5 -53t16.5 -76.5t3 -94.5l-1 -249h-66v47q-38 -26 -85.5 -39t-93.5 -13zM386 111
v146q-82 11 -146.5 5t-101 -35t-36.5 -84q0 -35 20.5 -55t53 -26.5t71 -2.5t75.5 17.5t64 34.5zM166 580q-17 0 -29.5 12.5t-12.5 29.5t12.5 29t29.5 12t29 -12t12 -29t-12 -29.5t-29 -12.5zM345 580q-17 0 -29.5 12.5t-12.5 29.5t12.5 29t29.5 12t29.5 -12t12.5 -29
t-12.5 -29.5t-29.5 -12.5z" />
    <glyph glyph-name="aring" unicode="&#xe5;" horiz-adv-x="504" 
d="M208 -5q-46 1 -84 17t-61 49t-23 82q0 77 44 120t122 54t180 -7v38q0 39 -23.5 61.5t-60 30.5t-77 2t-75 -25t-52.5 -49l-43 45q30 37 71.5 59t87.5 28.5t89.5 -0.5t77.5 -27q39 -20 53.5 -53t16.5 -76.5t3 -94.5l-1 -249h-66v47q-38 -26 -85.5 -39t-93.5 -13zM386 111
v146q-82 11 -146.5 5t-101 -35t-36.5 -84q0 -35 20.5 -55t53 -26.5t71 -2.5t75.5 17.5t64 34.5zM251 563q-30 0 -53 22.5t-23 53.5t23 53.5t53 22.5q32 0 54.5 -22.5t22.5 -53.5t-22.5 -53.5t-54.5 -22.5zM251 680q-17 0 -28.5 -12t-11.5 -28q0 -19 11.5 -30.5t28.5 -11.5
t29 12t12 30q0 16 -11.5 28t-29.5 12z" />
    <glyph glyph-name="ae" unicode="&#xe6;" horiz-adv-x="900" 
d="M208 -5q-46 1 -84 17t-61 49t-23 82q0 77 44 120t122 54t180 -7v38q0 39 -23.5 61.5t-60 30.5t-77 2t-75 -25t-52.5 -49l-43 45q30 37 71.5 59t87.5 28.5t89.5 -0.5t77.5 -27q39 -20 53.5 -53t16.5 -76.5t3 -94.5l-1 -249h-66v47q-38 -26 -85.5 -39t-93.5 -13zM386 111
v146q-82 11 -146.5 5t-101 -35t-36.5 -84q0 -35 20.5 -55t53 -26.5t71 -2.5t75.5 17.5t64 34.5zM857 233h-402q1 -71 35 -114t87.5 -57.5t115.5 -1.5t119 55l34 -52q-47 -36 -99 -53t-105 -19q-124 -4 -191 69t-67 203q0 112 62 177t183 65q77 0 132.5 -32t81.5 -95
q12 -29 15 -66t-1 -79zM631 443q-47 0 -87 -16t-64.5 -49.5t-24.5 -87.5h342q0 76 -45 114.5t-121 38.5z" />
    <glyph glyph-name="ccedilla" unicode="&#xe7;" horiz-adv-x="488" 
d="M447 63q-52 -46 -108.5 -61.5t-109.5 -4t-96 46t-68 88t-25 122.5q0 68 25 120t68 84t96 42t110 -5.5t109 -59.5l-40 -48q-49 39 -102 47t-98.5 -11.5t-73.5 -62.5t-28 -106q0 -67 29 -113.5t75.5 -68t99 -12.5t99.5 54zM249 -188q-22 0 -42.5 10.5t-31.5 30.5l29 22
q14 -21 38 -24t43 9.5t17 35.5q-2 25 -20.5 35t-41.5 7.5t-40 -17.5l-3 40l48 69l38 -13l-30 -42q38 1 60 -15t28.5 -40.5t-2 -49t-31.5 -41.5t-59 -17z" />
    <glyph glyph-name="egrave" unicode="&#xe8;" horiz-adv-x="562" 
d="M510 233h-402q1 -71 35 -114t87.5 -57.5t115.5 -1.5t119 55l34 -52q-47 -36 -99 -53t-105 -19q-124 -4 -191 69t-67 203q0 112 62 177t183 65q77 0 132.5 -32t81.5 -95q12 -29 15 -66t-1 -79zM284 443q-47 0 -87 -16t-64.5 -49.5t-24.5 -87.5h342q0 76 -45 114.5
t-121 38.5zM309 570h-45l-40 133h59z" />
    <glyph glyph-name="eacute" unicode="&#xe9;" horiz-adv-x="562" 
d="M510 233h-402q1 -71 35 -114t87.5 -57.5t115.5 -1.5t119 55l34 -52q-47 -36 -99 -53t-105 -19q-124 -4 -191 69t-67 203q0 112 62 177t183 65q77 0 132.5 -32t81.5 -95q12 -29 15 -66t-1 -79zM284 443q-47 0 -87 -16t-64.5 -49.5t-24.5 -87.5h342q0 76 -45 114.5
t-121 38.5zM252 570h45l40 133h-59z" />
    <glyph glyph-name="ecircumflex" unicode="&#xea;" horiz-adv-x="562" 
d="M510 233h-402q1 -71 35 -114t87.5 -57.5t115.5 -1.5t119 55l34 -52q-47 -36 -99 -53t-105 -19q-124 -4 -191 69t-67 203q0 112 62 177t183 65q77 0 132.5 -32t81.5 -95q12 -29 15 -66t-1 -79zM284 443q-47 0 -87 -16t-64.5 -49.5t-24.5 -87.5h342q0 76 -45 114.5
t-121 38.5zM159 571l101 111h42l101 -111h-62l-60 68l-60 -68h-62z" />
    <glyph glyph-name="edieresis" unicode="&#xeb;" horiz-adv-x="562" 
d="M510 233h-402q1 -71 35 -114t87.5 -57.5t115.5 -1.5t119 55l34 -52q-47 -36 -99 -53t-105 -19q-124 -4 -191 69t-67 203q0 112 62 177t183 65q77 0 132.5 -32t81.5 -95q12 -29 15 -66t-1 -79zM284 443q-47 0 -87 -16t-64.5 -49.5t-24.5 -87.5h342q0 76 -45 114.5
t-121 38.5zM195 580q-17 0 -29.5 12.5t-12.5 29.5t12.5 29t29.5 12t29 -12t12 -29t-12 -29.5t-29 -12.5zM374 580q-17 0 -29.5 12.5t-12.5 29.5t12.5 29t29.5 12t29.5 -12t12.5 -29t-12.5 -29.5t-29.5 -12.5z" />
    <glyph glyph-name="igrave" unicode="&#xec;" horiz-adv-x="196" 
d="M147 0h-64v500h64v-500zM166 568h-45l-40 133h59z" />
    <glyph glyph-name="iacute" unicode="&#xed;" horiz-adv-x="194" 
d="M114 0h-64v500h64v-500zM59 568h45l40 133h-59z" />
    <glyph glyph-name="icircumflex" unicode="&#xee;" horiz-adv-x="344" 
d="M204 0h-64v500h64v-500zM50 569l101 111h42l101 -111h-62l-60 68l-60 -68h-62z" />
    <glyph glyph-name="idieresis" unicode="&#xef;" horiz-adv-x="363" 
d="M214 0h-64v500h64v-500zM92 578q-17 0 -29.5 12.5t-12.5 29.5t12.5 29t29.5 12t29 -12t12 -29t-12 -29.5t-29 -12.5zM271 578q-17 0 -29.5 12.5t-12.5 29.5t12.5 29t29.5 12t29.5 -12t12.5 -29t-12.5 -29.5t-29.5 -12.5z" />
    <glyph glyph-name="eth" unicode="&#xf0;" horiz-adv-x="552" 
d="M271 -4q-65 1 -118 33.5t-83.5 85.5t-29.5 117q2 55 26 100t63 75.5t86.5 43t96 4t89.5 -43.5q-25 43 -53.5 83.5t-61.5 78.5l-115 -40l-17 47l100 35q-16 17 -35.5 39t-41.5 46l83 2l57 -65l111 40l17 -48l-96 -34q92 -113 128.5 -203.5t34.5 -171.5
q-2 -64 -35.5 -115.5t-87.5 -81t-118 -27.5zM272 61q44 0 83 21t63.5 58t24.5 83q1 47 -21.5 84.5t-60.5 59.5t-84 23q-47 1 -85.5 -20.5t-61.5 -58.5t-24 -82q0 -45 22.5 -83t60.5 -61t83 -24z" />
    <glyph glyph-name="ntilde" unicode="&#xf1;" horiz-adv-x="524" 
d="M484 0h-66v298q0 51 -21.5 82.5t-56 46.5t-73.5 15q-37 0 -72 -16.5t-57 -48.5t-22 -79v-298h-66v500h66v-60q25 34 66 50.5t87 15.5q57 0 106 -23t79 -69t30 -116v-298zM314 580q-23 0 -38 15t-27 30t-27 16q-20 0 -30.5 -18.5t-10.5 -41.5h-45q0 47 25.5 75t61.5 28
q22 0 34.5 -9t20.5 -21t15.5 -21t20.5 -9q16 0 24.5 17t8.5 41h45q0 -46 -19.5 -74t-58.5 -28z" />
    <glyph glyph-name="ograve" unicode="&#xf2;" horiz-adv-x="564" 
d="M282 -12q-71 0 -125.5 31.5t-85.5 88t-31 131.5q0 88 32.5 147t87.5 89t122 30q71 0 126 -30t85.5 -89t30.5 -147q0 -75 -30.5 -131.5t-85.5 -88t-126 -31.5zM282 52q57 0 97 25t60.5 67.5t20.5 94.5q0 88 -46 145t-132 57q-59 0 -98.5 -26.5t-59.5 -72t-20 -103.5
q0 -53 20 -95.5t59.5 -67t98.5 -24.5zM310 570h-45l-40 133h59z" />
    <glyph glyph-name="oacute" unicode="&#xf3;" horiz-adv-x="564" 
d="M282 -12q-71 0 -125.5 31.5t-85.5 88t-31 131.5q0 88 32.5 147t87.5 89t122 30q71 0 126 -30t85.5 -89t30.5 -147q0 -75 -30.5 -131.5t-85.5 -88t-126 -31.5zM282 52q57 0 97 25t60.5 67.5t20.5 94.5q0 88 -46 145t-132 57q-59 0 -98.5 -26.5t-59.5 -72t-20 -103.5
q0 -53 20 -95.5t59.5 -67t98.5 -24.5zM253 570h45l40 133h-59z" />
    <glyph glyph-name="ocircumflex" unicode="&#xf4;" horiz-adv-x="564" 
d="M282 -12q-71 0 -125.5 31.5t-85.5 88t-31 131.5q0 88 32.5 147t87.5 89t122 30q71 0 126 -30t85.5 -89t30.5 -147q0 -75 -30.5 -131.5t-85.5 -88t-126 -31.5zM282 52q57 0 97 25t60.5 67.5t20.5 94.5q0 88 -46 145t-132 57q-59 0 -98.5 -26.5t-59.5 -72t-20 -103.5
q0 -53 20 -95.5t59.5 -67t98.5 -24.5zM160 571l101 111h42l101 -111h-62l-60 68l-60 -68h-62z" />
    <glyph glyph-name="otilde" unicode="&#xf5;" horiz-adv-x="564" 
d="M282 -12q-71 0 -125.5 31.5t-85.5 88t-31 131.5q0 88 32.5 147t87.5 89t122 30q71 0 126 -30t85.5 -89t30.5 -147q0 -75 -30.5 -131.5t-85.5 -88t-126 -31.5zM282 52q57 0 97 25t60.5 67.5t20.5 94.5q0 88 -46 145t-132 57q-59 0 -98.5 -26.5t-59.5 -72t-20 -103.5
q0 -53 20 -95.5t59.5 -67t98.5 -24.5zM332 580q-23 0 -38 15t-27 30t-27 16q-20 0 -30.5 -18.5t-10.5 -41.5h-45q0 47 25.5 75t61.5 28q22 0 34.5 -9t20.5 -21t15.5 -21t20.5 -9q16 0 24.5 17t8.5 41h45q0 -46 -19.5 -74t-58.5 -28z" />
    <glyph glyph-name="odieresis" unicode="&#xf6;" horiz-adv-x="564" 
d="M282 -12q-71 0 -125.5 31.5t-85.5 88t-31 131.5q0 88 32.5 147t87.5 89t122 30q71 0 126 -30t85.5 -89t30.5 -147q0 -75 -30.5 -131.5t-85.5 -88t-126 -31.5zM282 52q57 0 97 25t60.5 67.5t20.5 94.5q0 88 -46 145t-132 57q-59 0 -98.5 -26.5t-59.5 -72t-20 -103.5
q0 -53 20 -95.5t59.5 -67t98.5 -24.5zM196 580q-17 0 -29.5 12.5t-12.5 29.5t12.5 29t29.5 12t29 -12t12 -29t-12 -29.5t-29 -12.5zM375 580q-17 0 -29.5 12.5t-12.5 29.5t12.5 29t29.5 12t29.5 -12t12.5 -29t-12.5 -29.5t-29.5 -12.5z" />
    <glyph glyph-name="divide" unicode="&#xf7;" horiz-adv-x="571" 
d="M520.757 270h-470.256v60h470.256v-60zM287 427q-20 0 -34 14t-14 33t14 33t34 14q19 1 33 -13.5t14 -33.5t-14 -33.5t-33 -13.5zM287 77q-20 0 -34 14t-14 33t14 33t34 14q19 1 33 -13.5t14 -33.5t-14 -33.5t-33 -13.5z" />
    <glyph glyph-name="oslash" unicode="&#xf8;" horiz-adv-x="564" 
d="M282 -12q-71 0 -125.5 31.5t-85.5 88t-31 131.5q0 88 32.5 147t87.5 89t122 30q71 0 126 -30t85.5 -89t30.5 -147q0 -75 -30.5 -131.5t-85.5 -88t-126 -31.5zM282 52q57 0 97 25t60.5 67.5t20.5 94.5q0 88 -46 145t-132 57q-59 0 -98.5 -26.5t-59.5 -72t-20 -103.5
q0 -53 20 -95.5t59.5 -67t98.5 -24.5zM472 536l-321 -572h-60l320 572h61z" />
    <glyph glyph-name="ugrave" unicode="&#xf9;" horiz-adv-x="523" 
d="M473 0h-65v57q-23 -32 -61 -48.5t-82.5 -18.5t-87.5 11t-74 40q-30 26 -46.5 65t-16.5 91v303h66v-303q0 -75 43 -110.5t110 -35.5q33 0 67.5 15.5t58 48t23.5 82.5v303h65v-500zM292 570h-45l-40 133h59z" />
    <glyph glyph-name="uacute" unicode="&#xfa;" horiz-adv-x="523" 
d="M473 0h-65v57q-23 -32 -61 -48.5t-82.5 -18.5t-87.5 11t-74 40q-30 26 -46.5 65t-16.5 91v303h66v-303q0 -75 43 -110.5t110 -35.5q33 0 67.5 15.5t58 48t23.5 82.5v303h65v-500zM235 570h45l40 133h-59z" />
    <glyph glyph-name="ucircumflex" unicode="&#xfb;" horiz-adv-x="523" 
d="M473 0h-65v57q-23 -32 -61 -48.5t-82.5 -18.5t-87.5 11t-74 40q-30 26 -46.5 65t-16.5 91v303h66v-303q0 -75 43 -110.5t110 -35.5q33 0 67.5 15.5t58 48t23.5 82.5v303h65v-500zM142 571l101 111h42l101 -111h-62l-60 68l-60 -68h-62z" />
    <glyph glyph-name="udieresis" unicode="&#xfc;" horiz-adv-x="523" 
d="M473 0h-65v57q-23 -32 -61 -48.5t-82.5 -18.5t-87.5 11t-74 40q-30 26 -46.5 65t-16.5 91v303h66v-303q0 -75 43 -110.5t110 -35.5q33 0 67.5 15.5t58 48t23.5 82.5v303h65v-500zM178 580q-17 0 -29.5 12.5t-12.5 29.5t12.5 29t29.5 12t29 -12t12 -29t-12 -29.5
t-29 -12.5zM357 580q-17 0 -29.5 12.5t-12.5 29.5t12.5 29t29.5 12t29.5 -12t12.5 -29t-12.5 -29.5t-29.5 -12.5z" />
    <glyph glyph-name="yacute" unicode="&#xfd;" horiz-adv-x="539" 
d="M112 -171v63q30 0 56.5 15t44.5 38.5t20 47.5l-193 507h72l161 -425l152 425h74l-183 -486q-20 -54 -47 -95.5t-65 -65t-92 -24.5zM241 570h45l40 133h-59z" />
    <glyph glyph-name="thorn" unicode="&#xfe;" horiz-adv-x="526" 
d="M50 -170v870h66v-229q48 31 102.5 38.5t97.5 -4.5q85 -21 127.5 -81.5t42.5 -168.5q0 -88 -45.5 -148.5t-123.5 -80.5q-48 -12 -100 -9t-101 27v-214h-66zM299 89q58 15 89.5 58t31.5 108q0 76 -27.5 122.5t-93.5 63.5q-44 10 -95.5 -3t-87.5 -37v-291q43 -20 92.5 -25.5
t90.5 4.5z" />
    <glyph glyph-name="ydieresis" unicode="&#xff;" horiz-adv-x="539" 
d="M112 -171v63q30 0 56.5 15t44.5 38.5t20 47.5l-193 507h72l161 -425l152 425h74l-183 -486q-20 -54 -47 -95.5t-65 -65t-92 -24.5zM184 580q-17 0 -29.5 12.5t-12.5 29.5t12.5 29t29.5 12t29 -12t12 -29t-12 -29.5t-29 -12.5zM363 580q-17 0 -29.5 12.5t-12.5 29.5
t12.5 29t29.5 12t29.5 -12t12.5 -29t-12.5 -29.5t-29.5 -12.5z" />
    <glyph glyph-name="Amacron" unicode="&#x100;" horiz-adv-x="645" 
d="M40 0l240 700h85l240 -700h-70l-61 180h-303l-61 -180h-70zM322 622l-132 -387h265zM448 792h-250v49h250v-49z" />
    <glyph glyph-name="amacron" unicode="&#x101;" horiz-adv-x="504" 
d="M208 -5q-46 1 -84 17t-61 49t-23 82q0 77 44 120t122 54t180 -7v38q0 39 -23.5 61.5t-60 30.5t-77 2t-75 -25t-52.5 -49l-43 45q30 37 71.5 59t87.5 28.5t89.5 -0.5t77.5 -27q39 -20 53.5 -53t16.5 -76.5t3 -94.5l-1 -249h-66v47q-38 -26 -85.5 -39t-93.5 -13zM386 111
v146q-82 11 -146.5 5t-101 -35t-36.5 -84q0 -35 20.5 -55t53 -26.5t71 -2.5t75.5 17.5t64 34.5zM376 594h-250v49h250v-49z" />
    <glyph glyph-name="Abreve" unicode="&#x102;" horiz-adv-x="645" 
d="M40 0l240 700h85l240 -700h-70l-61 180h-303l-61 -180h-70zM322 622l-132 -387h265zM321 765q-46 0 -78 33t-35 82h46q4 -32 21 -52.5t46 -20.5t47 20t22 53h45q-3 -51 -36 -83t-78 -32z" />
    <glyph glyph-name="abreve" unicode="&#x103;" horiz-adv-x="504" 
d="M208 -5q-46 1 -84 17t-61 49t-23 82q0 77 44 120t122 54t180 -7v38q0 39 -23.5 61.5t-60 30.5t-77 2t-75 -25t-52.5 -49l-43 45q30 37 71.5 59t87.5 28.5t89.5 -0.5t77.5 -27q39 -20 53.5 -53t16.5 -76.5t3 -94.5l-1 -249h-66v47q-38 -26 -85.5 -39t-93.5 -13zM386 111
v146q-82 11 -146.5 5t-101 -35t-36.5 -84q0 -35 20.5 -55t53 -26.5t71 -2.5t75.5 17.5t64 34.5zM250 567q-46 0 -78 33t-35 82h46q4 -32 21 -52.5t46 -20.5t47 20t22 53h45q-3 -51 -36 -83t-78 -32z" />
    <glyph glyph-name="Aogonek" unicode="&#x104;" horiz-adv-x="645" 
d="M40 0l240 700h85l240 -700h-70l-61 180h-303l-61 -180h-70zM322 622l-132 -387h265zM652 -151q-29 -20 -60.5 -23.5t-58 5t-40.5 25.5q-16 23 -7.5 63.5t36.5 85.5h52q-13 -14 -25 -36.5t-16 -44t7 -34.5q14 -18 40.5 -18.5t45.5 12.5z" />
    <glyph glyph-name="aogonek" unicode="&#x105;" horiz-adv-x="504" 
d="M208 -5q-46 1 -84 17t-61 49t-23 82q0 77 44 120t122 54t180 -7v38q0 39 -23.5 61.5t-60 30.5t-77 2t-75 -25t-52.5 -49l-43 45q30 37 71.5 59t87.5 28.5t89.5 -0.5t77.5 -27q39 -20 53.5 -53t16.5 -76.5t3 -94.5l-1 -249h-66v47q-38 -26 -85.5 -39t-93.5 -13zM386 111
v146q-82 11 -146.5 5t-101 -35t-36.5 -84q0 -35 20.5 -55t53 -26.5t71 -2.5t75.5 17.5t64 34.5zM527 -149q-29 -20 -60.5 -23.5t-58 5t-40.5 25.5q-16 23 -7.5 63.5t36.5 85.5h52q-13 -14 -25 -36.5t-16 -44t7 -34.5q14 -18 40.5 -18.5t45.5 12.5z" />
    <glyph glyph-name="Cacute" unicode="&#x106;" horiz-adv-x="681" 
d="M387 -10q-73 0 -135.5 28t-110.5 76t-74.5 112.5t-26.5 143.5q0 76 26.5 142t74.5 114t110.5 76t135.5 28t137.5 -29t116.5 -86l-53 -42q-41 44 -92.5 68.5t-108.5 24.5q-59 0 -109 -23t-89 -64q-38 -39 -60 -92.5t-22 -116.5q0 -64 22 -117t60 -93q39 -40 89 -63
t109 -23q57 0 108.5 24.5t92.5 68.5l53 -43q-52 -57 -116.5 -85.5t-137.5 -28.5zM353 768h45l40 133h-59z" />
    <glyph glyph-name="cacute" unicode="&#x107;" horiz-adv-x="488" 
d="M447 63q-52 -46 -108.5 -61.5t-109.5 -4t-96 46t-68 88t-25 122.5q0 68 25 120t68 84t96 42t110 -5.5t109 -59.5l-40 -48q-49 39 -102 47t-98.5 -11.5t-73.5 -62.5t-28 -106q0 -67 29 -113.5t75.5 -68t99 -12.5t99.5 54zM230 568h45l40 133h-59z" />
    <glyph glyph-name="Cdotaccent" unicode="&#x10a;" horiz-adv-x="681" 
d="M387 -10q-73 0 -135.5 28t-110.5 76t-74.5 112.5t-26.5 143.5q0 76 26.5 142t74.5 114t110.5 76t135.5 28t137.5 -29t116.5 -86l-53 -42q-41 44 -92.5 68.5t-108.5 24.5q-59 0 -109 -23t-89 -64q-38 -39 -60 -92.5t-22 -116.5q0 -64 22 -117t60 -93q39 -40 89 -63
t109 -23q57 0 108.5 24.5t92.5 68.5l53 -43q-52 -57 -116.5 -85.5t-137.5 -28.5zM382 778q-17 0 -29.5 12.5t-12.5 29.5t12.5 29t29.5 12t29 -12t12 -29t-12 -29.5t-29 -12.5z" />
    <glyph glyph-name="cdotaccent" unicode="&#x10b;" horiz-adv-x="488" 
d="M447 63q-52 -46 -108.5 -61.5t-109.5 -4t-96 46t-68 88t-25 122.5q0 68 25 120t68 84t96 42t110 -5.5t109 -59.5l-40 -48q-49 39 -102 47t-98.5 -11.5t-73.5 -62.5t-28 -106q0 -67 29 -113.5t75.5 -68t99 -12.5t99.5 54zM259 578q-17 0 -29.5 12.5t-12.5 29.5t12.5 29
t29.5 12t29 -12t12 -29t-12 -29.5t-29 -12.5z" />
    <glyph glyph-name="Ccaron" unicode="&#x10c;" horiz-adv-x="681" 
d="M387 -10q-73 0 -135.5 28t-110.5 76t-74.5 112.5t-26.5 143.5q0 76 26.5 142t74.5 114t110.5 76t135.5 28t137.5 -29t116.5 -86l-53 -42q-41 44 -92.5 68.5t-108.5 24.5q-59 0 -109 -23t-89 -64q-38 -39 -60 -92.5t-22 -116.5q0 -64 22 -117t60 -93q39 -40 89 -63
t109 -23q57 0 108.5 24.5t92.5 68.5l53 -43q-52 -57 -116.5 -85.5t-137.5 -28.5zM361 769l-101 111h62l60 -68l60 68h62l-101 -111h-42z" />
    <glyph glyph-name="ccaron" unicode="&#x10d;" horiz-adv-x="488" 
d="M447 63q-52 -46 -108.5 -61.5t-109.5 -4t-96 46t-68 88t-25 122.5q0 68 25 120t68 84t96 42t110 -5.5t109 -59.5l-40 -48q-49 39 -102 47t-98.5 -11.5t-73.5 -62.5t-28 -106q0 -67 29 -113.5t75.5 -68t99 -12.5t99.5 54zM238 569l-101 111h62l60 -68l60 68h62l-101 -111
h-42z" />
    <glyph glyph-name="Dcaron" unicode="&#x10e;" horiz-adv-x="567" 
d="M557 352q0 -73 -27 -137t-74.5 -112.5t-110 -75.5t-133.5 -27h-202v703h202q72 0 134.5 -27.5t110 -76t74 -112t26.5 -135.5zM490 352q0 59 -21 111.5t-58.5 92.5t-88 62.5t-110.5 22.5h-136v-578h136q60 0 110.5 23t88 63t58.5 92.5t21 110.5zM290 769l-101 111h62
l60 -68l60 68h62l-101 -111h-42z" />
    <glyph glyph-name="dcaron" unicode="&#x10f;" horiz-adv-x="522" 
d="M245 -2q-99 6 -152 76t-53 179q0 75 27 131.5t78.5 88.5t123.5 32q31 0 63 -3.5t75 -23.5v222h65v-700h-65v49q-29 -21 -69.5 -38t-92.5 -13zM407 105v310q-79 33 -147.5 26t-110.5 -54t-42 -134q0 -67 26 -113t69.5 -66.5t96.5 -13.5t108 45zM229 767l-101 111h62
l60 -68l60 68h62l-101 -111h-42z" />
    <glyph glyph-name="Dcroat" unicode="&#x110;" horiz-adv-x="682" 
d="M642 352q0 -73 -27 -137t-74.5 -112.5t-110 -75.5t-133.5 -27h-202v703h202q72 0 134.5 -27.5t110 -76t74 -112t26.5 -135.5zM575 352q0 59 -21 111.5t-58.5 92.5t-88 62.5t-110.5 22.5h-136v-578h136q60 0 110.5 23t88 63t58.5 92.5t21 110.5zM453 325h-420v50h420v-50z
" />
    <glyph glyph-name="dcroat" unicode="&#x111;" horiz-adv-x="529" 
d="M245 -2q-99 6 -152 76t-53 179q0 75 27 131.5t78.5 88.5t123.5 32q31 0 63 -3.5t75 -23.5v222h65v-700h-65v49q-29 -21 -69.5 -38t-92.5 -13zM407 105v310q-79 33 -147.5 26t-110.5 -54t-42 -134q0 -67 26 -113t69.5 -66.5t96.5 -13.5t108 45zM512 567h-420v50h420v-50z
" />
    <glyph glyph-name="Emacron" unicode="&#x112;" horiz-adv-x="469" 
d="M429 0h-379v700h379v-59h-313v-270h253v-57h-253v-255h313v-59zM361 792h-250v49h250v-49z" />
    <glyph glyph-name="emacron" unicode="&#x113;" horiz-adv-x="562" 
d="M510 233h-402q1 -71 35 -114t87.5 -57.5t115.5 -1.5t119 55l34 -52q-47 -36 -99 -53t-105 -19q-124 -4 -191 69t-67 203q0 112 62 177t183 65q77 0 132.5 -32t81.5 -95q12 -29 15 -66t-1 -79zM284 443q-47 0 -87 -16t-64.5 -49.5t-24.5 -87.5h342q0 76 -45 114.5
t-121 38.5zM406 594h-250v49h250v-49z" />
    <glyph glyph-name="Edotaccent" unicode="&#x116;" horiz-adv-x="469" 
d="M429 0h-379v700h379v-59h-313v-270h253v-57h-253v-255h313v-59zM236 778q-17 0 -29.5 12.5t-12.5 29.5t12.5 29t29.5 12t29 -12t12 -29t-12 -29.5t-29 -12.5z" />
    <glyph glyph-name="edotaccent" unicode="&#x117;" horiz-adv-x="562" 
d="M510 233h-402q1 -71 35 -114t87.5 -57.5t115.5 -1.5t119 55l34 -52q-47 -36 -99 -53t-105 -19q-124 -4 -191 69t-67 203q0 112 62 177t183 65q77 0 132.5 -32t81.5 -95q12 -29 15 -66t-1 -79zM284 443q-47 0 -87 -16t-64.5 -49.5t-24.5 -87.5h342q0 76 -45 114.5
t-121 38.5zM281 580q-17 0 -29.5 12.5t-12.5 29.5t12.5 29t29.5 12t29 -12t12 -29t-12 -29.5t-29 -12.5z" />
    <glyph glyph-name="Eogonek" unicode="&#x118;" horiz-adv-x="469" 
d="M429 0h-379v700h379v-59h-313v-270h253v-57h-253v-255h313v-59zM493 -149q-29 -20 -60.5 -23.5t-58 5t-40.5 25.5q-16 23 -7.5 63.5t36.5 85.5h52q-13 -14 -25 -36.5t-16 -44t7 -34.5q14 -18 40.5 -18.5t45.5 12.5z" />
    <glyph glyph-name="eogonek" unicode="&#x119;" horiz-adv-x="562" 
d="M510 233h-402q1 -71 35 -114t87.5 -57.5t115.5 -1.5t119 55l34 -52q-47 -36 -99 -53t-105 -19q-124 -4 -191 69t-67 203q0 112 62 177t183 65q77 0 132.5 -32t81.5 -95q12 -29 15 -66t-1 -79zM284 443q-47 0 -87 -16t-64.5 -49.5t-24.5 -87.5h342q0 76 -45 114.5
t-121 38.5zM556 -149q-29 -20 -60.5 -23.5t-58 5t-40.5 25.5q-16 23 -7.5 63.5t36.5 85.5h52q-13 -14 -25 -36.5t-16 -44t7 -34.5q14 -18 40.5 -18.5t45.5 12.5z" />
    <glyph glyph-name="Ecaron" unicode="&#x11a;" horiz-adv-x="469" 
d="M429 0h-379v700h379v-59h-313v-270h253v-57h-253v-255h313v-59zM215 769l-101 111h62l60 -68l60 68h62l-101 -111h-42z" />
    <glyph glyph-name="ecaron" unicode="&#x11b;" horiz-adv-x="562" 
d="M510 233h-402q1 -71 35 -114t87.5 -57.5t115.5 -1.5t119 55l34 -52q-47 -36 -99 -53t-105 -19q-124 -4 -191 69t-67 203q0 112 62 177t183 65q77 0 132.5 -32t81.5 -95q12 -29 15 -66t-1 -79zM284 443q-47 0 -87 -16t-64.5 -49.5t-24.5 -87.5h342q0 76 -45 114.5
t-121 38.5zM260 571l-101 111h62l60 -68l60 68h62l-101 -111h-42z" />
    <glyph glyph-name="Gbreve" unicode="&#x11e;" horiz-adv-x="717" 
d="M385 -11q-71 0 -133.5 28t-110 76.5t-74.5 113t-27 137.5q0 76 27 142.5t74.5 116.5t110 78.5t133.5 28.5q83 0 155.5 -37.5t123.5 -107.5l-58 -37q-41 56 -98 84.5t-123 28.5q-60 0 -110.5 -23.5t-87.5 -65t-57.5 -95t-20.5 -113.5q0 -58 21 -110t59 -92.5t88 -63.5
t108 -23q78 0 131 24t92 85v98h-126v65h195v-179q-42 -82 -113 -120.5t-179 -38.5zM379 765q-46 0 -78 33t-35 82h46q4 -32 21 -52.5t46 -20.5t47 20t22 53h45q-3 -51 -36 -83t-78 -32z" />
    <glyph glyph-name="gbreve" unicode="&#x11f;" horiz-adv-x="527" 
d="M272 -204q-43 0 -83.5 15.5t-73.5 40.5l41 48q29 -19 64 -29.5t69 -10t61 14.5t41 43q12 25 15.5 50t3.5 65q-63 -36 -127.5 -35.5t-118.5 30.5t-88 84.5t-36 126.5q-3 86 27 145t83 89.5t120.5 31t139.5 -31.5v27h67v-494q0 -98 -50 -154t-155 -56zM106 239
q1 -57 28.5 -96.5t72 -58.5t98 -15.5t105.5 31.5v306q-90 37 -159 31.5t-108 -55t-37 -143.5zM264 567q-46 0 -78 33t-35 82h46q4 -32 21 -52.5t46 -20.5t47 20t22 53h45q-3 -51 -36 -83t-78 -32z" />
    <glyph glyph-name="Gdotaccent" unicode="&#x120;" horiz-adv-x="717" 
d="M385 -11q-71 0 -133.5 28t-110 76.5t-74.5 113t-27 137.5q0 76 27 142.5t74.5 116.5t110 78.5t133.5 28.5q83 0 155.5 -37.5t123.5 -107.5l-58 -37q-41 56 -98 84.5t-123 28.5q-60 0 -110.5 -23.5t-87.5 -65t-57.5 -95t-20.5 -113.5q0 -58 21 -110t59 -92.5t88 -63.5
t108 -23q78 0 131 24t92 85v98h-126v65h195v-179q-42 -82 -113 -120.5t-179 -38.5zM381 778q-17 0 -29.5 12.5t-12.5 29.5t12.5 29t29.5 12t29 -12t12 -29t-12 -29.5t-29 -12.5z" />
    <glyph glyph-name="gdotaccent" unicode="&#x121;" horiz-adv-x="527" 
d="M272 -204q-43 0 -83.5 15.5t-73.5 40.5l41 48q29 -19 64 -29.5t69 -10t61 14.5t41 43q12 25 15.5 50t3.5 65q-63 -36 -127.5 -35.5t-118.5 30.5t-88 84.5t-36 126.5q-3 86 27 145t83 89.5t120.5 31t139.5 -31.5v27h67v-494q0 -98 -50 -154t-155 -56zM106 239
q1 -57 28.5 -96.5t72 -58.5t98 -15.5t105.5 31.5v306q-90 37 -159 31.5t-108 -55t-37 -143.5zM265 580q-17 0 -29.5 12.5t-12.5 29.5t12.5 29t29.5 12t29 -12t12 -29t-12 -29.5t-29 -12.5z" />
    <glyph glyph-name="uni0122" unicode="&#x122;" horiz-adv-x="717" 
d="M385 -11q-71 0 -133.5 28t-110 76.5t-74.5 113t-27 137.5q0 76 27 142.5t74.5 116.5t110 78.5t133.5 28.5q83 0 155.5 -37.5t123.5 -107.5l-58 -37q-41 56 -98 84.5t-123 28.5q-60 0 -110.5 -23.5t-87.5 -65t-57.5 -95t-20.5 -113.5q0 -58 21 -110t59 -92.5t88 -63.5
t108 -23q78 0 131 24t92 85v98h-126v65h195v-179q-42 -82 -113 -120.5t-179 -38.5zM331.256 -71.0957q0 18.1191 12.5107 31.0605q12.5107 12.9424 32.3545 12.9424q17.2559 0 29.7666 -14.2363q12.5107 -14.2354 11.6475 -32.3545q-0.863281 -9.49023 -6.90234 -29.335
t-15.0986 -42.708q-9.05957 -22.8643 -16.8252 -42.2773q-7.76465 -19.4121 -12.0781 -27.1777l-21.5703 9.49023q3.45117 6.04004 9.49023 22.002q6.04004 15.9609 11.6484 34.9434q5.60742 18.9805 8.19629 35.374q-18.9814 0 -31.0605 12.5107
q-12.0791 12.5098 -12.0791 29.7656z" />
    <glyph glyph-name="uni0123" unicode="&#x123;" horiz-adv-x="527" 
d="M272 -204q-43 0 -83.5 15.5t-73.5 40.5l41 48q29 -19 64 -29.5t69 -10t61 14.5t41 43q12 25 15.5 50t3.5 65q-63 -36 -127.5 -35.5t-118.5 30.5t-88 84.5t-36 126.5q-3 86 27 145t83 89.5t120.5 31t139.5 -31.5v27h67v-494q0 -98 -50 -154t-155 -56zM106 239
q1 -57 28.5 -96.5t72 -58.5t98 -15.5t105.5 31.5v306q-90 37 -159 31.5t-108 -55t-37 -143.5zM306.744 627.096q0 -18.1191 -12.5107 -31.0605q-12.5107 -12.9424 -32.3545 -12.9424q-17.2559 0 -29.7666 14.2363q-12.5107 14.2354 -11.6475 32.3545
q0.863281 9.49023 6.90234 29.335t15.0986 42.708q9.05957 22.8643 16.8252 42.2773q7.76465 19.4121 12.0781 27.1777l21.5703 -9.49023q-3.45117 -6.04004 -9.49023 -22.002q-6.04004 -15.9609 -11.6484 -34.9434q-5.60742 -18.9805 -8.19629 -35.374
q18.9814 0 31.0605 -12.5107q12.0791 -12.5098 12.0791 -29.7656z" />
    <glyph glyph-name="Hbar" unicode="&#x126;" horiz-adv-x="701" 
d="M602 0h-66v312h-371v-312h-66v700h66v-334h371v334h66v-700zM651 555h-601v50h601v-50z" />
    <glyph glyph-name="hbar" unicode="&#x127;" horiz-adv-x="565" 
d="M526 0h-66v301q0 74 -42 108t-109 34q-37 0 -70.5 -15t-55 -39t-21.5 -49v-340h-66v700h66v-257q28 34 71 48t79 14q100 -3 157 -54t57 -150v-301zM460 564h-420v50h420v-50z" />
    <glyph glyph-name="Imacron" unicode="&#x12a;" horiz-adv-x="305" 
d="M186 0h-66v700h66v-700zM254.802 792h-205.001v49h205.001v-49z" />
    <glyph glyph-name="imacron" unicode="&#x12b;" horiz-adv-x="305" 
d="M185 0h-64v500h64v-500zM254.802 592h-205.001v49h205.001v-49z" />
    <glyph glyph-name="Iogonek" unicode="&#x12e;" horiz-adv-x="166" 
d="M116 0h-66v700h66v-700zM188 -149q-29 -20 -60.5 -23.5t-58 5t-40.5 25.5q-16 23 -7.5 63.5t36.5 85.5h52q-13 -14 -25 -36.5t-16 -44t7 -34.5q14 -18 40.5 -18.5t45.5 12.5z" />
    <glyph glyph-name="iogonek" unicode="&#x12f;" horiz-adv-x="283" 
d="M140 0h-64v500h64v-500zM131 578q-17 0 -29.5 12.5t-12.5 29.5t12.5 29t29.5 12t29 -12t12 -29t-12 -29.5t-29 -12.5zM273 -149q-29 -20 -60.5 -23.5t-58 5t-40.5 25.5q-16 23 -7.5 63.5t36.5 85.5h52q-13 -14 -25 -36.5t-16 -44t7 -34.5q14 -18 40.5 -18.5t45.5 12.5z
" />
    <glyph glyph-name="Idotaccent" unicode="&#x130;" horiz-adv-x="186" 
d="M126 0h-66v700h66v-700zM125 778q-17 0 -29.5 12.5t-12.5 29.5t12.5 29t29.5 12t29 -12t12 -29t-12 -29.5t-29 -12.5z" />
    <glyph glyph-name="dotlessi" unicode="&#x131;" horiz-adv-x="164" 
d="M114 0h-64v500h64v-500z" />
    <glyph glyph-name="uni0136" unicode="&#x136;" horiz-adv-x="538" 
d="M498 0h-77l-264 302l-42 -35v-267h-65v701h65v-344l300 345h83l-295 -346zM239.256 -71.0957q0 18.1191 12.5107 31.0605q12.5107 12.9424 32.3545 12.9424q17.2559 0 29.7666 -14.2363q12.5107 -14.2354 11.6475 -32.3545q-0.863281 -9.49023 -6.90234 -29.335
t-15.0986 -42.708q-9.05957 -22.8643 -16.8252 -42.2773q-7.76465 -19.4121 -12.0781 -27.1777l-21.5703 9.49023q3.45117 6.04004 9.49023 22.002q6.04004 15.9609 11.6484 34.9434q5.60742 18.9805 8.19629 35.374q-18.9814 0 -31.0605 12.5107
q-12.0791 12.5098 -12.0791 29.7656z" />
    <glyph glyph-name="uni0137" unicode="&#x137;" horiz-adv-x="439" 
d="M50 0v700h66v-378l182 168h93l-211 -202l219 -288h-77l-194 244l-12 -14v-230h-66zM161.256 -71.0957q0 18.1191 12.5107 31.0605q12.5107 12.9424 32.3545 12.9424q17.2559 0 29.7666 -14.2363q12.5107 -14.2354 11.6475 -32.3545q-0.863281 -9.49023 -6.90234 -29.335
t-15.0986 -42.708q-9.05957 -22.8643 -16.8252 -42.2773q-7.76465 -19.4121 -12.0781 -27.1777l-21.5703 9.49023q3.45117 6.04004 9.49023 22.002q6.04004 15.9609 11.6484 34.9434q5.60742 18.9805 8.19629 35.374q-18.9814 0 -31.0605 12.5107
q-12.0791 12.5098 -12.0791 29.7656z" />
    <glyph glyph-name="Lacute" unicode="&#x139;" horiz-adv-x="417" 
d="M377 0h-325v700h66v-638h259v-62zM181 768h45l40 133h-59z" />
    <glyph glyph-name="lacute" unicode="&#x13a;" horiz-adv-x="166" 
d="M116 0h-66v700h66v-700zM54 768h45l40 133h-59z" />
    <glyph glyph-name="uni013B" unicode="&#x13b;" horiz-adv-x="417" 
d="M377 0h-325v700h66v-638h259v-62zM161.256 -71.0957q0 18.1191 12.5107 31.0605q12.5107 12.9424 32.3545 12.9424q17.2559 0 29.7666 -14.2363q12.5107 -14.2354 11.6475 -32.3545q-0.863281 -9.49023 -6.90234 -29.335t-15.0986 -42.708
q-9.05957 -22.8643 -16.8252 -42.2773q-7.76465 -19.4121 -12.0781 -27.1777l-21.5703 9.49023q3.45117 6.04004 9.49023 22.002q6.04004 15.9609 11.6484 34.9434q5.60742 18.9805 8.19629 35.374q-18.9814 0 -31.0605 12.5107q-12.0791 12.5098 -12.0791 29.7656z" />
    <glyph glyph-name="uni013C" unicode="&#x13c;" horiz-adv-x="188" 
d="M130 0h-66v700h66v-700zM51.2559 -71.0957q0 18.1191 12.5107 31.0605q12.5107 12.9424 32.3545 12.9424q17.2559 0 29.7666 -14.2363q12.5107 -14.2354 11.6475 -32.3545q-0.863281 -9.49023 -6.90234 -29.335t-15.0986 -42.708q-9.05957 -22.8643 -16.8252 -42.2773
q-7.76465 -19.4121 -12.0781 -27.1777l-21.5703 9.49023q3.45117 6.04004 9.49023 22.002q6.04004 15.9609 11.6484 34.9434q5.60742 18.9805 8.19629 35.374q-18.9814 0 -31.0605 12.5107q-12.0791 12.5098 -12.0791 29.7656z" />
    <glyph glyph-name="Lcaron" unicode="&#x13d;" horiz-adv-x="417" 
d="M377 0h-325v700h66v-638h259v-62zM189 769l-101 111h62l60 -68l60 68h62l-101 -111h-42z" />
    <glyph glyph-name="lcaron" unicode="&#x13e;" horiz-adv-x="344" 
d="M205 0h-66v700h66v-700zM151 769l-101 111h62l60 -68l60 68h62l-101 -111h-42z" />
    <glyph glyph-name="Lslash" unicode="&#x141;" horiz-adv-x="547" 
d="M507 0h-325v293l-70 -90h-60l130 167v330h66v-246l65 83h60l-125 -160v-315h259v-62z" />
    <glyph glyph-name="lslash" unicode="&#x142;" horiz-adv-x="398" 
d="M235 0h-65v308l-61 -78h-59l120 155v315h65v-231l53 68h60l-113 -145v-392z" />
    <glyph glyph-name="Nacute" unicode="&#x143;" horiz-adv-x="625" 
d="M575 0h-96l-363 630v-629h-66v701h99l361 -625v625h65v-702zM284 768h45l40 133h-59z" />
    <glyph glyph-name="nacute" unicode="&#x144;" horiz-adv-x="524" 
d="M484 0h-66v298q0 51 -21.5 82.5t-56 46.5t-73.5 15q-37 0 -72 -16.5t-57 -48.5t-22 -79v-298h-66v500h66v-60q25 34 66 50.5t87 15.5q57 0 106 -23t79 -69t30 -116v-298zM236 570h45l40 133h-59z" />
    <glyph glyph-name="uni0145" unicode="&#x145;" horiz-adv-x="625" 
d="M575 0h-96l-363 630v-629h-66v701h99l361 -625v625h65v-702zM263.256 -71.0957q0 18.1191 12.5107 31.0605q12.5107 12.9424 32.3545 12.9424q17.2559 0 29.7666 -14.2363q12.5107 -14.2354 11.6475 -32.3545q-0.863281 -9.49023 -6.90234 -29.335t-15.0986 -42.708
q-9.05957 -22.8643 -16.8252 -42.2773q-7.76465 -19.4121 -12.0781 -27.1777l-21.5703 9.49023q3.45117 6.04004 9.49023 22.002q6.04004 15.9609 11.6484 34.9434q5.60742 18.9805 8.19629 35.374q-18.9814 0 -31.0605 12.5107q-12.0791 12.5098 -12.0791 29.7656z" />
    <glyph glyph-name="uni0146" unicode="&#x146;" horiz-adv-x="524" 
d="M484 0h-66v298q0 51 -21.5 82.5t-56 46.5t-73.5 15q-37 0 -72 -16.5t-57 -48.5t-22 -79v-298h-66v500h66v-60q25 34 66 50.5t87 15.5q57 0 106 -23t79 -69t30 -116v-298zM215.256 -71.0957q0 18.1191 12.5107 31.0605q12.5107 12.9424 32.3545 12.9424
q17.2559 0 29.7666 -14.2363q12.5107 -14.2354 11.6475 -32.3545q-0.863281 -9.49023 -6.90234 -29.335t-15.0986 -42.708q-9.05957 -22.8643 -16.8252 -42.2773q-7.76465 -19.4121 -12.0781 -27.1777l-21.5703 9.49023q3.45117 6.04004 9.49023 22.002
q6.04004 15.9609 11.6484 34.9434q5.60742 18.9805 8.19629 35.374q-18.9814 0 -31.0605 12.5107q-12.0791 12.5098 -12.0791 29.7656z" />
    <glyph glyph-name="Ncaron" unicode="&#x147;" horiz-adv-x="625" 
d="M575 0h-96l-363 630v-629h-66v701h99l361 -625v625h65v-702zM292 769l-101 111h62l60 -68l60 68h62l-101 -111h-42z" />
    <glyph glyph-name="ncaron" unicode="&#x148;" horiz-adv-x="524" 
d="M484 0h-66v298q0 51 -21.5 82.5t-56 46.5t-73.5 15q-37 0 -72 -16.5t-57 -48.5t-22 -79v-298h-66v500h66v-60q25 34 66 50.5t87 15.5q57 0 106 -23t79 -69t30 -116v-298zM244 571l-101 111h62l60 -68l60 68h62l-101 -111h-42z" />
    <glyph glyph-name="Eng" unicode="&#x14a;" horiz-adv-x="625" 
d="M409 -151v59q41 0 63 3.5t29.5 22.5t7.5 64v2h-30l-363 630v-629h-66v701h99l361 -625v625h65v-645v0v-59q2 -64 -14 -96.5t-53 -43t-99 -9.5z" />
    <glyph glyph-name="eng" unicode="&#x14b;" horiz-adv-x="526" 
d="M330 -146v61q46 7 67 25.5t21 57.5v300q0 51 -21.5 82.5t-56 46.5t-73.5 15q-37 0 -72 -16.5t-57 -48.5t-22 -79v-298h-66v500h66v-60q25 34 66 50.5t87 15.5q57 0 106 -23t79 -69t30 -116v-300q0 -66 -40 -100.5t-114 -43.5z" />
    <glyph glyph-name="Omacron" unicode="&#x14c;" horiz-adv-x="765" 
d="M725 349q0 -76 -26.5 -141.5t-73.5 -114.5t-109 -76t-133 -27q-72 0 -134 27.5t-109 77t-73.5 114.5t-26.5 140t27 140.5t75 115t110 77.5t131 28q71 0 133.5 -28.5t109 -78.5t73 -115t26.5 -139zM658 349q0 61 -21 115.5t-59 96t-87.5 65.5t-107.5 24t-108 -23.5
t-87.5 -65.5t-59 -96.5t-21.5 -115.5t21 -115t59 -95.5t88 -65.5t108 -24t108 23.5t87.5 65t58.5 95.5t21 116zM508 792h-250v49h250v-49z" />
    <glyph glyph-name="omacron" unicode="&#x14d;" horiz-adv-x="564" 
d="M282 -12q-71 0 -125.5 31.5t-85.5 88t-31 131.5q0 88 32.5 147t87.5 89t122 30q71 0 126 -30t85.5 -89t30.5 -147q0 -75 -30.5 -131.5t-85.5 -88t-126 -31.5zM282 52q57 0 97 25t60.5 67.5t20.5 94.5q0 88 -46 145t-132 57q-59 0 -98.5 -26.5t-59.5 -72t-20 -103.5
q0 -53 20 -95.5t59.5 -67t98.5 -24.5zM407 594h-250v49h250v-49z" />
    <glyph glyph-name="Ohungarumlaut" unicode="&#x150;" horiz-adv-x="765" 
d="M725 349q0 -76 -26.5 -141.5t-73.5 -114.5t-109 -76t-133 -27q-72 0 -134 27.5t-109 77t-73.5 114.5t-26.5 140t27 140.5t75 115t110 77.5t131 28q71 0 133.5 -28.5t109 -78.5t73 -115t26.5 -139zM658 349q0 61 -21 115.5t-59 96t-87.5 65.5t-107.5 24t-108 -23.5
t-87.5 -65.5t-59 -96.5t-21.5 -115.5t21 -115t59 -95.5t88 -65.5t108 -24t108 23.5t87.5 65t58.5 95.5t21 116zM289 768h45l40 133h-59zM390 769h45l40 133h-59z" />
    <glyph glyph-name="ohungarumlaut" unicode="&#x151;" horiz-adv-x="564" 
d="M282 -12q-71 0 -125.5 31.5t-85.5 88t-31 131.5q0 88 32.5 147t87.5 89t122 30q71 0 126 -30t85.5 -89t30.5 -147q0 -75 -30.5 -131.5t-85.5 -88t-126 -31.5zM282 52q57 0 97 25t60.5 67.5t20.5 94.5q0 88 -46 145t-132 57q-59 0 -98.5 -26.5t-59.5 -72t-20 -103.5
q0 -53 20 -95.5t59.5 -67t98.5 -24.5zM188 570h45l40 133h-59zM289 571h45l40 133h-59z" />
    <glyph glyph-name="OE" unicode="&#x152;" horiz-adv-x="1076" 
d="M725 349q0 -76 -26.5 -141.5t-73.5 -114.5t-109 -76t-133 -27q-72 0 -134 27.5t-109 77t-73.5 114.5t-26.5 140t27 140.5t75 115t110 77.5t131 28q71 0 133.5 -28.5t109 -78.5t73 -115t26.5 -139zM658 349q0 61 -21 115.5t-59 96t-87.5 65.5t-107.5 24t-108 -23.5
t-87.5 -65.5t-59 -96.5t-21.5 -115.5t21 -115t59 -95.5t88 -65.5t108 -24t108 23.5t87.5 65t58.5 95.5t21 116zM1037 0h-379v700h379v-59h-313v-270h253v-57h-253v-255h313v-59z" />
    <glyph glyph-name="oe" unicode="&#x153;" horiz-adv-x="973" 
d="M282 -12q-71 0 -125.5 31.5t-85.5 88t-31 131.5q0 88 32.5 147t87.5 89t122 30q71 0 126 -30t85.5 -89t30.5 -147q0 -75 -30.5 -131.5t-85.5 -88t-126 -31.5zM282 52q57 0 97 25t60.5 67.5t20.5 94.5q0 88 -46 145t-132 57q-59 0 -98.5 -26.5t-59.5 -72t-20 -103.5
q0 -53 20 -95.5t59.5 -67t98.5 -24.5zM931 233h-402q1 -71 35 -114t87.5 -57.5t115.5 -1.5t119 55l34 -52q-47 -36 -99 -53t-105 -19q-124 -4 -191 69t-67 203q0 112 62 177t183 65q77 0 132.5 -32t81.5 -95q12 -29 15 -66t-1 -79zM705 443q-47 0 -87 -16t-64.5 -49.5
t-24.5 -87.5h342q0 76 -45 114.5t-121 38.5z" />
    <glyph glyph-name="Racute" unicode="&#x154;" horiz-adv-x="549" 
d="M509 0h-78l-186 302h-129v-302h-66l1 700h269q46 0 85.5 -27.5t63.5 -73t24 -98.5q0 -48 -23 -92t-61.5 -73t-87.5 -32zM427 501q0 33 -14 63.5t-38.5 50t-56.5 19.5h-202v-266h200q30 0 55 21t40.5 51.5t15.5 60.5zM246 768h45l40 133h-59z" />
    <glyph glyph-name="racute" unicode="&#x155;" horiz-adv-x="346" 
d="M50 0v492h65v-49q32 36 78.5 47t122.5 -10l-29 -59q-48 17 -87 4.5t-62 -41.5t-23 -60v-324h-65zM168 568h45l40 133h-59z" />
    <glyph glyph-name="uni0156" unicode="&#x156;" horiz-adv-x="549" 
d="M509 0h-78l-186 302h-129v-302h-66l1 700h269q46 0 85.5 -27.5t63.5 -73t24 -98.5q0 -48 -23 -92t-61.5 -73t-87.5 -32zM427 501q0 33 -14 63.5t-38.5 50t-56.5 19.5h-202v-266h200q30 0 55 21t40.5 51.5t15.5 60.5zM226.256 -71.0957q0 18.1191 12.5107 31.0605
q12.5107 12.9424 32.3545 12.9424q17.2559 0 29.7666 -14.2363q12.5107 -14.2354 11.6475 -32.3545q-0.863281 -9.49023 -6.90234 -29.335t-15.0986 -42.708q-9.05957 -22.8643 -16.8252 -42.2773q-7.76465 -19.4121 -12.0781 -27.1777l-21.5703 9.49023
q3.45117 6.04004 9.49023 22.002q6.04004 15.9609 11.6484 34.9434q5.60742 18.9805 8.19629 35.374q-18.9814 0 -31.0605 12.5107q-12.0791 12.5098 -12.0791 29.7656z" />
    <glyph glyph-name="uni0157" unicode="&#x157;" horiz-adv-x="346" 
d="M50 0v492h65v-49q32 36 78.5 47t122.5 -10l-29 -59q-48 17 -87 4.5t-62 -41.5t-23 -60v-324h-65zM148.256 -71.0957q0 18.1191 12.5107 31.0605q12.5107 12.9424 32.3545 12.9424q17.2559 0 29.7666 -14.2363q12.5107 -14.2354 11.6475 -32.3545
q-0.863281 -9.49023 -6.90234 -29.335t-15.0986 -42.708q-9.05957 -22.8643 -16.8252 -42.2773q-7.76465 -19.4121 -12.0781 -27.1777l-21.5703 9.49023q3.45117 6.04004 9.49023 22.002q6.04004 15.9609 11.6484 34.9434q5.60742 18.9805 8.19629 35.374
q-18.9814 0 -31.0605 12.5107q-12.0791 12.5098 -12.0791 29.7656z" />
    <glyph glyph-name="Rcaron" unicode="&#x158;" horiz-adv-x="549" 
d="M509 0h-78l-186 302h-129v-302h-66l1 700h269q46 0 85.5 -27.5t63.5 -73t24 -98.5q0 -48 -23 -92t-61.5 -73t-87.5 -32zM427 501q0 33 -14 63.5t-38.5 50t-56.5 19.5h-202v-266h200q30 0 55 21t40.5 51.5t15.5 60.5zM254 769l-101 111h62l60 -68l60 68h62l-101 -111h-42z
" />
    <glyph glyph-name="rcaron" unicode="&#x159;" horiz-adv-x="346" 
d="M50 0v492h65v-49q32 36 78.5 47t122.5 -10l-29 -59q-48 17 -87 4.5t-62 -41.5t-23 -60v-324h-65zM176 569l-101 111h62l60 -68l60 68h62l-101 -111h-42z" />
    <glyph glyph-name="Sacute" unicode="&#x15a;" horiz-adv-x="541" 
d="M269 -8q-65 0 -126 24t-103 59l51 47q41 -29 88 -46.5t88 -17.5q45 0 82.5 17t60.5 48.5t24 73.5q1 53 -37.5 84t-125.5 52q-65 16 -114.5 42.5t-76.5 66.5t-23 97q5 79 65 122t161 43q47 0 99 -10t95 -32l-42 -56q-36 15 -74 24t-77 9q-40 0 -76 -10.5t-59 -34
t-23 -63.5q0 -39 21 -63.5t57 -40t80 -27.5q71 -19 119.5 -41.5t73 -60t24.5 -101.5q0 -59 -32 -105t-84.5 -73t-115.5 -27zM238 768h45l40 133h-59z" />
    <glyph glyph-name="sacute" unicode="&#x15b;" horiz-adv-x="415" 
d="M40 54l39 44q33 -24 65.5 -36.5t64.5 -11.5q20 0 38.5 6t35.5 18q21 16 29 40t-1 47q-8 23 -29.5 37t-50 24t-58.5 19.5t-57 24.5q-47 27 -62.5 65t-4.5 75.5t44.5 64.5t84.5 32t101 -9t78 -40l-41 -41q-28 16 -59.5 24.5t-59.5 8.5q-35 -1 -59.5 -17t-27.5 -49
q-4 -31 16.5 -49t58 -31t84.5 -29q56 -20 85.5 -61t15.5 -102q-9 -50 -45.5 -78.5t-87 -35t-103 8t-94.5 51.5zM169 568h45l40 133h-59z" />
    <glyph glyph-name="Scedilla" unicode="&#x15e;" horiz-adv-x="541" 
d="M269 -8q-65 0 -126 24t-103 59l51 47q41 -29 88 -46.5t88 -17.5q45 0 82.5 17t60.5 48.5t24 73.5q1 53 -37.5 84t-125.5 52q-65 16 -114.5 42.5t-76.5 66.5t-23 97q5 79 65 122t161 43q47 0 99 -10t95 -32l-42 -56q-36 15 -74 24t-77 9q-40 0 -76 -10.5t-59 -34
t-23 -63.5q0 -39 21 -63.5t57 -40t80 -27.5q71 -19 119.5 -41.5t73 -60t24.5 -101.5q0 -59 -32 -105t-84.5 -73t-115.5 -27zM256 -188q-22 0 -42.5 10.5t-31.5 30.5l29 22q14 -21 38 -24t43 9.5t17 35.5q-2 25 -20.5 35t-41.5 7.5t-40 -17.5l-3 40l48 69l38 -13l-30 -42
q38 1 60 -15t28.5 -40.5t-2 -49t-31.5 -41.5t-59 -17z" />
    <glyph glyph-name="scedilla" unicode="&#x15f;" horiz-adv-x="415" 
d="M40 54l39 44q33 -24 65.5 -36.5t64.5 -11.5q20 0 38.5 6t35.5 18q21 16 29 40t-1 47q-8 23 -29.5 37t-50 24t-58.5 19.5t-57 24.5q-47 27 -62.5 65t-4.5 75.5t44.5 64.5t84.5 32t101 -9t78 -40l-41 -41q-28 16 -59.5 24.5t-59.5 8.5q-35 -1 -59.5 -17t-27.5 -49
q-4 -31 16.5 -49t58 -31t84.5 -29q56 -20 85.5 -61t15.5 -102q-9 -50 -45.5 -78.5t-87 -35t-103 8t-94.5 51.5zM188 -188q-22 0 -42.5 10.5t-31.5 30.5l29 22q14 -21 38 -24t43 9.5t17 35.5q-2 25 -20.5 35t-41.5 7.5t-40 -17.5l-3 40l48 69l38 -13l-30 -42q38 1 60 -15
t28.5 -40.5t-2 -49t-31.5 -41.5t-59 -17z" />
    <glyph glyph-name="Scaron" unicode="&#x160;" horiz-adv-x="541" 
d="M269 -8q-65 0 -126 24t-103 59l51 47q41 -29 88 -46.5t88 -17.5q45 0 82.5 17t60.5 48.5t24 73.5q1 53 -37.5 84t-125.5 52q-65 16 -114.5 42.5t-76.5 66.5t-23 97q5 79 65 122t161 43q47 0 99 -10t95 -32l-42 -56q-36 15 -74 24t-77 9q-40 0 -76 -10.5t-59 -34
t-23 -63.5q0 -39 21 -63.5t57 -40t80 -27.5q71 -19 119.5 -41.5t73 -60t24.5 -101.5q0 -59 -32 -105t-84.5 -73t-115.5 -27zM246 769l-101 111h62l60 -68l60 68h62l-101 -111h-42z" />
    <glyph glyph-name="scaron" unicode="&#x161;" horiz-adv-x="415" 
d="M40 54l39 44q33 -24 65.5 -36.5t64.5 -11.5q20 0 38.5 6t35.5 18q21 16 29 40t-1 47q-8 23 -29.5 37t-50 24t-58.5 19.5t-57 24.5q-47 27 -62.5 65t-4.5 75.5t44.5 64.5t84.5 32t101 -9t78 -40l-41 -41q-28 16 -59.5 24.5t-59.5 8.5q-35 -1 -59.5 -17t-27.5 -49
q-4 -31 16.5 -49t58 -31t84.5 -29q56 -20 85.5 -61t15.5 -102q-9 -50 -45.5 -78.5t-87 -35t-103 8t-94.5 51.5zM177 569l-101 111h62l60 -68l60 68h62l-101 -111h-42z" />
    <glyph glyph-name="uni0162" unicode="&#x162;" horiz-adv-x="596" 
d="M556 640h-225v-640h-66v640h-225v60h516v-60zM288 -188q-22 0 -42.5 10.5t-31.5 30.5l29 22q14 -21 38 -24t43 9.5t17 35.5q-2 25 -20.5 35t-41.5 7.5t-40 -17.5l-3 40l48 69l38 -13l-30 -42q38 1 60 -15t28.5 -40.5t-2 -49t-31.5 -41.5t-59 -17z" />
    <glyph glyph-name="uni0163" unicode="&#x163;" horiz-adv-x="334" 
d="M131 212v227h-91v61h91v200h66v-200h92v-61h-92v-227q0 -65 2.5 -96.5t14 -42t41.5 -10.5h27v-66h-25q-43 0 -68 8.5t-37.5 31t-16.5 65t-4 110.5zM182 -188q-22 0 -42.5 10.5t-31.5 30.5l29 22q14 -21 38 -24t43 9.5t17 35.5q-2 25 -20.5 35t-41.5 7.5t-40 -17.5l-3 40
l48 69l38 -13l-30 -42q38 1 60 -15t28.5 -40.5t-2 -49t-31.5 -41.5t-59 -17z" />
    <glyph glyph-name="Tcaron" unicode="&#x164;" horiz-adv-x="596" 
d="M556 640h-225v-640h-66v640h-225v60h516v-60zM277 769l-101 111h62l60 -68l60 68h62l-101 -111h-42z" />
    <glyph glyph-name="tcaron" unicode="&#x165;" horiz-adv-x="334" 
d="M131 212v227h-91v61h91v200h66v-200h92v-61h-92v-227q0 -65 2.5 -96.5t14 -42t41.5 -10.5h27v-66h-25q-43 0 -68 8.5t-37.5 31t-16.5 65t-4 110.5zM171 769l-101 111h62l60 -68l60 68h62l-101 -111h-42z" />
    <glyph glyph-name="Tbar" unicode="&#x166;" horiz-adv-x="596" 
d="M556 640h-225v-640h-66v640h-225v60h516v-60zM508 325h-420v50h420v-50z" />
    <glyph glyph-name="tbar" unicode="&#x167;" horiz-adv-x="349" 
d="M141 212v227h-91v61h91v200h66v-200h92v-61h-92v-227q0 -65 2.5 -96.5t14 -42t41.5 -10.5h27v-66h-25q-43 0 -68 8.5t-37.5 31t-16.5 65t-4 110.5zM308.807 275h-268.807v50h268.807v-50z" />
    <glyph glyph-name="Umacron" unicode="&#x16a;" horiz-adv-x="607" 
d="M491 700h66v-700h-66v85q-35 -41 -85 -65.5t-108 -24.5q-71 0 -129.5 33t-93.5 89t-35 126v457h65l1 -457q0 -51 26 -92.5t69.5 -66t96.5 -24.5q55 0 98.5 24.5t69 66t25.5 92.5v457zM418 792h-250v49h250v-49z" />
    <glyph glyph-name="umacron" unicode="&#x16b;" horiz-adv-x="523" 
d="M473 0h-65v57q-23 -32 -61 -48.5t-82.5 -18.5t-87.5 11t-74 40q-30 26 -46.5 65t-16.5 91v303h66v-303q0 -75 43 -110.5t110 -35.5q33 0 67.5 15.5t58 48t23.5 82.5v303h65v-500zM389 594h-250v49h250v-49z" />
    <glyph glyph-name="Uring" unicode="&#x16e;" horiz-adv-x="607" 
d="M491 700h66v-700h-66v85q-35 -41 -85 -65.5t-108 -24.5q-71 0 -129.5 33t-93.5 89t-35 126v457h65l1 -457q0 -51 26 -92.5t69.5 -66t96.5 -24.5q55 0 98.5 24.5t69 66t25.5 92.5v457zM292 761q-30 0 -53 22.5t-23 53.5t23 53.5t53 22.5q32 0 54.5 -22.5t22.5 -53.5
t-22.5 -53.5t-54.5 -22.5zM292 878q-17 0 -28.5 -12t-11.5 -28q0 -19 11.5 -30.5t28.5 -11.5t29 12t12 30q0 16 -11.5 28t-29.5 12z" />
    <glyph glyph-name="uring" unicode="&#x16f;" horiz-adv-x="523" 
d="M473 0h-65v57q-23 -32 -61 -48.5t-82.5 -18.5t-87.5 11t-74 40q-30 26 -46.5 65t-16.5 91v303h66v-303q0 -75 43 -110.5t110 -35.5q33 0 67.5 15.5t58 48t23.5 82.5v303h65v-500zM264 563q-30 0 -53 22.5t-23 53.5t23 53.5t53 22.5q32 0 54.5 -22.5t22.5 -53.5
t-22.5 -53.5t-54.5 -22.5zM264 680q-17 0 -28.5 -12t-11.5 -28q0 -19 11.5 -30.5t28.5 -11.5t29 12t12 30q0 16 -11.5 28t-29.5 12z" />
    <glyph glyph-name="Uhungarumlaut" unicode="&#x170;" horiz-adv-x="607" 
d="M491 700h66v-700h-66v85q-35 -41 -85 -65.5t-108 -24.5q-71 0 -129.5 33t-93.5 89t-35 126v457h65l1 -457q0 -51 26 -92.5t69.5 -66t96.5 -24.5q55 0 98.5 24.5t69 66t25.5 92.5v457zM199 768h45l40 133h-59zM300 769h45l40 133h-59z" />
    <glyph glyph-name="uhungarumlaut" unicode="&#x171;" horiz-adv-x="523" 
d="M473 0h-65v57q-23 -32 -61 -48.5t-82.5 -18.5t-87.5 11t-74 40q-30 26 -46.5 65t-16.5 91v303h66v-303q0 -75 43 -110.5t110 -35.5q33 0 67.5 15.5t58 48t23.5 82.5v303h65v-500zM170 570h45l40 133h-59zM271 571h45l40 133h-59z" />
    <glyph glyph-name="Uogonek" unicode="&#x172;" horiz-adv-x="607" 
d="M491 700h66v-700h-66v85q-35 -41 -85 -65.5t-108 -24.5q-71 0 -129.5 33t-93.5 89t-35 126v457h65l1 -457q0 -51 26 -92.5t69.5 -66t96.5 -24.5q55 0 98.5 24.5t69 66t25.5 92.5v457zM581 -148q-29 -20 -60.5 -23.5t-58 5t-40.5 25.5q-16 23 -7.5 63.5t36.5 85.5h52
q-13 -14 -25 -36.5t-16 -44t7 -34.5q14 -18 40.5 -18.5t45.5 12.5z" />
    <glyph glyph-name="uogonek" unicode="&#x173;" horiz-adv-x="523" 
d="M473 0h-65v57q-23 -32 -61 -48.5t-82.5 -18.5t-87.5 11t-74 40q-30 26 -46.5 65t-16.5 91v303h66v-303q0 -75 43 -110.5t110 -35.5q33 0 67.5 15.5t58 48t23.5 82.5v303h65v-500zM543 -149q-29 -20 -60.5 -23.5t-58 5t-40.5 25.5q-16 23 -7.5 63.5t36.5 85.5h52
q-13 -14 -25 -36.5t-16 -44t7 -34.5q14 -18 40.5 -18.5t45.5 12.5z" />
    <glyph glyph-name="Wcircumflex" unicode="&#x174;" horiz-adv-x="1070" 
d="M1030 700l-218 -700h-87l-190 498l-188 -498h-87l-220 700h67l197 -624l195 502h73l195 -502l195 624h68zM413 769l101 111h42l101 -111h-62l-60 68l-60 -68h-62z" />
    <glyph glyph-name="wcircumflex" unicode="&#x175;" horiz-adv-x="879" 
d="M839 500l-169 -500h-90l-141 430l-139 -430h-91l-169 500h67l148 -434l144 434h82l145 -434l147 434h66zM317 569l101 111h42l101 -111h-62l-60 68l-60 -68h-62z" />
    <glyph glyph-name="Ycircumflex" unicode="&#x176;" horiz-adv-x="627" 
d="M587 700l-241 -465v-235h-65v235l-241 465h71l202 -396l203 396h71zM191 769l101 111h42l101 -111h-62l-60 68l-60 -68h-62z" />
    <glyph glyph-name="ycircumflex" unicode="&#x177;" horiz-adv-x="539" 
d="M112 -171v63q30 0 56.5 15t44.5 38.5t20 47.5l-193 507h72l161 -425l152 425h74l-183 -486q-20 -54 -47 -95.5t-65 -65t-92 -24.5zM148 571l101 111h42l101 -111h-62l-60 68l-60 -68h-62z" />
    <glyph glyph-name="Ydieresis" unicode="&#x178;" horiz-adv-x="627" 
d="M587 700l-241 -465v-235h-65v235l-241 465h71l202 -396l203 396h71zM228 778q-17 0 -29.5 12.5t-12.5 29.5t12.5 29t29.5 12t29 -12t12 -29t-12 -29.5t-29 -12.5zM407 778q-17 0 -29.5 12.5t-12.5 29.5t12.5 29t29.5 12t29.5 -12t12.5 -29t-12.5 -29.5t-29.5 -12.5z" />
    <glyph glyph-name="Zacute" unicode="&#x179;" horiz-adv-x="561" 
d="M521 0h-481v62l396 574h-391v64h471v-63l-395 -574h400v-63zM252 768h45l40 133h-59z" />
    <glyph glyph-name="zacute" unicode="&#x17a;" horiz-adv-x="470" 
d="M430 0h-390v55l306 383h-299v62h383v-59l-306 -379h306v-62zM206 570h45l40 133h-59z" />
    <glyph glyph-name="Zdotaccent" unicode="&#x17b;" horiz-adv-x="561" 
d="M521 0h-481v62l396 574h-391v64h471v-63l-395 -574h400v-63zM281 778q-17 0 -29.5 12.5t-12.5 29.5t12.5 29t29.5 12t29 -12t12 -29t-12 -29.5t-29 -12.5z" />
    <glyph glyph-name="zdotaccent" unicode="&#x17c;" horiz-adv-x="470" 
d="M430 0h-390v55l306 383h-299v62h383v-59l-306 -379h306v-62zM235 580q-17 0 -29.5 12.5t-12.5 29.5t12.5 29t29.5 12t29 -12t12 -29t-12 -29.5t-29 -12.5z" />
    <glyph glyph-name="Zcaron" unicode="&#x17d;" horiz-adv-x="561" 
d="M521 0h-481v62l396 574h-391v64h471v-63l-395 -574h400v-63zM260 769l-101 111h62l60 -68l60 68h62l-101 -111h-42z" />
    <glyph glyph-name="zcaron" unicode="&#x17e;" horiz-adv-x="470" 
d="M430 0h-390v55l306 383h-299v62h383v-59l-306 -379h306v-62zM214 571l-101 111h62l60 -68l60 68h62l-101 -111h-42z" />
    <glyph glyph-name="uni0218" unicode="&#x218;" horiz-adv-x="541" 
d="M269 -8q-65 0 -126 24t-103 59l51 47q41 -29 88 -46.5t88 -17.5q45 0 82.5 17t60.5 48.5t24 73.5q1 53 -37.5 84t-125.5 52q-65 16 -114.5 42.5t-76.5 66.5t-23 97q5 79 65 122t161 43q47 0 99 -10t95 -32l-42 -56q-36 15 -74 24t-77 9q-40 0 -76 -10.5t-59 -34
t-23 -63.5q0 -39 21 -63.5t57 -40t80 -27.5q71 -19 119.5 -41.5t73 -60t24.5 -101.5q0 -59 -32 -105t-84.5 -73t-115.5 -27zM217.256 -71.0957q0 18.1191 12.5107 31.0605q12.5107 12.9424 32.3545 12.9424q17.2559 0 29.7666 -14.2363q12.5107 -14.2354 11.6475 -32.3545
q-0.863281 -9.49023 -6.90234 -29.335t-15.0986 -42.708q-9.05957 -22.8643 -16.8252 -42.2773q-7.76465 -19.4121 -12.0781 -27.1777l-21.5703 9.49023q3.45117 6.04004 9.49023 22.002q6.04004 15.9609 11.6484 34.9434q5.60742 18.9805 8.19629 35.374
q-18.9814 0 -31.0605 12.5107q-12.0791 12.5098 -12.0791 29.7656z" />
    <glyph glyph-name="uni0219" unicode="&#x219;" horiz-adv-x="415" 
d="M40 54l39 44q33 -24 65.5 -36.5t64.5 -11.5q20 0 38.5 6t35.5 18q21 16 29 40t-1 47q-8 23 -29.5 37t-50 24t-58.5 19.5t-57 24.5q-47 27 -62.5 65t-4.5 75.5t44.5 64.5t84.5 32t101 -9t78 -40l-41 -41q-28 16 -59.5 24.5t-59.5 8.5q-35 -1 -59.5 -17t-27.5 -49
q-4 -31 16.5 -49t58 -31t84.5 -29q56 -20 85.5 -61t15.5 -102q-9 -50 -45.5 -78.5t-87 -35t-103 8t-94.5 51.5zM149.256 -71.0957q0 18.1191 12.5107 31.0605q12.5107 12.9424 32.3545 12.9424q17.2559 0 29.7666 -14.2363q12.5107 -14.2354 11.6475 -32.3545
q-0.863281 -9.49023 -6.90234 -29.335t-15.0986 -42.708q-9.05957 -22.8643 -16.8252 -42.2773q-7.76465 -19.4121 -12.0781 -27.1777l-21.5703 9.49023q3.45117 6.04004 9.49023 22.002q6.04004 15.9609 11.6484 34.9434q5.60742 18.9805 8.19629 35.374
q-18.9814 0 -31.0605 12.5107q-12.0791 12.5098 -12.0791 29.7656z" />
    <glyph glyph-name="uni021A" unicode="&#x21a;" horiz-adv-x="596" 
d="M556 640h-225v-640h-66v640h-225v60h516v-60zM252.256 -71.0957q0 18.1191 12.5107 31.0605q12.5107 12.9424 32.3545 12.9424q17.2559 0 29.7666 -14.2363q12.5107 -14.2354 11.6475 -32.3545q-0.863281 -9.49023 -6.90234 -29.335t-15.0986 -42.708
q-9.05957 -22.8643 -16.8252 -42.2773q-7.76465 -19.4121 -12.0781 -27.1777l-21.5703 9.49023q3.45117 6.04004 9.49023 22.002q6.04004 15.9609 11.6484 34.9434q5.60742 18.9805 8.19629 35.374q-18.9814 0 -31.0605 12.5107q-12.0791 12.5098 -12.0791 29.7656z" />
    <glyph glyph-name="uni021B" unicode="&#x21b;" horiz-adv-x="334" 
d="M131 212v227h-91v61h91v200h66v-200h92v-61h-92v-227q0 -65 2.5 -96.5t14 -42t41.5 -10.5h27v-66h-25q-43 0 -68 8.5t-37.5 31t-16.5 65t-4 110.5zM149.256 -71.0957q0 18.1191 12.5107 31.0605q12.5107 12.9424 32.3545 12.9424q17.2559 0 29.7666 -14.2363
q12.5107 -14.2354 11.6475 -32.3545q-0.863281 -9.49023 -6.90234 -29.335t-15.0986 -42.708q-9.05957 -22.8643 -16.8252 -42.2773q-7.76465 -19.4121 -12.0781 -27.1777l-21.5703 9.49023q3.45117 6.04004 9.49023 22.002q6.04004 15.9609 11.6484 34.9434
q5.60742 18.9805 8.19629 35.374q-18.9814 0 -31.0605 12.5107q-12.0791 12.5098 -12.0791 29.7656z" />
    <glyph glyph-name="uni0237" unicode="&#x237;" horiz-adv-x="223" 
d="M-30 -176v64q51 3 81.5 16.5t44 45.5t13.5 88v462h64v-462q0 -110 -50.5 -160.5t-152.5 -53.5z" />
    <glyph glyph-name="circumflex" unicode="&#x2c6;" horiz-adv-x="324" 
d="M40 589l101 111h42l101 -111h-62l-60 68l-60 -68h-62z" />
    <glyph glyph-name="ring" unicode="&#x2da;" horiz-adv-x="233" 
d="M116 581q-30 0 -53 22.5t-23 53.5t23 53.5t53 22.5q32 0 54.5 -22.5t22.5 -53.5t-22.5 -53.5t-54.5 -22.5zM116 698q-17 0 -28.5 -12t-11.5 -28q0 -19 11.5 -30.5t28.5 -11.5t29 12t12 30q0 16 -11.5 28t-29.5 12z" />
    <glyph glyph-name="tilde" unicode="&#x2dc;" horiz-adv-x="336" 
d="M218 598q-23 0 -38 15t-27 30t-27 16q-20 0 -30.5 -18.5t-10.5 -41.5h-45q0 47 25.5 75t61.5 28q22 0 34.5 -9t20.5 -21t15.5 -21t20.5 -9q16 0 24.5 17t8.5 41h45q0 -46 -19.5 -74t-58.5 -28z" />
    <glyph glyph-name="gravecomb" unicode="&#x300;" 
d="M125 606h-45l-40 133h59z" />
    <glyph glyph-name="acutecomb" unicode="&#x301;" 
d="M39 606h45l40 133h-59z" />
    <glyph glyph-name="uni0302" unicode="&#x302;" 
d="M40 589l101 111h42l101 -111h-62l-60 68l-60 -68h-62z" />
    <glyph glyph-name="tildecomb" unicode="&#x303;" 
d="M218 598q-23 0 -38 15t-27 30t-27 16q-20 0 -30.5 -18.5t-10.5 -41.5h-45q0 47 25.5 75t61.5 28q22 0 34.5 -9t20.5 -21t15.5 -21t20.5 -9q16 0 24.5 17t8.5 41h45q0 -46 -19.5 -74t-58.5 -28z" />
    <glyph glyph-name="uni0304" unicode="&#x304;" 
d="M290 652h-250v49h250v-49z" />
    <glyph glyph-name="uni0306" unicode="&#x306;" 
d="M153 585q-46 0 -78 33t-35 82h46q4 -32 21 -52.5t46 -20.5t47 20t22 53h45q-3 -51 -36 -83t-78 -32z" />
    <glyph glyph-name="uni0307" unicode="&#x307;" 
d="M82 616q-17 0 -29.5 12.5t-12.5 29.5t12.5 29t29.5 12t29 -12t12 -29t-12 -29.5t-29 -12.5z" />
    <glyph glyph-name="uni0308" unicode="&#x308;" 
d="M82 616q-17 0 -29.5 12.5t-12.5 29.5t12.5 29t29.5 12t29 -12t12 -29t-12 -29.5t-29 -12.5zM261 616q-17 0 -29.5 12.5t-12.5 29.5t12.5 29t29.5 12t29.5 -12t12.5 -29t-12.5 -29.5t-29.5 -12.5z" />
    <glyph glyph-name="uni030A" unicode="&#x30a;" 
d="M116 581q-30 0 -53 22.5t-23 53.5t23 53.5t53 22.5q32 0 54.5 -22.5t22.5 -53.5t-22.5 -53.5t-54.5 -22.5zM116 698q-17 0 -28.5 -12t-11.5 -28q0 -19 11.5 -30.5t28.5 -11.5t29 12t12 30q0 16 -11.5 28t-29.5 12z" />
    <glyph glyph-name="uni030B" unicode="&#x30b;" 
d="M39 606h45l40 133h-59zM140 607h45l40 133h-59z" />
    <glyph glyph-name="uni030C" unicode="&#x30c;" 
d="M141 589l-101 111h62l60 -68l60 68h62l-101 -111h-42z" />
    <glyph glyph-name="uni0312" unicode="&#x312;" 
d="M125.744 646.096q0 -18.1191 -12.5107 -31.0605q-12.5107 -12.9424 -32.3545 -12.9424q-17.2559 0 -29.7666 14.2363q-12.5107 14.2354 -11.6475 32.3545q0.863281 9.49023 6.90234 29.335t15.0986 42.708q9.05957 22.8643 16.8252 42.2773
q7.76465 19.4121 12.0781 27.1777l21.5703 -9.49023q-3.45117 -6.04004 -9.49023 -22.002q-6.04004 -15.9609 -11.6484 -34.9434q-5.60742 -18.9805 -8.19629 -35.374q18.9814 0 31.0605 -12.5107q12.0791 -12.5098 12.0791 -29.7656z" />
    <glyph glyph-name="uni0326" unicode="&#x326;" 
d="M40.2559 -71.0957q0 18.1191 12.5107 31.0605q12.5107 12.9424 32.3545 12.9424q17.2559 0 29.7666 -14.2363q12.5107 -14.2354 11.6475 -32.3545q-0.863281 -9.49023 -6.90234 -29.335t-15.0986 -42.708q-9.05957 -22.8643 -16.8252 -42.2773
q-7.76465 -19.4121 -12.0781 -27.1777l-21.5703 9.49023q3.45117 6.04004 9.49023 22.002q6.04004 15.9609 11.6484 34.9434q5.60742 18.9805 8.19629 35.374q-18.9814 0 -31.0605 12.5107q-12.0791 12.5098 -12.0791 29.7656z" />
    <glyph glyph-name="uni0327" unicode="&#x327;" 
d="M114 -188q-22 0 -42.5 10.5t-31.5 30.5l29 22q14 -21 38 -24t43 9.5t17 35.5q-2 25 -20.5 35t-41.5 7.5t-40 -17.5l-3 40l48 69l38 -13l-30 -42q38 1 60 -15t28.5 -40.5t-2 -49t-31.5 -41.5t-59 -17z" />
    <glyph glyph-name="uni0328" unicode="&#x328;" 
d="M209 -149q-29 -20 -60.5 -23.5t-58 5t-40.5 25.5q-16 23 -7.5 63.5t36.5 85.5h52q-13 -14 -25 -36.5t-16 -44t7 -34.5q14 -18 40.5 -18.5t45.5 12.5z" />
    <glyph glyph-name="uni0335" unicode="&#x335;" 
d="M420 289h-420v50h420v-50z" />
    <glyph glyph-name="uni0336" unicode="&#x336;" 
d="M601 289h-601v50h601v-50z" />
    <glyph glyph-name="uni0337" unicode="&#x337;" 
d="M442 564l-383 -564h-59l382 564h60z" />
    <glyph glyph-name="uni0338" unicode="&#x338;" 
d="M421 549l-321 -572h-60l320 572h61z" />
    <glyph glyph-name="Wgrave" unicode="&#x1e80;" horiz-adv-x="1070" 
d="M1030 700l-218 -700h-87l-190 498l-188 -498h-87l-220 700h67l197 -624l195 502h73l195 -502l195 624h68zM563 768h-45l-40 133h59z" />
    <glyph glyph-name="wgrave" unicode="&#x1e81;" horiz-adv-x="879" 
d="M839 500l-169 -500h-90l-141 430l-139 -430h-91l-169 500h67l148 -434l144 434h82l145 -434l147 434h66zM468 568h-45l-40 133h59z" />
    <glyph glyph-name="Wacute" unicode="&#x1e82;" horiz-adv-x="1070" 
d="M1030 700l-218 -700h-87l-190 498l-188 -498h-87l-220 700h67l197 -624l195 502h73l195 -502l195 624h68zM506 768h45l40 133h-59z" />
    <glyph glyph-name="wacute" unicode="&#x1e83;" horiz-adv-x="879" 
d="M839 500l-169 -500h-90l-141 430l-139 -430h-91l-169 500h67l148 -434l144 434h82l145 -434l147 434h66zM410 568h45l40 133h-59z" />
    <glyph glyph-name="Wdieresis" unicode="&#x1e84;" horiz-adv-x="1070" 
d="M1030 700l-218 -700h-87l-190 498l-188 -498h-87l-220 700h67l197 -624l195 502h73l195 -502l195 624h68zM449 778q-17 0 -29.5 12.5t-12.5 29.5t12.5 29t29.5 12t29 -12t12 -29t-12 -29.5t-29 -12.5zM628 778q-17 0 -29.5 12.5t-12.5 29.5t12.5 29t29.5 12t29.5 -12
t12.5 -29t-12.5 -29.5t-29.5 -12.5z" />
    <glyph glyph-name="wdieresis" unicode="&#x1e85;" horiz-adv-x="879" 
d="M839 500l-169 -500h-90l-141 430l-139 -430h-91l-169 500h67l148 -434l144 434h82l145 -434l147 434h66zM354 578q-17 0 -29.5 12.5t-12.5 29.5t12.5 29t29.5 12t29 -12t12 -29t-12 -29.5t-29 -12.5zM533 578q-17 0 -29.5 12.5t-12.5 29.5t12.5 29t29.5 12t29.5 -12
t12.5 -29t-12.5 -29.5t-29.5 -12.5z" />
    <glyph glyph-name="Ygrave" unicode="&#x1ef2;" horiz-adv-x="627" 
d="M587 700l-241 -465v-235h-65v235l-241 465h71l202 -396l203 396h71zM342 768h-45l-40 133h59z" />
    <glyph glyph-name="ygrave" unicode="&#x1ef3;" horiz-adv-x="539" 
d="M112 -171v63q30 0 56.5 15t44.5 38.5t20 47.5l-193 507h72l161 -425l152 425h74l-183 -486q-20 -54 -47 -95.5t-65 -65t-92 -24.5zM298 570h-45l-40 133h59z" />
    <glyph glyph-name="endash" unicode="&#x2013;" horiz-adv-x="595" 
d="M545 270h-495v60h495v-60z" />
    <glyph glyph-name="emdash" unicode="&#x2014;" horiz-adv-x="946" 
d="M926 270h-906v60h906v-60z" />
    <glyph glyph-name="quoteleft" unicode="&#x2018;" horiz-adv-x="150" 
d="M130 531q0 -21 -14.5 -36t-37.5 -15q-20 0 -34.5 16.5t-13.5 37.5q1 11 8 34t17.5 49.5t19.5 49t14 31.5l25 -11q-4 -7 -11 -25.5t-13.5 -40.5t-9.5 -41q22 0 36 -14.5t14 -34.5z" />
    <glyph glyph-name="quoteright" unicode="&#x2019;" horiz-adv-x="150" 
d="M20 649q0 21 14.5 36t37.5 15q20 0 34.5 -16.5t13.5 -37.5q-1 -11 -8 -34t-17.5 -49.5t-19.5 -49t-14 -31.5l-25 11q4 7 11 25.5t13.5 40.5t9.5 41q-22 0 -36 14.5t-14 34.5z" />
    <glyph glyph-name="quotesinglbase" unicode="&#x201a;" horiz-adv-x="140" 
d="M20 59q0 21 14.5 36t37.5 15q20 0 34.5 -16.5t13.5 -37.5q-1 -11 -8 -34t-17.5 -49.5t-19.5 -49t-14 -31.5l-25 11q4 7 11 25.5t13.5 40.5t9.5 41q-22 0 -36 14.5t-14 34.5z" />
    <glyph glyph-name="quotedblleft" unicode="&#x201c;" horiz-adv-x="290" 
d="M270 531q0 -21 -14.5 -36t-37.5 -15q-20 0 -34.5 16.5t-13.5 37.5q1 11 8 34t17.5 49.5t19.5 49t14 31.5l25 -11q-4 -7 -11 -25.5t-13.5 -40.5t-9.5 -41q22 0 36 -14.5t14 -34.5zM130 531q0 -21 -14.5 -36t-37.5 -15q-20 0 -34.5 16.5t-13.5 37.5q1 11 8 34t17.5 49.5
t19.5 49t14 31.5l25 -11q-4 -7 -11 -25.5t-13.5 -40.5t-9.5 -41q22 0 36 -14.5t14 -34.5z" />
    <glyph glyph-name="quotedblright" unicode="&#x201d;" horiz-adv-x="296" 
d="M20 649q0 21 14.5 36t37.5 15q20 0 34.5 -16.5t13.5 -37.5q-1 -11 -8 -34t-17.5 -49.5t-19.5 -49t-14 -31.5l-25 11q4 7 11 25.5t13.5 40.5t9.5 41q-22 0 -36 14.5t-14 34.5zM166 649q0 21 14.5 36t37.5 15q20 0 34.5 -16.5t13.5 -37.5q-1 -11 -8 -34t-17.5 -49.5
t-19.5 -49t-14 -31.5l-25 11q4 7 11 25.5t13.5 40.5t9.5 41q-22 0 -36 14.5t-14 34.5z" />
    <glyph glyph-name="quotedblbase" unicode="&#x201e;" horiz-adv-x="288" 
d="M168 59q0 21 14.5 36t37.5 15q20 0 34.5 -16.5t13.5 -37.5q-1 -11 -8 -34t-17.5 -49.5t-19.5 -49t-14 -31.5l-25 11q4 7 11 25.5t13.5 40.5t9.5 41q-22 0 -36 14.5t-14 34.5zM20 59q0 21 14.5 36t37.5 15q20 0 34.5 -16.5t13.5 -37.5q-1 -11 -8 -34t-17.5 -49.5
t-19.5 -49t-14 -31.5l-25 11q4 7 11 25.5t13.5 40.5t9.5 41q-22 0 -36 14.5t-14 34.5z" />
    <glyph glyph-name="dagger" unicode="&#x2020;" horiz-adv-x="360" 
d="M310 536h-99v-331h-62v331h-99v57h99v107h62v-106h99v-58z" />
    <glyph glyph-name="daggerdbl" unicode="&#x2021;" horiz-adv-x="360" 
d="M310 351h-99v-145h-62v143h-99v62h99v76h-99v60h99v154h62v-152h99v-62h-99v-76h99v-60z" />
    <glyph glyph-name="bullet" unicode="&#x2022;" horiz-adv-x="290" 
d="M145.996 220q-39.998 0 -67.998 27.999q-27.999 27.999 -27.999 65.998t27.999 65.998q28 27.999 67.998 27.999q37.999 2 65.998 -26.999t27.999 -66.998t-27.999 -66.998t-65.998 -26.999z" />
    <glyph glyph-name="ellipsis" unicode="&#x2026;" horiz-adv-x="582" 
d="M88 -7q-20 0 -34 14t-14 33t14 33t34 14q19 1 33 -13.5t14 -33.5t-14 -33.5t-33 -13.5zM295 -7q-20 0 -34 14t-14 33t14 33t34 14q19 1 33 -13.5t14 -33.5t-14 -33.5t-33 -13.5zM495 -7q-20 0 -34 14t-14 33t14 33t34 14q19 1 33 -13.5t14 -33.5t-14 -33.5t-33 -13.5z
" />
    <glyph glyph-name="perthousand" unicode="&#x2030;" horiz-adv-x="1216" 
d="M196 412q-42 0 -75 20t-52 53t-19 71q0 41 19 74t52.5 52t74.5 19t73.5 -19t51.5 -52t19 -74q0 -42 -20 -74.5t-53 -51t-71 -18.5zM236 -1l310 702h70l-310 -702h-70zM196 470q37 0 61.5 26.5t24.5 59.5q0 37 -25 62.5t-61 25.5q-38 0 -63 -25t-25 -63q0 -35 26 -60.5
t62 -25.5zM656 -4q-41 0 -74 20t-52 53t-19 71q0 41 19 74t52 52t74 19t74 -19t52 -52t19 -74q0 -42 -20 -74.5t-53 -51t-72 -18.5zM1022 -4q-42 0 -75 20t-52 53t-19 71q0 41 19 74t52 52t75 19q41 0 73.5 -19t51.5 -52t19 -74q0 -42 -20 -74.5t-53 -51t-71 -18.5zM656 53
q35 0 61 26t26 61t-25 61.5t-62 26.5q-38 0 -63 -25t-25 -63q0 -34 26.5 -60.5t61.5 -26.5zM1022 53q34 0 60 26t26 61t-25 61.5t-61 26.5q-39 0 -64 -25t-25 -63q0 -34 26 -60.5t63 -26.5z" />
    <glyph glyph-name="guilsinglleft" unicode="&#x2039;" horiz-adv-x="309" 
d="M269 61l-239 211l239 208v-73l-156 -138l156 -137v-71z" />
    <glyph glyph-name="guilsinglright" unicode="&#x203a;" horiz-adv-x="309" 
d="M40 61l239 211l-239 208v-73l156 -138l-156 -137v-71z" />
    <glyph glyph-name="fraction" unicode="&#x2044;" horiz-adv-x="270" 
d="M370 700l-403 -706h-47l402 706h48z" />
    <glyph glyph-name="uni2070" unicode="&#x2070;" horiz-adv-x="465" 
d="M377 314q-23 -32 -59.5 -51t-85.5 -19t-85 19t-60 51q-23 31 -35 73t-12 88q0 47 12 89t35 73q24 32 60 50.5t85 18.5t85.5 -19t59.5 -51q24 -31 36 -73t12 -88t-12 -88t-36 -73zM346 606q-18 26 -46.5 41t-67.5 15t-67.5 -15t-46.5 -41q-19 -25 -27 -59.5t-8 -71.5
t8 -71.5t26 -59.5q19 -27 47.5 -42t67.5 -15t67.5 15t46.5 42q18 25 26.5 59.5t8.5 71.5q0 38 -8 72t-27 59z" />
    <glyph glyph-name="uni2074" unicode="&#x2074;" horiz-adv-x="410" 
d="M370 373h-71v-126h-42v126h-217v44l180 287h79v-291h71v-40zM257 413v244h-21l-154 -244h175z" />
    <glyph glyph-name="uni2075" unicode="&#x2075;" horiz-adv-x="370" 
d="M177 244q-44 0 -75.5 13.5t-61.5 44.5l31 31q25 -25 48 -36t58 -11q29 0 54.5 14.5t41 39.5t15.5 55q0 37 -17.5 63.5t-44.5 38t-57.5 6t-56.5 -31.5l-43 17l20 215h232v-42h-190l-17 -134q56 28 105.5 16.5t80 -51t30.5 -97.5q0 -43 -21.5 -77t-56.5 -54t-75 -20z" />
    <glyph glyph-name="uni2076" unicode="&#x2076;" horiz-adv-x="387" 
d="M193 244q-42 0 -76.5 20t-55.5 54t-21 76q0 55 25 113t85 128q15 17 32 35.5t31 32.5h54q-48 -49 -85.5 -94t-66.5 -94q35 27 75 28.5t75.5 -17.5t58.5 -53.5t23 -78.5q0 -43 -21 -76.5t-56 -53.5t-77 -20zM195 286q29 0 54 14.5t40 39t15 54.5q0 45 -32 76t-77 31
t-77.5 -31t-32.5 -76q0 -30 15.5 -54.5t40.5 -39t54 -14.5z" />
    <glyph glyph-name="uni2077" unicode="&#x2077;" horiz-adv-x="327" 
d="M287 704l-1 -39l-132 -418h-48l133 413h-199v44h247z" />
    <glyph glyph-name="uni2078" unicode="&#x2078;" horiz-adv-x="381" 
d="M190 244q-41 0 -75 17t-54.5 47.5t-20.5 69.5q0 31 19.5 63.5t56.5 49.5q-28 17 -42 44.5t-14 50.5q0 34 18 61t48 43t64 16q37 0 66.5 -16t47.5 -43t18 -61q0 -23 -13.5 -50t-43.5 -45q38 -18 57 -50t19 -63q0 -39 -21 -69t-55 -47.5t-75 -17.5zM190 509q41 0 64.5 21
t23.5 56q0 37 -24.5 57.5t-63.5 20.5q-40 0 -63.5 -21t-23.5 -57t24.5 -56.5t62.5 -20.5zM190 286q46 0 77 24t31 68t-32 66.5t-76 22.5q-47 0 -77 -24t-30 -65q0 -43 30.5 -67.5t76.5 -24.5z" />
    <glyph glyph-name="uni2079" unicode="&#x2079;" horiz-adv-x="387" 
d="M194.243 706.9q41.6016 0 76.3779 -20.1514q34.7764 -20.1504 55.5771 -54.2764q20.8008 -34.127 20.8008 -75.7285q0 -54.6016 -25.0264 -112.779q-25.0254 -58.1768 -85.4775 -128.379q-14.3008 -17.5508 -31.5264 -35.752q-17.2256 -18.2002 -30.876 -31.8516
h-54.6025q48.752 48.752 86.1289 93.6035q37.376 44.8525 65.9766 94.2539q-27.3008 -22.1006 -58.8271 -27.3008q-31.5254 -5.2002 -62.0771 3.90039q-30.5508 9.09961 -55.5771 29.5762q-25.0254 20.4756 -39.9766 49.7266q-14.9502 29.251 -14.9502 65.002
q0 42.252 20.8008 76.0527q20.8008 33.8018 55.9023 53.9521q35.1016 20.1514 77.3525 20.1514zM192.293 663.998q-29.251 0 -54.2764 -14.625q-25.0264 -14.626 -39.9766 -39.002q-14.9512 -24.375 -14.9512 -53.627q0 -29.9004 14.626 -54.2764
q14.625 -24.376 39.6514 -38.3516t54.9268 -13.9756q29.9014 0 54.9277 13.9756q25.0254 13.9756 40.3008 38.0264t15.2754 54.6016q0 29.9014 -15.9248 54.2773q-15.9258 24.376 -40.9521 38.6768q-25.0254 14.2998 -53.627 14.2998z" />
    <glyph glyph-name="Euro" unicode="&#x20ac;" horiz-adv-x="548" 
d="M433 -5q-78 0 -145.5 32t-116.5 88.5t-69 131.5h-62v47h52q-5 30 -4.5 58.5t4.5 55.5h-52v47h62q21 75 70 131t116.5 87.5t144.5 31.5h65v-64h-65q-61 0 -113 -24t-90 -66t-57 -96h248v-47h-262q-6 -26 -6 -57t5 -57h263v-47h-250q20 -56 58.5 -98t91 -66t112.5 -24h65
v-64h-65z" />
    <glyph glyph-name="trademark" unicode="&#x2122;" horiz-adv-x="683" 
d="M643 348h-55v288h-15l-85 -234h-52l-85 234h-16v-288h-54v301h-85v-301h-54v301h-102v51h341l81 -224l80 224h101v-352z" />
    <glyph glyph-name="uni2150" unicode="&#x2150;" horiz-adv-x="809" 
d="M162 247h-43v410l-51 -46l-28 29l68 63h54v-456zM582 700l-403 -706h-47l402 706h48zM768 454l-1 -39l-132 -418h-48l133 413h-199v44h247z" />
    <glyph glyph-name="uni2151" unicode="&#x2151;" horiz-adv-x="868" 
d="M162 247h-43v410l-51 -46l-28 29l68 63h54v-456zM582 700l-403 -706h-47l402 706h48zM675.243 456.9q41.6016 0 76.3779 -20.1514q34.7764 -20.1504 55.5771 -54.2764q20.8008 -34.127 20.8008 -75.7285q0 -54.6016 -25.0264 -112.779
q-25.0254 -58.1768 -85.4775 -128.379q-14.3008 -17.5508 -31.5264 -35.752q-17.2256 -18.2002 -30.876 -31.8516h-54.6025q48.752 48.752 86.1289 93.6035q37.376 44.8525 65.9766 94.2539q-27.3008 -22.1006 -58.8271 -27.3008q-31.5254 -5.2002 -62.0771 3.90039
q-30.5508 9.09961 -55.5771 29.5762q-25.0254 20.4756 -39.9766 49.7266q-14.9502 29.251 -14.9502 65.002q0 42.252 20.8008 76.0527q20.8008 33.8018 55.9023 53.9521q35.1016 20.1514 77.3525 20.1514zM673.293 413.998q-29.251 0 -54.2764 -14.625
q-25.0264 -14.626 -39.9766 -39.002q-14.9512 -24.375 -14.9512 -53.627q0 -29.9004 14.626 -54.2764q14.625 -24.376 39.6514 -38.3516t54.9268 -13.9756q29.9014 0 54.9277 13.9756q25.0254 13.9756 40.3008 38.0264t15.2754 54.6016q0 29.9014 -15.9248 54.2773
q-15.9258 24.376 -40.9521 38.6768q-25.0254 14.2998 -53.627 14.2998z" />
    <glyph glyph-name="uni2152" unicode="&#x2152;" horiz-adv-x="1154" 
d="M162 247h-43v410l-51 -46l-28 29l68 63h54v-456zM582 700l-403 -706h-47l402 706h48zM643 -3h-43v410l-51 -46l-28 29l68 63h54v-456zM1066 64q-23 -32 -59.5 -51t-85.5 -19t-85 19t-60 51q-23 31 -35 73t-12 88q0 47 12 89t35 73q24 32 60 50.5t85 18.5t85.5 -19
t59.5 -51q24 -31 36 -73t12 -88t-12 -88t-36 -73zM1035 356q-18 26 -46.5 41t-67.5 15t-67.5 -15t-46.5 -41q-19 -25 -27 -59.5t-8 -71.5t8 -71.5t26 -59.5q19 -27 47.5 -42t67.5 -15t67.5 15t46.5 42q18 25 26.5 59.5t8.5 71.5q0 38 -8 72t-27 59z" />
    <glyph glyph-name="onethird" unicode="&#x2153;" horiz-adv-x="850" 
d="M162 247h-43v410l-51 -46l-28 29l68 63h54v-456zM582 700l-403 -706h-47l402 706h48zM662 -8q-49 0 -84.5 23.5t-56.5 63.5l43 13q16 -25 43 -41t55 -16q43 0 73.5 25.5t30.5 62.5q0 38 -30 65t-74 27h-41v35h42q42 0 68 24.5t26 58.5q0 36 -28 57.5t-63 21.5
q-31 0 -55.5 -17t-33.5 -49l-43 12q13 46 50.5 71.5t81.5 25.5q36 0 66.5 -15.5t49 -42.5t18.5 -64q0 -27 -12.5 -52.5t-46.5 -47.5q37 -20 52.5 -50t15.5 -60q0 -37 -20.5 -67t-54 -47t-72.5 -17z" />
    <glyph glyph-name="twothirds" unicode="&#x2154;" horiz-adv-x="1024" 
d="M43 247v38q0 35 14 55.5t37.5 34t52.5 27.5q64 32 107.5 69.5t48.5 82.5q3 30 -13.5 55t-44.5 40t-62 15q-41 0 -67 -16t-30 -54h-46q4 48 39 80.5t110 31.5q47 0 82.5 -20.5t55 -53.5t19.5 -71q0 -46 -24 -80t-64 -61t-87 -52q-30 -15 -48 -25.5t-26 -22t-8 -30.5h253
v-43h-299zM756 700l-403 -706h-47l402 706h48zM836 -8q-49 0 -84.5 23.5t-56.5 63.5l43 13q16 -25 43 -41t55 -16q43 0 73.5 25.5t30.5 62.5q0 38 -30 65t-74 27h-41v35h42q42 0 68 24.5t26 58.5q0 36 -28 57.5t-63 21.5q-31 0 -55.5 -17t-33.5 -49l-43 12q13 46 50.5 71.5
t81.5 25.5q36 0 66.5 -15.5t49 -42.5t18.5 -64q0 -27 -12.5 -52.5t-46.5 -47.5q37 -20 52.5 -50t15.5 -60q0 -37 -20.5 -67t-54 -47t-72.5 -17z" />
    <glyph glyph-name="uni2155" unicode="&#x2155;" horiz-adv-x="851" 
d="M162 247h-43v410l-51 -46l-28 29l68 63h54v-456zM582 700l-403 -706h-47l402 706h48zM658 -6q-44 0 -75.5 13.5t-61.5 44.5l31 31q25 -25 48 -36t58 -11q29 0 54.5 14.5t41 39.5t15.5 55q0 37 -17.5 63.5t-44.5 38t-57.5 6t-56.5 -31.5l-43 17l20 215h232v-42h-190
l-17 -134q56 28 105.5 16.5t80 -51t30.5 -97.5q0 -43 -21.5 -77t-56.5 -54t-75 -20z" />
    <glyph glyph-name="uni2156" unicode="&#x2156;" horiz-adv-x="1025" 
d="M43 247v38q0 35 14 55.5t37.5 34t52.5 27.5q64 32 107.5 69.5t48.5 82.5q3 30 -13.5 55t-44.5 40t-62 15q-41 0 -67 -16t-30 -54h-46q4 48 39 80.5t110 31.5q47 0 82.5 -20.5t55 -53.5t19.5 -71q0 -46 -24 -80t-64 -61t-87 -52q-30 -15 -48 -25.5t-26 -22t-8 -30.5h253
v-43h-299zM756 700l-403 -706h-47l402 706h48zM832 -6q-44 0 -75.5 13.5t-61.5 44.5l31 31q25 -25 48 -36t58 -11q29 0 54.5 14.5t41 39.5t15.5 55q0 37 -17.5 63.5t-44.5 38t-57.5 6t-56.5 -31.5l-43 17l20 215h232v-42h-190l-17 -134q56 28 105.5 16.5t80 -51t30.5 -97.5
q0 -43 -21.5 -77t-56.5 -54t-75 -20z" />
    <glyph glyph-name="uni2157" unicode="&#x2157;" horiz-adv-x="1008" 
d="M181 242q-49 0 -84.5 23.5t-56.5 63.5l43 13q16 -25 43 -41t55 -16q43 0 73.5 25.5t30.5 62.5q0 38 -30 65t-74 27h-41v35h42q42 0 68 24.5t26 58.5q0 36 -28 57.5t-63 21.5q-31 0 -55.5 -17t-33.5 -49l-43 12q13 46 50.5 71.5t81.5 25.5q36 0 66.5 -15.5t49 -42.5
t18.5 -64q0 -27 -12.5 -52.5t-46.5 -47.5q37 -20 52.5 -50t15.5 -60q0 -37 -20.5 -67t-54 -47t-72.5 -17zM738 700l-403 -706h-47l402 706h48zM815 -6q-44 0 -75.5 13.5t-61.5 44.5l31 31q25 -25 48 -36t58 -11q29 0 54.5 14.5t41 39.5t15.5 55q0 37 -17.5 63.5t-44.5 38
t-57.5 6t-56.5 -31.5l-43 17l20 215h232v-42h-190l-17 -134q56 28 105.5 16.5t80 -51t30.5 -97.5q0 -43 -21.5 -77t-56.5 -54t-75 -20z" />
    <glyph glyph-name="uni2158" unicode="&#x2158;" horiz-adv-x="1050" 
d="M370 373h-71v-126h-42v126h-217v44l180 287h79v-291h71v-40zM257 413v244h-21l-154 -244h175zM780 700l-403 -706h-47l402 706h48zM857 -6q-44 0 -75.5 13.5t-61.5 44.5l31 31q25 -25 48 -36t58 -11q29 0 54.5 14.5t41 39.5t15.5 55q0 37 -17.5 63.5t-44.5 38t-57.5 6
t-56.5 -31.5l-43 17l20 215h232v-42h-190l-17 -134q56 28 105.5 16.5t80 -51t30.5 -97.5q0 -43 -21.5 -77t-56.5 -54t-75 -20z" />
    <glyph glyph-name="uni2159" unicode="&#x2159;" horiz-adv-x="860" 
d="M162 247h-43v410l-51 -46l-28 29l68 63h54v-456zM582 700l-403 -706h-47l402 706h48zM666 -6q-42 0 -76.5 20t-55.5 54t-21 76q0 55 25 113t85 128q15 17 32 35.5t31 32.5h54q-48 -49 -85.5 -94t-66.5 -94q35 27 75 28.5t75.5 -17.5t58.5 -53.5t23 -78.5q0 -43 -21 -76.5
t-56 -53.5t-77 -20zM668 36q29 0 54 14.5t40 39t15 54.5q0 45 -32 76t-77 31t-77.5 -31t-32.5 -76q0 -30 15.5 -54.5t40.5 -39t54 -14.5z" />
    <glyph glyph-name="uni215A" unicode="&#x215a;" horiz-adv-x="1019" 
d="M177 244q-44 0 -75.5 13.5t-61.5 44.5l31 31q25 -25 48 -36t58 -11q29 0 54.5 14.5t41 39.5t15.5 55q0 37 -17.5 63.5t-44.5 38t-57.5 6t-56.5 -31.5l-43 17l20 215h232v-42h-190l-17 -134q56 28 105.5 16.5t80 -51t30.5 -97.5q0 -43 -21.5 -77t-56.5 -54t-75 -20z
M740 700l-403 -706h-47l402 706h48zM825 -6q-42 0 -76.5 20t-55.5 54t-21 76q0 55 25 113t85 128q15 17 32 35.5t31 32.5h54q-48 -49 -85.5 -94t-66.5 -94q35 27 75 28.5t75.5 -17.5t58.5 -53.5t23 -78.5q0 -43 -21 -76.5t-56 -53.5t-77 -20zM827 36q29 0 54 14.5t40 39
t15 54.5q0 45 -32 76t-77 31t-77.5 -31t-32.5 -76q0 -30 15.5 -54.5t40.5 -39t54 -14.5z" />
    <glyph glyph-name="oneeighth" unicode="&#x215b;" horiz-adv-x="863" 
d="M162 247h-43v410l-51 -46l-28 29l68 63h54v-456zM582 700l-403 -706h-47l402 706h48zM671 -6q-41 0 -75 17t-54.5 47.5t-20.5 69.5q0 31 19.5 63.5t56.5 49.5q-28 17 -42 44.5t-14 50.5q0 34 18 61t48 43t64 16q37 0 66.5 -16t47.5 -43t18 -61q0 -23 -13.5 -50t-43.5 -45
q38 -18 57 -50t19 -63q0 -39 -21 -69t-55 -47.5t-75 -17.5zM671 259q41 0 64.5 21t23.5 56q0 37 -24.5 57.5t-63.5 20.5q-40 0 -63.5 -21t-23.5 -57t24.5 -56.5t62.5 -20.5zM671 36q46 0 77 24t31 68t-32 66.5t-76 22.5q-47 0 -77 -24t-30 -65q0 -43 30.5 -67.5t76.5 -24.5z
" />
    <glyph glyph-name="threeeighths" unicode="&#x215c;" horiz-adv-x="1019" 
d="M181 242q-49 0 -84.5 23.5t-56.5 63.5l43 13q16 -25 43 -41t55 -16q43 0 73.5 25.5t30.5 62.5q0 38 -30 65t-74 27h-41v35h42q42 0 68 24.5t26 58.5q0 36 -28 57.5t-63 21.5q-31 0 -55.5 -17t-33.5 -49l-43 12q13 46 50.5 71.5t81.5 25.5q36 0 66.5 -15.5t49 -42.5
t18.5 -64q0 -27 -12.5 -52.5t-46.5 -47.5q37 -20 52.5 -50t15.5 -60q0 -37 -20.5 -67t-54 -47t-72.5 -17zM738 700l-403 -706h-47l402 706h48zM828 -6q-41 0 -75 17t-54.5 47.5t-20.5 69.5q0 31 19.5 63.5t56.5 49.5q-28 17 -42 44.5t-14 50.5q0 34 18 61t48 43t64 16
q37 0 66.5 -16t47.5 -43t18 -61q0 -23 -13.5 -50t-43.5 -45q38 -18 57 -50t19 -63q0 -39 -21 -69t-55 -47.5t-75 -17.5zM828 259q41 0 64.5 21t23.5 56q0 37 -24.5 57.5t-63.5 20.5q-40 0 -63.5 -21t-23.5 -57t24.5 -56.5t62.5 -20.5zM828 36q46 0 77 24t31 68t-32 66.5
t-76 22.5q-47 0 -77 -24t-30 -65q0 -43 30.5 -67.5t76.5 -24.5z" />
    <glyph glyph-name="fiveeighths" unicode="&#x215d;" horiz-adv-x="1021" 
d="M177 244q-44 0 -75.5 13.5t-61.5 44.5l31 31q25 -25 48 -36t58 -11q29 0 54.5 14.5t41 39.5t15.5 55q0 37 -17.5 63.5t-44.5 38t-57.5 6t-56.5 -31.5l-43 17l20 215h232v-42h-190l-17 -134q56 28 105.5 16.5t80 -51t30.5 -97.5q0 -43 -21.5 -77t-56.5 -54t-75 -20z
M740 700l-403 -706h-47l402 706h48zM830 -6q-41 0 -75 17t-54.5 47.5t-20.5 69.5q0 31 19.5 63.5t56.5 49.5q-28 17 -42 44.5t-14 50.5q0 34 18 61t48 43t64 16q37 0 66.5 -16t47.5 -43t18 -61q0 -23 -13.5 -50t-43.5 -45q38 -18 57 -50t19 -63q0 -39 -21 -69t-55 -47.5
t-75 -17.5zM830 259q41 0 64.5 21t23.5 56q0 37 -24.5 57.5t-63.5 20.5q-40 0 -63.5 -21t-23.5 -57t24.5 -56.5t62.5 -20.5zM830 36q46 0 77 24t31 68t-32 66.5t-76 22.5q-47 0 -77 -24t-30 -65q0 -43 30.5 -67.5t76.5 -24.5z" />
    <glyph glyph-name="seveneighths" unicode="&#x215e;" horiz-adv-x="978" 
d="M287 704l-1 -39l-132 -418h-48l133 413h-199v44h247zM697 700l-403 -706h-47l402 706h48zM787 -6q-41 0 -75 17t-54.5 47.5t-20.5 69.5q0 31 19.5 63.5t56.5 49.5q-28 17 -42 44.5t-14 50.5q0 34 18 61t48 43t64 16q37 0 66.5 -16t47.5 -43t18 -61q0 -23 -13.5 -50
t-43.5 -45q38 -18 57 -50t19 -63q0 -39 -21 -69t-55 -47.5t-75 -17.5zM787 259q41 0 64.5 21t23.5 56q0 37 -24.5 57.5t-63.5 20.5q-40 0 -63.5 -21t-23.5 -57t24.5 -56.5t62.5 -20.5zM787 36q46 0 77 24t31 68t-32 66.5t-76 22.5q-47 0 -77 -24t-30 -65q0 -43 30.5 -67.5
t76.5 -24.5z" />
    <glyph glyph-name="uni215F" unicode="&#x215f;" horiz-adv-x="481" 
d="M162 247h-43v410l-51 -46l-28 29l68 63h54v-456zM582 700l-403 -706h-47l402 706h48z" />
    <glyph glyph-name="uni2189" unicode="&#x2189;" horiz-adv-x="1103" 
d="M377 314q-23 -32 -59.5 -51t-85.5 -19t-85 19t-60 51q-23 31 -35 73t-12 88q0 47 12 89t35 73q24 32 60 50.5t85 18.5t85.5 -19t59.5 -51q24 -31 36 -73t12 -88t-12 -88t-36 -73zM346 606q-18 26 -46.5 41t-67.5 15t-67.5 -15t-46.5 -41q-19 -25 -27 -59.5t-8 -71.5
t8 -71.5t26 -59.5q19 -27 47.5 -42t67.5 -15t67.5 15t46.5 42q18 25 26.5 59.5t8.5 71.5q0 38 -8 72t-27 59zM835 700l-403 -706h-47l402 706h48zM916 -8q-49 0 -84.5 23.5t-56.5 63.5l43 13q16 -25 43 -41t55 -16q43 0 73.5 25.5t30.5 62.5q0 38 -30 65t-74 27h-41v35h42
q42 0 68 24.5t26 58.5q0 36 -28 57.5t-63 21.5q-31 0 -55.5 -17t-33.5 -49l-43 12q13 46 50.5 71.5t81.5 25.5q36 0 66.5 -15.5t49 -42.5t18.5 -64q0 -27 -12.5 -52.5t-46.5 -47.5q37 -20 52.5 -50t15.5 -60q0 -37 -20.5 -67t-54 -47t-72.5 -17z" />
    <glyph glyph-name="partialdiff" unicode="&#x2202;" horiz-adv-x="556" 
d="M250 -3q-65 8 -114.5 45.5t-75.5 93t-18 119.5q7 55 36 97t72 68t92 33t95.5 -6.5t82.5 -50.5q-39 89 -85 161.5t-99 142.5h74q62 -88 112 -170.5t76 -164.5t15 -168q-8 -65 -47.5 -112.5t-97 -71t-118.5 -16.5zM255 62q46 -5 87 12.5t69 51.5t34 79q5 47 -14 87
t-54.5 66t-81.5 30q-48 5 -88.5 -12.5t-66.5 -51.5t-32 -77q-6 -46 12.5 -86t53.5 -66.5t81 -32.5z" />
    <glyph glyph-name="emptyset" unicode="&#x2205;" horiz-adv-x="683" 
d="M341 38q-53 0 -101.5 18t-87.5 49l-52 -52l-44 43l52 53q-32 39 -50 88t-18 103q0 62 23.5 116.5t65 96t96 65t116.5 23.5q54 0 102 -17.5t87 -48.5l51 52l45 -43l-52 -52q33 -39 51 -88t18 -104q0 -63 -23 -117.5t-64.5 -96t-96.5 -65t-118 -23.5zM103 340
q0 -41 13 -78.5t37 -67.5l332 336q-30 23 -66.5 35.5t-77.5 12.5q-65 0 -119 -32t-86.5 -86t-32.5 -120zM341 101q66 0 120.5 32t87 86.5t32.5 120.5q0 41 -13.5 78.5t-37.5 68.5l-333 -337q30 -23 67 -36t77 -13z" />
    <glyph glyph-name="product" unicode="&#x220f;" horiz-adv-x="575" 
d="M535 642h-98v-743h-59v743h-170v-743h-58v743h-110v58h495v-58z" />
    <glyph glyph-name="summation" unicode="&#x2211;" horiz-adv-x="561" 
d="M516 -104h-471v62l238 340l-238 339v63h471v-60h-399l238 -342l-238 -342h399v-60z" />
    <glyph glyph-name="minus" unicode="&#x2212;" horiz-adv-x="571" 
d="M520.757 270h-470.256v60h470.256v-60z" />
    <glyph glyph-name="uni2215" unicode="&#x2215;" horiz-adv-x="496" 
d="M461 700l-367 -804h-59l366 804h60z" />
    <glyph glyph-name="radical" unicode="&#x221a;" horiz-adv-x="596" 
d="M551 642h-170l-162 -792h-88l-101 314h66l75 -238l158 774h222v-58z" />
    <glyph glyph-name="infinity" unicode="&#x221e;" horiz-adv-x="849" 
d="M809 284q0 -50 -23.5 -94.5t-66.5 -72.5t-101 -28q-33 0 -71.5 12.5t-71.5 37.5t-51 61q-17 -36 -50 -61t-71.5 -37.5t-71.5 -12.5q-56 0 -99 28.5t-67.5 73t-24.5 93.5q0 51 24.5 95.5t67.5 72.5t99 28q34 0 72.5 -12.5t71.5 -37.5t49 -63q17 38 50.5 63t72 37.5
t71.5 12.5q58 0 101 -28t66.5 -73t23.5 -95zM753 284q0 41 -18.5 72.5t-49 49.5t-67.5 18q-41 0 -78.5 -19t-62 -51t-24.5 -70q0 -37 25 -69t63 -51.5t77 -19.5q37 0 67.5 18.5t49 50.5t18.5 71zM396 284q0 38 -24 70t-61.5 51t-79.5 19q-37 0 -68 -18.5t-49 -50.5t-18 -71
q0 -40 19 -71.5t49.5 -50t66.5 -18.5q43 0 80.5 20t61 52t23.5 68z" />
    <glyph glyph-name="integral" unicode="&#x222b;" horiz-adv-x="557" 
d="M517 647h-69q-38 0 -59 -41.5t-36 -122.5t-37 -200q-18 -95 -34 -175.5t-36 -140t-51 -92.5t-80 -33h-75v60h69q31 0 52.5 31.5t37 86.5t28.5 127.5t28 154.5q14 82 27.5 155t32.5 129.5t49 88.5t78 32h75v-60z" />
    <glyph glyph-name="approxequal" unicode="&#x2248;" horiz-adv-x="587" 
d="M40 317q4 31 19.5 57.5t40.5 45.5q26 20 57.5 28t62.5 3q16 -2 37 -11.5t43.5 -21t42.5 -21t32 -11.5q37 -5 64 15t32 60h59q-4 -36 -23 -66t-49 -48.5t-65 -18.5q-33 0 -65 16t-62.5 32.5t-56.5 19.5q-40 3 -71.5 -19.5t-39.5 -59.5h-58zM57 125q4 31 19.5 57.5
t40.5 45.5q26 20 57.5 28t63.5 3q15 -2 36 -11.5t43.5 -21t42.5 -21t32 -11.5q38 -5 64.5 15t32.5 60h58q-3 -36 -22.5 -66t-49.5 -48.5t-65 -18.5q-33 0 -65 16t-62 32.5t-57 19.5q-40 3 -71.5 -19.5t-38.5 -59.5h-59z" />
    <glyph glyph-name="notequal" unicode="&#x2260;" horiz-adv-x="571" 
d="M158 107l42 88h-149v60h178l44 90h-222v60h250l49 101h63l-48 -101h156v-60h-185l-43 -90h228v-60h-257l-42 -88h-64z" />
    <glyph glyph-name="lessequal" unicode="&#x2264;" horiz-adv-x="506" 
d="M40 277l426 -133v67l-362 105l362 108v68l-426 -139v-76zM40 0h426v60h-426v-60z" />
    <glyph glyph-name="greaterequal" unicode="&#x2265;" horiz-adv-x="506" 
d="M466 277l-426 -133v67l362 105l-362 108v68l426 -139v-76zM466 0h-426v60h426v-60z" />
    <glyph glyph-name="lozenge" unicode="&#x25ca;" horiz-adv-x="535" 
d="M485 330l-181 -330h-74l-180 330l180 330h74zM417 330l-149 270l-150 -270l150 -269z" />
    <glyph glyph-name="slashlongcomb.case" horiz-adv-x="579" 
d="M50 -128v792h479v-792h-479zM477 -79v694h-375v-694h375z" />
    <glyph glyph-name="i.locl" horiz-adv-x="184" 
d="M124 0h-64v500h64v-500zM93 578q-17 0 -29.5 12.5t-12.5 29.5t12.5 29t29.5 12t29 -12t12 -29t-12 -29.5t-29 -12.5z" />
    <glyph glyph-name="zero.tf" horiz-adv-x="672" 
d="M559 101q-36 -49 -92 -77.5t-131 -28.5q-76 0 -131.5 28.5t-91.5 77.5t-54.5 113.5t-18.5 135.5q0 72 18 137t55 113q36 48 92 76.5t131 28.5t131 -29t92 -78q37 -49 55 -113t18 -135t-18 -135.5t-55 -113.5zM511 552q-27 40 -71.5 62.5t-103.5 22.5q-60 0 -104 -22.5
t-72 -62.5q-29 -40 -41.5 -92t-12.5 -110t12.5 -110t40.5 -92t72.5 -63.5t104.5 -23.5q59 0 103.5 23.5t71.5 63.5q29 40 41.5 92t12.5 110t-12.5 110.5t-41.5 91.5z" />
    <glyph glyph-name="one.tf" horiz-adv-x="672" 
d="M401 0h-66v630l-78 -71l-44 44l106 97h82v-700z" />
    <glyph glyph-name="two.tf" horiz-adv-x="673" 
d="M108 0v57q0 54 21.5 85.5t58 52.5t80.5 43q100 48 166.5 106.5t73.5 126.5q4 46 -20.5 84.5t-68 62t-95.5 23.5q-63 0 -102.5 -25t-46.5 -84h-71q4 50 29 89t74 62t126 23q73 0 127 -32t84 -82.5t30 -108.5q0 -71 -37 -123.5t-98.5 -94t-133.5 -80.5q-46 -24 -73 -39.5
t-39.5 -33t-12.5 -48.5h389v-64h-461z" />
    <glyph glyph-name="three.tf" horiz-adv-x="672" 
d="M334 -8q-77 0 -131 35.5t-87 97.5l65 20q25 -39 67 -63t86 -24q43 0 79 18t58 49t22 69t-21.5 70t-57.5 51t-80 19h-64v55h65q65 0 104 37t39 90q0 37 -19.5 64t-51.5 42.5t-67 15.5q-48 0 -86 -26.5t-52 -74.5l-66 17q13 47 44 80.5t72.5 51.5t87.5 18q55 0 102 -23.5
t75 -66t28 -98.5q0 -41 -19.5 -80t-71.5 -74q58 -30 81.5 -76.5t23.5 -91.5q0 -58 -31.5 -103.5t-82.5 -72t-111 -26.5z" />
    <glyph glyph-name="four.tf" horiz-adv-x="672" 
d="M584 194h-108v-194h-65v194h-334v67l277 441h122v-448h108v-60zM411 254v376h-32l-237 -376h269z" />
    <glyph glyph-name="five.tf" horiz-adv-x="672" 
d="M338 -6q-68 0 -116.5 21t-94.5 68l48 48q37 -38 73 -55t90 -17q45 0 84 22.5t62.5 60.5t23.5 84q0 59 -26.5 99t-68.5 58t-89 9t-87 -48l-66 26l33 330h355v-63h-292l-25 -207q64 32 123.5 30t106.5 -32.5t74 -82.5t27 -119q0 -65 -33 -117.5t-86.5 -83.5t-115.5 -31z
" />
    <glyph glyph-name="six.tf" horiz-adv-x="672" 
d="M339 -6q-64 0 -117.5 31t-85.5 83.5t-32 116.5q0 84 38.5 173.5t131.5 197.5q22 27 48.5 55t47.5 49h84q-75 -75 -132.5 -144t-101.5 -145q42 34 90.5 42t95.5 -6t85.5 -45.5t61.5 -76.5t23 -100q0 -65 -32 -117t-86 -83t-119 -31zM342 60q45 0 83.5 22.5t61.5 60
t23 82.5q0 46 -22.5 83.5t-61 59t-84.5 21.5t-84.5 -21.5t-62 -58.5t-23.5 -84q0 -46 24.5 -83.5t63 -59.5t82.5 -22z" />
    <glyph glyph-name="seven.tf" horiz-adv-x="672" 
d="M528 702l-1 -60l-204 -642h-73l204 635h-306v67h380z" />
    <glyph glyph-name="eight.tf" horiz-adv-x="672" 
d="M343 -5q-63 0 -115.5 26t-84 72.5t-31.5 106.5q0 48 30 98t88 77q-44 26 -66 68t-22 79q0 52 28 93.5t74 65.5t99 24q56 0 102 -24.5t73 -66t27 -92.5q0 -36 -20.5 -78t-66.5 -69q58 -28 87.5 -77t29.5 -98q0 -59 -32 -105.5t-84.5 -73t-115.5 -26.5zM343 402
q62 0 98.5 32.5t36.5 87.5q0 56 -37 87.5t-98 31.5t-97.5 -32.5t-36.5 -86.5q0 -57 38 -88.5t96 -31.5zM343 58q70 0 117.5 37t47.5 105q0 46 -22 77t-59.5 46.5t-83.5 15.5q-72 0 -118 -38t-46 -101q0 -66 46.5 -104t117.5 -38z" />
    <glyph glyph-name="nine.tf" horiz-adv-x="672" 
d="M340 706q64 0 117.5 -31t85.5 -83.5t32 -116.5q0 -84 -38.5 -173.5t-131.5 -197.5q-22 -27 -48.5 -55t-47.5 -49h-84q75 75 132.5 144t101.5 145q-42 -34 -90.5 -42t-95.5 6t-85.5 45.5t-61.5 76.5t-23 100q0 65 32 117t86 83t119 31zM337 640q-45 0 -83.5 -22.5
t-61.5 -60t-23 -82.5q0 -46 22.5 -83.5t61 -59t84.5 -21.5t84.5 21.5t62 58.5t23.5 84q0 46 -24.5 83.5t-63 59.5t-82.5 22z" />
    <glyph glyph-name="zero.dnom" horiz-adv-x="465" 
d="M377 64q-23 -32 -59.5 -51t-85.5 -19t-85 19t-60 51q-23 31 -35 73t-12 88q0 47 12 89t35 73q24 32 60 50.5t85 18.5t85.5 -19t59.5 -51q24 -31 36 -73t12 -88t-12 -88t-36 -73zM346 356q-18 26 -46.5 41t-67.5 15t-67.5 -15t-46.5 -41q-19 -25 -27 -59.5t-8 -71.5
t8 -71.5t26 -59.5q19 -27 47.5 -42t67.5 -15t67.5 15t46.5 42q18 25 26.5 59.5t8.5 71.5q0 38 -8 72t-27 59z" />
    <glyph glyph-name="one.dnom" horiz-adv-x="208" 
d="M162 -3h-43v410l-51 -46l-28 29l68 63h54v-456z" />
    <glyph glyph-name="two.dnom" horiz-adv-x="386" 
d="M43 -3v38q0 35 14 55.5t37.5 34t52.5 27.5q64 32 107.5 69.5t48.5 82.5q3 30 -13.5 55t-44.5 40t-62 15q-41 0 -67 -16t-30 -54h-46q4 48 39 80.5t110 31.5q47 0 82.5 -20.5t55 -53.5t19.5 -71q0 -46 -24 -80t-64 -61t-87 -52q-30 -15 -48 -25.5t-26 -22t-8 -30.5h253
v-43h-299z" />
    <glyph glyph-name="three.dnom" horiz-adv-x="368" 
d="M181 -8q-49 0 -84.5 23.5t-56.5 63.5l43 13q16 -25 43 -41t55 -16q43 0 73.5 25.5t30.5 62.5q0 38 -30 65t-74 27h-41v35h42q42 0 68 24.5t26 58.5q0 36 -28 57.5t-63 21.5q-31 0 -55.5 -17t-33.5 -49l-43 12q13 46 50.5 71.5t81.5 25.5q36 0 66.5 -15.5t49 -42.5
t18.5 -64q0 -27 -12.5 -52.5t-46.5 -47.5q37 -20 52.5 -50t15.5 -60q0 -37 -20.5 -67t-54 -47t-72.5 -17z" />
    <glyph glyph-name="four.dnom" horiz-adv-x="410" 
d="M370 123h-71v-126h-42v126h-217v44l180 287h79v-291h71v-40zM257 163v244h-21l-154 -244h175z" />
    <glyph glyph-name="five.dnom" horiz-adv-x="370" 
d="M177 -6q-44 0 -75.5 13.5t-61.5 44.5l31 31q25 -25 48 -36t58 -11q29 0 54.5 14.5t41 39.5t15.5 55q0 37 -17.5 63.5t-44.5 38t-57.5 6t-56.5 -31.5l-43 17l20 215h232v-42h-190l-17 -134q56 28 105.5 16.5t80 -51t30.5 -97.5q0 -43 -21.5 -77t-56.5 -54t-75 -20z" />
    <glyph glyph-name="six.dnom" horiz-adv-x="387" 
d="M193 -6q-42 0 -76.5 20t-55.5 54t-21 76q0 55 25 113t85 128q15 17 32 35.5t31 32.5h54q-48 -49 -85.5 -94t-66.5 -94q35 27 75 28.5t75.5 -17.5t58.5 -53.5t23 -78.5q0 -43 -21 -76.5t-56 -53.5t-77 -20zM195 36q29 0 54 14.5t40 39t15 54.5q0 45 -32 76t-77 31
t-77.5 -31t-32.5 -76q0 -30 15.5 -54.5t40.5 -39t54 -14.5z" />
    <glyph glyph-name="seven.dnom" horiz-adv-x="327" 
d="M287 454l-1 -39l-132 -418h-48l133 413h-199v44h247z" />
    <glyph glyph-name="eight.dnom" horiz-adv-x="381" 
d="M190 -6q-41 0 -75 17t-54.5 47.5t-20.5 69.5q0 31 19.5 63.5t56.5 49.5q-28 17 -42 44.5t-14 50.5q0 34 18 61t48 43t64 16q37 0 66.5 -16t47.5 -43t18 -61q0 -23 -13.5 -50t-43.5 -45q38 -18 57 -50t19 -63q0 -39 -21 -69t-55 -47.5t-75 -17.5zM190 259q41 0 64.5 21
t23.5 56q0 37 -24.5 57.5t-63.5 20.5q-40 0 -63.5 -21t-23.5 -57t24.5 -56.5t62.5 -20.5zM190 36q46 0 77 24t31 68t-32 66.5t-76 22.5q-47 0 -77 -24t-30 -65q0 -43 30.5 -67.5t76.5 -24.5z" />
    <glyph glyph-name="nine.dnom" horiz-adv-x="387" 
d="M194.243 456.9q41.6016 0 76.3779 -20.1514q34.7764 -20.1504 55.5771 -54.2764q20.8008 -34.127 20.8008 -75.7285q0 -54.6016 -25.0264 -112.779q-25.0254 -58.1768 -85.4775 -128.379q-14.3008 -17.5508 -31.5264 -35.752q-17.2256 -18.2002 -30.876 -31.8516
h-54.6025q48.752 48.752 86.1289 93.6035q37.376 44.8525 65.9766 94.2539q-27.3008 -22.1006 -58.8271 -27.3008q-31.5254 -5.2002 -62.0771 3.90039q-30.5508 9.09961 -55.5771 29.5762q-25.0254 20.4756 -39.9766 49.7266q-14.9502 29.251 -14.9502 65.002
q0 42.252 20.8008 76.0527q20.8008 33.8018 55.9023 53.9521q35.1016 20.1514 77.3525 20.1514zM192.293 413.998q-29.251 0 -54.2764 -14.625q-25.0264 -14.626 -39.9766 -39.002q-14.9512 -24.375 -14.9512 -53.627q0 -29.9004 14.626 -54.2764
q14.625 -24.376 39.6514 -38.3516t54.9268 -13.9756q29.9014 0 54.9277 13.9756q25.0254 13.9756 40.3008 38.0264t15.2754 54.6016q0 29.9014 -15.9248 54.2773q-15.9258 24.376 -40.9521 38.6768q-25.0254 14.2998 -53.627 14.2998z" />
    <glyph glyph-name="zero.numr" horiz-adv-x="465" 
d="M377 314q-23 -32 -59.5 -51t-85.5 -19t-85 19t-60 51q-23 31 -35 73t-12 88q0 47 12 89t35 73q24 32 60 50.5t85 18.5t85.5 -19t59.5 -51q24 -31 36 -73t12 -88t-12 -88t-36 -73zM346 606q-18 26 -46.5 41t-67.5 15t-67.5 -15t-46.5 -41q-19 -25 -27 -59.5t-8 -71.5
t8 -71.5t26 -59.5q19 -27 47.5 -42t67.5 -15t67.5 15t46.5 42q18 25 26.5 59.5t8.5 71.5q0 38 -8 72t-27 59z" />
    <glyph glyph-name="one.numr" horiz-adv-x="208" 
d="M162 247h-43v410l-51 -46l-28 29l68 63h54v-456z" />
    <glyph glyph-name="two.numr" horiz-adv-x="386" 
d="M43 247v38q0 35 14 55.5t37.5 34t52.5 27.5q64 32 107.5 69.5t48.5 82.5q3 30 -13.5 55t-44.5 40t-62 15q-41 0 -67 -16t-30 -54h-46q4 48 39 80.5t110 31.5q47 0 82.5 -20.5t55 -53.5t19.5 -71q0 -46 -24 -80t-64 -61t-87 -52q-30 -15 -48 -25.5t-26 -22t-8 -30.5h253
v-43h-299z" />
    <glyph glyph-name="three.numr" horiz-adv-x="368" 
d="M181 242q-49 0 -84.5 23.5t-56.5 63.5l43 13q16 -25 43 -41t55 -16q43 0 73.5 25.5t30.5 62.5q0 38 -30 65t-74 27h-41v35h42q42 0 68 24.5t26 58.5q0 36 -28 57.5t-63 21.5q-31 0 -55.5 -17t-33.5 -49l-43 12q13 46 50.5 71.5t81.5 25.5q36 0 66.5 -15.5t49 -42.5
t18.5 -64q0 -27 -12.5 -52.5t-46.5 -47.5q37 -20 52.5 -50t15.5 -60q0 -37 -20.5 -67t-54 -47t-72.5 -17z" />
    <glyph glyph-name="four.numr" horiz-adv-x="410" 
d="M370 373h-71v-126h-42v126h-217v44l180 287h79v-291h71v-40zM257 413v244h-21l-154 -244h175z" />
    <glyph glyph-name="five.numr" horiz-adv-x="370" 
d="M177 244q-44 0 -75.5 13.5t-61.5 44.5l31 31q25 -25 48 -36t58 -11q29 0 54.5 14.5t41 39.5t15.5 55q0 37 -17.5 63.5t-44.5 38t-57.5 6t-56.5 -31.5l-43 17l20 215h232v-42h-190l-17 -134q56 28 105.5 16.5t80 -51t30.5 -97.5q0 -43 -21.5 -77t-56.5 -54t-75 -20z" />
    <glyph glyph-name="six.numr" horiz-adv-x="387" 
d="M193 244q-42 0 -76.5 20t-55.5 54t-21 76q0 55 25 113t85 128q15 17 32 35.5t31 32.5h54q-48 -49 -85.5 -94t-66.5 -94q35 27 75 28.5t75.5 -17.5t58.5 -53.5t23 -78.5q0 -43 -21 -76.5t-56 -53.5t-77 -20zM195 286q29 0 54 14.5t40 39t15 54.5q0 45 -32 76t-77 31
t-77.5 -31t-32.5 -76q0 -30 15.5 -54.5t40.5 -39t54 -14.5z" />
    <glyph glyph-name="seven.numr" horiz-adv-x="327" 
d="M287 704l-1 -39l-132 -418h-48l133 413h-199v44h247z" />
    <glyph glyph-name="eight.numr" horiz-adv-x="381" 
d="M190 244q-41 0 -75 17t-54.5 47.5t-20.5 69.5q0 31 19.5 63.5t56.5 49.5q-28 17 -42 44.5t-14 50.5q0 34 18 61t48 43t64 16q37 0 66.5 -16t47.5 -43t18 -61q0 -23 -13.5 -50t-43.5 -45q38 -18 57 -50t19 -63q0 -39 -21 -69t-55 -47.5t-75 -17.5zM190 509q41 0 64.5 21
t23.5 56q0 37 -24.5 57.5t-63.5 20.5q-40 0 -63.5 -21t-23.5 -57t24.5 -56.5t62.5 -20.5zM190 286q46 0 77 24t31 68t-32 66.5t-76 22.5q-47 0 -77 -24t-30 -65q0 -43 30.5 -67.5t76.5 -24.5z" />
    <glyph glyph-name="nine.numr" horiz-adv-x="387" 
d="M194.243 706.9q41.6016 0 76.3779 -20.1514q34.7764 -20.1504 55.5771 -54.2764q20.8008 -34.127 20.8008 -75.7285q0 -54.6016 -25.0264 -112.779q-25.0254 -58.1768 -85.4775 -128.379q-14.3008 -17.5508 -31.5264 -35.752q-17.2256 -18.2002 -30.876 -31.8516
h-54.6025q48.752 48.752 86.1289 93.6035q37.376 44.8525 65.9766 94.2539q-27.3008 -22.1006 -58.8271 -27.3008q-31.5254 -5.2002 -62.0771 3.90039q-30.5508 9.09961 -55.5771 29.5762q-25.0254 20.4756 -39.9766 49.7266q-14.9502 29.251 -14.9502 65.002
q0 42.252 20.8008 76.0527q20.8008 33.8018 55.9023 53.9521q35.1016 20.1514 77.3525 20.1514zM192.293 663.998q-29.251 0 -54.2764 -14.625q-25.0264 -14.626 -39.9766 -39.002q-14.9512 -24.375 -14.9512 -53.627q0 -29.9004 14.626 -54.2764
q14.625 -24.376 39.6514 -38.3516t54.9268 -13.9756q29.9014 0 54.9277 13.9756q25.0254 13.9756 40.3008 38.0264t15.2754 54.6016q0 29.9014 -15.9248 54.2773q-15.9258 24.376 -40.9521 38.6768q-25.0254 14.2998 -53.627 14.2998z" />
    <glyph glyph-name="uni0338.aalt" 
d="M537 764l-477 -847h-60l476 847h61z" />
    </font>
</defs>
</svg>
