<svg width="520" height="520" viewBox="0 0 520 520" fill="none" xmlns="http://www.w3.org/2000/svg">
<g clip-path="url(#clip0_600_1577)">
<rect width="520" height="520" rx="80" fill="#29292E"/>
<rect width="520" height="520" rx="80" fill="url(#paint0_linear_600_1577)"/>
<path fill-rule="evenodd" clip-rule="evenodd" d="M247.988 25.356C233.214 27.6465 218.082 33.2005 218.828 36.3291C218.863 36.4768 218.932 36.6165 219.035 36.7483L225.331 107.744L225.441 107.723C225.44 107.847 225.455 107.968 225.488 108.087C225.527 108.226 225.589 108.359 225.673 108.486C211.547 113.629 204.873 117.399 204.414 119.977L204.153 120.05L205.325 204.71C189.246 210.386 174.595 216.664 174.504 220.914C174.499 221.158 174.575 221.383 174.729 221.59L177.459 313.04C177.31 313.598 177.24 314.163 177.254 314.736C177.266 315.212 177.348 315.644 177.499 316.033C151.974 324.243 135.73 330.754 133.826 335.334L133.671 335.379L133.673 335.839C133.636 336.038 133.628 336.232 133.65 336.423C133.656 336.478 133.665 336.532 133.676 336.584L134.202 451.464C134.097 451.784 134.042 452.101 134.038 452.415C134.037 452.529 134.049 452.638 134.076 452.742C121.089 457.969 113.178 462.114 111.776 464.838L111.419 464.943V575.309C92.54 582.374 81.6027 588.361 81.244 593.508L81 593.579L82.4622 635.787L435.512 636.155L438.42 489.475L438.051 489.582C436.582 486.815 427.842 486.979 413.47 489.418C413.78 488.611 413.939 487.808 413.941 487.008L413.941 486.987L413.94 486.964L414.146 486.903L414.722 376.909C414.863 376.493 414.88 376.106 414.77 375.75C413.705 372.332 401.085 373.69 380.518 378.283L381.442 263.485L380.743 263.687C377.571 261.443 362.468 264.004 339.823 269.546C340.143 268.571 339.955 267.789 339.727 267.132C339.721 267.115 339.715 267.099 339.709 267.082L337.914 176.462C338.25 175.111 337.754 174.027 337.05 173.132C335.825 171.58 325.779 172.389 308.619 175.832L307.454 92.6283C307.566 92.3119 307.581 92.0128 307.496 91.7317C307.481 91.6807 307.462 91.6307 307.439 91.582L307.433 91.1332L307.169 91.207C305.105 89.1601 294.625 89.778 279.278 92.9446L275.751 28.1929C276.066 27.7361 276.184 27.2939 276.084 26.8744C275.344 23.7458 262.763 23.0656 247.988 25.356ZM238.772 103.608C238.772 103.608 226.753 50.0833 248.535 46.9311C270.316 43.7783 268.568 96.3405 268.568 96.3405L238.772 103.608ZM220.103 200.02C220.103 200.02 210.86 145.121 232.773 143.006C254.691 140.89 250.24 194.131 250.24 194.131L220.103 200.02ZM205.738 237.342C183.826 239.793 193.068 303.547 193.068 303.547L223.2 296.708C223.2 296.708 227.651 234.886 205.738 237.342ZM256.606 222.751C234.689 225.207 243.937 288.956 243.937 288.956L274.068 282.122C274.068 282.122 278.514 220.3 256.606 222.751ZM293.005 274.37C293.005 274.37 283.767 210.617 305.685 208.16C327.597 205.709 323.136 267.531 323.136 267.531L293.005 274.37ZM153.652 438.57C153.652 438.57 144.404 361.664 166.317 358.704C188.235 355.738 183.784 430.325 183.784 430.325L153.652 438.57ZM212.461 423.58C212.461 423.58 203.219 346.674 225.131 343.708C247.044 340.748 242.593 415.334 242.593 415.334L212.461 423.58ZM268.347 407.671C268.347 407.671 259.099 330.76 281.017 327.8C302.93 324.834 298.484 399.421 298.484 399.421L268.347 407.671ZM326.49 384.609C326.49 384.609 317.242 307.698 339.155 304.738C361.072 301.778 356.622 376.359 356.622 376.359L326.49 384.609ZM135.865 562.918C135.865 562.918 126.617 486.006 148.535 483.041C170.447 480.086 165.997 554.672 165.997 554.672L135.865 562.918ZM192.727 550.589C192.727 550.589 183.484 473.677 205.397 470.712C227.315 467.757 222.864 542.333 222.864 542.333L192.727 550.589ZM249.405 532.544C249.405 532.544 240.163 455.632 262.075 452.677C283.993 449.712 279.542 524.298 279.542 524.298L249.405 532.544ZM305.895 515.606C305.895 515.606 296.653 438.695 318.565 435.74C340.478 432.775 336.032 507.356 336.032 507.356L305.895 515.606ZM358.706 496.371C358.706 496.371 349.458 419.459 371.37 416.494C393.283 413.534 388.837 488.115 388.837 488.115L358.706 496.371ZM380.476 620.986C380.476 620.986 374.12 536.706 396.091 534.124C422.585 531.016 415.064 622.372 415.064 622.372L380.476 620.986ZM324.995 622.603C324.995 622.603 315.421 550.247 337.334 547.282C359.246 544.327 355.462 621.621 355.462 621.621L324.995 622.603ZM266.72 626.739C266.72 626.739 257.257 569.279 279.17 566.318C301.093 563.353 295.724 625.532 295.724 625.532L266.72 626.739ZM158.249 624.707C158.465 604.359 161.068 592.592 172.483 591.049C184.786 589.385 190.213 603.493 191.346 623.789C187.598 624.825 177.073 624.719 168.68 624.634C164.063 624.587 160.092 624.547 158.249 624.707ZM210.829 625.022C211.044 604.663 214.005 583.045 225.425 581.497C237.722 579.838 244.152 603.808 245.291 624.104C241.551 625.137 230.516 625.03 221.735 624.945C216.861 624.898 212.682 624.857 210.829 625.022ZM107.279 623.841C108.608 608.353 111.273 601.688 120.17 600.48C129.981 599.158 133.162 606.495 135.167 622.608C123.426 623.904 110.852 624.146 107.279 623.841ZM265.634 189.255C265.634 189.255 259.981 130.393 281.894 128.278C303.806 126.163 294.732 179.22 294.732 179.22L265.634 189.255Z" fill="#29292E"/>
</g>
<defs>
<linearGradient id="paint0_linear_600_1577" x1="520" y1="250.733" x2="-11.6824" y2="304.453" gradientUnits="userSpaceOnUse">
<stop stop-color="#00C4B8"/>
<stop offset="1" stop-color="#0ACE88"/>
</linearGradient>
<clipPath id="clip0_600_1577">
<rect width="520" height="520" rx="80" fill="white"/>
</clipPath>
</defs>
</svg>
