<svg width="0" height="0" class="hidden">
  <symbol xmlns="http://www.w3.org/2000/svg" viewBox="0 0 30 30" id="facebook">
    <path d="M15 3.0615C8.373 3.0615 3 8.4345 3 15.0615C3 21.0775 7.432 26.0455 13.206 26.9135V18.2415H10.237V15.0875H13.206V12.9885C13.206 9.5135 14.899 7.9885 17.787 7.9885C19.17 7.9885 19.902 8.0915 20.248 8.1375V10.8905H18.278C17.052 10.8905 16.624 12.0535 16.624 13.3635V15.0875H20.217L19.73 18.2415H16.624V26.9385C22.481 26.1445 27 21.1365 27 15.0615C27 8.4345 21.627 3.0615 15 3.0615Z"></path>
  </symbol>
  <symbol xmlns="http://www.w3.org/2000/svg" viewBox="0 0 30 30" id="telegram">
    <path d="M26.5468 4.38318C26.1374 4.03602 25.4944 3.98634 24.8295 4.25326H24.8285C24.1292 4.53383 5.03537 12.7238 4.25808 13.0584C4.11671 13.1075 2.88199 13.5682 3.00918 14.5944C3.12271 15.5196 4.11507 15.9028 4.23625 15.947L9.09049 17.6091C9.41255 18.6812 10.5998 22.6364 10.8623 23.4814C11.0261 24.0081 11.293 24.7003 11.7608 24.8427C12.1713 25.001 12.5796 24.8564 12.8438 24.649L15.8116 21.8962L20.6025 25.6326L20.7166 25.7008C21.0419 25.8449 21.3536 25.917 21.6511 25.917C21.8809 25.917 22.1014 25.8739 22.3121 25.7876C23.0299 25.4929 23.317 24.8089 23.347 24.7314L26.9256 6.13044C27.144 5.137 26.8405 4.63154 26.5468 4.38318ZM13.3716 18.274L11.734 22.6408L10.0965 17.1823L22.6511 7.90282L13.3716 18.274Z"></path>
  </symbol>
  <symbol xmlns="http://www.w3.org/2000/svg" viewBox="0 0 30 30" id="twitter">
    <path d="M28 6.937C27.043 7.362 26.015 7.648 24.936 7.777C26.038 7.117 26.883 6.072 27.281 4.826C26.251 5.437 25.109 5.881 23.893 6.121C22.92 5.084 21.534 4.436 20 4.436C17.054 4.436 14.666 6.825 14.666 9.77C14.666 10.188 14.714 10.596 14.804 10.985C10.371 10.763 6.441 8.639 3.809 5.411C3.351 6.199 3.088 7.115 3.088 8.094C3.088 9.944 4.029 11.577 5.46 12.533C4.586 12.505 3.763 12.265 3.044 11.866C3.044 11.889 3.044 11.91 3.044 11.933C3.044 14.518 4.882 16.674 7.323 17.163C6.876 17.285 6.404 17.35 5.917 17.35C5.574 17.35 5.239 17.316 4.914 17.255C5.593 19.374 7.563 20.917 9.897 20.96C8.072 22.391 5.772 23.244 3.272 23.244C2.842 23.244 2.417 23.219 1.999 23.169C4.36 24.682 7.163 25.565 10.176 25.565C19.988 25.565 25.352 17.437 25.352 10.388C25.352 10.157 25.347 9.927 25.337 9.698C26.38 8.945 27.285 8.006 28 6.937Z"></path>
  </symbol>
  <symbol xmlns="http://www.w3.org/2000/svg" viewBox="0 0 80 24" id="arrow-moore">
    <path d="M76.172 11L70.808 5.636L72.222 4.222L80 12L72.222 19.778L70.808 18.364L76.172 13H0V11H76.172Z"></path>
  </symbol>
</svg>