<svg width="0" height="0" class="hidden">
  <symbol xmlns="http://www.w3.org/2000/svg" viewBox="0 0 30 30" id="github">
    <path d="M15 3.29622C8.37346 3.29622 3 8.66874 3 15.2963C3 20.5983 6.43837 25.0964 11.2064 26.6832C11.8061 26.7942 12.0263 26.4228 12.0263 26.1059C12.0263 25.8198 12.0151 24.8744 12.01 23.8717C8.67152 24.5976 7.96707 22.4558 7.96707 22.4558C7.42121 21.0688 6.6347 20.7 6.6347 20.7C5.54598 19.9552 6.71676 19.9705 6.71676 19.9705C7.9218 20.0552 8.55632 21.2071 8.55632 21.2071C9.62659 23.0417 11.3636 22.5113 12.0483 22.2047C12.156 21.429 12.4671 20.8997 12.8102 20.6001C10.1449 20.2966 7.34291 19.2676 7.34291 14.6696C7.34291 13.3595 7.81169 12.2889 8.57938 11.4486C8.45477 11.1463 8.04406 9.92583 8.69561 8.2729C8.69561 8.2729 9.70329 7.95037 11.9965 9.50297C12.9536 9.237 13.9802 9.10374 15 9.09922C16.0199 9.10374 17.0472 9.237 18.0062 9.50297C20.2967 7.95037 21.303 8.2729 21.303 8.2729C21.9561 9.92583 21.5452 11.1463 21.4206 11.4486C22.19 12.2889 22.6556 13.3594 22.6556 14.6696C22.6556 19.2785 19.8483 20.2935 17.1763 20.5905C17.6066 20.9629 17.9902 21.6932 17.9902 22.8127C17.9902 24.4183 17.9762 25.7106 17.9762 26.1059C17.9762 26.4252 18.1922 26.7994 18.8006 26.6816C23.566 25.093 27 20.5965 27 15.2963C27 8.66874 21.6273 3.29622 15 3.29622Z"></path>
    <path d="M7.49444 20.3906C7.46809 20.4502 7.37416 20.468 7.2888 20.4272C7.20174 20.388 7.1528 20.3067 7.18104 20.2469C7.20692 20.1855 7.30085 20.1684 7.38771 20.2096C7.47496 20.2487 7.52465 20.3307 7.49444 20.3906M8.08473 20.9172C8.0275 20.9703 7.9156 20.9457 7.83965 20.8618C7.76116 20.7781 7.74648 20.6663 7.80455 20.6124C7.86356 20.5594 7.97207 20.5842 8.05075 20.6679C8.12924 20.7525 8.14449 20.8637 8.08463 20.9173M8.4897 21.5911C8.4161 21.6422 8.29582 21.5943 8.22157 21.4876C8.14806 21.381 8.14806 21.253 8.22317 21.2017C8.29771 21.1504 8.4161 21.1965 8.49139 21.3024C8.5648 21.4109 8.5648 21.5389 8.4896 21.5912M9.17448 22.3716C9.10869 22.4441 8.96865 22.4247 8.86606 22.3257C8.76122 22.2289 8.73195 22.0916 8.79792 22.019C8.86446 21.9464 9.00535 21.9668 9.10869 22.065C9.21287 22.1615 9.24468 22.2999 9.17457 22.3716M10.0595 22.6351C10.0306 22.729 9.89567 22.7718 9.75977 22.7319C9.62406 22.6907 9.53522 22.5806 9.5626 22.4857C9.59084 22.3911 9.72636 22.3466 9.8633 22.3893C9.99882 22.4302 10.0879 22.5395 10.0596 22.6351M11.0669 22.7468C11.0703 22.8458 10.955 22.9279 10.8123 22.9297C10.6688 22.9328 10.5528 22.8527 10.5513 22.7554C10.5513 22.6554 10.6639 22.5741 10.8074 22.5718C10.95 22.569 11.0669 22.6485 11.0669 22.7468M12.0564 22.7089C12.0736 22.8055 11.9744 22.9047 11.8327 22.931C11.6934 22.9564 11.5645 22.8969 11.5467 22.8011C11.5294 22.7021 11.6305 22.603 11.7695 22.5773C11.9114 22.5527 12.0384 22.6107 12.0564 22.7089"></path>
  </symbol>
  <symbol xmlns="http://www.w3.org/2000/svg" viewBox="0 0 30 30" id="telegram">
    <path d="M26.5468 4.38318C26.1374 4.03602 25.4944 3.98634 24.8295 4.25326H24.8285C24.1292 4.53383 5.03537 12.7238 4.25808 13.0584C4.11671 13.1075 2.88199 13.5682 3.00918 14.5944C3.12271 15.5196 4.11507 15.9028 4.23625 15.947L9.09049 17.6091C9.41255 18.6812 10.5998 22.6364 10.8623 23.4814C11.0261 24.0081 11.293 24.7003 11.7608 24.8427C12.1713 25.001 12.5796 24.8564 12.8438 24.649L15.8116 21.8962L20.6025 25.6326L20.7166 25.7008C21.0419 25.8449 21.3536 25.917 21.6511 25.917C21.8809 25.917 22.1014 25.8739 22.3121 25.7876C23.0299 25.4929 23.317 24.8089 23.347 24.7314L26.9256 6.13044C27.144 5.137 26.8405 4.63154 26.5468 4.38318ZM13.3716 18.274L11.734 22.6408L10.0965 17.1823L22.6511 7.90282L13.3716 18.274Z"></path>
  </symbol>
  <symbol xmlns="http://www.w3.org/2000/svg" viewBox="0 0 30 30" id="twitter">
    <path d="M28 6.937C27.043 7.362 26.015 7.648 24.936 7.777C26.038 7.117 26.883 6.072 27.281 4.826C26.251 5.437 25.109 5.881 23.893 6.121C22.92 5.084 21.534 4.436 20 4.436C17.054 4.436 14.666 6.825 14.666 9.77C14.666 10.188 14.714 10.596 14.804 10.985C10.371 10.763 6.441 8.639 3.809 5.411C3.351 6.199 3.088 7.115 3.088 8.094C3.088 9.944 4.029 11.577 5.46 12.533C4.586 12.505 3.763 12.265 3.044 11.866C3.044 11.889 3.044 11.91 3.044 11.933C3.044 14.518 4.882 16.674 7.323 17.163C6.876 17.285 6.404 17.35 5.917 17.35C5.574 17.35 5.239 17.316 4.914 17.255C5.593 19.374 7.563 20.917 9.897 20.96C8.072 22.391 5.772 23.244 3.272 23.244C2.842 23.244 2.417 23.219 1.999 23.169C4.36 24.682 7.163 25.565 10.176 25.565C19.988 25.565 25.352 17.437 25.352 10.388C25.352 10.157 25.347 9.927 25.337 9.698C26.38 8.945 27.285 8.006 28 6.937Z"></path>
  </symbol>
  <symbol xmlns="http://www.w3.org/2000/svg" viewBox="0 0 80 24" id="arrow-moore">
    <path d="M76.172 11L70.808 5.636L72.222 4.222L80 12L72.222 19.778L70.808 18.364L76.172 13H0V11H76.172Z"></path>
  </symbol>
  <symbol xmlns="http://www.w3.org/2000/svg" viewBox="0 0 30 30" id="facebook">
    <path d="M15 3.0615C8.373 3.0615 3 8.4345 3 15.0615C3 21.0775 7.432 26.0455 13.206 26.9135V18.2415H10.237V15.0875H13.206V12.9885C13.206 9.5135 14.899 7.9885 17.787 7.9885C19.17 7.9885 19.902 8.0915 20.248 8.1375V10.8905H18.278C17.052 10.8905 16.624 12.0535 16.624 13.3635V15.0875H20.217L19.73 18.2415H16.624V26.9385C22.481 26.1445 27 21.1365 27 15.0615C27 8.4345 21.627 3.0615 15 3.0615Z"></path>
  </symbol>
</svg>