<svg width="0" height="0" class="hidden">
  <symbol xmlns="http://www.w3.org/2000/svg" viewBox="0 0 32 32" id="sc-telegram">
    <path d="M15.9993 29.3337C8.63535 29.3337 2.66602 23.3643 2.66602 16.0003C2.66602 8.63633 8.63535 2.66699 15.9993 2.66699C23.3633 2.66699 29.3327 8.63633 29.3327 16.0003C29.3327 23.3643 23.3633 29.3337 15.9993 29.3337ZM11.8527 17.5603L11.87 17.551L13.03 21.3777C13.1793 21.7923 13.3847 21.867 13.634 21.8323C13.8847 21.799 14.0167 21.6643 14.1807 21.507L15.7647 19.9763L19.1647 22.4937C19.786 22.8363 20.2327 22.659 20.3873 21.9177L22.5967 11.4883C22.8407 10.5177 22.414 10.1283 21.6607 10.4377L8.68335 15.451C7.79802 15.8057 7.80335 16.3017 8.52335 16.5217L11.8527 17.5617V17.5603Z"></path>
  </symbol>
  <symbol xmlns="http://www.w3.org/2000/svg" viewBox="0 0 32 32" id="sc-twitter">
    <path d="M29.5484 7.54124C28.5305 7.99149 27.451 8.2872 26.3458 8.41857C27.5108 7.72181 28.3827 6.62525 28.7991 5.33324C27.7058 5.9839 26.5071 6.4399 25.2578 6.68657C24.4186 5.78867 23.3062 5.19319 22.0937 4.99268C20.8812 4.79218 19.6363 4.99789 18.5528 5.57784C17.4692 6.15779 16.6076 7.07948 16.1019 8.19963C15.5962 9.31977 15.4748 10.5756 15.7564 11.7719C13.5392 11.6608 11.3702 11.0846 9.39014 10.0808C7.41008 9.07698 5.66326 7.66797 4.26309 5.94524C3.76748 6.7965 3.50703 7.7642 3.50843 8.74924C3.50843 10.6826 4.49243 12.3906 5.98843 13.3906C5.10311 13.3627 4.23727 13.1236 3.46309 12.6932V12.7626C3.46336 14.0502 3.90892 15.2981 4.72422 16.2946C5.53953 17.2912 6.6744 17.9752 7.93643 18.2306C7.11458 18.4533 6.25284 18.4861 5.41643 18.3266C5.77225 19.4349 6.46577 20.4042 7.39988 21.0987C8.334 21.7933 9.46193 22.1783 10.6258 22.1999C9.46907 23.1083 8.14466 23.7799 6.72827 24.1761C5.31187 24.5724 3.83126 24.6856 2.37109 24.5092C4.92002 26.1485 7.88722 27.0187 10.9178 27.0159C21.1751 27.0159 26.7844 18.5186 26.7844 11.1492C26.7844 10.9092 26.7778 10.6666 26.7671 10.4292C27.8589 9.64013 28.8012 8.66259 29.5498 7.54257L29.5484 7.54124Z"></path>
  </symbol>
  <symbol xmlns="http://www.w3.org/2000/svg" viewBox="0 0 30 30" id="telegram">
    <path d="M26.5468 4.38318C26.1374 4.03602 25.4944 3.98634 24.8295 4.25326H24.8285C24.1292 4.53383 5.03537 12.7238 4.25808 13.0584C4.11671 13.1075 2.88199 13.5682 3.00918 14.5944C3.12271 15.5196 4.11507 15.9028 4.23625 15.947L9.09049 17.6091C9.41255 18.6812 10.5998 22.6364 10.8623 23.4814C11.0261 24.0081 11.293 24.7003 11.7608 24.8427C12.1713 25.001 12.5796 24.8564 12.8438 24.649L15.8116 21.8962L20.6025 25.6326L20.7166 25.7008C21.0419 25.8449 21.3536 25.917 21.6511 25.917C21.8809 25.917 22.1014 25.8739 22.3121 25.7876C23.0299 25.4929 23.317 24.8089 23.347 24.7314L26.9256 6.13044C27.144 5.137 26.8405 4.63154 26.5468 4.38318ZM13.3716 18.274L11.734 22.6408L10.0965 17.1823L22.6511 7.90282L13.3716 18.274Z"></path>
  </symbol>
  <symbol xmlns="http://www.w3.org/2000/svg" viewBox="0 0 30 30" id="twitter">
    <path d="M28 6.937C27.043 7.362 26.015 7.648 24.936 7.777C26.038 7.117 26.883 6.072 27.281 4.826C26.251 5.437 25.109 5.881 23.893 6.121C22.92 5.084 21.534 4.436 20 4.436C17.054 4.436 14.666 6.825 14.666 9.77C14.666 10.188 14.714 10.596 14.804 10.985C10.371 10.763 6.441 8.639 3.809 5.411C3.351 6.199 3.088 7.115 3.088 8.094C3.088 9.944 4.029 11.577 5.46 12.533C4.586 12.505 3.763 12.265 3.044 11.866C3.044 11.889 3.044 11.91 3.044 11.933C3.044 14.518 4.882 16.674 7.323 17.163C6.876 17.285 6.404 17.35 5.917 17.35C5.574 17.35 5.239 17.316 4.914 17.255C5.593 19.374 7.563 20.917 9.897 20.96C8.072 22.391 5.772 23.244 3.272 23.244C2.842 23.244 2.417 23.219 1.999 23.169C4.36 24.682 7.163 25.565 10.176 25.565C19.988 25.565 25.352 17.437 25.352 10.388C25.352 10.157 25.347 9.927 25.337 9.698C26.38 8.945 27.285 8.006 28 6.937Z"></path>
  </symbol>
  <symbol xmlns="http://www.w3.org/2000/svg" viewBox="0 0 80 24" id="arrow-moore">
    <path d="M76.172 11L70.808 5.636L72.222 4.222L80 12L72.222 19.778L70.808 18.364L76.172 13H0V11H76.172Z"></path>
  </symbol>
  <symbol xmlns="http://www.w3.org/2000/svg" viewBox="0 0 30 30" id="facebook">
    <path d="M15 3.0615C8.373 3.0615 3 8.4345 3 15.0615C3 21.0775 7.432 26.0455 13.206 26.9135V18.2415H10.237V15.0875H13.206V12.9885C13.206 9.5135 14.899 7.9885 17.787 7.9885C19.17 7.9885 19.902 8.0915 20.248 8.1375V10.8905H18.278C17.052 10.8905 16.624 12.0535 16.624 13.3635V15.0875H20.217L19.73 18.2415H16.624V26.9385C22.481 26.1445 27 21.1365 27 15.0615C27 8.4345 21.627 3.0615 15 3.0615Z"></path>
  </symbol>
  <symbol xmlns="http://www.w3.org/2000/svg" viewBox="0 0 30 30" id="github">
    <path d="M15 3.29622C8.37346 3.29622 3 8.66874 3 15.2963C3 20.5983 6.43837 25.0964 11.2064 26.6832C11.8061 26.7942 12.0263 26.4228 12.0263 26.1059C12.0263 25.8198 12.0151 24.8744 12.01 23.8717C8.67152 24.5976 7.96707 22.4558 7.96707 22.4558C7.42121 21.0688 6.6347 20.7 6.6347 20.7C5.54598 19.9552 6.71676 19.9705 6.71676 19.9705C7.9218 20.0552 8.55632 21.2071 8.55632 21.2071C9.62659 23.0417 11.3636 22.5113 12.0483 22.2047C12.156 21.429 12.4671 20.8997 12.8102 20.6001C10.1449 20.2966 7.34291 19.2676 7.34291 14.6696C7.34291 13.3595 7.81169 12.2889 8.57938 11.4486C8.45477 11.1463 8.04406 9.92583 8.69561 8.2729C8.69561 8.2729 9.70329 7.95037 11.9965 9.50297C12.9536 9.237 13.9802 9.10374 15 9.09922C16.0199 9.10374 17.0472 9.237 18.0062 9.50297C20.2967 7.95037 21.303 8.2729 21.303 8.2729C21.9561 9.92583 21.5452 11.1463 21.4206 11.4486C22.19 12.2889 22.6556 13.3594 22.6556 14.6696C22.6556 19.2785 19.8483 20.2935 17.1763 20.5905C17.6066 20.9629 17.9902 21.6932 17.9902 22.8127C17.9902 24.4183 17.9762 25.7106 17.9762 26.1059C17.9762 26.4252 18.1922 26.7994 18.8006 26.6816C23.566 25.093 27 20.5965 27 15.2963C27 8.66874 21.6273 3.29622 15 3.29622Z"></path>
    <path d="M7.49444 20.3906C7.46809 20.4502 7.37416 20.468 7.2888 20.4272C7.20174 20.388 7.1528 20.3067 7.18104 20.2469C7.20692 20.1855 7.30085 20.1684 7.38771 20.2096C7.47496 20.2487 7.52465 20.3307 7.49444 20.3906M8.08473 20.9172C8.0275 20.9703 7.9156 20.9457 7.83965 20.8618C7.76116 20.7781 7.74648 20.6663 7.80455 20.6124C7.86356 20.5594 7.97207 20.5842 8.05075 20.6679C8.12924 20.7525 8.14449 20.8637 8.08463 20.9173M8.4897 21.5911C8.4161 21.6422 8.29582 21.5943 8.22157 21.4876C8.14806 21.381 8.14806 21.253 8.22317 21.2017C8.29771 21.1504 8.4161 21.1965 8.49139 21.3024C8.5648 21.4109 8.5648 21.5389 8.4896 21.5912M9.17448 22.3716C9.10869 22.4441 8.96865 22.4247 8.86606 22.3257C8.76122 22.2289 8.73195 22.0916 8.79792 22.019C8.86446 21.9464 9.00535 21.9668 9.10869 22.065C9.21287 22.1615 9.24468 22.2999 9.17457 22.3716M10.0595 22.6351C10.0306 22.729 9.89567 22.7718 9.75977 22.7319C9.62406 22.6907 9.53522 22.5806 9.5626 22.4857C9.59084 22.3911 9.72636 22.3466 9.8633 22.3893C9.99882 22.4302 10.0879 22.5395 10.0596 22.6351M11.0669 22.7468C11.0703 22.8458 10.955 22.9279 10.8123 22.9297C10.6688 22.9328 10.5528 22.8527 10.5513 22.7554C10.5513 22.6554 10.6639 22.5741 10.8074 22.5718C10.95 22.569 11.0669 22.6485 11.0669 22.7468M12.0564 22.7089C12.0736 22.8055 11.9744 22.9047 11.8327 22.931C11.6934 22.9564 11.5645 22.8969 11.5467 22.8011C11.5294 22.7021 11.6305 22.603 11.7695 22.5773C11.9114 22.5527 12.0384 22.6107 12.0564 22.7089"></path>
  </symbol>
  <symbol xmlns="http://www.w3.org/2000/svg" viewBox="0 0 32 32" id="sc-discord">
    <path d="M13.4347 14.667C14.2347 14.667 14.8827 15.267 14.868 16.0003C14.868 16.7337 14.236 17.3337 13.4347 17.3337C12.648 17.3337 12 16.7337 12 16.0003C12 15.267 12.6333 14.667 13.4347 14.667ZM18.5653 14.667C19.3667 14.667 20 15.267 20 16.0003C20 16.7337 19.3667 17.3337 18.5653 17.3337C17.7787 17.3337 17.132 16.7337 17.132 16.0003C17.132 15.267 17.764 14.667 18.5653 14.667ZM25.188 2.66699C26.7387 2.66699 28 3.95499 28 5.55099V30.667L25.052 28.007L23.392 26.439L21.636 24.7723L22.364 27.363H6.812C5.26133 27.363 4 26.075 4 24.479V5.55099C4 3.95499 5.26133 2.66699 6.812 2.66699H25.1867H25.188ZM19.8947 20.951C22.9253 20.8537 24.092 18.823 24.092 18.823C24.092 14.315 22.116 10.6603 22.116 10.6603C20.1427 9.14966 18.2627 9.19099 18.2627 9.19099L18.0707 9.41499C20.4027 10.143 21.4853 11.1937 21.4853 11.1937C20.2121 10.4763 18.8089 10.0194 17.3573 9.84966C16.4366 9.74566 15.5066 9.75462 14.588 9.87633C14.5053 9.87633 14.436 9.89099 14.3547 9.90433C13.8747 9.94699 12.708 10.1283 11.2413 10.787C10.7347 11.0243 10.432 11.1937 10.432 11.1937C10.432 11.1937 11.5707 10.087 14.0387 9.35899L13.9013 9.19099C13.9013 9.19099 12.0227 9.14966 10.048 10.6617C10.048 10.6617 8.07333 14.315 8.07333 18.823C8.07333 18.823 9.22533 20.8523 12.256 20.951C12.256 20.951 12.7627 20.3217 13.176 19.7897C11.4333 19.2563 10.776 18.1363 10.776 18.1363C10.776 18.1363 10.912 18.235 11.1587 18.375C11.172 18.3883 11.1853 18.403 11.2133 18.4163C11.2547 18.4457 11.296 18.459 11.3373 18.487C11.68 18.683 12.0227 18.8363 12.3373 18.963C12.9 19.187 13.572 19.411 14.3547 19.5657C15.5271 19.7955 16.7325 19.8 17.9067 19.579C18.5906 19.4569 19.2578 19.2551 19.8947 18.9777C20.3747 18.795 20.9093 18.5283 21.472 18.151C21.472 18.151 20.7867 19.299 18.9893 19.8177C19.4013 20.3497 19.896 20.951 19.896 20.951H19.8947Z"></path>
  </symbol>
</svg>